<svg width="590" height="523" viewBox="0 0 590 523" fill="none" xmlns="http://www.w3.org/2000/svg">
<g filter="url(#filter0_d_425_2)">
<rect x="19.7117" y="15.0282" width="550.431" height="484.008" rx="30" fill="white"/>
<rect x="12.2117" y="7.5282" width="565.431" height="499.008" rx="37.5" stroke="#E1DFDF" stroke-width="15"/>
</g>
<mask id="mask0_425_2" style="mask-type:alpha" maskUnits="userSpaceOnUse" x="19" y="15" width="552" height="485">
<rect x="19.7117" y="15.0282" width="550.431" height="484.008" rx="30" fill="white" fill-opacity="0.8"/>
</mask>
<g mask="url(#mask0_425_2)">
<path d="M-7.12964 463.266L422.415 323.901L169.894 -8.46765" stroke="#D73D3D" stroke-width="15"/>
<path d="M526.909 -9.45667L267.175 95.4514L581.301 511.725" stroke="#76CB84" stroke-width="15"/>
<circle cx="371.05" cy="51.4471" r="36.4189" fill="#D9D9D9"/>
<circle cx="371.05" cy="51.4472" r="30.8785" fill="#75CEF4"/>
<path d="M381.781 66.806H360.318V68.9789C360.318 70.179 359.357 71.1518 358.171 71.1518H353.878C352.693 71.1518 351.732 70.179 351.732 68.9789V49.423H349.586V40.7315H351.732V34.2128C351.732 31.8127 353.654 29.8671 356.025 29.8671H386.074C388.445 29.8671 390.367 31.8127 390.367 34.2128V40.7315H392.513V49.423H390.367V68.9789C390.367 70.179 389.406 71.1518 388.221 71.1518H383.928C382.742 71.1518 381.781 70.179 381.781 68.9789V66.806ZM356.025 34.2128V47.2501H386.074V34.2128H356.025ZM386.074 51.5959H356.025V62.4603H386.074V51.5959ZM361.391 60.2874C359.613 60.2874 358.171 58.8281 358.171 57.0281C358.171 55.2281 359.613 53.7688 361.391 53.7688C363.169 53.7688 364.61 55.2281 364.61 57.0281C364.61 58.8281 363.169 60.2874 361.391 60.2874ZM380.708 60.2874C378.93 60.2874 377.489 58.8281 377.489 57.0281C377.489 55.2281 378.93 53.7688 380.708 53.7688C382.486 53.7688 383.928 55.2281 383.928 57.0281C383.928 58.8281 382.486 60.2874 380.708 60.2874Z" fill="black"/>
<path d="M510.954 276.011L608.349 255.062V362.702L510.954 389.404V276.011Z" fill="#CCCCCC"/>
<path d="M470.604 223.336L512.585 275.234V387.904L470.604 336.006V223.336Z" fill="#EBEBEB"/>
<path d="M470.615 224.022L558.208 208.857L611.406 255.324L512.348 276.287L470.615 224.022Z" fill="#DEDEDE"/>
<path d="M113.471 64.9227L197.039 49.6895V117.686L113.471 136.553V64.9227Z" fill="#B5B5B5"/>
<path d="M94.8987 23.8806L114.084 65.535V135.542L94.8987 93.8877V23.8806Z" fill="#EBEBEB"/>
<path d="M94.908 24.5273L168.321 13.0282L196.907 50.4967L113.885 65.6279L94.908 24.5273Z" fill="#D8D8D8"/>
<path d="M381.484 130.24L453.052 113.007V181.003L381.484 201.871V130.24Z" fill="#C2C2C2"/>
<path d="M351.911 93.1978L382.096 130.852V200.859L351.911 163.205V93.1978Z" fill="#EBEBEB"/>
<path d="M351.92 92.8443L413.333 78.3452L452.919 112.814L381.897 130.945L351.92 92.8443Z" fill="#DEDEDE"/>
<path d="M268.824 251.447L357.794 229.916V314.872L268.824 340.945V251.447Z" fill="#D9D9D9"/>
<path d="M239.061 205.166L269.585 252.212V339.681L239.061 292.635V205.166Z" fill="#EBEBEB"/>
<path d="M238.573 204.081L319.154 184.557L357.847 230.35L269.101 251.294L238.573 204.081Z" fill="#EDECEC"/>
<g filter="url(#filter1_d_425_2)">
<circle cx="118.098" cy="418.174" r="20.0862" fill="#767575"/>
</g>
<g filter="url(#filter2_d_425_2)">
<circle cx="423.71" cy="314.347" r="20.0862" fill="#767575"/>
</g>
<g filter="url(#filter3_d_425_2)">
<circle cx="262.875" cy="97.4214" r="20.0862" fill="#767575"/>
</g>
<circle cx="263.266" cy="376.166" r="44.801" fill="#D9D9D9"/>
<circle cx="263.266" cy="376.166" r="37.9854" fill="#75CEF4"/>
<path d="M276.468 395.06H250.064V397.733C250.064 399.209 248.882 400.406 247.424 400.406H242.143C240.685 400.406 239.503 399.209 239.503 397.733V373.676H236.863V362.984H239.503V354.965C239.503 352.012 241.867 349.619 244.784 349.619H281.749C284.666 349.619 287.03 352.012 287.03 354.965V362.984H289.67V373.676H287.03V397.733C287.03 399.209 285.848 400.406 284.39 400.406H279.109C277.65 400.406 276.468 399.209 276.468 397.733V395.06ZM244.784 354.965V371.003H281.749V354.965H244.784ZM281.749 376.349H244.784V389.714H281.749V376.349ZM251.385 387.041C249.197 387.041 247.424 385.246 247.424 383.031C247.424 380.817 249.197 379.022 251.385 379.022C253.572 379.022 255.345 380.817 255.345 383.031C255.345 385.246 253.572 387.041 251.385 387.041ZM275.148 387.041C272.961 387.041 271.188 385.246 271.188 383.031C271.188 380.817 272.961 379.022 275.148 379.022C277.335 379.022 279.109 380.817 279.109 383.031C279.109 385.246 277.335 387.041 275.148 387.041Z" fill="black"/>
<g filter="url(#filter4_d_425_2)">
<path d="M76.6704 169.5C76.6704 163.977 81.1476 159.5 86.6704 159.5H293.943C299.466 159.5 303.943 163.977 303.943 169.5V276.773C303.943 282.296 299.466 286.773 293.943 286.773H86.6704C81.1476 286.773 76.6704 282.296 76.6704 276.773V169.5Z" fill="white"/>
<path d="M268.431 279.973H216.158L254.795 345.882L268.431 279.973Z" fill="white"/>
</g>
<path d="M75.415 169.5C75.415 163.977 79.8922 159.5 85.415 159.5H293.943C299.466 159.5 303.943 163.977 303.943 169.5V205.408H75.415V169.5Z" fill="#75CEF4"/>
<path d="M97.1437 194.226L106.902 174.922V174.751H95.6522V172.408H109.63V174.879L99.9136 194.226H97.1437ZM120.248 194.524C118.643 194.524 117.276 194.087 116.147 193.214C115.017 192.333 114.155 191.058 113.558 189.389C112.961 187.713 112.663 185.689 112.663 183.317C112.663 180.959 112.961 178.945 113.558 177.276C114.162 175.6 115.028 174.322 116.157 173.441C117.294 172.553 118.657 172.109 120.248 172.109C121.839 172.109 123.199 172.553 124.329 173.441C125.465 174.322 126.331 175.6 126.928 177.276C127.532 178.945 127.834 180.959 127.834 183.317C127.834 185.689 127.535 187.713 126.939 189.389C126.342 191.058 125.479 192.333 124.35 193.214C123.221 194.087 121.853 194.524 120.248 194.524ZM120.248 192.18C121.839 192.18 123.075 191.413 123.956 189.879C124.836 188.345 125.277 186.158 125.277 183.317C125.277 181.428 125.074 179.819 124.669 178.491C124.272 177.163 123.696 176.151 122.944 175.455C122.198 174.759 121.299 174.41 120.248 174.41C118.672 174.41 117.439 175.188 116.552 176.744C115.664 178.292 115.22 180.483 115.22 183.317C115.22 185.206 115.419 186.811 115.816 188.132C116.214 189.453 116.786 190.458 117.532 191.147C118.285 191.836 119.19 192.18 120.248 192.18ZM155.618 179.226C155.383 178.509 155.074 177.866 154.691 177.298C154.314 176.722 153.863 176.232 153.338 175.827C152.819 175.423 152.23 175.114 151.569 174.901C150.909 174.687 150.184 174.581 149.396 174.581C148.103 174.581 146.928 174.915 145.87 175.582C144.812 176.25 143.97 177.234 143.345 178.533C142.72 179.833 142.407 181.428 142.407 183.317C142.407 185.206 142.723 186.8 143.356 188.1C143.988 189.4 144.843 190.384 145.923 191.051C147.003 191.719 148.217 192.053 149.566 192.053C150.816 192.053 151.917 191.786 152.869 191.254C153.828 190.714 154.574 189.954 155.106 188.974C155.646 187.986 155.916 186.825 155.916 185.49L156.726 185.66H150.163V183.317H158.473V185.66C158.473 187.457 158.089 189.02 157.322 190.348C156.562 191.676 155.511 192.706 154.169 193.437C152.834 194.162 151.299 194.524 149.566 194.524C147.635 194.524 145.937 194.07 144.474 193.16C143.018 192.251 141.882 190.959 141.065 189.283C140.255 187.607 139.851 185.618 139.851 183.317C139.851 181.591 140.081 180.039 140.543 178.661C141.012 177.276 141.672 176.097 142.525 175.124C143.377 174.151 144.385 173.406 145.55 172.887C146.715 172.369 147.997 172.109 149.396 172.109C150.547 172.109 151.619 172.283 152.613 172.631C153.615 172.972 154.506 173.459 155.287 174.091C156.076 174.716 156.733 175.465 157.258 176.339C157.784 177.205 158.146 178.168 158.345 179.226H155.618ZM162.657 194.226V177.862H165.086V180.334H165.256C165.555 179.524 166.094 178.867 166.876 178.363C167.657 177.859 168.538 177.607 169.518 177.607C169.702 177.607 169.933 177.61 170.21 177.617C170.487 177.624 170.697 177.635 170.839 177.649V180.206C170.753 180.185 170.558 180.153 170.253 180.11C169.954 180.06 169.638 180.035 169.305 180.035C168.509 180.035 167.799 180.202 167.174 180.536C166.556 180.863 166.066 181.317 165.704 181.9C165.349 182.475 165.171 183.132 165.171 183.871V194.226H162.657ZM178.634 194.609C177.597 194.609 176.656 194.414 175.811 194.023C174.966 193.626 174.295 193.054 173.798 192.308C173.3 191.555 173.052 190.646 173.052 189.581C173.052 188.643 173.237 187.884 173.606 187.301C173.975 186.712 174.469 186.25 175.087 185.916C175.705 185.582 176.386 185.334 177.132 185.17C177.885 185 178.641 184.865 179.401 184.766C180.396 184.638 181.202 184.542 181.82 184.478C182.445 184.407 182.899 184.29 183.183 184.126C183.474 183.963 183.62 183.679 183.62 183.274V183.189C183.62 182.138 183.332 181.321 182.757 180.739C182.189 180.156 181.326 179.865 180.168 179.865C178.968 179.865 178.027 180.128 177.345 180.653C176.663 181.179 176.184 181.74 175.907 182.337L173.521 181.484C173.947 180.49 174.515 179.716 175.225 179.162C175.943 178.601 176.724 178.21 177.569 177.99C178.421 177.763 179.259 177.649 180.083 177.649C180.609 177.649 181.212 177.713 181.894 177.841C182.583 177.962 183.247 178.214 183.886 178.597C184.533 178.981 185.069 179.56 185.495 180.334C185.921 181.108 186.134 182.145 186.134 183.445V194.226H183.62V192.01H183.492C183.322 192.365 183.038 192.745 182.64 193.15C182.242 193.555 181.713 193.899 181.053 194.183C180.392 194.467 179.586 194.609 178.634 194.609ZM179.018 192.351C180.012 192.351 180.85 192.156 181.532 191.765C182.221 191.374 182.739 190.87 183.087 190.252C183.443 189.634 183.62 188.984 183.62 188.303V186.001C183.514 186.129 183.279 186.246 182.917 186.353C182.562 186.452 182.15 186.541 181.681 186.619C181.22 186.69 180.769 186.754 180.328 186.811C179.895 186.861 179.543 186.903 179.274 186.939C178.62 187.024 178.009 187.163 177.441 187.354C176.88 187.539 176.425 187.82 176.077 188.196C175.737 188.565 175.566 189.07 175.566 189.709C175.566 190.582 175.889 191.243 176.536 191.69C177.189 192.131 178.016 192.351 179.018 192.351ZM193.237 184.382V194.226H190.723V177.862H193.152V180.419H193.365C193.749 179.588 194.331 178.92 195.112 178.416C195.894 177.905 196.902 177.649 198.138 177.649C199.246 177.649 200.215 177.876 201.046 178.331C201.877 178.778 202.524 179.46 202.985 180.376C203.447 181.285 203.678 182.436 203.678 183.828V194.226H201.164V183.999C201.164 182.713 200.83 181.712 200.162 180.994C199.495 180.27 198.578 179.908 197.414 179.908C196.611 179.908 195.894 180.082 195.262 180.43C194.637 180.778 194.143 181.285 193.781 181.953C193.419 182.621 193.237 183.43 193.237 184.382ZM214.451 194.567C213.087 194.567 211.884 194.222 210.84 193.533C209.796 192.837 208.979 191.857 208.389 190.593C207.8 189.322 207.505 187.82 207.505 186.087C207.505 184.368 207.8 182.876 208.389 181.612C208.979 180.348 209.799 179.371 210.85 178.683C211.901 177.994 213.116 177.649 214.494 177.649C215.559 177.649 216.401 177.827 217.019 178.182C217.644 178.53 218.119 178.928 218.446 179.375C218.78 179.815 219.039 180.178 219.224 180.462H219.437V172.408H221.951V194.226H219.522V191.712H219.224C219.039 192.01 218.776 192.386 218.435 192.841C218.095 193.288 217.608 193.69 216.976 194.045C216.344 194.393 215.502 194.567 214.451 194.567ZM214.792 192.308C215.8 192.308 216.653 192.045 217.349 191.52C218.045 190.987 218.574 190.252 218.936 189.315C219.298 188.37 219.479 187.28 219.479 186.044C219.479 184.822 219.302 183.754 218.947 182.837C218.592 181.914 218.066 181.197 217.37 180.685C216.674 180.167 215.815 179.908 214.792 179.908C213.727 179.908 212.839 180.181 212.129 180.728C211.425 181.268 210.896 182.003 210.541 182.933C210.193 183.857 210.019 184.893 210.019 186.044C210.019 187.209 210.197 188.267 210.552 189.219C210.914 190.163 211.447 190.916 212.15 191.477C212.86 192.031 213.741 192.308 214.792 192.308Z" fill="white"/>
<path d="M126.444 257.331C125.194 257.331 124.068 257.082 123.067 256.585C122.065 256.088 121.263 255.406 120.659 254.539C120.055 253.673 119.725 252.686 119.668 251.578H122.225C122.324 252.565 122.772 253.382 123.567 254.028C124.37 254.667 125.329 254.987 126.444 254.987C127.339 254.987 128.134 254.777 128.83 254.358C129.533 253.939 130.084 253.364 130.481 252.632C130.886 251.894 131.089 251.059 131.089 250.129C131.089 249.177 130.879 248.328 130.46 247.583C130.048 246.83 129.48 246.237 128.755 245.804C128.031 245.37 127.204 245.15 126.273 245.143C125.606 245.136 124.92 245.239 124.217 245.452C123.514 245.658 122.935 245.924 122.481 246.251L120.009 245.953L121.33 235.214H132.665V237.558H123.546L122.779 243.992H122.907C123.354 243.637 123.915 243.343 124.59 243.108C125.265 242.874 125.968 242.757 126.699 242.757C128.035 242.757 129.224 243.076 130.268 243.715C131.319 244.348 132.143 245.214 132.74 246.315C133.344 247.416 133.645 248.673 133.645 250.086C133.645 251.478 133.333 252.721 132.708 253.815C132.09 254.902 131.238 255.761 130.151 256.393C129.064 257.018 127.829 257.331 126.444 257.331ZM146.698 235.214H149.852L157.267 253.325H157.522L164.937 235.214H168.09V257.032H165.619V240.456H165.406L158.588 257.032H156.201L149.383 240.456H149.17V257.032H146.698V235.214ZM173.047 257.032V240.669H175.561V257.032H173.047ZM174.325 237.941C173.835 237.941 173.413 237.774 173.058 237.441C172.71 237.107 172.536 236.706 172.536 236.237C172.536 235.768 172.71 235.367 173.058 235.033C173.413 234.699 173.835 234.532 174.325 234.532C174.815 234.532 175.234 234.699 175.582 235.033C175.938 235.367 176.115 235.768 176.115 236.237C176.115 236.706 175.938 237.107 175.582 237.441C175.234 237.774 174.815 237.941 174.325 237.941ZM182.68 247.188V257.032H180.166V240.669H182.595V243.225H182.808C183.192 242.394 183.774 241.727 184.555 241.223C185.337 240.711 186.345 240.456 187.581 240.456C188.689 240.456 189.658 240.683 190.489 241.137C191.32 241.585 191.967 242.267 192.428 243.183C192.89 244.092 193.121 245.242 193.121 246.634V257.032H190.606V246.805C190.606 245.519 190.273 244.518 189.605 243.801C188.937 243.076 188.021 242.714 186.856 242.714C186.054 242.714 185.337 242.888 184.704 243.236C184.079 243.584 183.586 244.092 183.224 244.759C182.861 245.427 182.68 246.237 182.68 247.188ZM206.493 257.032V235.214H209.135V254.688H219.277V257.032H206.493ZM227.843 257.416C226.806 257.416 225.865 257.22 225.02 256.83C224.174 256.432 223.503 255.86 223.006 255.115C222.509 254.362 222.26 253.453 222.26 252.387C222.26 251.45 222.445 250.69 222.814 250.108C223.184 249.518 223.677 249.056 224.295 248.723C224.913 248.389 225.595 248.14 226.341 247.977C227.094 247.806 227.85 247.671 228.61 247.572C229.604 247.444 230.41 247.348 231.028 247.284C231.653 247.213 232.108 247.096 232.392 246.933C232.683 246.769 232.829 246.485 232.829 246.081V245.995C232.829 244.944 232.541 244.127 231.966 243.545C231.397 242.963 230.535 242.671 229.377 242.671C228.177 242.671 227.236 242.934 226.554 243.46C225.872 243.985 225.393 244.546 225.116 245.143L222.729 244.291C223.155 243.296 223.723 242.522 224.434 241.968C225.151 241.407 225.932 241.017 226.777 240.796C227.63 240.569 228.468 240.456 229.292 240.456C229.817 240.456 230.421 240.519 231.103 240.647C231.792 240.768 232.456 241.02 233.095 241.404C233.741 241.787 234.277 242.366 234.704 243.14C235.13 243.914 235.343 244.951 235.343 246.251V257.032H232.829V254.816H232.701C232.53 255.171 232.246 255.551 231.848 255.956C231.451 256.361 230.922 256.706 230.261 256.99C229.601 257.274 228.795 257.416 227.843 257.416ZM228.226 255.157C229.221 255.157 230.059 254.962 230.741 254.571C231.429 254.181 231.948 253.676 232.296 253.059C232.651 252.441 232.829 251.791 232.829 251.109V248.808C232.722 248.936 232.488 249.053 232.125 249.159C231.77 249.259 231.358 249.348 230.89 249.426C230.428 249.497 229.977 249.561 229.537 249.617C229.103 249.667 228.752 249.71 228.482 249.745C227.829 249.831 227.218 249.969 226.65 250.161C226.089 250.345 225.634 250.626 225.286 251.002C224.945 251.372 224.775 251.876 224.775 252.515C224.775 253.389 225.098 254.049 225.744 254.497C226.397 254.937 227.225 255.157 228.226 255.157ZM247.048 240.669V242.799H238.568V240.669H247.048ZM241.04 236.748H243.554V252.345C243.554 253.055 243.657 253.588 243.863 253.943C244.076 254.291 244.346 254.525 244.673 254.646C245.006 254.759 245.358 254.816 245.727 254.816C246.004 254.816 246.231 254.802 246.409 254.774C246.587 254.738 246.729 254.71 246.835 254.688L247.347 256.947C247.176 257.011 246.938 257.075 246.633 257.139C246.327 257.21 245.94 257.245 245.472 257.245C244.761 257.245 244.065 257.093 243.383 256.787C242.709 256.482 242.148 256.017 241.7 255.392C241.26 254.767 241.04 253.978 241.04 253.027V236.748ZM257.515 257.373C255.938 257.373 254.578 257.025 253.435 256.329C252.299 255.626 251.421 254.646 250.804 253.389C250.193 252.125 249.887 250.654 249.887 248.978C249.887 247.302 250.193 245.825 250.804 244.546C251.421 243.261 252.281 242.259 253.382 241.542C254.49 240.818 255.782 240.456 257.26 240.456C258.112 240.456 258.953 240.598 259.784 240.882C260.615 241.166 261.372 241.627 262.054 242.267C262.735 242.899 263.279 243.737 263.684 244.781C264.088 245.825 264.291 247.11 264.291 248.637V249.703H251.677V247.529H261.734C261.734 246.606 261.549 245.782 261.18 245.058C260.818 244.333 260.299 243.762 259.625 243.343C258.957 242.924 258.169 242.714 257.26 242.714C256.258 242.714 255.392 242.963 254.66 243.46C253.936 243.95 253.378 244.589 252.988 245.377C252.597 246.166 252.402 247.011 252.402 247.913V249.362C252.402 250.598 252.615 251.645 253.041 252.505C253.474 253.357 254.074 254.007 254.841 254.454C255.608 254.894 256.5 255.115 257.515 255.115C258.176 255.115 258.772 255.022 259.305 254.838C259.845 254.646 260.31 254.362 260.701 253.985C261.091 253.602 261.393 253.126 261.606 252.558L264.035 253.24C263.779 254.063 263.35 254.788 262.746 255.413C262.142 256.031 261.397 256.514 260.509 256.862C259.621 257.203 258.623 257.373 257.515 257.373Z" fill="black"/>
<circle cx="294.927" cy="335.355" r="20.3008" fill="white"/>
<path d="M294.927 348.451C287.694 348.451 281.83 342.587 281.83 335.355C281.83 328.122 287.694 322.258 294.927 322.258C302.159 322.258 308.023 328.122 308.023 335.355C308.023 342.587 302.159 348.451 294.927 348.451ZM294.927 345.832C300.713 345.832 305.404 341.141 305.404 335.355C305.404 329.568 300.713 324.878 294.927 324.878C289.14 324.878 284.45 329.568 284.45 335.355C284.45 341.141 289.14 345.832 294.927 345.832ZM293.617 339.283H296.236V341.903H293.617V339.283ZM293.617 328.806H296.236V336.664H293.617V328.806Z" fill="#D80000"/>
</g>
<defs>
<filter id="filter0_d_425_2" x="0.71167" y="0.0281982" width="588.431" height="522.008" filterUnits="userSpaceOnUse" color-interpolation-filters="sRGB">
<feFlood flood-opacity="0" result="BackgroundImageFix"/>
<feColorMatrix in="SourceAlpha" type="matrix" values="0 0 0 0 0 0 0 0 0 0 0 0 0 0 0 0 0 0 127 0" result="hardAlpha"/>
<feOffset dy="4"/>
<feGaussianBlur stdDeviation="2"/>
<feComposite in2="hardAlpha" operator="out"/>
<feColorMatrix type="matrix" values="0 0 0 0 0 0 0 0 0 0 0 0 0 0 0 0 0 0 0.05 0"/>
<feBlend mode="normal" in2="BackgroundImageFix" result="effect1_dropShadow_425_2"/>
<feBlend mode="normal" in="SourceGraphic" in2="effect1_dropShadow_425_2" result="shape"/>
</filter>
<filter id="filter1_d_425_2" x="94.012" y="398.087" width="48.1724" height="48.1724" filterUnits="userSpaceOnUse" color-interpolation-filters="sRGB">
<feFlood flood-opacity="0" result="BackgroundImageFix"/>
<feColorMatrix in="SourceAlpha" type="matrix" values="0 0 0 0 0 0 0 0 0 0 0 0 0 0 0 0 0 0 127 0" result="hardAlpha"/>
<feOffset dy="4"/>
<feGaussianBlur stdDeviation="2"/>
<feComposite in2="hardAlpha" operator="out"/>
<feColorMatrix type="matrix" values="0 0 0 0 0 0 0 0 0 0 0 0 0 0 0 0 0 0 0.25 0"/>
<feBlend mode="normal" in2="BackgroundImageFix" result="effect1_dropShadow_425_2"/>
<feBlend mode="normal" in="SourceGraphic" in2="effect1_dropShadow_425_2" result="shape"/>
</filter>
<filter id="filter2_d_425_2" x="399.624" y="294.261" width="48.1724" height="48.1724" filterUnits="userSpaceOnUse" color-interpolation-filters="sRGB">
<feFlood flood-opacity="0" result="BackgroundImageFix"/>
<feColorMatrix in="SourceAlpha" type="matrix" values="0 0 0 0 0 0 0 0 0 0 0 0 0 0 0 0 0 0 127 0" result="hardAlpha"/>
<feOffset dy="4"/>
<feGaussianBlur stdDeviation="2"/>
<feComposite in2="hardAlpha" operator="out"/>
<feColorMatrix type="matrix" values="0 0 0 0 0 0 0 0 0 0 0 0 0 0 0 0 0 0 0.25 0"/>
<feBlend mode="normal" in2="BackgroundImageFix" result="effect1_dropShadow_425_2"/>
<feBlend mode="normal" in="SourceGraphic" in2="effect1_dropShadow_425_2" result="shape"/>
</filter>
<filter id="filter3_d_425_2" x="238.789" y="77.3352" width="48.1724" height="48.1724" filterUnits="userSpaceOnUse" color-interpolation-filters="sRGB">
<feFlood flood-opacity="0" result="BackgroundImageFix"/>
<feColorMatrix in="SourceAlpha" type="matrix" values="0 0 0 0 0 0 0 0 0 0 0 0 0 0 0 0 0 0 127 0" result="hardAlpha"/>
<feOffset dy="4"/>
<feGaussianBlur stdDeviation="2"/>
<feComposite in2="hardAlpha" operator="out"/>
<feColorMatrix type="matrix" values="0 0 0 0 0 0 0 0 0 0 0 0 0 0 0 0 0 0 0.25 0"/>
<feBlend mode="normal" in2="BackgroundImageFix" result="effect1_dropShadow_425_2"/>
<feBlend mode="normal" in="SourceGraphic" in2="effect1_dropShadow_425_2" result="shape"/>
</filter>
<filter id="filter4_d_425_2" x="72.6704" y="155.5" width="243.273" height="202.382" filterUnits="userSpaceOnUse" color-interpolation-filters="sRGB">
<feFlood flood-opacity="0" result="BackgroundImageFix"/>
<feColorMatrix in="SourceAlpha" type="matrix" values="0 0 0 0 0 0 0 0 0 0 0 0 0 0 0 0 0 0 127 0" result="hardAlpha"/>
<feOffset dx="4" dy="4"/>
<feGaussianBlur stdDeviation="4"/>
<feComposite in2="hardAlpha" operator="out"/>
<feColorMatrix type="matrix" values="0 0 0 0 0 0 0 0 0 0 0 0 0 0 0 0 0 0 0.25 0"/>
<feBlend mode="normal" in2="BackgroundImageFix" result="effect1_dropShadow_425_2"/>
<feBlend mode="normal" in="SourceGraphic" in2="effect1_dropShadow_425_2" result="shape"/>
</filter>
</defs>
</svg>
