<svg width="602" height="535" viewBox="0 0 602 535" fill="none" xmlns="http://www.w3.org/2000/svg">
<g filter="url(#filter0_d_425_2)">
<g filter="url(#filter1_d_425_2)">
<rect x="21.7117" y="21.0282" width="550.431" height="484.008" rx="30" fill="white"/>
<rect x="14.2117" y="13.5282" width="565.431" height="499.008" rx="37.5" stroke="#E1DFDF" stroke-width="15"/>
</g>
<mask id="mask0_425_2" style="mask-type:alpha" maskUnits="userSpaceOnUse" x="21" y="21" width="552" height="485">
<rect x="21.7117" y="21.0282" width="550.431" height="484.008" rx="30" fill="white" fill-opacity="0.8"/>
</mask>
<g mask="url(#mask0_425_2)">
<path d="M-5.12964 469.266L424.415 329.901L171.894 -2.46765" stroke="#D73D3D" stroke-width="15"/>
<path d="M528.909 -3.45667L269.175 101.451L583.301 517.725" stroke="#76CB84" stroke-width="15"/>
<circle cx="373.05" cy="57.4471" r="36.4189" fill="#D9D9D9"/>
<circle cx="373.05" cy="57.4472" r="30.8785" fill="#75CEF4"/>
<path d="M383.781 72.806H362.318V74.9789C362.318 76.179 361.357 77.1518 360.171 77.1518H355.878C354.693 77.1518 353.732 76.179 353.732 74.9789V55.423H351.586V46.7315H353.732V40.2128C353.732 37.8127 355.654 35.8671 358.025 35.8671H388.074C390.445 35.8671 392.367 37.8127 392.367 40.2128V46.7315H394.513V55.423H392.367V74.9789C392.367 76.179 391.406 77.1518 390.221 77.1518H385.928C384.742 77.1518 383.781 76.179 383.781 74.9789V72.806ZM358.025 40.2128V53.2501H388.074V40.2128H358.025ZM388.074 57.5959H358.025V68.4603H388.074V57.5959ZM363.391 66.2874C361.613 66.2874 360.171 64.8281 360.171 63.0281C360.171 61.2281 361.613 59.7688 363.391 59.7688C365.169 59.7688 366.61 61.2281 366.61 63.0281C366.61 64.8281 365.169 66.2874 363.391 66.2874ZM382.708 66.2874C380.93 66.2874 379.489 64.8281 379.489 63.0281C379.489 61.2281 380.93 59.7688 382.708 59.7688C384.486 59.7688 385.928 61.2281 385.928 63.0281C385.928 64.8281 384.486 66.2874 382.708 66.2874Z" fill="black"/>
<path d="M512.954 282.011L610.349 261.062V368.702L512.954 395.404V282.011Z" fill="#CCCCCC"/>
<path d="M472.604 229.336L514.585 281.234V393.904L472.604 342.006V229.336Z" fill="#EBEBEB"/>
<path d="M472.615 230.022L560.208 214.857L613.406 261.324L514.348 282.287L472.615 230.022Z" fill="#DEDEDE"/>
<path d="M115.471 70.9227L199.039 55.6895V123.686L115.471 142.553V70.9227Z" fill="#B5B5B5"/>
<path d="M96.8987 29.8806L116.084 71.535V141.542L96.8987 99.8877V29.8806Z" fill="#EBEBEB"/>
<path d="M96.908 30.5273L170.321 19.0282L198.907 56.4967L115.885 71.6279L96.908 30.5273Z" fill="#D8D8D8"/>
<path d="M383.484 136.24L455.052 119.007V187.003L383.484 207.871V136.24Z" fill="#C2C2C2"/>
<path d="M353.911 99.1978L384.096 136.852V206.859L353.911 169.205V99.1978Z" fill="#EBEBEB"/>
<path d="M353.92 98.8443L415.333 84.3452L454.919 118.814L383.897 136.945L353.92 98.8443Z" fill="#DEDEDE"/>
<path d="M270.824 257.447L359.794 235.916V320.872L270.824 346.945V257.447Z" fill="#D9D9D9"/>
<path d="M241.061 211.166L271.585 258.212V345.681L241.061 298.635V211.166Z" fill="#EBEBEB"/>
<path d="M240.573 210.081L321.154 190.557L359.847 236.35L271.101 257.294L240.573 210.081Z" fill="#EDECEC"/>
<g filter="url(#filter2_d_425_2)">
<circle cx="120.098" cy="424.174" r="20.0862" fill="#767575"/>
</g>
<g filter="url(#filter3_d_425_2)">
<circle cx="425.71" cy="320.347" r="20.0862" fill="#767575"/>
</g>
<g filter="url(#filter4_d_425_2)">
<circle cx="264.875" cy="103.421" r="20.0862" fill="#767575"/>
</g>
<circle cx="265.266" cy="382.166" r="44.801" fill="#D9D9D9"/>
<circle cx="265.266" cy="382.166" r="37.9854" fill="#75CEF4"/>
<path d="M278.468 401.06H252.064V403.733C252.064 405.209 250.882 406.406 249.424 406.406H244.143C242.685 406.406 241.503 405.209 241.503 403.733V379.676H238.863V368.984H241.503V360.965C241.503 358.012 243.867 355.619 246.784 355.619H283.749C286.666 355.619 289.03 358.012 289.03 360.965V368.984H291.67V379.676H289.03V403.733C289.03 405.209 287.848 406.406 286.39 406.406H281.109C279.65 406.406 278.468 405.209 278.468 403.733V401.06ZM246.784 360.965V377.003H283.749V360.965H246.784ZM283.749 382.349H246.784V395.714H283.749V382.349ZM253.385 393.041C251.197 393.041 249.424 391.246 249.424 389.031C249.424 386.817 251.197 385.022 253.385 385.022C255.572 385.022 257.345 386.817 257.345 389.031C257.345 391.246 255.572 393.041 253.385 393.041ZM277.148 393.041C274.961 393.041 273.188 391.246 273.188 389.031C273.188 386.817 274.961 385.022 277.148 385.022C279.335 385.022 281.109 386.817 281.109 389.031C281.109 391.246 279.335 393.041 277.148 393.041Z" fill="black"/>
<g filter="url(#filter5_d_425_2)">
<path d="M78.6704 175.5C78.6704 169.977 83.1476 165.5 88.6704 165.5H295.943C301.466 165.5 305.943 169.977 305.943 175.5V282.773C305.943 288.296 301.466 292.773 295.943 292.773H88.6704C83.1476 292.773 78.6704 288.296 78.6704 282.773V175.5Z" fill="white"/>
<path d="M270.431 285.973H218.158L256.795 351.882L270.431 285.973Z" fill="white"/>
</g>
<path d="M77.415 175.5C77.415 169.977 81.8922 165.5 87.415 165.5H295.943C301.466 165.5 305.943 169.977 305.943 175.5V211.408H77.415V175.5Z" fill="#75CEF4"/>
<path d="M99.1437 200.226L108.902 180.922V180.751H97.6522V178.408H111.63V180.879L101.914 200.226H99.1437ZM122.248 200.524C120.643 200.524 119.276 200.087 118.147 199.214C117.017 198.333 116.155 197.058 115.558 195.389C114.961 193.713 114.663 191.689 114.663 189.317C114.663 186.959 114.961 184.945 115.558 183.276C116.162 181.6 117.028 180.322 118.157 179.441C119.294 178.553 120.657 178.109 122.248 178.109C123.839 178.109 125.199 178.553 126.329 179.441C127.465 180.322 128.331 181.6 128.928 183.276C129.532 184.945 129.834 186.959 129.834 189.317C129.834 191.689 129.535 193.713 128.939 195.389C128.342 197.058 127.479 198.333 126.35 199.214C125.221 200.087 123.853 200.524 122.248 200.524ZM122.248 198.18C123.839 198.18 125.075 197.413 125.956 195.879C126.836 194.345 127.277 192.158 127.277 189.317C127.277 187.428 127.074 185.819 126.669 184.491C126.272 183.163 125.696 182.151 124.944 181.455C124.198 180.759 123.299 180.41 122.248 180.41C120.672 180.41 119.439 181.188 118.552 182.744C117.664 184.292 117.22 186.483 117.22 189.317C117.22 191.206 117.419 192.811 117.816 194.132C118.214 195.453 118.786 196.458 119.532 197.147C120.285 197.836 121.19 198.18 122.248 198.18ZM157.618 185.226C157.383 184.509 157.074 183.866 156.691 183.298C156.314 182.722 155.863 182.232 155.338 181.827C154.819 181.423 154.23 181.114 153.569 180.901C152.909 180.687 152.184 180.581 151.396 180.581C150.103 180.581 148.928 180.915 147.87 181.582C146.812 182.25 145.97 183.234 145.345 184.533C144.72 185.833 144.407 187.428 144.407 189.317C144.407 191.206 144.723 192.8 145.356 194.1C145.988 195.4 146.843 196.384 147.923 197.051C149.003 197.719 150.217 198.053 151.566 198.053C152.816 198.053 153.917 197.786 154.869 197.254C155.828 196.714 156.574 195.954 157.106 194.974C157.646 193.986 157.916 192.825 157.916 191.49L158.726 191.66H152.163V189.317H160.473V191.66C160.473 193.457 160.089 195.02 159.322 196.348C158.562 197.676 157.511 198.706 156.169 199.437C154.834 200.162 153.299 200.524 151.566 200.524C149.635 200.524 147.937 200.07 146.474 199.16C145.018 198.251 143.882 196.959 143.065 195.283C142.255 193.607 141.851 191.618 141.851 189.317C141.851 187.591 142.081 186.039 142.543 184.661C143.012 183.276 143.672 182.097 144.525 181.124C145.377 180.151 146.385 179.406 147.55 178.887C148.715 178.369 149.997 178.109 151.396 178.109C152.547 178.109 153.619 178.283 154.613 178.631C155.615 178.972 156.506 179.459 157.287 180.091C158.076 180.716 158.733 181.465 159.258 182.339C159.784 183.205 160.146 184.168 160.345 185.226H157.618ZM164.657 200.226V183.862H167.086V186.334H167.256C167.555 185.524 168.094 184.867 168.876 184.363C169.657 183.859 170.538 183.607 171.518 183.607C171.702 183.607 171.933 183.61 172.21 183.617C172.487 183.624 172.697 183.635 172.839 183.649V186.206C172.753 186.185 172.558 186.153 172.253 186.11C171.954 186.06 171.638 186.035 171.305 186.035C170.509 186.035 169.799 186.202 169.174 186.536C168.556 186.863 168.066 187.317 167.704 187.9C167.349 188.475 167.171 189.132 167.171 189.871V200.226H164.657ZM180.634 200.609C179.597 200.609 178.656 200.414 177.811 200.023C176.966 199.626 176.295 199.054 175.798 198.308C175.3 197.555 175.052 196.646 175.052 195.581C175.052 194.643 175.237 193.884 175.606 193.301C175.975 192.712 176.469 192.25 177.087 191.916C177.705 191.582 178.386 191.334 179.132 191.17C179.885 191 180.641 190.865 181.401 190.766C182.396 190.638 183.202 190.542 183.82 190.478C184.445 190.407 184.899 190.29 185.183 190.126C185.474 189.963 185.62 189.679 185.62 189.274V189.189C185.62 188.138 185.332 187.321 184.757 186.739C184.189 186.156 183.326 185.865 182.168 185.865C180.968 185.865 180.027 186.128 179.345 186.653C178.663 187.179 178.184 187.74 177.907 188.337L175.521 187.484C175.947 186.49 176.515 185.716 177.225 185.162C177.943 184.601 178.724 184.21 179.569 183.99C180.421 183.763 181.259 183.649 182.083 183.649C182.609 183.649 183.212 183.713 183.894 183.841C184.583 183.962 185.247 184.214 185.886 184.597C186.533 184.981 187.069 185.56 187.495 186.334C187.921 187.108 188.134 188.145 188.134 189.445V200.226H185.62V198.01H185.492C185.322 198.365 185.038 198.745 184.64 199.15C184.242 199.555 183.713 199.899 183.053 200.183C182.392 200.467 181.586 200.609 180.634 200.609ZM181.018 198.351C182.012 198.351 182.85 198.156 183.532 197.765C184.221 197.374 184.739 196.87 185.087 196.252C185.443 195.634 185.62 194.984 185.62 194.303V192.001C185.514 192.129 185.279 192.246 184.917 192.353C184.562 192.452 184.15 192.541 183.681 192.619C183.22 192.69 182.769 192.754 182.328 192.811C181.895 192.861 181.543 192.903 181.274 192.939C180.62 193.024 180.009 193.163 179.441 193.354C178.88 193.539 178.425 193.82 178.077 194.196C177.737 194.565 177.566 195.07 177.566 195.709C177.566 196.582 177.889 197.243 178.536 197.69C179.189 198.131 180.016 198.351 181.018 198.351ZM195.237 190.382V200.226H192.723V183.862H195.152V186.419H195.365C195.749 185.588 196.331 184.92 197.112 184.416C197.894 183.905 198.902 183.649 200.138 183.649C201.246 183.649 202.215 183.876 203.046 184.331C203.877 184.778 204.524 185.46 204.985 186.376C205.447 187.285 205.678 188.436 205.678 189.828V200.226H203.164V189.999C203.164 188.713 202.83 187.712 202.162 186.994C201.495 186.27 200.578 185.908 199.414 185.908C198.611 185.908 197.894 186.082 197.262 186.43C196.637 186.778 196.143 187.285 195.781 187.953C195.419 188.621 195.237 189.43 195.237 190.382ZM216.451 200.567C215.087 200.567 213.884 200.222 212.84 199.533C211.796 198.837 210.979 197.857 210.389 196.593C209.8 195.322 209.505 193.82 209.505 192.087C209.505 190.368 209.8 188.876 210.389 187.612C210.979 186.348 211.799 185.371 212.85 184.683C213.901 183.994 215.116 183.649 216.494 183.649C217.559 183.649 218.401 183.827 219.019 184.182C219.644 184.53 220.119 184.928 220.446 185.375C220.78 185.815 221.039 186.178 221.224 186.462H221.437V178.408H223.951V200.226H221.522V197.712H221.224C221.039 198.01 220.776 198.386 220.435 198.841C220.095 199.288 219.608 199.69 218.976 200.045C218.344 200.393 217.502 200.567 216.451 200.567ZM216.792 198.308C217.8 198.308 218.653 198.045 219.349 197.52C220.045 196.987 220.574 196.252 220.936 195.315C221.298 194.37 221.479 193.28 221.479 192.044C221.479 190.822 221.302 189.754 220.947 188.837C220.592 187.914 220.066 187.197 219.37 186.685C218.674 186.167 217.815 185.908 216.792 185.908C215.727 185.908 214.839 186.181 214.129 186.728C213.425 187.268 212.896 188.003 212.541 188.933C212.193 189.857 212.019 190.893 212.019 192.044C212.019 193.209 212.197 194.267 212.552 195.219C212.914 196.163 213.447 196.916 214.15 197.477C214.86 198.031 215.741 198.308 216.792 198.308Z" fill="white"/>
<path d="M128.444 263.331C127.194 263.331 126.068 263.082 125.067 262.585C124.065 262.088 123.263 261.406 122.659 260.539C122.055 259.673 121.725 258.686 121.668 257.578H124.225C124.324 258.565 124.772 259.382 125.567 260.028C126.37 260.667 127.329 260.987 128.444 260.987C129.339 260.987 130.134 260.777 130.83 260.358C131.533 259.939 132.084 259.364 132.481 258.632C132.886 257.894 133.089 257.059 133.089 256.129C133.089 255.177 132.879 254.328 132.46 253.583C132.048 252.83 131.48 252.237 130.755 251.804C130.031 251.37 129.204 251.15 128.273 251.143C127.606 251.136 126.92 251.239 126.217 251.452C125.514 251.658 124.935 251.924 124.481 252.251L122.009 251.953L123.33 241.214H134.665V243.558H125.546L124.779 249.992H124.907C125.354 249.637 125.915 249.343 126.59 249.108C127.265 248.874 127.968 248.757 128.699 248.757C130.035 248.757 131.224 249.076 132.268 249.715C133.319 250.348 134.143 251.214 134.74 252.315C135.344 253.416 135.645 254.673 135.645 256.086C135.645 257.478 135.333 258.721 134.708 259.815C134.09 260.902 133.238 261.761 132.151 262.393C131.064 263.018 129.829 263.331 128.444 263.331ZM148.698 241.214H151.852L159.267 259.325H159.522L166.937 241.214H170.09V263.032H167.619V246.456H167.406L160.588 263.032H158.201L151.383 246.456H151.17V263.032H148.698V241.214ZM175.047 263.032V246.669H177.561V263.032H175.047ZM176.325 243.941C175.835 243.941 175.413 243.774 175.058 243.441C174.71 243.107 174.536 242.706 174.536 242.237C174.536 241.768 174.71 241.367 175.058 241.033C175.413 240.699 175.835 240.532 176.325 240.532C176.815 240.532 177.234 240.699 177.582 241.033C177.938 241.367 178.115 241.768 178.115 242.237C178.115 242.706 177.938 243.107 177.582 243.441C177.234 243.774 176.815 243.941 176.325 243.941ZM184.68 253.188V263.032H182.166V246.669H184.595V249.225H184.808C185.192 248.394 185.774 247.727 186.555 247.223C187.337 246.711 188.345 246.456 189.581 246.456C190.689 246.456 191.658 246.683 192.489 247.137C193.32 247.585 193.967 248.267 194.428 249.183C194.89 250.092 195.121 251.242 195.121 252.634V263.032H192.606V252.805C192.606 251.519 192.273 250.518 191.605 249.801C190.937 249.076 190.021 248.714 188.856 248.714C188.054 248.714 187.337 248.888 186.704 249.236C186.079 249.584 185.586 250.092 185.224 250.759C184.861 251.427 184.68 252.237 184.68 253.188ZM208.493 263.032V241.214H211.135V260.688H221.277V263.032H208.493ZM229.843 263.416C228.806 263.416 227.865 263.22 227.02 262.83C226.174 262.432 225.503 261.86 225.006 261.115C224.509 260.362 224.26 259.453 224.26 258.387C224.26 257.45 224.445 256.69 224.814 256.108C225.184 255.518 225.677 255.056 226.295 254.723C226.913 254.389 227.595 254.14 228.341 253.977C229.094 253.806 229.85 253.671 230.61 253.572C231.604 253.444 232.41 253.348 233.028 253.284C233.653 253.213 234.108 253.096 234.392 252.933C234.683 252.769 234.829 252.485 234.829 252.081V251.995C234.829 250.944 234.541 250.127 233.966 249.545C233.397 248.963 232.535 248.671 231.377 248.671C230.177 248.671 229.236 248.934 228.554 249.46C227.872 249.985 227.393 250.546 227.116 251.143L224.729 250.291C225.155 249.296 225.723 248.522 226.434 247.968C227.151 247.407 227.932 247.017 228.777 246.796C229.63 246.569 230.468 246.456 231.292 246.456C231.817 246.456 232.421 246.519 233.103 246.647C233.792 246.768 234.456 247.02 235.095 247.404C235.741 247.787 236.277 248.366 236.704 249.14C237.13 249.914 237.343 250.951 237.343 252.251V263.032H234.829V260.816H234.701C234.53 261.171 234.246 261.551 233.848 261.956C233.451 262.361 232.922 262.706 232.261 262.99C231.601 263.274 230.795 263.416 229.843 263.416ZM230.226 261.157C231.221 261.157 232.059 260.962 232.741 260.571C233.429 260.181 233.948 259.676 234.296 259.059C234.651 258.441 234.829 257.791 234.829 257.109V254.808C234.722 254.936 234.488 255.053 234.125 255.159C233.77 255.259 233.358 255.348 232.89 255.426C232.428 255.497 231.977 255.561 231.537 255.617C231.103 255.667 230.752 255.71 230.482 255.745C229.829 255.831 229.218 255.969 228.65 256.161C228.089 256.345 227.634 256.626 227.286 257.002C226.945 257.372 226.775 257.876 226.775 258.515C226.775 259.389 227.098 260.049 227.744 260.497C228.397 260.937 229.225 261.157 230.226 261.157ZM249.048 246.669V248.799H240.568V246.669H249.048ZM243.04 242.748H245.554V258.345C245.554 259.055 245.657 259.588 245.863 259.943C246.076 260.291 246.346 260.525 246.673 260.646C247.006 260.759 247.358 260.816 247.727 260.816C248.004 260.816 248.231 260.802 248.409 260.774C248.587 260.738 248.729 260.71 248.835 260.688L249.347 262.947C249.176 263.011 248.938 263.075 248.633 263.139C248.327 263.21 247.94 263.245 247.472 263.245C246.761 263.245 246.065 263.093 245.383 262.787C244.709 262.482 244.148 262.017 243.7 261.392C243.26 260.767 243.04 259.978 243.04 259.027V242.748ZM259.515 263.373C257.938 263.373 256.578 263.025 255.435 262.329C254.299 261.626 253.421 260.646 252.804 259.389C252.193 258.125 251.887 256.654 251.887 254.978C251.887 253.302 252.193 251.825 252.804 250.546C253.421 249.261 254.281 248.259 255.382 247.542C256.49 246.818 257.782 246.456 259.26 246.456C260.112 246.456 260.953 246.598 261.784 246.882C262.615 247.166 263.372 247.627 264.054 248.267C264.735 248.899 265.279 249.737 265.684 250.781C266.088 251.825 266.291 253.11 266.291 254.637V255.703H253.677V253.529H263.734C263.734 252.606 263.549 251.782 263.18 251.058C262.818 250.333 262.299 249.762 261.625 249.343C260.957 248.924 260.169 248.714 259.26 248.714C258.258 248.714 257.392 248.963 256.66 249.46C255.936 249.95 255.378 250.589 254.988 251.377C254.597 252.166 254.402 253.011 254.402 253.913V255.362C254.402 256.598 254.615 257.645 255.041 258.505C255.474 259.357 256.074 260.007 256.841 260.454C257.608 260.894 258.5 261.115 259.515 261.115C260.176 261.115 260.772 261.022 261.305 260.838C261.845 260.646 262.31 260.362 262.701 259.985C263.091 259.602 263.393 259.126 263.606 258.558L266.035 259.24C265.779 260.063 265.35 260.788 264.746 261.413C264.142 262.031 263.397 262.514 262.509 262.862C261.621 263.203 260.623 263.373 259.515 263.373Z" fill="black"/>
<circle cx="296.927" cy="341.355" r="20.3008" fill="white"/>
<path d="M296.927 354.451C289.694 354.451 283.83 348.587 283.83 341.355C283.83 334.122 289.694 328.258 296.927 328.258C304.159 328.258 310.023 334.122 310.023 341.355C310.023 348.587 304.159 354.451 296.927 354.451ZM296.927 351.832C302.713 351.832 307.404 347.141 307.404 341.355C307.404 335.568 302.713 330.878 296.927 330.878C291.14 330.878 286.45 335.568 286.45 341.355C286.45 347.141 291.14 351.832 296.927 351.832ZM295.617 345.283H298.236V347.903H295.617V345.283ZM295.617 334.806H298.236V342.664H295.617V334.806Z" fill="#D80000"/>
</g>
</g>
<defs>
<filter id="filter0_d_425_2" x="0.71167" y="0.0281982" width="600.431" height="534.008" filterUnits="userSpaceOnUse" color-interpolation-filters="sRGB">
<feFlood flood-opacity="0" result="BackgroundImageFix"/>
<feColorMatrix in="SourceAlpha" type="matrix" values="0 0 0 0 0 0 0 0 0 0 0 0 0 0 0 0 0 0 127 0" result="hardAlpha"/>
<feOffset dx="4" dy="4"/>
<feGaussianBlur stdDeviation="5"/>
<feComposite in2="hardAlpha" operator="out"/>
<feColorMatrix type="matrix" values="0 0 0 0 0 0 0 0 0 0 0 0 0 0 0 0 0 0 0.25 0"/>
<feBlend mode="normal" in2="BackgroundImageFix" result="effect1_dropShadow_425_2"/>
<feBlend mode="normal" in="SourceGraphic" in2="effect1_dropShadow_425_2" result="shape"/>
</filter>
<filter id="filter1_d_425_2" x="2.71167" y="6.0282" width="588.431" height="522.008" filterUnits="userSpaceOnUse" color-interpolation-filters="sRGB">
<feFlood flood-opacity="0" result="BackgroundImageFix"/>
<feColorMatrix in="SourceAlpha" type="matrix" values="0 0 0 0 0 0 0 0 0 0 0 0 0 0 0 0 0 0 127 0" result="hardAlpha"/>
<feOffset dy="4"/>
<feGaussianBlur stdDeviation="2"/>
<feComposite in2="hardAlpha" operator="out"/>
<feColorMatrix type="matrix" values="0 0 0 0 0 0 0 0 0 0 0 0 0 0 0 0 0 0 0.05 0"/>
<feBlend mode="normal" in2="BackgroundImageFix" result="effect1_dropShadow_425_2"/>
<feBlend mode="normal" in="SourceGraphic" in2="effect1_dropShadow_425_2" result="shape"/>
</filter>
<filter id="filter2_d_425_2" x="96.012" y="404.087" width="48.1724" height="48.1724" filterUnits="userSpaceOnUse" color-interpolation-filters="sRGB">
<feFlood flood-opacity="0" result="BackgroundImageFix"/>
<feColorMatrix in="SourceAlpha" type="matrix" values="0 0 0 0 0 0 0 0 0 0 0 0 0 0 0 0 0 0 127 0" result="hardAlpha"/>
<feOffset dy="4"/>
<feGaussianBlur stdDeviation="2"/>
<feComposite in2="hardAlpha" operator="out"/>
<feColorMatrix type="matrix" values="0 0 0 0 0 0 0 0 0 0 0 0 0 0 0 0 0 0 0.25 0"/>
<feBlend mode="normal" in2="BackgroundImageFix" result="effect1_dropShadow_425_2"/>
<feBlend mode="normal" in="SourceGraphic" in2="effect1_dropShadow_425_2" result="shape"/>
</filter>
<filter id="filter3_d_425_2" x="401.624" y="300.261" width="48.1724" height="48.1724" filterUnits="userSpaceOnUse" color-interpolation-filters="sRGB">
<feFlood flood-opacity="0" result="BackgroundImageFix"/>
<feColorMatrix in="SourceAlpha" type="matrix" values="0 0 0 0 0 0 0 0 0 0 0 0 0 0 0 0 0 0 127 0" result="hardAlpha"/>
<feOffset dy="4"/>
<feGaussianBlur stdDeviation="2"/>
<feComposite in2="hardAlpha" operator="out"/>
<feColorMatrix type="matrix" values="0 0 0 0 0 0 0 0 0 0 0 0 0 0 0 0 0 0 0.25 0"/>
<feBlend mode="normal" in2="BackgroundImageFix" result="effect1_dropShadow_425_2"/>
<feBlend mode="normal" in="SourceGraphic" in2="effect1_dropShadow_425_2" result="shape"/>
</filter>
<filter id="filter4_d_425_2" x="240.789" y="83.3352" width="48.1724" height="48.1724" filterUnits="userSpaceOnUse" color-interpolation-filters="sRGB">
<feFlood flood-opacity="0" result="BackgroundImageFix"/>
<feColorMatrix in="SourceAlpha" type="matrix" values="0 0 0 0 0 0 0 0 0 0 0 0 0 0 0 0 0 0 127 0" result="hardAlpha"/>
<feOffset dy="4"/>
<feGaussianBlur stdDeviation="2"/>
<feComposite in2="hardAlpha" operator="out"/>
<feColorMatrix type="matrix" values="0 0 0 0 0 0 0 0 0 0 0 0 0 0 0 0 0 0 0.25 0"/>
<feBlend mode="normal" in2="BackgroundImageFix" result="effect1_dropShadow_425_2"/>
<feBlend mode="normal" in="SourceGraphic" in2="effect1_dropShadow_425_2" result="shape"/>
</filter>
<filter id="filter5_d_425_2" x="74.6704" y="161.5" width="243.273" height="202.382" filterUnits="userSpaceOnUse" color-interpolation-filters="sRGB">
<feFlood flood-opacity="0" result="BackgroundImageFix"/>
<feColorMatrix in="SourceAlpha" type="matrix" values="0 0 0 0 0 0 0 0 0 0 0 0 0 0 0 0 0 0 127 0" result="hardAlpha"/>
<feOffset dx="4" dy="4"/>
<feGaussianBlur stdDeviation="4"/>
<feComposite in2="hardAlpha" operator="out"/>
<feColorMatrix type="matrix" values="0 0 0 0 0 0 0 0 0 0 0 0 0 0 0 0 0 0 0.25 0"/>
<feBlend mode="normal" in2="BackgroundImageFix" result="effect1_dropShadow_425_2"/>
<feBlend mode="normal" in="SourceGraphic" in2="effect1_dropShadow_425_2" result="shape"/>
</filter>
</defs>
</svg>
