<svg width="601" height="535" viewBox="0 0 601 535" fill="none" xmlns="http://www.w3.org/2000/svg">
<g filter="url(#filter0_d_41_60)">
<g filter="url(#filter1_d_41_60)">
<rect x="21.0208" y="21.9551" width="550.431" height="484.008" rx="30" fill="#F6F7F5" fill-opacity="0.8" shape-rendering="crispEdges"/>
<rect x="13.5208" y="14.4551" width="565.431" height="499.008" rx="37.5" stroke="#E1DFDF" stroke-width="15" shape-rendering="crispEdges"/>
</g>
<mask id="mask0_41_60" style="mask-type:alpha" maskUnits="userSpaceOnUse" x="21" y="21" width="551" height="485">
<rect x="21.0208" y="21.9551" width="550.431" height="484.008" rx="30" fill="white" fill-opacity="0.8"/>
</mask>
<g mask="url(#mask0_41_60)">
<path d="M-5.82056 470.193L423.724 330.828L171.203 -1.54077" stroke="#D73D3D" stroke-width="15"/>
<path d="M528.218 -2.52979L268.484 102.378L582.611 518.652" stroke="#76CB84" stroke-width="15"/>
<circle cx="372.359" cy="58.374" r="36.4189" fill="#D9D9D9"/>
<circle cx="372.359" cy="58.3741" r="30.8785" fill="#75CEF4"/>
<path d="M383.091 73.7329H361.627V75.9058C361.627 77.1059 360.666 78.0787 359.48 78.0787H355.188C354.002 78.0787 353.041 77.1059 353.041 75.9058V56.3499H350.895V47.6584H353.041V41.1397C353.041 38.7396 354.963 36.7939 357.334 36.7939H387.383C389.754 36.7939 391.676 38.7396 391.676 41.1397V47.6584H393.822V56.3499H391.676V75.9058C391.676 77.1059 390.715 78.0787 389.53 78.0787H385.237C384.051 78.0787 383.091 77.1059 383.091 75.9058V73.7329ZM357.334 41.1397V54.177H387.383V41.1397H357.334ZM387.383 58.5228H357.334V69.3872H387.383V58.5228ZM362.7 67.2143C360.922 67.2143 359.48 65.755 359.48 63.955C359.48 62.1549 360.922 60.6956 362.7 60.6956C364.478 60.6956 365.919 62.1549 365.919 63.955C365.919 65.755 364.478 67.2143 362.7 67.2143ZM382.017 67.2143C380.239 67.2143 378.798 65.755 378.798 63.955C378.798 62.1549 380.239 60.6956 382.017 60.6956C383.795 60.6956 385.237 62.1549 385.237 63.955C385.237 65.755 383.795 67.2143 382.017 67.2143Z" fill="black"/>
<path d="M512.263 282.938L609.658 261.989V369.628L512.263 396.33V282.938Z" fill="#D9D9D9"/>
<path d="M471.913 230.263L513.894 282.161V394.831L471.913 342.933V230.263Z" fill="#EBEBEB"/>
<path d="M471.924 230.949L559.517 215.783L612.715 262.25L513.657 283.214L471.924 230.949Z" fill="#EDECEC"/>
<path d="M114.781 71.8496L198.348 56.6163V124.613L114.781 143.48V71.8496Z" fill="#D9D9D9"/>
<path d="M96.2078 30.8075L115.393 72.4619V142.469L96.2078 100.815V30.8075Z" fill="#EBEBEB"/>
<path d="M96.217 31.4542L169.63 19.9551L198.216 57.4235L115.194 72.5548L96.217 31.4542Z" fill="#EDECEC"/>
<path d="M382.793 137.166L454.361 119.933V187.929L382.793 208.797V137.166Z" fill="#D9D9D9"/>
<path d="M353.22 100.124L383.405 137.779V207.786L353.22 170.131V100.124Z" fill="#EBEBEB"/>
<path d="M353.229 99.7711L414.642 85.272L454.228 119.74L383.206 137.872L353.229 99.7711Z" fill="#EDECEC"/>
<path d="M270.133 258.374L359.103 236.843V321.799L270.133 347.872V258.374Z" fill="#D9D9D9"/>
<path d="M240.37 212.093L270.894 259.139V346.608L240.37 299.562V212.093Z" fill="#EBEBEB"/>
<path d="M239.882 211.008L320.463 191.484L359.156 237.277L270.41 258.221L239.882 211.008Z" fill="#EDECEC"/>
<g filter="url(#filter2_d_41_60)">
<circle cx="119.407" cy="425.1" r="20.0862" fill="#767575"/>
</g>
<g filter="url(#filter3_d_41_60)">
<circle cx="425.02" cy="321.274" r="20.0862" fill="#767575"/>
</g>
<g filter="url(#filter4_d_41_60)">
<circle cx="264.184" cy="104.348" r="20.0862" fill="#767575"/>
</g>
<circle cx="264.575" cy="383.093" r="44.801" fill="#D9D9D9"/>
<circle cx="264.575" cy="383.093" r="37.9854" fill="#75CEF4"/>
<path d="M277.777 401.986H251.374V404.659C251.374 406.136 250.191 407.332 248.733 407.332H243.452C241.994 407.332 240.812 406.136 240.812 404.659V380.603H238.172V369.911H240.812V361.892C240.812 358.939 243.176 356.546 246.093 356.546H283.058C285.975 356.546 288.339 358.939 288.339 361.892V369.911H290.979V380.603H288.339V404.659C288.339 406.136 287.157 407.332 285.699 407.332H280.418C278.96 407.332 277.777 406.136 277.777 404.659V401.986ZM246.093 361.892V377.93H283.058V361.892H246.093ZM283.058 383.276H246.093V396.64H283.058V383.276ZM252.694 393.967C250.506 393.967 248.733 392.172 248.733 389.958C248.733 387.744 250.506 385.948 252.694 385.948C254.881 385.948 256.654 387.744 256.654 389.958C256.654 392.172 254.881 393.967 252.694 393.967ZM276.457 393.967C274.27 393.967 272.497 392.172 272.497 389.958C272.497 387.744 274.27 385.948 276.457 385.948C278.645 385.948 280.418 387.744 280.418 389.958C280.418 392.172 278.645 393.967 276.457 393.967Z" fill="black"/>
<g filter="url(#filter5_d_41_60)">
<path d="M77.9795 176.427C77.9795 170.904 82.4566 166.427 87.9795 166.427H295.252C300.775 166.427 305.252 170.904 305.252 176.427V283.7C305.252 289.222 300.775 293.7 295.252 293.7H87.9795C82.4566 293.7 77.9795 289.222 77.9795 283.7V176.427Z" fill="white"/>
<path d="M269.74 286.899H217.467L256.104 352.808L269.74 286.899Z" fill="white"/>
<path d="M77.9795 176.427C77.9795 170.904 82.4566 166.427 87.9795 166.427H295.252C300.775 166.427 305.252 170.904 305.252 176.427V283.7C305.252 289.222 300.775 293.7 295.252 293.7H87.9795C82.4566 293.7 77.9795 289.222 77.9795 283.7V176.427Z" stroke="black"/>
<path d="M269.74 286.899H217.467L256.104 352.808L269.74 286.899Z" stroke="black"/>
</g>
<path d="M76.7241 176.427C76.7241 170.904 81.2013 166.427 86.7241 166.427H295.252C300.775 166.427 305.252 170.904 305.252 176.427V212.334H76.7241V176.427Z" fill="#75CEF4"/>
<path d="M98.4528 201.153L108.211 181.849V181.678H96.9613V179.334H110.939V181.806L101.223 201.153H98.4528ZM121.557 201.451C119.952 201.451 118.585 201.014 117.456 200.141C116.327 199.26 115.464 197.985 114.867 196.316C114.27 194.64 113.972 192.616 113.972 190.243C113.972 187.886 114.27 185.872 114.867 184.203C115.471 182.527 116.337 181.248 117.466 180.368C118.603 179.48 119.966 179.036 121.557 179.036C123.148 179.036 124.508 179.48 125.638 180.368C126.774 181.248 127.64 182.527 128.237 184.203C128.841 185.872 129.143 187.886 129.143 190.243C129.143 192.616 128.844 194.64 128.248 196.316C127.651 197.985 126.788 199.26 125.659 200.141C124.53 201.014 123.162 201.451 121.557 201.451ZM121.557 199.107C123.148 199.107 124.384 198.34 125.265 196.806C126.145 195.272 126.586 193.084 126.586 190.243C126.586 188.354 126.383 186.746 125.979 185.418C125.581 184.089 125.006 183.077 124.253 182.381C123.507 181.685 122.609 181.337 121.557 181.337C119.981 181.337 118.748 182.115 117.861 183.67C116.973 185.219 116.529 187.41 116.529 190.243C116.529 192.133 116.728 193.738 117.126 195.059C117.523 196.38 118.095 197.385 118.841 198.074C119.594 198.763 120.499 199.107 121.557 199.107ZM156.927 186.153C156.692 185.435 156.383 184.793 156 184.224C155.623 183.649 155.172 183.159 154.647 182.754C154.128 182.349 153.539 182.04 152.878 181.827C152.218 181.614 151.493 181.508 150.705 181.508C149.412 181.508 148.237 181.842 147.179 182.509C146.121 183.177 145.279 184.16 144.654 185.46C144.029 186.76 143.716 188.354 143.716 190.243C143.716 192.133 144.033 193.727 144.665 195.027C145.297 196.327 146.153 197.31 147.232 197.978C148.312 198.645 149.526 198.979 150.876 198.979C152.126 198.979 153.226 198.713 154.178 198.18C155.137 197.641 155.883 196.881 156.415 195.9C156.955 194.913 157.225 193.752 157.225 192.417L158.035 192.587H151.472V190.243H159.782V192.587C159.782 194.384 159.398 195.947 158.631 197.275C157.871 198.603 156.82 199.633 155.478 200.364C154.143 201.089 152.609 201.451 150.876 201.451C148.944 201.451 147.246 200.996 145.783 200.087C144.327 199.178 143.191 197.886 142.374 196.209C141.564 194.533 141.16 192.545 141.16 190.243C141.16 188.518 141.39 186.966 141.852 185.588C142.321 184.203 142.981 183.024 143.834 182.051C144.686 181.078 145.694 180.332 146.859 179.814C148.024 179.295 149.306 179.036 150.705 179.036C151.856 179.036 152.928 179.21 153.922 179.558C154.924 179.899 155.815 180.386 156.596 181.018C157.385 181.643 158.042 182.392 158.567 183.266C159.093 184.132 159.455 185.094 159.654 186.153H156.927ZM163.966 201.153V184.789H166.395V187.261H166.565C166.864 186.451 167.403 185.794 168.185 185.29C168.966 184.785 169.847 184.533 170.827 184.533C171.011 184.533 171.242 184.537 171.519 184.544C171.796 184.551 172.006 184.562 172.148 184.576V187.133C172.063 187.111 171.867 187.079 171.562 187.037C171.264 186.987 170.947 186.962 170.614 186.962C169.818 186.962 169.108 187.129 168.483 187.463C167.865 187.79 167.375 188.244 167.013 188.827C166.658 189.402 166.48 190.059 166.48 190.797V201.153H163.966ZM179.943 201.536C178.906 201.536 177.965 201.341 177.12 200.95C176.275 200.552 175.604 199.981 175.107 199.235C174.61 198.482 174.361 197.573 174.361 196.508C174.361 195.57 174.546 194.81 174.915 194.228C175.284 193.638 175.778 193.177 176.396 192.843C177.014 192.509 177.696 192.261 178.441 192.097C179.194 191.927 179.95 191.792 180.71 191.692C181.705 191.565 182.511 191.469 183.129 191.405C183.754 191.334 184.208 191.217 184.492 191.053C184.784 190.89 184.929 190.606 184.929 190.201V190.116C184.929 189.065 184.642 188.248 184.066 187.665C183.498 187.083 182.635 186.792 181.477 186.792C180.277 186.792 179.336 187.055 178.654 187.58C177.973 188.106 177.493 188.667 177.216 189.263L174.83 188.411C175.256 187.417 175.824 186.643 176.534 186.089C177.252 185.528 178.033 185.137 178.878 184.917C179.73 184.69 180.568 184.576 181.392 184.576C181.918 184.576 182.522 184.64 183.203 184.768C183.892 184.888 184.556 185.141 185.196 185.524C185.842 185.908 186.378 186.486 186.804 187.261C187.23 188.035 187.443 189.072 187.443 190.371V201.153H184.929V198.937H184.801C184.631 199.292 184.347 199.672 183.949 200.077C183.551 200.481 183.022 200.826 182.362 201.11C181.701 201.394 180.895 201.536 179.943 201.536ZM180.327 199.278C181.321 199.278 182.159 199.082 182.841 198.692C183.53 198.301 184.048 197.797 184.397 197.179C184.752 196.561 184.929 195.911 184.929 195.229V192.928C184.823 193.056 184.588 193.173 184.226 193.28C183.871 193.379 183.459 193.468 182.99 193.546C182.529 193.617 182.078 193.681 181.637 193.738C181.204 193.788 180.852 193.83 180.583 193.866C179.929 193.951 179.318 194.089 178.75 194.281C178.189 194.466 177.735 194.746 177.387 195.123C177.046 195.492 176.875 195.996 176.875 196.636C176.875 197.509 177.198 198.17 177.845 198.617C178.498 199.057 179.325 199.278 180.327 199.278ZM194.547 191.309V201.153H192.032V184.789H194.461V187.346H194.674C195.058 186.515 195.64 185.847 196.422 185.343C197.203 184.832 198.211 184.576 199.447 184.576C200.555 184.576 201.525 184.803 202.355 185.258C203.186 185.705 203.833 186.387 204.294 187.303C204.756 188.212 204.987 189.363 204.987 190.755V201.153H202.473V190.925C202.473 189.64 202.139 188.638 201.471 187.921C200.804 187.197 199.887 186.834 198.723 186.834C197.92 186.834 197.203 187.008 196.571 187.356C195.946 187.704 195.452 188.212 195.09 188.88C194.728 189.547 194.547 190.357 194.547 191.309ZM215.76 201.493C214.397 201.493 213.193 201.149 212.149 200.46C211.105 199.764 210.288 198.784 209.698 197.52C209.109 196.248 208.814 194.746 208.814 193.013C208.814 191.295 209.109 189.803 209.698 188.539C210.288 187.275 211.108 186.298 212.159 185.609C213.21 184.92 214.425 184.576 215.803 184.576C216.868 184.576 217.71 184.753 218.328 185.109C218.953 185.457 219.428 185.854 219.755 186.302C220.089 186.742 220.348 187.104 220.533 187.388H220.746V179.334H223.26V201.153H220.831V198.638H220.533C220.348 198.937 220.085 199.313 219.745 199.768C219.404 200.215 218.917 200.616 218.285 200.971C217.653 201.319 216.811 201.493 215.76 201.493ZM216.101 199.235C217.11 199.235 217.962 198.972 218.658 198.447C219.354 197.914 219.883 197.179 220.245 196.241C220.607 195.297 220.789 194.207 220.789 192.971C220.789 191.749 220.611 190.68 220.256 189.764C219.901 188.841 219.375 188.123 218.679 187.612C217.983 187.094 217.124 186.834 216.101 186.834C215.036 186.834 214.148 187.108 213.438 187.655C212.735 188.194 212.205 188.93 211.85 189.86C211.502 190.783 211.328 191.82 211.328 192.971C211.328 194.136 211.506 195.194 211.861 196.145C212.223 197.09 212.756 197.843 213.459 198.404C214.169 198.958 215.05 199.235 216.101 199.235Z" fill="white"/>
<path d="M127.753 264.257C126.503 264.257 125.377 264.009 124.376 263.512C123.374 263.014 122.572 262.333 121.968 261.466C121.364 260.6 121.034 259.612 120.977 258.504H123.534C123.633 259.492 124.081 260.308 124.876 260.955C125.679 261.594 126.638 261.914 127.753 261.914C128.648 261.914 129.443 261.704 130.139 261.285C130.842 260.866 131.393 260.291 131.79 259.559C132.195 258.82 132.398 257.986 132.398 257.056C132.398 256.104 132.188 255.255 131.769 254.509C131.357 253.757 130.789 253.164 130.065 252.73C129.34 252.297 128.513 252.077 127.582 252.07C126.915 252.063 126.229 252.166 125.526 252.379C124.823 252.585 124.244 252.851 123.79 253.178L121.318 252.879L122.639 242.141H133.974V244.485H124.855L124.088 250.919H124.216C124.663 250.564 125.224 250.269 125.899 250.035C126.574 249.801 127.277 249.683 128.008 249.683C129.344 249.683 130.533 250.003 131.577 250.642C132.628 251.274 133.452 252.141 134.049 253.242C134.653 254.343 134.954 255.6 134.954 257.013C134.954 258.405 134.642 259.648 134.017 260.742C133.399 261.828 132.547 262.688 131.46 263.32C130.373 263.945 129.138 264.257 127.753 264.257ZM148.008 242.141H151.161L158.576 260.252H158.831L166.246 242.141H169.4V263.959H166.928V247.382H166.715L159.897 263.959H157.51L150.692 247.382H150.479V263.959H148.008V242.141ZM174.356 263.959V247.595H176.87V263.959H174.356ZM175.634 244.868C175.144 244.868 174.722 244.701 174.367 244.367C174.019 244.034 173.845 243.632 173.845 243.164C173.845 242.695 174.019 242.294 174.367 241.96C174.722 241.626 175.144 241.459 175.634 241.459C176.125 241.459 176.544 241.626 176.892 241.96C177.247 242.294 177.424 242.695 177.424 243.164C177.424 243.632 177.247 244.034 176.892 244.367C176.544 244.701 176.125 244.868 175.634 244.868ZM183.989 254.115V263.959H181.475V247.595H183.904V250.152H184.117C184.501 249.321 185.083 248.654 185.864 248.149C186.646 247.638 187.654 247.382 188.89 247.382C189.998 247.382 190.967 247.61 191.798 248.064C192.629 248.512 193.276 249.193 193.737 250.11C194.199 251.019 194.43 252.169 194.43 253.561V263.959H191.916V253.732C191.916 252.446 191.582 251.445 190.914 250.727C190.247 250.003 189.33 249.641 188.166 249.641C187.363 249.641 186.646 249.815 186.014 250.163C185.389 250.511 184.895 251.019 184.533 251.686C184.171 252.354 183.989 253.164 183.989 254.115ZM207.802 263.959V242.141H210.444V261.615H220.587V263.959H207.802ZM229.152 264.343C228.115 264.343 227.174 264.147 226.329 263.757C225.484 263.359 224.812 262.787 224.315 262.041C223.818 261.289 223.569 260.379 223.569 259.314C223.569 258.377 223.754 257.617 224.123 257.034C224.493 256.445 224.986 255.983 225.604 255.649C226.222 255.316 226.904 255.067 227.65 254.904C228.403 254.733 229.159 254.598 229.919 254.499C230.913 254.371 231.719 254.275 232.337 254.211C232.962 254.14 233.417 254.023 233.701 253.86C233.992 253.696 234.138 253.412 234.138 253.007V252.922C234.138 251.871 233.85 251.054 233.275 250.472C232.707 249.889 231.844 249.598 230.686 249.598C229.486 249.598 228.545 249.861 227.863 250.387C227.181 250.912 226.702 251.473 226.425 252.07L224.038 251.218C224.464 250.223 225.033 249.449 225.743 248.895C226.46 248.334 227.241 247.943 228.087 247.723C228.939 247.496 229.777 247.382 230.601 247.382C231.126 247.382 231.73 247.446 232.412 247.574C233.101 247.695 233.765 247.947 234.404 248.33C235.05 248.714 235.587 249.293 236.013 250.067C236.439 250.841 236.652 251.878 236.652 253.178V263.959H234.138V261.743H234.01C233.839 262.098 233.555 262.478 233.158 262.883C232.76 263.288 232.231 263.632 231.57 263.916C230.91 264.2 230.104 264.343 229.152 264.343ZM229.535 262.084C230.53 262.084 231.368 261.889 232.05 261.498C232.739 261.107 233.257 260.603 233.605 259.985C233.96 259.367 234.138 258.718 234.138 258.036V255.735C234.031 255.862 233.797 255.98 233.435 256.086C233.079 256.186 232.668 256.274 232.199 256.352C231.737 256.423 231.286 256.487 230.846 256.544C230.413 256.594 230.061 256.637 229.791 256.672C229.138 256.757 228.527 256.896 227.959 257.088C227.398 257.272 226.943 257.553 226.595 257.929C226.254 258.298 226.084 258.803 226.084 259.442C226.084 260.316 226.407 260.976 227.053 261.423C227.707 261.864 228.534 262.084 229.535 262.084ZM248.357 247.595V249.726H239.877V247.595H248.357ZM242.349 243.675H244.863V259.271C244.863 259.982 244.966 260.514 245.172 260.869C245.385 261.218 245.655 261.452 245.982 261.573C246.315 261.686 246.667 261.743 247.036 261.743C247.313 261.743 247.541 261.729 247.718 261.7C247.896 261.665 248.038 261.637 248.144 261.615L248.656 263.874C248.485 263.938 248.247 264.002 247.942 264.066C247.636 264.137 247.249 264.172 246.781 264.172C246.07 264.172 245.374 264.019 244.693 263.714C244.018 263.409 243.457 262.943 243.009 262.318C242.569 261.693 242.349 260.905 242.349 259.953V243.675ZM258.824 264.3C257.248 264.3 255.887 263.952 254.744 263.256C253.608 262.553 252.731 261.573 252.113 260.316C251.502 259.051 251.196 257.581 251.196 255.905C251.196 254.229 251.502 252.752 252.113 251.473C252.731 250.188 253.59 249.186 254.691 248.469C255.799 247.744 257.091 247.382 258.569 247.382C259.421 247.382 260.262 247.524 261.093 247.808C261.924 248.093 262.681 248.554 263.363 249.193C264.044 249.825 264.588 250.664 264.993 251.708C265.397 252.752 265.6 254.037 265.6 255.564V256.629H252.986V254.456H263.043C263.043 253.533 262.858 252.709 262.489 251.985C262.127 251.26 261.608 250.688 260.934 250.269C260.266 249.85 259.478 249.641 258.569 249.641C257.567 249.641 256.701 249.889 255.969 250.387C255.245 250.877 254.687 251.516 254.297 252.304C253.906 253.093 253.711 253.938 253.711 254.84V256.289C253.711 257.524 253.924 258.572 254.35 259.431C254.783 260.284 255.383 260.933 256.15 261.381C256.917 261.821 257.809 262.041 258.824 262.041C259.485 262.041 260.081 261.949 260.614 261.764C261.154 261.573 261.619 261.289 262.01 260.912C262.4 260.529 262.702 260.053 262.915 259.485L265.344 260.166C265.088 260.99 264.659 261.715 264.055 262.34C263.451 262.958 262.706 263.441 261.818 263.789C260.93 264.129 259.932 264.3 258.824 264.3Z" fill="black"/>
<circle cx="296.236" cy="342.281" r="20.3008" fill="white"/>
<path d="M296.236 355.378C289.003 355.378 283.139 349.514 283.139 342.281C283.139 335.048 289.003 329.185 296.236 329.185C303.468 329.185 309.332 335.048 309.332 342.281C309.332 349.514 303.468 355.378 296.236 355.378ZM296.236 352.758C302.022 352.758 306.713 348.068 306.713 342.281C306.713 336.495 302.022 331.804 296.236 331.804C290.449 331.804 285.759 336.495 285.759 342.281C285.759 348.068 290.449 352.758 296.236 352.758ZM294.926 346.21H297.545V348.829H294.926V346.21ZM294.926 335.733H297.545V343.591H294.926V335.733Z" fill="#D80000"/>
</g>
</g>
<defs>
<filter id="filter0_d_41_60" x="0.020752" y="0.955078" width="600.431" height="534.008" filterUnits="userSpaceOnUse" color-interpolation-filters="sRGB">
<feFlood flood-opacity="0" result="BackgroundImageFix"/>
<feColorMatrix in="SourceAlpha" type="matrix" values="0 0 0 0 0 0 0 0 0 0 0 0 0 0 0 0 0 0 127 0" result="hardAlpha"/>
<feOffset dx="4" dy="4"/>
<feGaussianBlur stdDeviation="5"/>
<feComposite in2="hardAlpha" operator="out"/>
<feColorMatrix type="matrix" values="0 0 0 0 0 0 0 0 0 0 0 0 0 0 0 0 0 0 0.25 0"/>
<feBlend mode="normal" in2="BackgroundImageFix" result="effect1_dropShadow_41_60"/>
<feBlend mode="normal" in="SourceGraphic" in2="effect1_dropShadow_41_60" result="shape"/>
</filter>
<filter id="filter1_d_41_60" x="2.02075" y="6.95508" width="588.431" height="522.008" filterUnits="userSpaceOnUse" color-interpolation-filters="sRGB">
<feFlood flood-opacity="0" result="BackgroundImageFix"/>
<feColorMatrix in="SourceAlpha" type="matrix" values="0 0 0 0 0 0 0 0 0 0 0 0 0 0 0 0 0 0 127 0" result="hardAlpha"/>
<feOffset dy="4"/>
<feGaussianBlur stdDeviation="2"/>
<feComposite in2="hardAlpha" operator="out"/>
<feColorMatrix type="matrix" values="0 0 0 0 0 0 0 0 0 0 0 0 0 0 0 0 0 0 0.05 0"/>
<feBlend mode="normal" in2="BackgroundImageFix" result="effect1_dropShadow_41_60"/>
<feBlend mode="normal" in="SourceGraphic" in2="effect1_dropShadow_41_60" result="shape"/>
</filter>
<filter id="filter2_d_41_60" x="95.321" y="405.014" width="48.1724" height="48.1724" filterUnits="userSpaceOnUse" color-interpolation-filters="sRGB">
<feFlood flood-opacity="0" result="BackgroundImageFix"/>
<feColorMatrix in="SourceAlpha" type="matrix" values="0 0 0 0 0 0 0 0 0 0 0 0 0 0 0 0 0 0 127 0" result="hardAlpha"/>
<feOffset dy="4"/>
<feGaussianBlur stdDeviation="2"/>
<feComposite in2="hardAlpha" operator="out"/>
<feColorMatrix type="matrix" values="0 0 0 0 0 0 0 0 0 0 0 0 0 0 0 0 0 0 0.25 0"/>
<feBlend mode="normal" in2="BackgroundImageFix" result="effect1_dropShadow_41_60"/>
<feBlend mode="normal" in="SourceGraphic" in2="effect1_dropShadow_41_60" result="shape"/>
</filter>
<filter id="filter3_d_41_60" x="400.933" y="301.188" width="48.1724" height="48.1724" filterUnits="userSpaceOnUse" color-interpolation-filters="sRGB">
<feFlood flood-opacity="0" result="BackgroundImageFix"/>
<feColorMatrix in="SourceAlpha" type="matrix" values="0 0 0 0 0 0 0 0 0 0 0 0 0 0 0 0 0 0 127 0" result="hardAlpha"/>
<feOffset dy="4"/>
<feGaussianBlur stdDeviation="2"/>
<feComposite in2="hardAlpha" operator="out"/>
<feColorMatrix type="matrix" values="0 0 0 0 0 0 0 0 0 0 0 0 0 0 0 0 0 0 0.25 0"/>
<feBlend mode="normal" in2="BackgroundImageFix" result="effect1_dropShadow_41_60"/>
<feBlend mode="normal" in="SourceGraphic" in2="effect1_dropShadow_41_60" result="shape"/>
</filter>
<filter id="filter4_d_41_60" x="240.098" y="84.2621" width="48.1724" height="48.1724" filterUnits="userSpaceOnUse" color-interpolation-filters="sRGB">
<feFlood flood-opacity="0" result="BackgroundImageFix"/>
<feColorMatrix in="SourceAlpha" type="matrix" values="0 0 0 0 0 0 0 0 0 0 0 0 0 0 0 0 0 0 127 0" result="hardAlpha"/>
<feOffset dy="4"/>
<feGaussianBlur stdDeviation="2"/>
<feComposite in2="hardAlpha" operator="out"/>
<feColorMatrix type="matrix" values="0 0 0 0 0 0 0 0 0 0 0 0 0 0 0 0 0 0 0.25 0"/>
<feBlend mode="normal" in2="BackgroundImageFix" result="effect1_dropShadow_41_60"/>
<feBlend mode="normal" in="SourceGraphic" in2="effect1_dropShadow_41_60" result="shape"/>
</filter>
<filter id="filter5_d_41_60" x="73.9795" y="162.427" width="243.273" height="202.382" filterUnits="userSpaceOnUse" color-interpolation-filters="sRGB">
<feFlood flood-opacity="0" result="BackgroundImageFix"/>
<feColorMatrix in="SourceAlpha" type="matrix" values="0 0 0 0 0 0 0 0 0 0 0 0 0 0 0 0 0 0 127 0" result="hardAlpha"/>
<feOffset dx="4" dy="4"/>
<feGaussianBlur stdDeviation="4"/>
<feComposite in2="hardAlpha" operator="out"/>
<feColorMatrix type="matrix" values="0 0 0 0 0 0 0 0 0 0 0 0 0 0 0 0 0 0 0.25 0"/>
<feBlend mode="normal" in2="BackgroundImageFix" result="effect1_dropShadow_41_60"/>
<feBlend mode="normal" in="SourceGraphic" in2="effect1_dropShadow_41_60" result="shape"/>
</filter>
</defs>
</svg>
