<svg width="575" height="553" viewBox="0 0 575 553" fill="none" xmlns="http://www.w3.org/2000/svg">
<rect x="79.4109" y="258.664" width="417.248" height="203.367" rx="15" transform="rotate(13.3634 79.4109 258.664)" fill="#6B8BBB" fill-opacity="0.52"/>
<path d="M101.576 534.184L154.907 480.062L101.576 472.543L101.576 534.184Z" fill="#B2C3DC"/>
<path d="M0.450754 91.5961C-0.736579 83.3973 4.94729 75.7884 13.146 74.6011L523.067 0.754923C531.265 -0.43241 538.874 5.25146 540.062 13.4502L573.85 246.767C575.038 254.966 569.354 262.574 561.155 263.762L51.2344 337.608C43.0357 338.795 35.4268 333.111 34.2394 324.913L0.450754 91.5961Z" fill="#619A3F" fill-opacity="0.52"/>
<path d="M504.903 367.554L422.139 283.563L504.903 271.895L504.903 367.554Z" fill="#ADCA9B"/>
</svg>
