<svg width="601" height="535" viewBox="0 0 601 535" fill="none" xmlns="http://www.w3.org/2000/svg">
<g filter="url(#filter0_d_41_114)">
<g filter="url(#filter1_d_41_114)">
<rect x="21.5632" y="21.8624" width="550.431" height="484.008" rx="30" fill="#F6F7F5" fill-opacity="0.8" shape-rendering="crispEdges"/>
<rect x="14.0632" y="14.3624" width="565.431" height="499.008" rx="37.5" stroke="#E1DFDF" stroke-width="15" shape-rendering="crispEdges"/>
</g>
<mask id="mask0_41_114" style="mask-type:alpha" maskUnits="userSpaceOnUse" x="21" y="21" width="551" height="485">
<rect x="21.5632" y="21.8624" width="550.431" height="484.008" rx="30" fill="white" fill-opacity="0.8"/>
</mask>
<g mask="url(#mask0_41_114)">
<mask id="path-4-outside-1_41_114" maskUnits="userSpaceOnUse" x="92.9119" y="51.6587" width="408" height="455" fill="black">
<rect fill="white" x="92.9119" y="51.6587" width="408" height="455"/>
<path d="M102.912 71.6587C102.912 66.1358 107.389 61.6587 112.912 61.6587H480.645C486.168 61.6587 490.645 66.1358 490.645 71.6587V505.87H102.912V71.6587Z"/>
</mask>
<path d="M102.912 71.6587C102.912 66.1358 107.389 61.6587 112.912 61.6587H480.645C486.168 61.6587 490.645 66.1358 490.645 71.6587V505.87H102.912V71.6587Z" fill="white"/>
<path d="M92.9119 71.6587C92.9119 60.613 101.866 51.6587 112.912 51.6587H480.645C491.691 51.6587 500.645 60.613 500.645 71.6587H480.645H112.912H92.9119ZM490.645 505.87H102.912H490.645ZM92.9119 505.87V71.6587C92.9119 60.613 101.866 51.6587 112.912 51.6587V71.6587V505.87H92.9119ZM480.645 51.6587C491.691 51.6587 500.645 60.613 500.645 71.6587V505.87H480.645V71.6587V51.6587Z" fill="#B1B1B1" mask="url(#path-4-outside-1_41_114)"/>
<path d="M124.248 225.848L115.442 208.237C115.442 218.929 106.713 235.284 106.713 235.284C106.713 235.284 121.313 230.461 124.248 225.848Z" fill="#EDEDED"/>
<rect x="114.269" y="166.448" width="246.316" height="62.0533" rx="10" fill="#EDEDED"/>
<path d="M124.248 225.848L115.442 208.237C115.442 218.929 106.713 235.284 106.713 235.284C106.713 235.284 121.313 230.461 124.248 225.848Z" fill="#EDEDED"/>
<rect x="114.269" y="166.448" width="246.316" height="62.0533" rx="10" fill="#EDEDED"/>
<path d="M130.473 204.176V189.631H133.107V195.788H139.848V189.631H142.49V204.176H139.848V197.997H133.107V204.176H130.473ZM150 204.389C148.935 204.389 148.012 204.155 147.23 203.686C146.449 203.217 145.843 202.561 145.412 201.719C144.986 200.876 144.773 199.891 144.773 198.764C144.773 197.637 144.986 196.65 145.412 195.802C145.843 194.955 146.449 194.297 147.23 193.828C148.012 193.359 148.935 193.125 150 193.125C151.066 193.125 151.989 193.359 152.77 193.828C153.551 194.297 154.155 194.955 154.581 195.802C155.012 196.65 155.227 197.637 155.227 198.764C155.227 199.891 155.012 200.876 154.581 201.719C154.155 202.561 153.551 203.217 152.77 203.686C151.989 204.155 151.066 204.389 150 204.389ZM150.014 202.329C150.592 202.329 151.075 202.171 151.463 201.854C151.852 201.532 152.14 201.101 152.33 200.561C152.524 200.021 152.621 199.42 152.621 198.757C152.621 198.089 152.524 197.486 152.33 196.946C152.14 196.401 151.852 195.968 151.463 195.646C151.075 195.324 150.592 195.163 150.014 195.163C149.423 195.163 148.93 195.324 148.537 195.646C148.149 195.968 147.858 196.401 147.664 196.946C147.474 197.486 147.379 198.089 147.379 198.757C147.379 199.42 147.474 200.021 147.664 200.561C147.858 201.101 148.149 201.532 148.537 201.854C148.93 202.171 149.423 202.329 150.014 202.329ZM159.349 204.176L156.266 193.267H158.887L160.805 200.937H160.904L162.864 193.267H165.457L167.417 200.895H167.523L169.412 193.267H172.04L168.951 204.176H166.273L164.228 196.804H164.079L162.033 204.176H159.349ZM183.555 204.389C182.466 204.389 181.531 204.15 180.749 203.672C179.973 203.194 179.374 202.533 178.953 201.69C178.536 200.843 178.328 199.867 178.328 198.764C178.328 197.656 178.541 196.678 178.967 195.831C179.393 194.979 179.994 194.316 180.771 193.842C181.552 193.364 182.475 193.125 183.541 193.125C184.426 193.125 185.21 193.288 185.892 193.615C186.578 193.937 187.125 194.394 187.532 194.986C187.939 195.573 188.171 196.259 188.228 197.045H185.771C185.671 196.52 185.435 196.082 185.061 195.731C184.691 195.376 184.196 195.199 183.576 195.199C183.051 195.199 182.589 195.341 182.191 195.625C181.794 195.904 181.483 196.307 181.261 196.832C181.043 197.358 180.934 197.988 180.934 198.721C180.934 199.465 181.043 200.104 181.261 200.639C181.479 201.169 181.784 201.579 182.177 201.868C182.575 202.152 183.041 202.294 183.576 202.294C183.955 202.294 184.294 202.223 184.592 202.081C184.895 201.934 185.148 201.723 185.352 201.449C185.555 201.174 185.695 200.84 185.771 200.447H188.228C188.167 201.219 187.939 201.903 187.546 202.5C187.153 203.092 186.618 203.556 185.941 203.892C185.264 204.223 184.469 204.389 183.555 204.389ZM193.479 204.396C192.787 204.396 192.165 204.273 191.611 204.027C191.061 203.776 190.626 203.407 190.304 202.919C189.987 202.431 189.828 201.83 189.828 201.115C189.828 200.499 189.942 199.99 190.169 199.588C190.396 199.185 190.706 198.864 191.099 198.622C191.492 198.381 191.935 198.198 192.427 198.075C192.925 197.947 193.438 197.855 193.969 197.798C194.608 197.732 195.126 197.673 195.524 197.621C195.922 197.564 196.211 197.479 196.39 197.365C196.575 197.247 196.667 197.064 196.667 196.818V196.775C196.667 196.24 196.509 195.826 196.192 195.533C195.874 195.239 195.417 195.092 194.821 195.092C194.191 195.092 193.692 195.23 193.322 195.504C192.958 195.779 192.711 196.103 192.584 196.477L190.183 196.136C190.372 195.473 190.685 194.919 191.121 194.474C191.556 194.025 192.089 193.688 192.719 193.466C193.348 193.239 194.044 193.125 194.807 193.125C195.332 193.125 195.855 193.186 196.376 193.31C196.897 193.433 197.373 193.636 197.804 193.92C198.235 194.2 198.58 194.581 198.841 195.064C199.106 195.547 199.238 196.15 199.238 196.875V204.176H196.767V202.677H196.682C196.525 202.98 196.305 203.265 196.021 203.53C195.742 203.79 195.389 204.001 194.963 204.162C194.542 204.318 194.047 204.396 193.479 204.396ZM194.146 202.507C194.662 202.507 195.11 202.405 195.488 202.202C195.867 201.993 196.158 201.719 196.362 201.378C196.57 201.037 196.675 200.665 196.675 200.263V198.977C196.594 199.043 196.457 199.105 196.263 199.162C196.073 199.219 195.86 199.268 195.623 199.311C195.387 199.354 195.152 199.391 194.92 199.425C194.688 199.458 194.487 199.486 194.317 199.51C193.933 199.562 193.59 199.647 193.287 199.766C192.984 199.884 192.745 200.05 192.569 200.263C192.394 200.471 192.307 200.741 192.307 201.072C192.307 201.546 192.479 201.903 192.825 202.145C193.171 202.386 193.611 202.507 194.146 202.507ZM204.395 197.784V204.176H201.824V193.267H204.281V195.121H204.409C204.66 194.51 205.06 194.025 205.609 193.665C206.163 193.305 206.847 193.125 207.662 193.125C208.415 193.125 209.07 193.286 209.629 193.608C210.193 193.93 210.628 194.396 210.936 195.007C211.248 195.618 211.402 196.359 211.398 197.23V204.176H208.827V197.628C208.827 196.899 208.637 196.328 208.258 195.916C207.884 195.504 207.366 195.298 206.703 195.298C206.253 195.298 205.853 195.398 205.503 195.596C205.157 195.791 204.885 196.072 204.686 196.442C204.492 196.811 204.395 197.258 204.395 197.784ZM221.721 189.631V204.176H219.086V189.631H221.721ZM231.992 197.784V204.176H229.421V189.631H231.936V195.121H232.063C232.319 194.505 232.714 194.02 233.249 193.665C233.789 193.305 234.476 193.125 235.309 193.125C236.067 193.125 236.727 193.284 237.291 193.601C237.854 193.918 238.29 194.382 238.598 194.993C238.91 195.604 239.066 196.349 239.066 197.23V204.176H236.495V197.628C236.495 196.894 236.306 196.323 235.927 195.916C235.553 195.504 235.027 195.298 234.35 195.298C233.896 195.298 233.489 195.398 233.129 195.596C232.774 195.791 232.494 196.072 232.291 196.442C232.092 196.811 231.992 197.258 231.992 197.784ZM246.517 204.389C245.423 204.389 244.478 204.162 243.683 203.707C242.892 203.248 242.284 202.599 241.857 201.761C241.431 200.918 241.218 199.926 241.218 198.785C241.218 197.663 241.431 196.678 241.857 195.831C242.288 194.979 242.89 194.316 243.661 193.842C244.433 193.364 245.34 193.125 246.382 193.125C247.054 193.125 247.688 193.234 248.285 193.452C248.886 193.665 249.417 193.996 249.876 194.446C250.34 194.896 250.705 195.469 250.97 196.165C251.235 196.856 251.367 197.68 251.367 198.636V199.425H242.426V197.692H248.903C248.898 197.199 248.792 196.761 248.583 196.378C248.375 195.989 248.084 195.684 247.71 195.462C247.34 195.239 246.91 195.128 246.417 195.128C245.892 195.128 245.43 195.256 245.032 195.511C244.634 195.762 244.324 196.094 244.102 196.506C243.884 196.913 243.773 197.36 243.768 197.848V199.361C243.768 199.995 243.884 200.54 244.116 200.994C244.348 201.444 244.672 201.79 245.089 202.031C245.506 202.268 245.993 202.386 246.552 202.386C246.926 202.386 247.265 202.334 247.568 202.23C247.871 202.121 248.133 201.962 248.356 201.754C248.579 201.546 248.747 201.288 248.86 200.98L251.261 201.25C251.109 201.884 250.821 202.438 250.394 202.912C249.973 203.381 249.433 203.745 248.775 204.006C248.117 204.261 247.364 204.389 246.517 204.389ZM256.113 189.631V204.176H253.542V189.631H256.113ZM258.757 208.267V193.267H261.286V195.071H261.435C261.567 194.806 261.754 194.524 261.996 194.226C262.237 193.923 262.564 193.665 262.976 193.452C263.388 193.234 263.914 193.125 264.553 193.125C265.396 193.125 266.156 193.34 266.833 193.771C267.514 194.197 268.054 194.829 268.452 195.668C268.854 196.501 269.056 197.524 269.056 198.736C269.056 199.934 268.859 200.952 268.466 201.79C268.073 202.628 267.538 203.267 266.861 203.707C266.184 204.148 265.417 204.368 264.56 204.368C263.935 204.368 263.416 204.264 263.004 204.055C262.593 203.847 262.261 203.596 262.01 203.302C261.764 203.004 261.572 202.722 261.435 202.457H261.328V208.267H258.757ZM261.279 198.721C261.279 199.427 261.378 200.045 261.577 200.575C261.781 201.105 262.072 201.52 262.45 201.818C262.834 202.112 263.298 202.258 263.843 202.258C264.411 202.258 264.887 202.107 265.27 201.804C265.654 201.496 265.942 201.077 266.137 200.547C266.335 200.012 266.435 199.403 266.435 198.721C266.435 198.044 266.338 197.443 266.144 196.918C265.95 196.392 265.661 195.98 265.277 195.682C264.894 195.383 264.415 195.234 263.843 195.234C263.293 195.234 262.827 195.379 262.443 195.668C262.06 195.956 261.769 196.361 261.57 196.882C261.376 197.403 261.279 198.016 261.279 198.721ZM281.666 193.267V195.256H275.394V193.267H281.666ZM276.943 190.653H279.514V200.895C279.514 201.24 279.566 201.506 279.67 201.69C279.779 201.87 279.921 201.993 280.096 202.06C280.271 202.126 280.465 202.159 280.678 202.159C280.839 202.159 280.986 202.147 281.119 202.123C281.256 202.1 281.36 202.078 281.431 202.06L281.865 204.069C281.727 204.117 281.531 204.169 281.275 204.226C281.024 204.283 280.716 204.316 280.352 204.325C279.708 204.344 279.128 204.247 278.612 204.034C278.096 203.816 277.686 203.48 277.383 203.025C277.085 202.571 276.938 202.003 276.943 201.321V190.653ZM288.457 204.389C287.392 204.389 286.469 204.155 285.687 203.686C284.906 203.217 284.3 202.561 283.869 201.719C283.443 200.876 283.23 199.891 283.23 198.764C283.23 197.637 283.443 196.65 283.869 195.802C284.3 194.955 284.906 194.297 285.687 193.828C286.469 193.359 287.392 193.125 288.457 193.125C289.523 193.125 290.446 193.359 291.227 193.828C292.008 194.297 292.612 194.955 293.038 195.802C293.469 196.65 293.685 197.637 293.685 198.764C293.685 199.891 293.469 200.876 293.038 201.719C292.612 202.561 292.008 203.217 291.227 203.686C290.446 204.155 289.523 204.389 288.457 204.389ZM288.471 202.329C289.049 202.329 289.532 202.171 289.92 201.854C290.309 201.532 290.597 201.101 290.787 200.561C290.981 200.021 291.078 199.42 291.078 198.757C291.078 198.089 290.981 197.486 290.787 196.946C290.597 196.401 290.309 195.968 289.92 195.646C289.532 195.324 289.049 195.163 288.471 195.163C287.88 195.163 287.387 195.324 286.994 195.646C286.606 195.968 286.315 196.401 286.121 196.946C285.931 197.486 285.836 198.089 285.836 198.757C285.836 199.42 285.931 200.021 286.121 200.561C286.315 201.101 286.606 201.532 286.994 201.854C287.387 202.171 287.88 202.329 288.471 202.329ZM299.915 204.368C299.058 204.368 298.291 204.148 297.614 203.707C296.937 203.267 296.402 202.628 296.009 201.79C295.616 200.952 295.419 199.934 295.419 198.736C295.419 197.524 295.618 196.501 296.016 195.668C296.418 194.829 296.96 194.197 297.642 193.771C298.324 193.34 299.084 193.125 299.922 193.125C300.561 193.125 301.087 193.234 301.499 193.452C301.911 193.665 302.237 193.923 302.479 194.226C302.72 194.524 302.907 194.806 303.04 195.071H303.147V189.631H305.725V204.176H303.196V202.457H303.04C302.907 202.722 302.716 203.004 302.465 203.302C302.214 203.596 301.882 203.847 301.47 204.055C301.058 204.264 300.54 204.368 299.915 204.368ZM300.632 202.258C301.177 202.258 301.641 202.112 302.024 201.818C302.408 201.52 302.699 201.105 302.898 200.575C303.097 200.045 303.196 199.427 303.196 198.721C303.196 198.016 303.097 197.403 302.898 196.882C302.704 196.361 302.415 195.956 302.031 195.668C301.653 195.379 301.186 195.234 300.632 195.234C300.059 195.234 299.581 195.383 299.198 195.682C298.814 195.98 298.525 196.392 298.331 196.918C298.137 197.443 298.04 198.044 298.04 198.721C298.04 199.403 298.137 200.012 298.331 200.547C298.53 201.077 298.821 201.496 299.205 201.804C299.593 202.107 300.069 202.258 300.632 202.258ZM311.604 204.396C310.912 204.396 310.29 204.273 309.736 204.027C309.186 203.776 308.751 203.407 308.429 202.919C308.112 202.431 307.953 201.83 307.953 201.115C307.953 200.499 308.067 199.99 308.294 199.588C308.521 199.185 308.831 198.864 309.224 198.622C309.617 198.381 310.06 198.198 310.552 198.075C311.05 197.947 311.563 197.855 312.094 197.798C312.733 197.732 313.251 197.673 313.649 197.621C314.047 197.564 314.336 197.479 314.515 197.365C314.7 197.247 314.792 197.064 314.792 196.818V196.775C314.792 196.24 314.634 195.826 314.317 195.533C313.999 195.239 313.542 195.092 312.946 195.092C312.316 195.092 311.817 195.23 311.447 195.504C311.083 195.779 310.836 196.103 310.709 196.477L308.308 196.136C308.497 195.473 308.81 194.919 309.246 194.474C309.681 194.025 310.214 193.688 310.844 193.466C311.473 193.239 312.169 193.125 312.932 193.125C313.457 193.125 313.98 193.186 314.501 193.31C315.022 193.433 315.498 193.636 315.929 193.92C316.36 194.2 316.705 194.581 316.966 195.064C317.231 195.547 317.363 196.15 317.363 196.875V204.176H314.892V202.677H314.807C314.65 202.98 314.43 203.265 314.146 203.53C313.867 203.79 313.514 204.001 313.088 204.162C312.667 204.318 312.172 204.396 311.604 204.396ZM312.271 202.507C312.787 202.507 313.235 202.405 313.613 202.202C313.992 201.993 314.283 201.719 314.487 201.378C314.695 201.037 314.8 200.665 314.8 200.263V198.977C314.719 199.043 314.582 199.105 314.388 199.162C314.198 199.219 313.985 199.268 313.748 199.311C313.512 199.354 313.277 199.391 313.045 199.425C312.813 199.458 312.612 199.486 312.442 199.51C312.058 199.562 311.715 199.647 311.412 199.766C311.109 199.884 310.87 200.05 310.694 200.263C310.519 200.471 310.432 200.741 310.432 201.072C310.432 201.546 310.604 201.903 310.95 202.145C311.296 202.386 311.736 202.507 312.271 202.507ZM321.156 208.267C320.806 208.267 320.481 208.239 320.183 208.182C319.89 208.13 319.655 208.068 319.48 207.997L320.077 205.994C320.451 206.103 320.784 206.155 321.078 206.15C321.372 206.146 321.63 206.053 321.852 205.873C322.079 205.698 322.271 205.405 322.427 204.993L322.648 204.403L318.692 193.267H321.419L323.933 201.506H324.047L326.568 193.267H329.302L324.935 205.497C324.731 206.075 324.461 206.569 324.125 206.981C323.789 207.398 323.377 207.715 322.889 207.933C322.406 208.156 321.828 208.267 321.156 208.267ZM333.539 199.9V199.716C333.544 198.859 333.624 198.177 333.78 197.67C333.941 197.164 334.169 196.757 334.462 196.449C334.756 196.136 335.113 195.85 335.535 195.589C335.823 195.409 336.082 195.213 336.309 195C336.541 194.782 336.723 194.541 336.856 194.275C336.988 194.006 337.055 193.705 337.055 193.373C337.055 192.999 336.967 192.675 336.792 192.4C336.617 192.126 336.38 191.913 336.082 191.761C335.788 191.61 335.459 191.534 335.094 191.534C334.758 191.534 334.439 191.607 334.135 191.754C333.837 191.896 333.589 192.114 333.39 192.408C333.196 192.696 333.087 193.063 333.063 193.508H330.535C330.558 192.609 330.776 191.856 331.188 191.25C331.605 190.644 332.154 190.189 332.836 189.886C333.522 189.583 334.28 189.432 335.109 189.432C336.013 189.432 336.808 189.59 337.495 189.908C338.186 190.225 338.724 190.677 339.107 191.264C339.495 191.846 339.689 192.538 339.689 193.338C339.689 193.878 339.602 194.361 339.427 194.787C339.256 195.213 339.012 195.592 338.695 195.923C338.378 196.255 338.002 196.551 337.566 196.811C337.182 197.048 336.868 197.294 336.621 197.55C336.38 197.805 336.2 198.106 336.082 198.452C335.968 198.793 335.909 199.214 335.904 199.716V199.9H333.539ZM334.775 204.332C334.349 204.332 333.982 204.181 333.674 203.878C333.366 203.575 333.212 203.205 333.212 202.77C333.212 202.344 333.366 201.979 333.674 201.676C333.982 201.373 334.349 201.221 334.775 201.221C335.196 201.221 335.561 201.373 335.868 201.676C336.181 201.979 336.337 202.344 336.337 202.77C336.337 203.059 336.264 203.321 336.117 203.558C335.975 203.795 335.786 203.984 335.549 204.126C335.317 204.264 335.059 204.332 334.775 204.332Z" fill="black"/>
<path d="M124.248 432.765L115.442 415.153C115.442 425.846 106.713 442.201 106.713 442.201C106.713 442.201 121.313 437.377 124.248 432.765Z" fill="#D9D9D9"/>
<rect x="114.269" y="373.364" width="246.316" height="62.0533" rx="10" fill="#D9D9D9"/>
<path d="M124.248 432.229L115.442 413.619C115.442 424.918 106.713 442.201 106.713 442.201C106.713 442.201 121.313 437.104 124.248 432.229Z" fill="#EDEDED"/>
<rect x="114.269" y="356.33" width="246.316" height="78.7025" rx="10" fill="#EDEDED"/>
<path d="M142.923 376.841H140.267C140.191 376.406 140.051 376.02 139.848 375.684C139.644 375.343 139.391 375.054 139.088 374.817C138.785 374.58 138.439 374.403 138.051 374.284C137.667 374.161 137.253 374.1 136.808 374.1C136.017 374.1 135.316 374.299 134.705 374.696C134.095 375.089 133.616 375.667 133.271 376.429C132.925 377.187 132.752 378.113 132.752 379.206C132.752 380.319 132.925 381.256 133.271 382.019C133.621 382.776 134.099 383.349 134.705 383.738C135.316 384.121 136.015 384.313 136.801 384.313C137.236 384.313 137.643 384.256 138.022 384.142C138.406 384.024 138.749 383.851 139.052 383.624C139.36 383.397 139.618 383.117 139.826 382.786C140.039 382.454 140.186 382.076 140.267 381.649L142.923 381.664C142.823 382.355 142.608 383.004 142.276 383.61C141.95 384.216 141.521 384.751 140.991 385.215C140.461 385.674 139.84 386.034 139.13 386.294C138.42 386.55 137.632 386.678 136.765 386.678C135.487 386.678 134.346 386.382 133.342 385.79C132.338 385.198 131.547 384.344 130.97 383.226C130.392 382.109 130.103 380.769 130.103 379.206C130.103 377.639 130.394 376.299 130.977 375.186C131.559 374.069 132.352 373.214 133.356 372.622C134.36 372.031 135.496 371.735 136.765 371.735C137.575 371.735 138.328 371.848 139.024 372.076C139.72 372.303 140.34 372.637 140.884 373.077C141.429 373.513 141.876 374.048 142.227 374.682C142.582 375.312 142.814 376.032 142.923 376.841ZM148.361 386.699C147.67 386.699 147.047 386.576 146.493 386.33C145.944 386.079 145.509 385.71 145.187 385.222C144.869 384.734 144.711 384.133 144.711 383.418C144.711 382.802 144.824 382.293 145.052 381.891C145.279 381.488 145.589 381.167 145.982 380.925C146.375 380.684 146.818 380.501 147.31 380.378C147.807 380.25 148.321 380.158 148.851 380.101C149.491 380.035 150.009 379.976 150.407 379.924C150.805 379.867 151.093 379.782 151.273 379.668C151.458 379.55 151.55 379.367 151.55 379.121V379.078C151.55 378.543 151.392 378.129 151.074 377.836C150.757 377.542 150.3 377.395 149.704 377.395C149.074 377.395 148.574 377.533 148.205 377.807C147.841 378.082 147.594 378.406 147.466 378.78L145.066 378.439C145.255 377.776 145.568 377.222 146.003 376.777C146.439 376.327 146.972 375.991 147.601 375.769C148.231 375.542 148.927 375.428 149.689 375.428C150.215 375.428 150.738 375.489 151.259 375.613C151.78 375.736 152.256 375.939 152.687 376.223C153.118 376.503 153.463 376.884 153.724 377.367C153.989 377.85 154.121 378.453 154.121 379.178V386.479H151.65V384.98H151.564C151.408 385.283 151.188 385.568 150.904 385.833C150.625 386.093 150.272 386.304 149.846 386.465C149.424 386.621 148.93 386.699 148.361 386.699ZM149.029 384.81C149.545 384.81 149.993 384.708 150.371 384.505C150.75 384.296 151.041 384.022 151.245 383.681C151.453 383.34 151.557 382.968 151.557 382.566V381.28C151.477 381.346 151.34 381.408 151.145 381.465C150.956 381.522 150.743 381.571 150.506 381.614C150.269 381.657 150.035 381.694 149.803 381.728C149.571 381.761 149.37 381.789 149.199 381.813C148.816 381.865 148.473 381.95 148.17 382.068C147.867 382.187 147.627 382.353 147.452 382.566C147.277 382.774 147.189 383.044 147.189 383.375C147.189 383.849 147.362 384.206 147.708 384.448C148.054 384.689 148.494 384.81 149.029 384.81ZM159.278 380.087V386.479H156.707V375.57H159.164V377.424H159.292C159.543 376.813 159.943 376.327 160.492 375.968C161.046 375.608 161.73 375.428 162.545 375.428C163.297 375.428 163.953 375.589 164.512 375.911C165.075 376.233 165.511 376.699 165.819 377.31C166.131 377.921 166.285 378.662 166.28 379.533V386.479H163.709V379.931C163.709 379.202 163.52 378.631 163.141 378.219C162.767 377.807 162.249 377.601 161.586 377.601C161.136 377.601 160.736 377.701 160.385 377.899C160.04 378.094 159.768 378.375 159.569 378.745C159.375 379.114 159.278 379.561 159.278 380.087ZM175.453 390.57C175.103 390.57 174.778 390.542 174.48 390.485C174.186 390.433 173.952 390.371 173.777 390.3L174.373 388.297C174.747 388.406 175.081 388.458 175.375 388.453C175.668 388.449 175.926 388.356 176.149 388.176C176.376 388.001 176.568 387.708 176.724 387.296L176.944 386.706L172.988 375.57H175.716L178.23 383.809H178.344L180.865 375.57H183.599L179.231 387.8C179.028 388.378 178.758 388.872 178.422 389.284C178.086 389.701 177.674 390.018 177.186 390.236C176.703 390.459 176.125 390.57 175.453 390.57ZM189.766 386.692C188.7 386.692 187.777 386.458 186.996 385.989C186.215 385.52 185.609 384.864 185.178 384.022C184.752 383.179 184.539 382.194 184.539 381.067C184.539 379.94 184.752 378.953 185.178 378.105C185.609 377.258 186.215 376.6 186.996 376.131C187.777 375.662 188.7 375.428 189.766 375.428C190.831 375.428 191.754 375.662 192.536 376.131C193.317 376.6 193.921 377.258 194.347 378.105C194.778 378.953 194.993 379.94 194.993 381.067C194.993 382.194 194.778 383.179 194.347 384.022C193.921 384.864 193.317 385.52 192.536 385.989C191.754 386.458 190.831 386.692 189.766 386.692ZM189.78 384.632C190.358 384.632 190.841 384.474 191.229 384.157C191.617 383.835 191.906 383.404 192.095 382.864C192.289 382.324 192.387 381.723 192.387 381.06C192.387 380.392 192.289 379.789 192.095 379.249C191.906 378.704 191.617 378.271 191.229 377.949C190.841 377.627 190.358 377.466 189.78 377.466C189.188 377.466 188.696 377.627 188.303 377.949C187.914 378.271 187.623 378.704 187.429 379.249C187.24 379.789 187.145 380.392 187.145 381.06C187.145 381.723 187.24 382.324 187.429 382.864C187.623 383.404 187.914 383.835 188.303 384.157C188.696 384.474 189.188 384.632 189.78 384.632ZM204.128 381.891V375.57H206.699V386.479H204.207V384.54H204.093C203.847 385.151 203.442 385.65 202.878 386.039C202.32 386.427 201.631 386.621 200.812 386.621C200.097 386.621 199.465 386.462 198.915 386.145C198.371 385.823 197.945 385.357 197.637 384.746C197.329 384.131 197.175 383.387 197.175 382.516V375.57H199.746V382.118C199.746 382.809 199.936 383.359 200.314 383.766C200.693 384.173 201.19 384.377 201.806 384.377C202.185 384.377 202.552 384.284 202.907 384.1C203.262 383.915 203.553 383.64 203.78 383.276C204.012 382.907 204.128 382.445 204.128 381.891ZM217.443 386.699C216.752 386.699 216.129 386.576 215.575 386.33C215.026 386.079 214.591 385.71 214.269 385.222C213.951 384.734 213.793 384.133 213.793 383.418C213.793 382.802 213.906 382.293 214.134 381.891C214.361 381.488 214.671 381.167 215.064 380.925C215.457 380.684 215.9 380.501 216.392 380.378C216.889 380.25 217.403 380.158 217.933 380.101C218.573 380.035 219.091 379.976 219.489 379.924C219.887 379.867 220.175 379.782 220.355 379.668C220.54 379.55 220.632 379.367 220.632 379.121V379.078C220.632 378.543 220.474 378.129 220.156 377.836C219.839 377.542 219.382 377.395 218.786 377.395C218.156 377.395 217.656 377.533 217.287 377.807C216.923 378.082 216.676 378.406 216.548 378.78L214.148 378.439C214.337 377.776 214.65 377.222 215.085 376.777C215.521 376.327 216.054 375.991 216.683 375.769C217.313 375.542 218.009 375.428 218.772 375.428C219.297 375.428 219.82 375.489 220.341 375.613C220.862 375.736 221.338 375.939 221.769 376.223C222.2 376.503 222.545 376.884 222.806 377.367C223.071 377.85 223.203 378.453 223.203 379.178V386.479H220.732V384.98H220.647C220.49 385.283 220.27 385.568 219.986 385.833C219.707 386.093 219.354 386.304 218.928 386.465C218.506 386.621 218.012 386.699 217.443 386.699ZM218.111 384.81C218.627 384.81 219.075 384.708 219.453 384.505C219.832 384.296 220.123 384.022 220.327 383.681C220.535 383.34 220.639 382.968 220.639 382.566V381.28C220.559 381.346 220.422 381.408 220.227 381.465C220.038 381.522 219.825 381.571 219.588 381.614C219.352 381.657 219.117 381.694 218.885 381.728C218.653 381.761 218.452 381.789 218.281 381.813C217.898 381.865 217.555 381.95 217.252 382.068C216.949 382.187 216.709 382.353 216.534 382.566C216.359 382.774 216.272 383.044 216.272 383.375C216.272 383.849 216.444 384.206 216.79 384.448C217.136 384.689 217.576 384.81 218.111 384.81ZM234.411 378.453L232.067 378.709C232.001 378.472 231.885 378.25 231.719 378.042C231.558 377.833 231.34 377.665 231.066 377.537C230.791 377.409 230.455 377.345 230.057 377.345C229.522 377.345 229.072 377.461 228.708 377.693C228.348 377.925 228.17 378.226 228.175 378.595C228.17 378.913 228.286 379.171 228.523 379.37C228.764 379.568 229.162 379.732 229.716 379.86L231.577 380.257C232.609 380.48 233.376 380.833 233.878 381.316C234.385 381.799 234.64 382.431 234.645 383.212C234.64 383.899 234.439 384.505 234.041 385.03C233.648 385.551 233.102 385.958 232.401 386.252C231.7 386.545 230.895 386.692 229.986 386.692C228.651 386.692 227.576 386.413 226.762 385.854C225.947 385.291 225.462 384.507 225.306 383.503L227.813 383.262C227.926 383.754 228.168 384.126 228.537 384.377C228.906 384.628 229.387 384.753 229.979 384.753C230.59 384.753 231.08 384.628 231.449 384.377C231.823 384.126 232.01 383.816 232.01 383.446C232.01 383.134 231.889 382.876 231.648 382.672C231.411 382.469 231.042 382.312 230.54 382.203L228.679 381.813C227.633 381.595 226.859 381.228 226.357 380.712C225.855 380.191 225.606 379.533 225.611 378.738C225.606 378.065 225.789 377.483 226.158 376.99C226.532 376.493 227.05 376.11 227.713 375.84C228.381 375.565 229.15 375.428 230.022 375.428C231.3 375.428 232.306 375.7 233.04 376.245C233.779 376.789 234.236 377.525 234.411 378.453ZM239.109 383.056L239.102 379.952H239.514L243.434 375.57H246.438L241.616 380.939H241.083L239.109 383.056ZM236.765 386.479V371.934H239.336V386.479H236.765ZM243.612 386.479L240.061 381.515L241.794 379.703L246.687 386.479H243.612ZM258.638 375.57V377.559H252.189V375.57H258.638ZM253.802 386.479V374.54C253.802 373.806 253.953 373.195 254.256 372.708C254.564 372.22 254.976 371.855 255.492 371.614C256.008 371.372 256.581 371.252 257.211 371.252C257.656 371.252 258.051 371.287 258.397 371.358C258.743 371.429 258.998 371.493 259.164 371.55L258.653 373.539C258.544 373.506 258.406 373.472 258.241 373.439C258.075 373.401 257.89 373.382 257.687 373.382C257.208 373.382 256.87 373.498 256.671 373.73C256.477 373.958 256.38 374.284 256.38 374.711V386.479H253.802ZM265 386.692C263.935 386.692 263.012 386.458 262.23 385.989C261.449 385.52 260.843 384.864 260.412 384.022C259.986 383.179 259.773 382.194 259.773 381.067C259.773 379.94 259.986 378.953 260.412 378.105C260.843 377.258 261.449 376.6 262.23 376.131C263.012 375.662 263.935 375.428 265 375.428C266.066 375.428 266.989 375.662 267.77 376.131C268.551 376.6 269.155 377.258 269.581 378.105C270.012 378.953 270.227 379.94 270.227 381.067C270.227 382.194 270.012 383.179 269.581 384.022C269.155 384.864 268.551 385.52 267.77 385.989C266.989 386.458 266.066 386.692 265 386.692ZM265.014 384.632C265.592 384.632 266.075 384.474 266.463 384.157C266.852 383.835 267.14 383.404 267.33 382.864C267.524 382.324 267.621 381.723 267.621 381.06C267.621 380.392 267.524 379.789 267.33 379.249C267.14 378.704 266.852 378.271 266.463 377.949C266.075 377.627 265.592 377.466 265.014 377.466C264.423 377.466 263.93 377.627 263.537 377.949C263.149 378.271 262.858 378.704 262.664 379.249C262.474 379.789 262.379 380.392 262.379 381.06C262.379 381.723 262.474 382.324 262.664 382.864C262.858 383.404 263.149 383.835 263.537 384.157C263.93 384.474 264.423 384.632 265.014 384.632ZM272.41 386.479V375.57H274.903V377.388H275.016C275.215 376.758 275.556 376.273 276.039 375.932C276.527 375.586 277.083 375.414 277.708 375.414C277.85 375.414 278.009 375.421 278.184 375.435C278.364 375.444 278.513 375.461 278.631 375.485V377.85C278.522 377.812 278.35 377.779 278.113 377.75C277.881 377.717 277.656 377.701 277.438 377.701C276.969 377.701 276.548 377.802 276.174 378.006C275.805 378.205 275.513 378.482 275.3 378.837C275.087 379.192 274.981 379.602 274.981 380.066V386.479H272.41ZM290.748 375.57V377.559H284.476V375.57H290.748ZM286.025 372.956H288.596V383.198C288.596 383.543 288.648 383.809 288.752 383.993C288.861 384.173 289.003 384.296 289.178 384.363C289.353 384.429 289.547 384.462 289.76 384.462C289.921 384.462 290.068 384.45 290.201 384.426C290.338 384.403 290.442 384.381 290.513 384.363L290.947 386.372C290.809 386.42 290.613 386.472 290.357 386.529C290.106 386.586 289.798 386.619 289.434 386.628C288.79 386.647 288.21 386.55 287.694 386.337C287.178 386.119 286.768 385.783 286.465 385.328C286.167 384.874 286.02 384.306 286.025 383.624V372.956ZM295.703 380.087V386.479H293.132V371.934H295.647V377.424H295.774C296.03 376.808 296.425 376.323 296.96 375.968C297.5 375.608 298.187 375.428 299.02 375.428C299.778 375.428 300.438 375.586 301.002 375.904C301.565 376.221 302.001 376.685 302.308 377.296C302.621 377.907 302.777 378.652 302.777 379.533V386.479H300.206V379.931C300.206 379.197 300.017 378.626 299.638 378.219C299.264 377.807 298.738 377.601 298.061 377.601C297.607 377.601 297.2 377.701 296.84 377.899C296.485 378.094 296.205 378.375 296.002 378.745C295.803 379.114 295.703 379.561 295.703 380.087ZM310.227 386.692C309.134 386.692 308.189 386.465 307.394 386.01C306.603 385.551 305.995 384.902 305.568 384.064C305.142 383.221 304.929 382.229 304.929 381.088C304.929 379.966 305.142 378.981 305.568 378.134C305.999 377.282 306.601 376.619 307.372 376.145C308.144 375.667 309.051 375.428 310.093 375.428C310.765 375.428 311.399 375.537 311.996 375.755C312.597 375.968 313.128 376.299 313.587 376.749C314.051 377.199 314.415 377.772 314.681 378.468C314.946 379.159 315.078 379.983 315.078 380.939V381.728H306.137V379.995H312.614C312.609 379.502 312.503 379.064 312.294 378.681C312.086 378.292 311.795 377.987 311.421 377.765C311.051 377.542 310.62 377.431 310.128 377.431C309.602 377.431 309.141 377.559 308.743 377.814C308.345 378.065 308.035 378.397 307.813 378.809C307.595 379.216 307.484 379.663 307.479 380.151V381.664C307.479 382.298 307.595 382.843 307.827 383.297C308.059 383.747 308.383 384.093 308.8 384.334C309.217 384.571 309.704 384.689 310.263 384.689C310.637 384.689 310.976 384.637 311.279 384.533C311.582 384.424 311.844 384.265 312.067 384.057C312.289 383.849 312.458 383.591 312.571 383.283L314.972 383.553C314.82 384.187 314.531 384.741 314.105 385.215C313.684 385.684 313.144 386.048 312.486 386.309C311.828 386.564 311.075 386.692 310.227 386.692ZM132.93 401.934V416.479H130.359V401.934H132.93ZM140.332 416.692C139.267 416.692 138.344 416.458 137.562 415.989C136.781 415.52 136.175 414.864 135.744 414.022C135.318 413.179 135.105 412.194 135.105 411.067C135.105 409.94 135.318 408.953 135.744 408.105C136.175 407.258 136.781 406.6 137.562 406.131C138.344 405.662 139.267 405.428 140.332 405.428C141.398 405.428 142.321 405.662 143.102 406.131C143.883 406.6 144.487 407.258 144.913 408.105C145.344 408.953 145.56 409.94 145.56 411.067C145.56 412.194 145.344 413.179 144.913 414.022C144.487 414.864 143.883 415.52 143.102 415.989C142.321 416.458 141.398 416.692 140.332 416.692ZM140.346 414.632C140.924 414.632 141.407 414.474 141.795 414.157C142.184 413.835 142.472 413.404 142.662 412.864C142.856 412.324 142.953 411.723 142.953 411.06C142.953 410.392 142.856 409.789 142.662 409.249C142.472 408.704 142.184 408.271 141.795 407.949C141.407 407.627 140.924 407.466 140.346 407.466C139.755 407.466 139.262 407.627 138.869 407.949C138.481 408.271 138.19 408.704 137.996 409.249C137.806 409.789 137.711 410.392 137.711 411.06C137.711 411.723 137.806 412.324 137.996 412.864C138.19 413.404 138.481 413.835 138.869 414.157C139.262 414.474 139.755 414.632 140.346 414.632ZM152.5 416.692C151.411 416.692 150.476 416.453 149.695 415.975C148.918 415.497 148.319 414.836 147.898 413.993C147.481 413.146 147.273 412.17 147.273 411.067C147.273 409.959 147.486 408.981 147.912 408.134C148.338 407.282 148.94 406.619 149.716 406.145C150.497 405.667 151.421 405.428 152.486 405.428C153.371 405.428 154.155 405.591 154.837 405.918C155.523 406.24 156.07 406.697 156.477 407.289C156.885 407.876 157.117 408.562 157.173 409.348H154.716C154.617 408.823 154.38 408.385 154.006 408.034C153.637 407.679 153.142 407.502 152.522 407.502C151.996 407.502 151.534 407.644 151.137 407.928C150.739 408.207 150.429 408.61 150.206 409.135C149.988 409.661 149.879 410.291 149.879 411.024C149.879 411.768 149.988 412.407 150.206 412.942C150.424 413.472 150.729 413.882 151.122 414.171C151.52 414.455 151.986 414.597 152.522 414.597C152.9 414.597 153.239 414.526 153.537 414.384C153.84 414.237 154.093 414.026 154.297 413.752C154.501 413.477 154.64 413.143 154.716 412.75H157.173C157.112 413.522 156.885 414.206 156.492 414.803C156.099 415.395 155.564 415.859 154.887 416.195C154.209 416.526 153.414 416.692 152.5 416.692ZM162.424 416.699C161.733 416.699 161.11 416.576 160.556 416.33C160.007 416.079 159.571 415.71 159.249 415.222C158.932 414.734 158.773 414.133 158.773 413.418C158.773 412.802 158.887 412.293 159.114 411.891C159.341 411.488 159.652 411.167 160.045 410.925C160.438 410.684 160.88 410.501 161.373 410.378C161.87 410.25 162.384 410.158 162.914 410.101C163.553 410.035 164.072 409.976 164.469 409.924C164.867 409.867 165.156 409.782 165.336 409.668C165.52 409.55 165.613 409.367 165.613 409.121V409.078C165.613 408.543 165.454 408.129 165.137 407.836C164.82 407.542 164.363 407.395 163.766 407.395C163.136 407.395 162.637 407.533 162.268 407.807C161.903 408.082 161.657 408.406 161.529 408.78L159.128 408.439C159.318 407.776 159.63 407.222 160.066 406.777C160.502 406.327 161.034 405.991 161.664 405.769C162.294 405.542 162.99 405.428 163.752 405.428C164.278 405.428 164.801 405.489 165.322 405.613C165.842 405.736 166.318 405.939 166.749 406.223C167.18 406.503 167.526 406.884 167.786 407.367C168.051 407.85 168.184 408.453 168.184 409.178V416.479H165.712V414.98H165.627C165.471 415.283 165.251 415.568 164.966 415.833C164.687 416.093 164.334 416.304 163.908 416.465C163.487 416.621 162.992 416.699 162.424 416.699ZM163.091 414.81C163.608 414.81 164.055 414.708 164.434 414.505C164.813 414.296 165.104 414.022 165.307 413.681C165.516 413.34 165.62 412.968 165.62 412.566V411.28C165.539 411.346 165.402 411.408 165.208 411.465C165.019 411.522 164.805 411.571 164.569 411.614C164.332 411.657 164.098 411.694 163.866 411.728C163.634 411.761 163.432 411.789 163.262 411.813C162.878 411.865 162.535 411.95 162.232 412.068C161.929 412.187 161.69 412.353 161.515 412.566C161.34 412.774 161.252 413.044 161.252 413.375C161.252 413.849 161.425 414.206 161.77 414.448C162.116 414.689 162.556 414.81 163.091 414.81ZM176.216 405.57V407.559H169.945V405.57H176.216ZM171.493 402.956H174.064V413.198C174.064 413.543 174.117 413.809 174.221 413.993C174.33 414.173 174.472 414.296 174.647 414.363C174.822 414.429 175.016 414.462 175.229 414.462C175.39 414.462 175.537 414.45 175.67 414.426C175.807 414.403 175.911 414.381 175.982 414.363L176.415 416.372C176.278 416.42 176.082 416.472 175.826 416.529C175.575 416.586 175.267 416.619 174.903 416.628C174.259 416.647 173.679 416.55 173.162 416.337C172.646 416.119 172.237 415.783 171.934 415.328C171.635 414.874 171.489 414.306 171.493 413.624V402.956ZM178.367 416.479V405.57H180.938V416.479H178.367ZM179.659 404.022C179.252 404.022 178.902 403.887 178.608 403.617C178.315 403.342 178.168 403.013 178.168 402.63C178.168 402.241 178.315 401.912 178.608 401.642C178.902 401.368 179.252 401.23 179.659 401.23C180.071 401.23 180.422 401.368 180.71 401.642C181.004 401.912 181.151 402.241 181.151 402.63C181.151 403.013 181.004 403.342 180.71 403.617C180.422 403.887 180.071 404.022 179.659 404.022ZM188.34 416.692C187.275 416.692 186.351 416.458 185.57 415.989C184.789 415.52 184.183 414.864 183.752 414.022C183.326 413.179 183.113 412.194 183.113 411.067C183.113 409.94 183.326 408.953 183.752 408.105C184.183 407.258 184.789 406.6 185.57 406.131C186.351 405.662 187.275 405.428 188.34 405.428C189.405 405.428 190.329 405.662 191.11 406.131C191.891 406.6 192.495 407.258 192.921 408.105C193.352 408.953 193.567 409.94 193.567 411.067C193.567 412.194 193.352 413.179 192.921 414.022C192.495 414.864 191.891 415.52 191.11 415.989C190.329 416.458 189.405 416.692 188.34 416.692ZM188.354 414.632C188.932 414.632 189.415 414.474 189.803 414.157C190.191 413.835 190.48 413.404 190.67 412.864C190.864 412.324 190.961 411.723 190.961 411.06C190.961 410.392 190.864 409.789 190.67 409.249C190.48 408.704 190.191 408.271 189.803 407.949C189.415 407.627 188.932 407.466 188.354 407.466C187.762 407.466 187.27 407.627 186.877 407.949C186.489 408.271 186.198 408.704 186.003 409.249C185.814 409.789 185.719 410.392 185.719 411.06C185.719 411.723 185.814 412.324 186.003 412.864C186.198 413.404 186.489 413.835 186.877 414.157C187.27 414.474 187.762 414.632 188.354 414.632ZM198.321 410.087V416.479H195.749V405.57H198.207V407.424H198.335C198.586 406.813 198.986 406.327 199.535 405.968C200.089 405.608 200.773 405.428 201.588 405.428C202.34 405.428 202.996 405.589 203.555 405.911C204.118 406.233 204.554 406.699 204.862 407.31C205.174 407.921 205.328 408.662 205.323 409.533V416.479H202.752V409.931C202.752 409.202 202.563 408.631 202.184 408.219C201.81 407.807 201.292 407.601 200.629 407.601C200.179 407.601 199.779 407.701 199.428 407.899C199.083 408.094 198.811 408.375 198.612 408.745C198.418 409.114 198.321 409.561 198.321 410.087ZM216.037 416.699C215.346 416.699 214.723 416.576 214.169 416.33C213.62 416.079 213.184 415.71 212.862 415.222C212.545 414.734 212.387 414.133 212.387 413.418C212.387 412.802 212.5 412.293 212.727 411.891C212.955 411.488 213.265 411.167 213.658 410.925C214.051 410.684 214.494 410.501 214.986 410.378C215.483 410.25 215.997 410.158 216.527 410.101C217.166 410.035 217.685 409.976 218.083 409.924C218.48 409.867 218.769 409.782 218.949 409.668C219.134 409.55 219.226 409.367 219.226 409.121V409.078C219.226 408.543 219.067 408.129 218.75 407.836C218.433 407.542 217.976 407.395 217.379 407.395C216.75 407.395 216.25 407.533 215.881 407.807C215.516 408.082 215.27 408.406 215.142 408.78L212.742 408.439C212.931 407.776 213.244 407.222 213.679 406.777C214.115 406.327 214.647 405.991 215.277 405.769C215.907 405.542 216.603 405.428 217.365 405.428C217.891 405.428 218.414 405.489 218.935 405.613C219.456 405.736 219.932 405.939 220.362 406.223C220.793 406.503 221.139 406.884 221.399 407.367C221.664 407.85 221.797 408.453 221.797 409.178V416.479H219.325V414.98H219.24C219.084 415.283 218.864 415.568 218.58 415.833C218.3 416.093 217.948 416.304 217.522 416.465C217.1 416.621 216.605 416.699 216.037 416.699ZM216.705 414.81C217.221 414.81 217.668 414.708 218.047 414.505C218.426 414.296 218.717 414.022 218.921 413.681C219.129 413.34 219.233 412.968 219.233 412.566V411.28C219.153 411.346 219.015 411.408 218.821 411.465C218.632 411.522 218.419 411.571 218.182 411.614C217.945 411.657 217.711 411.694 217.479 411.728C217.247 411.761 217.046 411.789 216.875 411.813C216.492 411.865 216.148 411.95 215.845 412.068C215.542 412.187 215.303 412.353 215.128 412.566C214.953 412.774 214.865 413.044 214.865 413.375C214.865 413.849 215.038 414.206 215.384 414.448C215.729 414.689 216.17 414.81 216.705 414.81ZM226.953 410.087V416.479H224.382V405.57H226.84V407.424H226.968C227.218 406.813 227.619 406.327 228.168 405.968C228.722 405.608 229.406 405.428 230.22 405.428C230.973 405.428 231.629 405.589 232.188 405.911C232.751 406.233 233.187 406.699 233.495 407.31C233.807 407.921 233.961 408.662 233.956 409.533V416.479H231.385V409.931C231.385 409.202 231.196 408.631 230.817 408.219C230.443 407.807 229.924 407.601 229.262 407.601C228.812 407.601 228.412 407.701 228.061 407.899C227.716 408.094 227.443 408.375 227.245 408.745C227.05 409.114 226.953 409.561 226.953 410.087ZM240.618 416.671C239.761 416.671 238.994 416.451 238.317 416.01C237.64 415.57 237.105 414.931 236.712 414.093C236.319 413.255 236.122 412.237 236.122 411.039C236.122 409.827 236.321 408.804 236.719 407.97C237.121 407.132 237.664 406.5 238.345 406.074C239.027 405.643 239.787 405.428 240.625 405.428C241.264 405.428 241.79 405.537 242.202 405.755C242.614 405.968 242.941 406.226 243.182 406.529C243.423 406.827 243.611 407.109 243.743 407.374H243.85V401.934H246.428V416.479H243.899V414.76H243.743C243.611 415.025 243.419 415.307 243.168 415.605C242.917 415.899 242.585 416.15 242.173 416.358C241.762 416.567 241.243 416.671 240.618 416.671ZM241.335 414.561C241.88 414.561 242.344 414.415 242.727 414.121C243.111 413.823 243.402 413.408 243.601 412.878C243.8 412.348 243.899 411.73 243.899 411.024C243.899 410.319 243.8 409.706 243.601 409.185C243.407 408.664 243.118 408.259 242.735 407.97C242.356 407.682 241.889 407.537 241.335 407.537C240.763 407.537 240.284 407.686 239.901 407.985C239.517 408.283 239.228 408.695 239.034 409.22C238.84 409.746 238.743 410.347 238.743 411.024C238.743 411.706 238.84 412.315 239.034 412.85C239.233 413.38 239.524 413.799 239.908 414.107C240.296 414.41 240.772 414.561 241.335 414.561ZM259.576 405.57V407.559H253.305V405.57H259.576ZM254.853 402.956H257.424V413.198C257.424 413.543 257.476 413.809 257.58 413.993C257.689 414.173 257.831 414.296 258.006 414.363C258.181 414.429 258.376 414.462 258.589 414.462C258.75 414.462 258.896 414.45 259.029 414.426C259.166 414.403 259.27 414.381 259.341 414.363L259.775 416.372C259.637 416.42 259.441 416.472 259.185 416.529C258.934 416.586 258.627 416.619 258.262 416.628C257.618 416.647 257.038 416.55 256.522 416.337C256.006 416.119 255.596 415.783 255.293 415.328C254.995 414.874 254.848 414.306 254.853 413.624V402.956ZM261.726 416.479V405.57H264.297V416.479H261.726ZM263.019 404.022C262.611 404.022 262.261 403.887 261.968 403.617C261.674 403.342 261.527 403.013 261.527 402.63C261.527 402.241 261.674 401.912 261.968 401.642C262.261 401.368 262.611 401.23 263.019 401.23C263.431 401.23 263.781 401.368 264.07 401.642C264.363 401.912 264.51 402.241 264.51 402.63C264.51 403.013 264.363 403.342 264.07 403.617C263.781 403.887 263.431 404.022 263.019 404.022ZM266.941 416.479V405.57H269.398V407.424H269.526C269.753 406.799 270.13 406.311 270.655 405.961C271.181 405.605 271.808 405.428 272.537 405.428C273.276 405.428 273.899 405.608 274.405 405.968C274.917 406.323 275.277 406.808 275.485 407.424H275.599C275.84 406.818 276.247 406.335 276.82 405.975C277.398 405.61 278.082 405.428 278.873 405.428C279.877 405.428 280.696 405.745 281.33 406.38C281.965 407.014 282.282 407.94 282.282 409.157V416.479H279.704V409.554C279.704 408.877 279.524 408.382 279.164 408.07C278.804 407.753 278.364 407.594 277.843 407.594C277.223 407.594 276.737 407.788 276.387 408.176C276.041 408.56 275.868 409.059 275.868 409.675V416.479H273.347V409.448C273.347 408.884 273.177 408.434 272.836 408.098C272.5 407.762 272.059 407.594 271.515 407.594C271.145 407.594 270.809 407.689 270.506 407.878C270.203 408.063 269.962 408.326 269.782 408.667C269.602 409.003 269.512 409.396 269.512 409.845V416.479H266.941ZM289.72 416.692C288.626 416.692 287.681 416.465 286.886 416.01C286.095 415.551 285.487 414.902 285.061 414.064C284.634 413.221 284.421 412.229 284.421 411.088C284.421 409.966 284.634 408.981 285.061 408.134C285.491 407.282 286.093 406.619 286.865 406.145C287.636 405.667 288.543 405.428 289.585 405.428C290.257 405.428 290.892 405.537 291.488 405.755C292.089 405.968 292.62 406.299 293.079 406.749C293.543 407.199 293.908 407.772 294.173 408.468C294.438 409.159 294.571 409.983 294.571 410.939V411.728H285.629V409.995H292.106C292.101 409.502 291.995 409.064 291.786 408.681C291.578 408.292 291.287 407.987 290.913 407.765C290.544 407.542 290.113 407.431 289.62 407.431C289.095 407.431 288.633 407.559 288.235 407.814C287.838 408.065 287.527 408.397 287.305 408.809C287.087 409.216 286.976 409.663 286.971 410.151V411.664C286.971 412.298 287.087 412.843 287.319 413.297C287.551 413.747 287.875 414.093 288.292 414.334C288.709 414.571 289.196 414.689 289.755 414.689C290.129 414.689 290.468 414.637 290.771 414.533C291.074 414.424 291.337 414.265 291.559 414.057C291.782 413.849 291.95 413.591 292.063 413.283L294.464 413.553C294.312 414.187 294.024 414.741 293.598 415.215C293.176 415.684 292.636 416.048 291.978 416.309C291.32 416.564 290.567 416.692 289.72 416.692Z" fill="black"/>
<path d="M469.986 331.088L478.791 313.476C478.791 324.169 487.521 340.524 487.521 340.524C487.521 340.524 472.921 335.7 469.986 331.088Z" fill="#2796FC"/>
<rect width="302.064" height="86.9166" rx="10" transform="matrix(-1 0 0 1 479.964 246.824)" fill="#2796FC"/>
<path d="M196.212 281.206V266.661H201.397C202.524 266.661 203.459 266.855 204.202 267.243C204.95 267.631 205.509 268.169 205.878 268.855C206.248 269.537 206.432 270.325 206.432 271.22C206.432 272.11 206.245 272.894 205.871 273.571C205.502 274.243 204.943 274.767 204.195 275.141C203.452 275.515 202.516 275.702 201.39 275.702H197.462V273.813H201.191C201.901 273.813 202.479 273.711 202.924 273.507C203.373 273.304 203.703 273.008 203.911 272.619C204.119 272.231 204.223 271.765 204.223 271.22C204.223 270.671 204.117 270.195 203.904 269.793C203.695 269.39 203.366 269.082 202.917 268.869C202.471 268.652 201.887 268.543 201.162 268.543H198.407V281.206H196.212ZM203.392 274.644L206.986 281.206H204.486L200.963 274.644H203.392ZM208.932 281.206V270.297H211.056V281.206H208.932ZM210.005 268.614C209.635 268.614 209.318 268.491 209.053 268.244C208.793 267.993 208.662 267.695 208.662 267.35C208.662 266.999 208.793 266.701 209.053 266.455C209.318 266.204 209.635 266.078 210.005 266.078C210.374 266.078 210.689 266.204 210.949 266.455C211.214 266.701 211.347 266.999 211.347 267.35C211.347 267.695 211.214 267.993 210.949 268.244C210.689 268.491 210.374 268.614 210.005 268.614ZM217.996 281.419C217.116 281.419 216.33 281.194 215.639 280.744C214.952 280.29 214.412 279.644 214.019 278.805C213.631 277.963 213.437 276.952 213.437 275.773C213.437 274.594 213.633 273.585 214.026 272.747C214.424 271.909 214.969 271.268 215.66 270.823C216.351 270.377 217.135 270.155 218.011 270.155C218.688 270.155 219.232 270.269 219.644 270.496C220.061 270.718 220.383 270.979 220.61 271.277C220.842 271.575 221.022 271.838 221.15 272.065H221.278V266.661H223.401V281.206H221.327V279.509H221.15C221.022 279.741 220.837 280.006 220.596 280.304C220.359 280.602 220.032 280.863 219.616 281.085C219.199 281.308 218.659 281.419 217.996 281.419ZM218.465 279.608C219.076 279.608 219.592 279.447 220.014 279.125C220.44 278.798 220.762 278.346 220.979 277.769C221.202 277.191 221.313 276.519 221.313 275.752C221.313 274.994 221.204 274.331 220.987 273.763C220.769 273.195 220.449 272.752 220.028 272.435C219.606 272.118 219.085 271.959 218.465 271.959C217.826 271.959 217.293 272.125 216.867 272.456C216.441 272.787 216.119 273.24 215.901 273.813C215.688 274.386 215.582 275.032 215.582 275.752C215.582 276.481 215.691 277.136 215.908 277.719C216.126 278.301 216.448 278.763 216.874 279.104C217.305 279.44 217.835 279.608 218.465 279.608ZM231.134 281.426C230.059 281.426 229.133 281.197 228.357 280.737C227.585 280.273 226.989 279.622 226.567 278.784C226.15 277.941 225.942 276.954 225.942 275.823C225.942 274.705 226.15 273.72 226.567 272.868C226.989 272.016 227.576 271.35 228.329 270.872C229.086 270.394 229.971 270.155 230.985 270.155C231.6 270.155 232.197 270.257 232.775 270.46C233.352 270.664 233.871 270.984 234.33 271.419C234.789 271.855 235.151 272.421 235.417 273.117C235.682 273.808 235.814 274.648 235.814 275.638V276.391H227.142V274.8H233.733C233.733 274.241 233.62 273.746 233.392 273.315C233.165 272.88 232.846 272.537 232.434 272.286C232.026 272.035 231.548 271.909 230.999 271.909C230.402 271.909 229.882 272.056 229.436 272.35C228.996 272.638 228.655 273.017 228.414 273.486C228.177 273.95 228.059 274.454 228.059 274.999V276.242C228.059 276.971 228.186 277.591 228.442 278.102C228.703 278.614 229.065 279.004 229.529 279.274C229.993 279.539 230.535 279.672 231.155 279.672C231.558 279.672 231.925 279.615 232.256 279.502C232.587 279.383 232.874 279.208 233.115 278.976C233.357 278.744 233.542 278.457 233.669 278.117L235.679 278.479C235.518 279.071 235.23 279.589 234.813 280.034C234.401 280.475 233.882 280.818 233.257 281.064C232.637 281.305 231.929 281.426 231.134 281.426ZM238.17 281.206V270.297H240.223V272.03H240.337C240.536 271.443 240.886 270.981 241.388 270.645C241.894 270.304 242.467 270.134 243.107 270.134C243.239 270.134 243.395 270.138 243.575 270.148C243.76 270.157 243.904 270.169 244.009 270.183V272.215C243.923 272.191 243.772 272.165 243.554 272.136C243.336 272.103 243.118 272.087 242.901 272.087C242.399 272.087 241.951 272.193 241.558 272.406C241.17 272.615 240.862 272.906 240.635 273.28C240.408 273.649 240.294 274.071 240.294 274.544V281.206H238.17ZM255.734 281.426C254.679 281.426 253.769 281.187 253.007 280.709C252.25 280.226 251.667 279.561 251.26 278.713C250.853 277.866 250.649 276.895 250.649 275.801C250.649 274.693 250.858 273.716 251.274 272.868C251.691 272.016 252.278 271.35 253.036 270.872C253.793 270.394 254.686 270.155 255.713 270.155C256.542 270.155 257.28 270.309 257.929 270.617C258.578 270.92 259.101 271.346 259.499 271.895C259.901 272.444 260.14 273.086 260.216 273.82H258.149C258.036 273.308 257.775 272.868 257.368 272.499C256.965 272.129 256.426 271.945 255.749 271.945C255.157 271.945 254.638 272.101 254.193 272.413C253.753 272.721 253.41 273.162 253.163 273.734C252.917 274.303 252.794 274.975 252.794 275.752C252.794 276.547 252.915 277.234 253.156 277.811C253.398 278.389 253.739 278.836 254.179 279.153C254.624 279.471 255.147 279.629 255.749 279.629C256.151 279.629 256.516 279.556 256.842 279.409C257.174 279.258 257.451 279.042 257.673 278.763C257.901 278.484 258.059 278.147 258.149 277.754H260.216C260.14 278.46 259.911 279.09 259.527 279.644C259.143 280.198 258.63 280.633 257.986 280.95C257.347 281.268 256.596 281.426 255.734 281.426ZM267.082 281.426C266.059 281.426 265.167 281.192 264.404 280.723C263.642 280.254 263.05 279.599 262.629 278.756C262.208 277.913 261.997 276.928 261.997 275.801C261.997 274.67 262.208 273.68 262.629 272.832C263.05 271.985 263.642 271.327 264.404 270.858C265.167 270.389 266.059 270.155 267.082 270.155C268.105 270.155 268.997 270.389 269.76 270.858C270.522 271.327 271.114 271.985 271.535 272.832C271.957 273.68 272.167 274.67 272.167 275.801C272.167 276.928 271.957 277.913 271.535 278.756C271.114 279.599 270.522 280.254 269.76 280.723C268.997 281.192 268.105 281.426 267.082 281.426ZM267.089 279.644C267.752 279.644 268.301 279.468 268.737 279.118C269.172 278.768 269.494 278.301 269.703 277.719C269.916 277.136 270.022 276.495 270.022 275.794C270.022 275.098 269.916 274.459 269.703 273.877C269.494 273.289 269.172 272.818 268.737 272.463C268.301 272.108 267.752 271.93 267.089 271.93C266.422 271.93 265.868 272.108 265.427 272.463C264.992 272.818 264.667 273.289 264.454 273.877C264.246 274.459 264.142 275.098 264.142 275.794C264.142 276.495 264.246 277.136 264.454 277.719C264.667 278.301 264.992 278.768 265.427 279.118C265.868 279.468 266.422 279.644 267.089 279.644ZM274.538 281.206V270.297H276.576V272.073H276.711C276.938 271.471 277.31 271.002 277.826 270.666C278.342 270.325 278.96 270.155 279.68 270.155C280.409 270.155 281.02 270.325 281.512 270.666C282.009 271.007 282.376 271.476 282.613 272.073H282.727C282.987 271.49 283.401 271.026 283.969 270.68C284.538 270.33 285.215 270.155 286.001 270.155C286.99 270.155 287.798 270.465 288.423 271.085C289.052 271.706 289.367 272.641 289.367 273.891V281.206H287.244V274.09C287.244 273.351 287.042 272.816 286.64 272.484C286.237 272.153 285.757 271.987 285.198 271.987C284.507 271.987 283.969 272.2 283.586 272.627C283.202 273.048 283.011 273.59 283.011 274.253V281.206H280.894V273.955C280.894 273.363 280.71 272.887 280.34 272.527C279.971 272.167 279.49 271.987 278.898 271.987C278.496 271.987 278.124 272.094 277.783 272.307C277.447 272.515 277.175 272.806 276.967 273.18C276.763 273.555 276.661 273.988 276.661 274.48V281.206H274.538ZM292.213 285.297V270.297H294.287V272.065H294.465C294.588 271.838 294.766 271.575 294.998 271.277C295.23 270.979 295.552 270.718 295.963 270.496C296.375 270.269 296.92 270.155 297.597 270.155C298.478 270.155 299.264 270.377 299.955 270.823C300.646 271.268 301.188 271.909 301.581 272.747C301.979 273.585 302.178 274.594 302.178 275.773C302.178 276.952 301.981 277.963 301.588 278.805C301.195 279.644 300.656 280.29 299.969 280.744C299.283 281.194 298.499 281.419 297.618 281.419C296.955 281.419 296.413 281.308 295.992 281.085C295.575 280.863 295.248 280.602 295.012 280.304C294.775 280.006 294.593 279.741 294.465 279.509H294.337V285.297H292.213ZM294.294 275.752C294.294 276.519 294.406 277.191 294.628 277.769C294.851 278.346 295.173 278.798 295.594 279.125C296.016 279.447 296.532 279.608 297.142 279.608C297.777 279.608 298.307 279.44 298.733 279.104C299.159 278.763 299.481 278.301 299.699 277.719C299.922 277.136 300.033 276.481 300.033 275.752C300.033 275.032 299.924 274.386 299.706 273.813C299.493 273.24 299.171 272.787 298.74 272.456C298.314 272.125 297.782 271.959 297.142 271.959C296.527 271.959 296.006 272.118 295.58 272.435C295.159 272.752 294.839 273.195 294.621 273.763C294.403 274.331 294.294 274.994 294.294 275.752ZM306.681 266.661V281.206H304.557V266.661H306.681ZM312.712 281.448C312.021 281.448 311.396 281.32 310.837 281.064C310.279 280.804 309.836 280.427 309.509 279.935C309.187 279.442 309.026 278.839 309.026 278.124C309.026 277.508 309.145 277.002 309.381 276.604C309.618 276.206 309.938 275.891 310.34 275.659C310.743 275.427 311.192 275.252 311.69 275.134C312.187 275.015 312.693 274.925 313.21 274.864C313.863 274.788 314.393 274.726 314.8 274.679C315.208 274.627 315.504 274.544 315.688 274.43C315.873 274.317 315.965 274.132 315.965 273.877V273.827C315.965 273.207 315.79 272.726 315.44 272.385C315.094 272.044 314.578 271.874 313.891 271.874C313.176 271.874 312.613 272.032 312.201 272.35C311.794 272.662 311.512 273.01 311.356 273.394L309.36 272.939C309.597 272.276 309.942 271.741 310.397 271.334C310.856 270.922 311.384 270.624 311.981 270.439C312.577 270.25 313.205 270.155 313.863 270.155C314.299 270.155 314.76 270.207 315.248 270.311C315.74 270.411 316.2 270.595 316.626 270.865C317.057 271.135 317.409 271.521 317.684 272.023C317.959 272.52 318.096 273.166 318.096 273.962V281.206H316.022V279.715H315.937C315.8 279.989 315.594 280.259 315.319 280.524C315.044 280.789 314.692 281.01 314.261 281.185C313.83 281.36 313.314 281.448 312.712 281.448ZM313.174 279.743C313.761 279.743 314.263 279.627 314.68 279.395C315.101 279.163 315.421 278.86 315.639 278.486C315.861 278.107 315.972 277.702 315.972 277.271V275.865C315.897 275.941 315.75 276.012 315.532 276.078C315.319 276.14 315.075 276.194 314.8 276.242C314.526 276.284 314.258 276.324 313.998 276.362C313.737 276.395 313.52 276.424 313.344 276.448C312.933 276.5 312.556 276.587 312.215 276.71C311.879 276.833 311.609 277.011 311.406 277.243C311.207 277.47 311.107 277.773 311.107 278.152C311.107 278.678 311.301 279.075 311.69 279.345C312.078 279.61 312.573 279.743 313.174 279.743ZM320.924 281.206V270.297H323.048V281.206H320.924ZM321.997 268.614C321.628 268.614 321.31 268.491 321.045 268.244C320.785 267.993 320.654 267.695 320.654 267.35C320.654 266.999 320.785 266.701 321.045 266.455C321.31 266.204 321.628 266.078 321.997 266.078C322.366 266.078 322.681 266.204 322.941 266.455C323.207 266.701 323.339 266.999 323.339 267.35C323.339 267.695 323.207 267.993 322.941 268.244C322.681 268.491 322.366 268.614 321.997 268.614ZM328.028 274.729V281.206H325.905V270.297H327.943V272.073H328.078C328.329 271.495 328.722 271.031 329.257 270.68C329.797 270.33 330.476 270.155 331.295 270.155C332.039 270.155 332.69 270.311 333.249 270.624C333.807 270.931 334.241 271.391 334.548 272.002C334.856 272.612 335.01 273.368 335.01 274.267V281.206H332.886V274.523C332.886 273.732 332.68 273.114 332.268 272.669C331.857 272.219 331.291 271.994 330.571 271.994C330.079 271.994 329.641 272.101 329.257 272.314C328.878 272.527 328.578 272.84 328.355 273.252C328.137 273.659 328.028 274.151 328.028 274.729ZM342.95 270.297V272.002H336.991V270.297H342.95ZM338.59 267.683H340.713V278.003C340.713 278.415 340.775 278.725 340.898 278.933C341.021 279.137 341.179 279.277 341.374 279.352C341.572 279.423 341.788 279.459 342.02 279.459C342.19 279.459 342.34 279.447 342.467 279.423C342.595 279.4 342.695 279.381 342.766 279.367L343.149 281.121C343.026 281.168 342.851 281.216 342.624 281.263C342.396 281.315 342.112 281.343 341.771 281.348C341.213 281.358 340.692 281.258 340.209 281.05C339.726 280.841 339.335 280.52 339.037 280.084C338.739 279.648 338.59 279.101 338.59 278.443V267.683ZM353.767 281.448C353.076 281.448 352.451 281.32 351.892 281.064C351.333 280.804 350.891 280.427 350.564 279.935C350.242 279.442 350.081 278.839 350.081 278.124C350.081 277.508 350.199 277.002 350.436 276.604C350.673 276.206 350.992 275.891 351.395 275.659C351.797 275.427 352.247 275.252 352.744 275.134C353.241 275.015 353.748 274.925 354.264 274.864C354.918 274.788 355.448 274.726 355.855 274.679C356.262 274.627 356.558 274.544 356.743 274.43C356.928 274.317 357.02 274.132 357.02 273.877V273.827C357.02 273.207 356.845 272.726 356.494 272.385C356.149 272.044 355.633 271.874 354.946 271.874C354.231 271.874 353.668 272.032 353.256 272.35C352.849 272.662 352.567 273.01 352.411 273.394L350.415 272.939C350.652 272.276 350.997 271.741 351.452 271.334C351.911 270.922 352.439 270.624 353.036 270.439C353.632 270.25 354.259 270.155 354.918 270.155C355.353 270.155 355.815 270.207 356.303 270.311C356.795 270.411 357.254 270.595 357.68 270.865C358.111 271.135 358.464 271.521 358.739 272.023C359.013 272.52 359.151 273.166 359.151 273.962V281.206H357.077V279.715H356.991C356.854 279.989 356.648 280.259 356.374 280.524C356.099 280.789 355.746 281.01 355.315 281.185C354.884 281.36 354.368 281.448 353.767 281.448ZM354.229 279.743C354.816 279.743 355.318 279.627 355.734 279.395C356.156 279.163 356.475 278.86 356.693 278.486C356.916 278.107 357.027 277.702 357.027 277.271V275.865C356.951 275.941 356.804 276.012 356.587 276.078C356.374 276.14 356.13 276.194 355.855 276.242C355.581 276.284 355.313 276.324 355.053 276.362C354.792 276.395 354.574 276.424 354.399 276.448C353.987 276.5 353.611 276.587 353.27 276.71C352.934 276.833 352.664 277.011 352.46 277.243C352.261 277.47 352.162 277.773 352.162 278.152C352.162 278.678 352.356 279.075 352.744 279.345C353.133 279.61 353.627 279.743 354.229 279.743ZM362.15 281.206V266.661H364.273V272.065H364.401C364.524 271.838 364.702 271.575 364.934 271.277C365.166 270.979 365.488 270.718 365.9 270.496C366.311 270.269 366.856 270.155 367.533 270.155C368.414 270.155 369.2 270.377 369.891 270.823C370.582 271.268 371.124 271.909 371.517 272.747C371.915 273.585 372.114 274.594 372.114 275.773C372.114 276.952 371.918 277.963 371.525 278.805C371.132 279.644 370.592 280.29 369.905 280.744C369.219 281.194 368.435 281.419 367.554 281.419C366.891 281.419 366.349 281.308 365.928 281.085C365.511 280.863 365.185 280.602 364.948 280.304C364.711 280.006 364.529 279.741 364.401 279.509H364.223V281.206H362.15ZM364.23 275.752C364.23 276.519 364.342 277.191 364.564 277.769C364.787 278.346 365.109 278.798 365.53 279.125C365.952 279.447 366.468 279.608 367.079 279.608C367.713 279.608 368.243 279.44 368.669 279.104C369.096 278.763 369.418 278.301 369.635 277.719C369.858 277.136 369.969 276.481 369.969 275.752C369.969 275.032 369.86 274.386 369.642 273.813C369.429 273.24 369.107 272.787 368.677 272.456C368.25 272.125 367.718 271.959 367.079 271.959C366.463 271.959 365.942 272.118 365.516 272.435C365.095 272.752 364.775 273.195 364.557 273.763C364.339 274.331 364.23 274.994 364.23 275.752ZM379.094 281.426C378.071 281.426 377.179 281.192 376.416 280.723C375.654 280.254 375.062 279.599 374.641 278.756C374.219 277.913 374.009 276.928 374.009 275.801C374.009 274.67 374.219 273.68 374.641 272.832C375.062 271.985 375.654 271.327 376.416 270.858C377.179 270.389 378.071 270.155 379.094 270.155C380.116 270.155 381.009 270.389 381.771 270.858C382.534 271.327 383.125 271.985 383.547 272.832C383.968 273.68 384.179 274.67 384.179 275.801C384.179 276.928 383.968 277.913 383.547 278.756C383.125 279.599 382.534 280.254 381.771 280.723C381.009 281.192 380.116 281.426 379.094 281.426ZM379.101 279.644C379.764 279.644 380.313 279.468 380.749 279.118C381.184 278.768 381.506 278.301 381.715 277.719C381.928 277.136 382.034 276.495 382.034 275.794C382.034 275.098 381.928 274.459 381.715 273.877C381.506 273.289 381.184 272.818 380.749 272.463C380.313 272.108 379.764 271.93 379.101 271.93C378.433 271.93 377.879 272.108 377.439 272.463C377.003 272.818 376.679 273.289 376.466 273.877C376.258 274.459 376.153 275.098 376.153 275.794C376.153 276.495 376.258 277.136 376.466 277.719C376.679 278.301 377.003 278.768 377.439 279.118C377.879 279.468 378.433 279.644 379.101 279.644ZM393.46 276.682V270.297H395.591V281.206H393.503V279.317H393.389C393.138 279.899 392.735 280.385 392.181 280.773C391.632 281.156 390.948 281.348 390.129 281.348C389.428 281.348 388.808 281.194 388.268 280.886C387.733 280.574 387.312 280.112 387.004 279.502C386.701 278.891 386.549 278.136 386.549 277.236V270.297H388.673V276.98C388.673 277.724 388.879 278.315 389.291 278.756C389.703 279.196 390.238 279.416 390.896 279.416C391.294 279.416 391.689 279.317 392.082 279.118C392.48 278.919 392.809 278.618 393.069 278.216C393.334 277.814 393.465 277.302 393.46 276.682ZM403.536 270.297V272.002H397.577V270.297H403.536ZM399.175 267.683H401.299V278.003C401.299 278.415 401.361 278.725 401.484 278.933C401.607 279.137 401.765 279.277 401.96 279.352C402.158 279.423 402.374 279.459 402.606 279.459C402.776 279.459 402.925 279.447 403.053 279.423C403.181 279.4 403.281 279.381 403.352 279.367L403.735 281.121C403.612 281.168 403.437 281.216 403.21 281.263C402.982 281.315 402.698 281.343 402.357 281.348C401.799 281.358 401.278 281.258 400.795 281.05C400.312 280.841 399.921 280.52 399.623 280.084C399.325 279.648 399.175 279.101 399.175 278.443V267.683ZM411.349 281.206V266.661H413.472V272.065H413.6C413.723 271.838 413.901 271.575 414.133 271.277C414.365 270.979 414.687 270.718 415.099 270.496C415.511 270.269 416.055 270.155 416.732 270.155C417.613 270.155 418.399 270.377 419.09 270.823C419.782 271.268 420.324 271.909 420.717 272.747C421.114 273.585 421.313 274.594 421.313 275.773C421.313 276.952 421.117 277.963 420.724 278.805C420.331 279.644 419.791 280.29 419.104 280.744C418.418 281.194 417.634 281.419 416.754 281.419C416.091 281.419 415.549 281.308 415.127 281.085C414.71 280.863 414.384 280.602 414.147 280.304C413.91 280.006 413.728 279.741 413.6 279.509H413.423V281.206H411.349ZM413.43 275.752C413.43 276.519 413.541 277.191 413.764 277.769C413.986 278.346 414.308 278.798 414.729 279.125C415.151 279.447 415.667 279.608 416.278 279.608C416.912 279.608 417.442 279.44 417.869 279.104C418.295 278.763 418.617 278.301 418.835 277.719C419.057 277.136 419.168 276.481 419.168 275.752C419.168 275.032 419.059 274.386 418.842 273.813C418.629 273.24 418.307 272.787 417.876 272.456C417.45 272.125 416.917 271.959 416.278 271.959C415.662 271.959 415.141 272.118 414.715 272.435C414.294 272.752 413.974 273.195 413.756 273.763C413.539 274.331 413.43 274.994 413.43 275.752ZM430.608 276.682V270.297H432.739V281.206H430.651V279.317H430.537C430.286 279.899 429.884 280.385 429.33 280.773C428.781 281.156 428.096 281.348 427.277 281.348C426.577 281.348 425.956 281.194 425.417 280.886C424.882 280.574 424.46 280.112 424.152 279.502C423.849 278.891 423.698 278.136 423.698 277.236V270.297H425.821V276.98C425.821 277.724 426.027 278.315 426.439 278.756C426.851 279.196 427.386 279.416 428.044 279.416C428.442 279.416 428.837 279.317 429.23 279.118C429.628 278.919 429.957 278.618 430.218 278.216C430.483 277.814 430.613 277.302 430.608 276.682ZM443.767 272.96L441.842 273.301C441.762 273.055 441.634 272.821 441.459 272.598C441.288 272.376 441.056 272.193 440.763 272.051C440.469 271.909 440.102 271.838 439.662 271.838C439.061 271.838 438.559 271.973 438.156 272.243C437.754 272.508 437.553 272.851 437.553 273.273C437.553 273.637 437.688 273.931 437.957 274.153C438.227 274.376 438.663 274.558 439.264 274.7L440.997 275.098C442.001 275.33 442.749 275.688 443.241 276.171C443.734 276.653 443.98 277.281 443.98 278.053C443.98 278.706 443.791 279.288 443.412 279.8C443.038 280.306 442.515 280.704 441.842 280.993C441.175 281.282 440.401 281.426 439.52 281.426C438.298 281.426 437.302 281.166 436.53 280.645C435.758 280.119 435.285 279.374 435.109 278.408L437.162 278.095C437.29 278.63 437.553 279.035 437.95 279.31C438.348 279.58 438.866 279.715 439.506 279.715C440.202 279.715 440.758 279.57 441.175 279.281C441.591 278.988 441.8 278.63 441.8 278.209C441.8 277.868 441.672 277.582 441.416 277.35C441.165 277.118 440.779 276.942 440.259 276.824L438.412 276.419C437.394 276.187 436.641 275.818 436.153 275.311C435.67 274.805 435.429 274.163 435.429 273.386C435.429 272.743 435.609 272.179 435.969 271.696C436.329 271.213 436.826 270.837 437.46 270.567C438.095 270.292 438.822 270.155 439.641 270.155C440.82 270.155 441.748 270.411 442.425 270.922C443.102 271.429 443.549 272.108 443.767 272.96ZM196.212 311.206V296.661H198.336V302.065H198.463C198.587 301.838 198.764 301.575 198.996 301.277C199.228 300.979 199.55 300.718 199.962 300.496C200.374 300.269 200.918 300.155 201.596 300.155C202.476 300.155 203.262 300.377 203.954 300.823C204.645 301.268 205.187 301.909 205.58 302.747C205.978 303.585 206.177 304.594 206.177 305.773C206.177 306.952 205.98 307.963 205.587 308.805C205.194 309.644 204.654 310.29 203.968 310.744C203.281 311.194 202.498 311.419 201.617 311.419C200.954 311.419 200.412 311.308 199.99 311.085C199.574 310.863 199.247 310.602 199.01 310.304C198.774 310.006 198.591 309.741 198.463 309.509H198.286V311.206H196.212ZM198.293 305.752C198.293 306.519 198.404 307.191 198.627 307.769C198.849 308.346 199.171 308.798 199.593 309.125C200.014 309.447 200.53 309.608 201.141 309.608C201.775 309.608 202.306 309.44 202.732 309.104C203.158 308.763 203.48 308.301 203.698 307.719C203.92 307.136 204.032 306.481 204.032 305.752C204.032 305.032 203.923 304.386 203.705 303.813C203.492 303.24 203.17 302.787 202.739 302.456C202.313 302.125 201.78 301.959 201.141 301.959C200.525 301.959 200.005 302.118 199.579 302.435C199.157 302.752 198.837 303.195 198.62 303.763C198.402 304.331 198.293 304.994 198.293 305.752ZM213.263 311.426C212.188 311.426 211.262 311.197 210.486 310.737C209.714 310.273 209.117 309.622 208.696 308.784C208.279 307.941 208.071 306.954 208.071 305.823C208.071 304.705 208.279 303.72 208.696 302.868C209.117 302.016 209.705 301.35 210.457 300.872C211.215 300.394 212.1 300.155 213.114 300.155C213.729 300.155 214.326 300.257 214.903 300.46C215.481 300.664 216 300.984 216.459 301.419C216.918 301.855 217.28 302.421 217.545 303.117C217.811 303.808 217.943 304.648 217.943 305.638V306.391H209.271V304.8H215.862C215.862 304.241 215.749 303.746 215.521 303.315C215.294 302.88 214.974 302.537 214.563 302.286C214.155 302.035 213.677 301.909 213.128 301.909C212.531 301.909 212.01 302.056 211.565 302.35C211.125 302.638 210.784 303.017 210.543 303.486C210.306 303.95 210.188 304.454 210.188 304.999V306.242C210.188 306.971 210.315 307.591 210.571 308.102C210.831 308.614 211.194 309.004 211.658 309.274C212.122 309.539 212.664 309.672 213.284 309.672C213.687 309.672 214.054 309.615 214.385 309.502C214.716 309.383 215.003 309.208 215.244 308.976C215.486 308.744 215.67 308.457 215.798 308.117L217.808 308.479C217.647 309.071 217.358 309.589 216.942 310.034C216.53 310.475 216.011 310.818 215.386 311.064C214.766 311.305 214.058 311.426 213.263 311.426ZM220.299 311.206V300.297H222.423V311.206H220.299ZM221.372 298.614C221.003 298.614 220.685 298.491 220.42 298.244C220.16 297.993 220.029 297.695 220.029 297.35C220.029 296.999 220.16 296.701 220.42 296.455C220.685 296.204 221.003 296.078 221.372 296.078C221.741 296.078 222.056 296.204 222.316 296.455C222.582 296.701 222.714 296.999 222.714 297.35C222.714 297.695 222.582 297.993 222.316 298.244C222.056 298.491 221.741 298.614 221.372 298.614ZM227.403 304.729V311.206H225.28V300.297H227.318V302.073H227.453C227.704 301.495 228.097 301.031 228.632 300.68C229.172 300.33 229.851 300.155 230.67 300.155C231.414 300.155 232.065 300.311 232.624 300.624C233.182 300.931 233.616 301.391 233.923 302.002C234.231 302.612 234.385 303.368 234.385 304.267V311.206H232.261V304.523C232.261 303.732 232.055 303.114 231.643 302.669C231.232 302.219 230.666 301.994 229.946 301.994C229.454 301.994 229.016 302.101 228.632 302.314C228.253 302.527 227.953 302.84 227.73 303.252C227.512 303.659 227.403 304.151 227.403 304.729ZM241.807 315.524C240.94 315.524 240.195 315.411 239.57 315.183C238.949 314.956 238.443 314.655 238.05 314.281C237.657 313.907 237.363 313.498 237.169 313.053L238.994 312.3C239.122 312.508 239.293 312.728 239.506 312.96C239.724 313.197 240.017 313.398 240.386 313.564C240.76 313.73 241.241 313.813 241.828 313.813C242.633 313.813 243.298 313.616 243.824 313.223C244.349 312.835 244.612 312.215 244.612 311.362V309.217H244.477C244.349 309.449 244.165 309.707 243.923 309.992C243.687 310.276 243.36 310.522 242.943 310.73C242.527 310.939 241.984 311.043 241.317 311.043C240.455 311.043 239.679 310.841 238.987 310.439C238.301 310.032 237.756 309.433 237.354 308.642C236.956 307.847 236.757 306.869 236.757 305.709C236.757 304.549 236.954 303.555 237.347 302.726C237.744 301.897 238.289 301.263 238.98 300.823C239.671 300.377 240.455 300.155 241.331 300.155C242.008 300.155 242.555 300.269 242.972 300.496C243.388 300.718 243.713 300.979 243.945 301.277C244.181 301.575 244.364 301.838 244.491 302.065H244.648V300.297H246.729V311.448C246.729 312.385 246.511 313.154 246.075 313.756C245.64 314.357 245.05 314.802 244.307 315.091C243.568 315.38 242.735 315.524 241.807 315.524ZM241.786 309.281C242.396 309.281 242.912 309.139 243.334 308.855C243.76 308.566 244.082 308.154 244.3 307.619C244.522 307.08 244.634 306.433 244.634 305.68C244.634 304.947 244.525 304.3 244.307 303.742C244.089 303.183 243.769 302.747 243.348 302.435C242.927 302.118 242.406 301.959 241.786 301.959C241.146 301.959 240.614 302.125 240.188 302.456C239.761 302.783 239.439 303.228 239.222 303.791C239.009 304.355 238.902 304.984 238.902 305.68C238.902 306.395 239.011 307.023 239.229 307.563C239.447 308.102 239.768 308.524 240.195 308.827C240.625 309.13 241.156 309.281 241.786 309.281ZM256.993 296.661V311.206H254.87V296.661H256.993ZM263.025 311.448C262.334 311.448 261.709 311.32 261.15 311.064C260.591 310.804 260.148 310.427 259.822 309.935C259.5 309.442 259.339 308.839 259.339 308.124C259.339 307.508 259.457 307.002 259.694 306.604C259.931 306.206 260.25 305.891 260.653 305.659C261.055 305.427 261.505 305.252 262.002 305.134C262.499 305.015 263.006 304.925 263.522 304.864C264.175 304.788 264.706 304.726 265.113 304.679C265.52 304.627 265.816 304.544 266.001 304.43C266.185 304.317 266.278 304.132 266.278 303.877V303.827C266.278 303.207 266.103 302.726 265.752 302.385C265.407 302.044 264.89 301.874 264.204 301.874C263.489 301.874 262.925 302.032 262.514 302.35C262.106 302.662 261.825 303.01 261.668 303.394L259.673 302.939C259.909 302.276 260.255 301.741 260.71 301.334C261.169 300.922 261.697 300.624 262.293 300.439C262.89 300.25 263.517 300.155 264.175 300.155C264.611 300.155 265.073 300.207 265.56 300.311C266.053 300.411 266.512 300.595 266.938 300.865C267.369 301.135 267.722 301.521 267.996 302.023C268.271 302.52 268.408 303.166 268.408 303.962V311.206H266.335V309.715H266.249C266.112 309.989 265.906 310.259 265.631 310.524C265.357 310.789 265.004 311.01 264.573 311.185C264.142 311.36 263.626 311.448 263.025 311.448ZM263.487 309.743C264.074 309.743 264.576 309.627 264.992 309.395C265.414 309.163 265.733 308.86 265.951 308.486C266.174 308.107 266.285 307.702 266.285 307.271V305.865C266.209 305.941 266.062 306.012 265.844 306.078C265.631 306.14 265.388 306.194 265.113 306.242C264.838 306.284 264.571 306.324 264.31 306.362C264.05 306.395 263.832 306.424 263.657 306.448C263.245 306.5 262.869 306.587 262.528 306.71C262.192 306.833 261.922 307.011 261.718 307.243C261.519 307.47 261.42 307.773 261.42 308.152C261.42 308.678 261.614 309.075 262.002 309.345C262.39 309.61 262.885 309.743 263.487 309.743ZM276.329 300.297V302.002H270.37V300.297H276.329ZM271.968 297.683H274.092V308.003C274.092 308.415 274.154 308.725 274.277 308.933C274.4 309.137 274.558 309.277 274.753 309.352C274.951 309.423 275.167 309.459 275.399 309.459C275.569 309.459 275.718 309.447 275.846 309.423C275.974 309.4 276.074 309.381 276.145 309.367L276.528 311.121C276.405 311.168 276.23 311.216 276.003 311.263C275.775 311.315 275.491 311.343 275.15 311.348C274.592 311.358 274.071 311.258 273.588 311.05C273.105 310.841 272.714 310.52 272.416 310.084C272.118 309.648 271.968 309.101 271.968 308.443V297.683ZM283.263 311.426C282.188 311.426 281.262 311.197 280.486 310.737C279.714 310.273 279.117 309.622 278.696 308.784C278.279 307.941 278.071 306.954 278.071 305.823C278.071 304.705 278.279 303.72 278.696 302.868C279.117 302.016 279.705 301.35 280.457 300.872C281.215 300.394 282.1 300.155 283.114 300.155C283.729 300.155 284.326 300.257 284.903 300.46C285.481 300.664 286 300.984 286.459 301.419C286.918 301.855 287.28 302.421 287.545 303.117C287.811 303.808 287.943 304.648 287.943 305.638V306.391H279.271V304.8H285.862C285.862 304.241 285.749 303.746 285.521 303.315C285.294 302.88 284.974 302.537 284.563 302.286C284.155 302.035 283.677 301.909 283.128 301.909C282.531 301.909 282.01 302.056 281.565 302.35C281.125 302.638 280.784 303.017 280.543 303.486C280.306 303.95 280.188 304.454 280.188 304.999V306.242C280.188 306.971 280.315 307.591 280.571 308.102C280.831 308.614 281.194 309.004 281.658 309.274C282.122 309.539 282.664 309.672 283.284 309.672C283.687 309.672 284.054 309.615 284.385 309.502C284.716 309.383 285.003 309.208 285.244 308.976C285.486 308.744 285.67 308.457 285.798 308.117L287.808 308.479C287.647 309.071 287.358 309.589 286.942 310.034C286.53 310.475 286.011 310.818 285.386 311.064C284.766 311.305 284.058 311.426 283.263 311.426ZM300.188 311.426C299.165 311.426 298.272 311.192 297.51 310.723C296.748 310.254 296.156 309.599 295.734 308.756C295.313 307.913 295.102 306.928 295.102 305.801C295.102 304.67 295.313 303.68 295.734 302.832C296.156 301.985 296.748 301.327 297.51 300.858C298.272 300.389 299.165 300.155 300.188 300.155C301.21 300.155 302.103 300.389 302.865 300.858C303.627 301.327 304.219 301.985 304.641 302.832C305.062 303.68 305.273 304.67 305.273 305.801C305.273 306.928 305.062 307.913 304.641 308.756C304.219 309.599 303.627 310.254 302.865 310.723C302.103 311.192 301.21 311.426 300.188 311.426ZM300.195 309.644C300.858 309.644 301.407 309.468 301.842 309.118C302.278 308.768 302.6 308.301 302.808 307.719C303.021 307.136 303.128 306.495 303.128 305.794C303.128 305.098 303.021 304.459 302.808 303.877C302.6 303.289 302.278 302.818 301.842 302.463C301.407 302.108 300.858 301.93 300.195 301.93C299.527 301.93 298.973 302.108 298.533 302.463C298.097 302.818 297.773 303.289 297.56 303.877C297.351 304.459 297.247 305.098 297.247 305.794C297.247 306.495 297.351 307.136 297.56 307.719C297.773 308.301 298.097 308.768 298.533 309.118C298.973 309.468 299.527 309.644 300.195 309.644ZM309.767 304.729V311.206H307.643V300.297H309.681V302.073H309.816C310.067 301.495 310.46 301.031 310.995 300.68C311.535 300.33 312.215 300.155 313.034 300.155C313.777 300.155 314.428 300.311 314.987 300.624C315.546 300.931 315.979 301.391 316.287 302.002C316.594 302.612 316.748 303.368 316.748 304.267V311.206H314.625V304.523C314.625 303.732 314.419 303.114 314.007 302.669C313.595 302.219 313.029 301.994 312.309 301.994C311.817 301.994 311.379 302.101 310.995 302.314C310.617 302.527 310.316 302.84 310.093 303.252C309.876 303.659 309.767 304.151 309.767 304.729ZM324.889 311.206V300.297H326.942V302.03H327.055C327.254 301.443 327.605 300.981 328.107 300.645C328.613 300.304 329.186 300.134 329.825 300.134C329.958 300.134 330.114 300.138 330.294 300.148C330.479 300.157 330.623 300.169 330.727 300.183V302.215C330.642 302.191 330.491 302.165 330.273 302.136C330.055 302.103 329.837 302.087 329.619 302.087C329.117 302.087 328.67 302.193 328.277 302.406C327.889 302.615 327.581 302.906 327.354 303.28C327.126 303.649 327.013 304.071 327.013 304.544V311.206H324.889ZM336.77 311.426C335.747 311.426 334.854 311.192 334.092 310.723C333.33 310.254 332.738 309.599 332.316 308.756C331.895 307.913 331.684 306.928 331.684 305.801C331.684 304.67 331.895 303.68 332.316 302.832C332.738 301.985 333.33 301.327 334.092 300.858C334.854 300.389 335.747 300.155 336.77 300.155C337.792 300.155 338.685 300.389 339.447 300.858C340.209 301.327 340.801 301.985 341.223 302.832C341.644 303.68 341.855 304.67 341.855 305.801C341.855 306.928 341.644 307.913 341.223 308.756C340.801 309.599 340.209 310.254 339.447 310.723C338.685 311.192 337.792 311.426 336.77 311.426ZM336.777 309.644C337.44 309.644 337.989 309.468 338.424 309.118C338.86 308.768 339.182 308.301 339.39 307.719C339.603 307.136 339.71 306.495 339.71 305.794C339.71 305.098 339.603 304.459 339.39 303.877C339.182 303.289 338.86 302.818 338.424 302.463C337.989 302.108 337.44 301.93 336.777 301.93C336.109 301.93 335.555 302.108 335.115 302.463C334.679 302.818 334.355 303.289 334.142 303.877C333.933 304.459 333.829 305.098 333.829 305.794C333.829 306.495 333.933 307.136 334.142 307.719C334.355 308.301 334.679 308.768 335.115 309.118C335.555 309.468 336.109 309.644 336.777 309.644ZM351.136 306.682V300.297H353.266V311.206H351.178V309.317H351.065C350.814 309.899 350.411 310.385 349.857 310.773C349.308 311.156 348.624 311.348 347.805 311.348C347.104 311.348 346.484 311.194 345.944 310.886C345.409 310.574 344.987 310.112 344.68 309.502C344.377 308.891 344.225 308.136 344.225 307.236V300.297H346.349V306.98C346.349 307.724 346.555 308.315 346.967 308.756C347.379 309.196 347.914 309.416 348.572 309.416C348.969 309.416 349.365 309.317 349.758 309.118C350.156 308.919 350.485 308.618 350.745 308.216C351.01 307.814 351.14 307.302 351.136 306.682ZM361.212 300.297V302.002H355.253V300.297H361.212ZM356.851 297.683H358.975V308.003C358.975 308.415 359.036 308.725 359.159 308.933C359.283 309.137 359.441 309.277 359.635 309.352C359.834 309.423 360.05 309.459 360.282 309.459C360.452 309.459 360.601 309.447 360.729 309.423C360.857 309.4 360.956 309.381 361.027 309.367L361.411 311.121C361.288 311.168 361.113 311.216 360.885 311.263C360.658 311.315 360.374 311.343 360.033 311.348C359.474 311.358 358.954 311.258 358.471 311.05C357.988 310.841 357.597 310.52 357.299 310.084C357 309.648 356.851 309.101 356.851 308.443V297.683ZM368.146 311.426C367.071 311.426 366.145 311.197 365.369 310.737C364.597 310.273 364 309.622 363.579 308.784C363.162 307.941 362.954 306.954 362.954 305.823C362.954 304.705 363.162 303.72 363.579 302.868C364 302.016 364.587 301.35 365.34 300.872C366.098 300.394 366.983 300.155 367.996 300.155C368.612 300.155 369.209 300.257 369.786 300.46C370.364 300.664 370.882 300.984 371.342 301.419C371.801 301.855 372.163 302.421 372.428 303.117C372.693 303.808 372.826 304.648 372.826 305.638V306.391H364.154V304.8H370.745C370.745 304.241 370.631 303.746 370.404 303.315C370.177 302.88 369.857 302.537 369.445 302.286C369.038 302.035 368.56 301.909 368.011 301.909C367.414 301.909 366.893 302.056 366.448 302.35C366.008 302.638 365.667 303.017 365.425 303.486C365.189 303.95 365.07 304.454 365.07 304.999V306.242C365.07 306.971 365.198 307.591 365.454 308.102C365.714 308.614 366.076 309.004 366.541 309.274C367.005 309.539 367.547 309.672 368.167 309.672C368.569 309.672 368.936 309.615 369.268 309.502C369.599 309.383 369.886 309.208 370.127 308.976C370.369 308.744 370.553 308.457 370.681 308.117L372.691 308.479C372.53 309.071 372.241 309.589 371.825 310.034C371.413 310.475 370.894 310.818 370.269 311.064C369.649 311.305 368.941 311.426 368.146 311.426ZM385.511 311.405C384.535 311.405 383.664 311.237 382.897 310.901C382.135 310.564 381.531 310.098 381.086 309.502C380.646 308.9 380.409 308.204 380.376 307.413H382.606C382.634 307.844 382.779 308.218 383.039 308.536C383.304 308.848 383.65 309.09 384.076 309.26C384.502 309.43 384.976 309.516 385.496 309.516C386.069 309.516 386.576 309.416 387.016 309.217C387.461 309.019 387.809 308.742 388.06 308.386C388.311 308.027 388.437 307.612 388.437 307.144C388.437 306.656 388.311 306.227 388.06 305.858C387.814 305.484 387.452 305.19 386.974 304.977C386.5 304.764 385.927 304.658 385.255 304.658H384.026V302.868H385.255C385.795 302.868 386.268 302.771 386.675 302.577C387.087 302.383 387.409 302.113 387.641 301.767C387.873 301.417 387.989 301.007 387.989 300.538C387.989 300.089 387.888 299.698 387.684 299.367C387.485 299.03 387.201 298.768 386.832 298.578C386.467 298.389 386.036 298.294 385.539 298.294C385.066 298.294 384.623 298.382 384.211 298.557C383.804 298.727 383.472 298.974 383.217 299.296C382.961 299.613 382.824 299.994 382.805 300.439H380.681C380.705 299.653 380.937 298.962 381.377 298.365C381.822 297.769 382.409 297.302 383.139 296.966C383.868 296.63 384.677 296.462 385.567 296.462C386.5 296.462 387.305 296.644 387.982 297.009C388.664 297.368 389.19 297.849 389.559 298.45C389.933 299.052 390.118 299.71 390.113 300.425C390.118 301.239 389.89 301.93 389.431 302.499C388.977 303.067 388.371 303.448 387.613 303.642V303.756C388.579 303.903 389.327 304.286 389.857 304.906C390.392 305.527 390.657 306.296 390.653 307.215C390.657 308.015 390.435 308.732 389.985 309.367C389.54 310.001 388.932 310.501 388.16 310.865C387.388 311.225 386.505 311.405 385.511 311.405ZM398.401 311.448C397.279 311.443 396.32 311.147 395.525 310.56C394.729 309.973 394.121 309.118 393.7 307.996C393.278 306.874 393.067 305.522 393.067 303.94C393.067 302.364 393.278 301.017 393.7 299.899C394.126 298.782 394.737 297.93 395.532 297.342C396.332 296.755 397.289 296.462 398.401 296.462C399.514 296.462 400.468 296.758 401.264 297.35C402.059 297.937 402.667 298.789 403.089 299.906C403.515 301.019 403.728 302.364 403.728 303.94C403.728 305.527 403.517 306.881 403.096 308.003C402.675 309.12 402.066 309.975 401.271 310.567C400.475 311.154 399.519 311.448 398.401 311.448ZM398.401 309.551C399.386 309.551 400.156 309.071 400.71 308.109C401.268 307.148 401.548 305.759 401.548 303.94C401.548 302.733 401.42 301.713 401.164 300.879C400.913 300.041 400.551 299.407 400.077 298.976C399.609 298.54 399.05 298.323 398.401 298.323C397.421 298.323 396.652 298.805 396.093 299.771C395.534 300.737 395.253 302.127 395.248 303.94C395.248 305.153 395.373 306.178 395.624 307.016C395.88 307.849 396.242 308.481 396.711 308.912C397.18 309.338 397.743 309.551 398.401 309.551Z" fill="white"/>
<path d="M490.645 145.509H495.645V140.509V60.7659C495.645 52.4817 488.93 45.7659 480.645 45.7659H112.912C104.628 45.7659 97.9119 52.4817 97.9119 60.7659V140.509V145.509H102.912H490.645Z" fill="#65D2FF" stroke="#65D2FF" stroke-width="10"/>
<circle cx="296.779" cy="84.3552" r="29.8217" fill="white" stroke="#D9D9D9" stroke-width="12"/>
<path d="M290.492 98.7409L281.686 81.1296C281.686 91.8221 272.957 108.177 272.957 108.177C272.957 108.177 287.557 103.353 290.492 98.7409Z" fill="white"/>
<path d="M277.15 57.7459C275.481 63.2496 276.877 68.8921 277.842 71.1268C281.175 68.8881 287.543 64.2166 286.349 63.4405C285.017 62.5746 280.176 59.806 278.091 57.5761C277.81 57.2754 277.269 57.3518 277.15 57.7459Z" fill="white" stroke="white"/>
<path d="M315.615 56.328C317.284 61.8317 315.887 67.4742 314.923 69.7089C311.59 67.4702 305.222 62.7987 306.416 62.0226C307.748 61.1567 312.589 58.3881 314.674 56.1582C314.955 55.8575 315.496 55.9339 315.615 56.328Z" fill="white" stroke="white"/>
<path d="M291.503 89.3401H281.724" stroke="#D9D9D9" stroke-linecap="round"/>
<path d="M301.621 89.3401H311.399" stroke="#D9D9D9" stroke-linecap="round"/>
<path d="M291.503 91.7992L282.38 94.3035" stroke="#D9D9D9" stroke-linecap="round"/>
<path d="M301.62 91.7992L310.744 94.3035" stroke="#D9D9D9" stroke-linecap="round"/>
<path d="M291.503 86.8813L282.491 84.3552" stroke="#D9D9D9" stroke-linecap="round"/>
<path d="M301.621 86.8813L310.633 84.3552" stroke="#D9D9D9" stroke-linecap="round"/>
<path d="M289.443 132.066H287.681C287.577 131.559 287.395 131.114 287.134 130.731C286.879 130.347 286.566 130.025 286.197 129.765C285.832 129.5 285.428 129.301 284.982 129.168C284.537 129.035 284.073 128.969 283.59 128.969C282.71 128.969 281.912 129.192 281.197 129.637C280.487 130.082 279.921 130.738 279.5 131.604C279.083 132.471 278.875 133.534 278.875 134.793C278.875 136.053 279.083 137.116 279.5 137.982C279.921 138.848 280.487 139.504 281.197 139.949C281.912 140.394 282.71 140.617 283.59 140.617C284.073 140.617 284.537 140.551 284.982 140.418C285.428 140.285 285.832 140.089 286.197 139.829C286.566 139.563 286.879 139.239 287.134 138.856C287.395 138.467 287.577 138.022 287.681 137.52H289.443C289.31 138.264 289.069 138.929 288.718 139.516C288.368 140.103 287.932 140.603 287.411 141.015C286.891 141.422 286.306 141.732 285.657 141.945C285.013 142.158 284.324 142.265 283.59 142.265C282.35 142.265 281.247 141.962 280.281 141.356C279.315 140.75 278.555 139.888 278.001 138.77C277.447 137.653 277.17 136.327 277.17 134.793C277.17 133.259 277.447 131.933 278.001 130.816C278.555 129.698 279.315 128.837 280.281 128.231C281.247 127.625 282.35 127.321 283.59 127.321C284.324 127.321 285.013 127.428 285.657 127.641C286.306 127.854 286.891 128.167 287.411 128.579C287.932 128.986 288.368 129.483 288.718 130.07C289.069 130.652 289.31 131.318 289.443 132.066ZM292.886 142.066H291.039L296.38 127.52H298.198L303.539 142.066H301.692L297.346 129.821H297.232L292.886 142.066ZM293.567 136.384H301.011V137.946H293.567V136.384ZM303.31 129.083V127.52H314.219V129.083H309.645V142.066H307.884V129.083H303.31Z" fill="white"/>
</g>
</g>
<defs>
<filter id="filter0_d_41_114" x="0.563232" y="0.862427" width="600.431" height="534.008" filterUnits="userSpaceOnUse" color-interpolation-filters="sRGB">
<feFlood flood-opacity="0" result="BackgroundImageFix"/>
<feColorMatrix in="SourceAlpha" type="matrix" values="0 0 0 0 0 0 0 0 0 0 0 0 0 0 0 0 0 0 127 0" result="hardAlpha"/>
<feOffset dx="4" dy="4"/>
<feGaussianBlur stdDeviation="5"/>
<feComposite in2="hardAlpha" operator="out"/>
<feColorMatrix type="matrix" values="0 0 0 0 0 0 0 0 0 0 0 0 0 0 0 0 0 0 0.25 0"/>
<feBlend mode="normal" in2="BackgroundImageFix" result="effect1_dropShadow_41_114"/>
<feBlend mode="normal" in="SourceGraphic" in2="effect1_dropShadow_41_114" result="shape"/>
</filter>
<filter id="filter1_d_41_114" x="2.56323" y="6.86243" width="588.431" height="522.008" filterUnits="userSpaceOnUse" color-interpolation-filters="sRGB">
<feFlood flood-opacity="0" result="BackgroundImageFix"/>
<feColorMatrix in="SourceAlpha" type="matrix" values="0 0 0 0 0 0 0 0 0 0 0 0 0 0 0 0 0 0 127 0" result="hardAlpha"/>
<feOffset dy="4"/>
<feGaussianBlur stdDeviation="2"/>
<feComposite in2="hardAlpha" operator="out"/>
<feColorMatrix type="matrix" values="0 0 0 0 0 0 0 0 0 0 0 0 0 0 0 0 0 0 0.05 0"/>
<feBlend mode="normal" in2="BackgroundImageFix" result="effect1_dropShadow_41_114"/>
<feBlend mode="normal" in="SourceGraphic" in2="effect1_dropShadow_41_114" result="shape"/>
</filter>
</defs>
</svg>
