<svg width="601" height="535" viewBox="0 0 601 535" fill="none" xmlns="http://www.w3.org/2000/svg">
<g filter="url(#filter0_d_105_11)">
<g filter="url(#filter1_d_105_11)">
<rect x="21.498" y="21.7659" width="550.431" height="484.008" rx="30" fill="#F6F7F5" fill-opacity="0.8" shape-rendering="crispEdges"/>
<rect x="13.998" y="14.2659" width="565.431" height="499.008" rx="37.5" stroke="#E1DFDF" stroke-width="15" shape-rendering="crispEdges"/>
</g>
<mask id="mask0_105_11" style="mask-type:alpha" maskUnits="userSpaceOnUse" x="21" y="21" width="551" height="485">
<rect x="21.498" y="21.7659" width="550.431" height="484.008" rx="30" fill="white" fill-opacity="0.8"/>
</mask>
<g mask="url(#mask0_105_11)">
<mask id="path-4-outside-1_105_11" maskUnits="userSpaceOnUse" x="92.8467" y="53.4159" width="408" height="455" fill="black">
<rect fill="white" x="92.8467" y="53.4159" width="408" height="455"/>
<path d="M102.847 73.4159C102.847 67.893 107.324 63.4159 112.847 63.4159H480.58C486.103 63.4159 490.58 67.893 490.58 73.4159V507.628H102.847V73.4159Z"/>
</mask>
<path d="M102.847 73.4159C102.847 67.893 107.324 63.4159 112.847 63.4159H480.58C486.103 63.4159 490.58 67.893 490.58 73.4159V507.628H102.847V73.4159Z" fill="white"/>
<path d="M92.8467 73.4159C92.8467 62.3702 101.801 53.4159 112.847 53.4159H480.58C491.626 53.4159 500.58 62.3702 500.58 73.4159H480.58H112.847H92.8467ZM490.58 507.628H102.847H490.58ZM92.8467 507.628V73.4159C92.8467 62.3702 101.801 53.4159 112.847 53.4159V73.4159V507.628H92.8467ZM480.58 53.4159C491.626 53.4159 500.58 62.3702 500.58 73.4159V507.628H480.58V73.4159V53.4159Z" fill="#B1B1B1" mask="url(#path-4-outside-1_105_11)"/>
<path d="M124.183 227.606L115.377 209.994C115.377 220.687 106.648 237.041 106.648 237.041C106.648 237.041 121.248 232.218 124.183 227.606Z" fill="#EDEDED"/>
<rect x="114.204" y="168.205" width="246.316" height="62.0533" rx="10" fill="#EDEDED"/>
<path d="M124.183 227.606L115.377 209.994C115.377 220.687 106.648 237.041 106.648 237.041C106.648 237.041 121.248 232.218 124.183 227.606Z" fill="#EDEDED"/>
<rect x="114.204" y="168.205" width="246.316" height="62.0533" rx="10" fill="#EDEDED"/>
<path d="M130.408 205.933V191.388H133.043V197.546H139.783V191.388H142.425V205.933H139.783V199.754H133.043V205.933H130.408ZM149.935 206.146C148.87 206.146 147.947 205.912 147.165 205.443C146.384 204.975 145.778 204.319 145.347 203.476C144.921 202.633 144.708 201.648 144.708 200.521C144.708 199.395 144.921 198.407 145.347 197.56C145.778 196.712 146.384 196.054 147.165 195.585C147.947 195.117 148.87 194.882 149.935 194.882C151.001 194.882 151.924 195.117 152.705 195.585C153.486 196.054 154.09 196.712 154.516 197.56C154.947 198.407 155.163 199.395 155.163 200.521C155.163 201.648 154.947 202.633 154.516 203.476C154.09 204.319 153.486 204.975 152.705 205.443C151.924 205.912 151.001 206.146 149.935 206.146ZM149.949 204.087C150.527 204.087 151.01 203.928 151.398 203.611C151.787 203.289 152.075 202.858 152.265 202.318C152.459 201.779 152.556 201.177 152.556 200.514C152.556 199.847 152.459 199.243 152.265 198.703C152.075 198.159 151.787 197.725 151.398 197.404C151.01 197.082 150.527 196.921 149.949 196.921C149.358 196.921 148.865 197.082 148.472 197.404C148.084 197.725 147.793 198.159 147.599 198.703C147.409 199.243 147.315 199.847 147.315 200.514C147.315 201.177 147.409 201.779 147.599 202.318C147.793 202.858 148.084 203.289 148.472 203.611C148.865 203.928 149.358 204.087 149.949 204.087ZM159.284 205.933L156.201 195.024H158.822L160.74 202.695H160.839L162.799 195.024H165.392L167.352 202.652H167.458L169.348 195.024H171.975L168.886 205.933H166.208L164.163 198.561H164.014L161.968 205.933H159.284ZM183.49 206.146C182.401 206.146 181.466 205.907 180.685 205.429C179.908 204.951 179.309 204.29 178.888 203.448C178.471 202.6 178.263 201.625 178.263 200.521C178.263 199.413 178.476 198.436 178.902 197.588C179.328 196.736 179.929 196.073 180.706 195.6C181.487 195.121 182.41 194.882 183.476 194.882C184.361 194.882 185.145 195.046 185.827 195.372C186.513 195.694 187.06 196.151 187.467 196.743C187.874 197.33 188.106 198.017 188.163 198.803H185.706C185.606 198.277 185.37 197.839 184.996 197.489C184.626 197.134 184.132 196.956 183.511 196.956C182.986 196.956 182.524 197.098 182.126 197.382C181.729 197.662 181.418 198.064 181.196 198.59C180.978 199.115 180.869 199.745 180.869 200.479C180.869 201.222 180.978 201.861 181.196 202.396C181.414 202.927 181.719 203.336 182.112 203.625C182.51 203.909 182.976 204.051 183.511 204.051C183.89 204.051 184.229 203.98 184.527 203.838C184.83 203.691 185.083 203.481 185.287 203.206C185.49 202.931 185.63 202.598 185.706 202.205H188.163C188.102 202.976 187.874 203.661 187.481 204.257C187.088 204.849 186.553 205.313 185.876 205.649C185.199 205.981 184.404 206.146 183.49 206.146ZM193.414 206.154C192.722 206.154 192.1 206.03 191.546 205.784C190.996 205.533 190.561 205.164 190.239 204.676C189.922 204.189 189.763 203.587 189.763 202.872C189.763 202.257 189.877 201.748 190.104 201.345C190.331 200.943 190.641 200.621 191.034 200.379C191.427 200.138 191.87 199.956 192.362 199.832C192.86 199.705 193.373 199.612 193.904 199.556C194.543 199.489 195.061 199.43 195.459 199.378C195.857 199.321 196.146 199.236 196.326 199.122C196.51 199.004 196.603 198.822 196.603 198.575V198.533C196.603 197.998 196.444 197.583 196.127 197.29C195.809 196.996 195.353 196.85 194.756 196.85C194.126 196.85 193.627 196.987 193.257 197.261C192.893 197.536 192.647 197.86 192.519 198.234L190.118 197.894C190.308 197.231 190.62 196.677 191.056 196.232C191.491 195.782 192.024 195.446 192.654 195.223C193.283 194.996 193.979 194.882 194.742 194.882C195.267 194.882 195.79 194.944 196.311 195.067C196.832 195.19 197.308 195.394 197.739 195.678C198.17 195.957 198.515 196.338 198.776 196.821C199.041 197.304 199.174 197.908 199.174 198.632V205.933H196.702V204.435H196.617C196.46 204.738 196.24 205.022 195.956 205.287C195.677 205.547 195.324 205.758 194.898 205.919C194.477 206.075 193.982 206.154 193.414 206.154ZM194.081 204.264C194.597 204.264 195.045 204.163 195.424 203.959C195.802 203.751 196.094 203.476 196.297 203.135C196.505 202.794 196.61 202.422 196.61 202.02V200.734C196.529 200.801 196.392 200.862 196.198 200.919C196.008 200.976 195.795 201.026 195.558 201.068C195.322 201.111 195.087 201.149 194.855 201.182C194.623 201.215 194.422 201.243 194.252 201.267C193.868 201.319 193.525 201.404 193.222 201.523C192.919 201.641 192.68 201.807 192.505 202.02C192.329 202.228 192.242 202.498 192.242 202.83C192.242 203.303 192.415 203.661 192.76 203.902C193.106 204.144 193.546 204.264 194.081 204.264ZM204.33 199.541V205.933H201.759V195.024H204.216V196.878H204.344C204.595 196.267 204.995 195.782 205.544 195.422C206.098 195.062 206.782 194.882 207.597 194.882C208.35 194.882 209.005 195.043 209.564 195.365C210.128 195.687 210.563 196.154 210.871 196.764C211.183 197.375 211.337 198.116 211.333 198.987V205.933H208.762V199.385C208.762 198.656 208.572 198.085 208.193 197.673C207.819 197.261 207.301 197.056 206.638 197.056C206.188 197.056 205.788 197.155 205.438 197.354C205.092 197.548 204.82 197.83 204.621 198.199C204.427 198.568 204.33 199.016 204.33 199.541ZM221.656 191.388V205.933H219.021V191.388H221.656ZM231.927 199.541V205.933H229.356V191.388H231.871V196.878H231.998C232.254 196.262 232.65 195.777 233.185 195.422C233.724 195.062 234.411 194.882 235.244 194.882C236.002 194.882 236.662 195.041 237.226 195.358C237.789 195.675 238.225 196.139 238.533 196.75C238.845 197.361 239.001 198.107 239.001 198.987V205.933H236.43V199.385C236.43 198.651 236.241 198.081 235.862 197.673C235.488 197.261 234.962 197.056 234.285 197.056C233.831 197.056 233.424 197.155 233.064 197.354C232.709 197.548 232.429 197.83 232.226 198.199C232.027 198.568 231.927 199.016 231.927 199.541ZM246.452 206.146C245.358 206.146 244.413 205.919 243.618 205.465C242.827 205.005 242.219 204.357 241.793 203.519C241.366 202.676 241.153 201.684 241.153 200.543C241.153 199.421 241.366 198.436 241.793 197.588C242.223 196.736 242.825 196.073 243.596 195.6C244.368 195.121 245.275 194.882 246.317 194.882C246.989 194.882 247.623 194.991 248.22 195.209C248.821 195.422 249.352 195.753 249.811 196.203C250.275 196.653 250.64 197.226 250.905 197.922C251.17 198.613 251.302 199.437 251.302 200.394V201.182H242.361V199.449H248.838C248.833 198.957 248.727 198.519 248.518 198.135C248.31 197.747 248.019 197.441 247.645 197.219C247.275 196.996 246.845 196.885 246.352 196.885C245.827 196.885 245.365 197.013 244.967 197.269C244.569 197.52 244.259 197.851 244.037 198.263C243.819 198.67 243.708 199.118 243.703 199.605V201.118C243.703 201.752 243.819 202.297 244.051 202.752C244.283 203.201 244.607 203.547 245.024 203.788C245.441 204.025 245.928 204.144 246.487 204.144C246.861 204.144 247.2 204.091 247.503 203.987C247.806 203.878 248.069 203.72 248.291 203.511C248.514 203.303 248.682 203.045 248.795 202.737L251.196 203.007C251.044 203.642 250.756 204.196 250.329 204.669C249.908 205.138 249.368 205.502 248.71 205.763C248.052 206.019 247.299 206.146 246.452 206.146ZM256.049 191.388V205.933H253.478V191.388H256.049ZM258.692 210.024V195.024H261.221V196.828H261.37C261.502 196.563 261.69 196.281 261.931 195.983C262.172 195.68 262.499 195.422 262.911 195.209C263.323 194.991 263.849 194.882 264.488 194.882C265.331 194.882 266.091 195.098 266.768 195.529C267.449 195.955 267.989 196.587 268.387 197.425C268.789 198.258 268.991 199.281 268.991 200.493C268.991 201.691 268.794 202.709 268.401 203.547C268.008 204.385 267.473 205.024 266.796 205.465C266.119 205.905 265.352 206.125 264.495 206.125C263.87 206.125 263.351 206.021 262.94 205.813C262.528 205.604 262.196 205.353 261.945 205.06C261.699 204.761 261.507 204.48 261.37 204.215H261.263V210.024H258.692ZM261.214 200.479C261.214 201.184 261.313 201.802 261.512 202.332C261.716 202.863 262.007 203.277 262.386 203.575C262.769 203.869 263.233 204.016 263.778 204.016C264.346 204.016 264.822 203.864 265.205 203.561C265.589 203.253 265.877 202.834 266.072 202.304C266.27 201.769 266.37 201.161 266.37 200.479C266.37 199.802 266.273 199.2 266.079 198.675C265.885 198.149 265.596 197.737 265.212 197.439C264.829 197.141 264.351 196.992 263.778 196.992C263.228 196.992 262.762 197.136 262.378 197.425C261.995 197.714 261.704 198.118 261.505 198.639C261.311 199.16 261.214 199.773 261.214 200.479ZM281.601 195.024V197.013H275.329V195.024H281.601ZM276.878 192.411H279.449V202.652C279.449 202.998 279.501 203.263 279.605 203.448C279.714 203.627 279.856 203.751 280.031 203.817C280.206 203.883 280.4 203.916 280.614 203.916C280.775 203.916 280.921 203.904 281.054 203.881C281.191 203.857 281.295 203.836 281.366 203.817L281.8 205.827C281.662 205.874 281.466 205.926 281.21 205.983C280.959 206.04 280.651 206.073 280.287 206.082C279.643 206.101 279.063 206.004 278.547 205.791C278.031 205.574 277.621 205.237 277.318 204.783C277.02 204.328 276.873 203.76 276.878 203.078V192.411ZM288.392 206.146C287.327 206.146 286.404 205.912 285.622 205.443C284.841 204.975 284.235 204.319 283.804 203.476C283.378 202.633 283.165 201.648 283.165 200.521C283.165 199.395 283.378 198.407 283.804 197.56C284.235 196.712 284.841 196.054 285.622 195.585C286.404 195.117 287.327 194.882 288.392 194.882C289.458 194.882 290.381 195.117 291.162 195.585C291.943 196.054 292.547 196.712 292.973 197.56C293.404 198.407 293.62 199.395 293.62 200.521C293.62 201.648 293.404 202.633 292.973 203.476C292.547 204.319 291.943 204.975 291.162 205.443C290.381 205.912 289.458 206.146 288.392 206.146ZM288.406 204.087C288.984 204.087 289.467 203.928 289.855 203.611C290.244 203.289 290.532 202.858 290.722 202.318C290.916 201.779 291.013 201.177 291.013 200.514C291.013 199.847 290.916 199.243 290.722 198.703C290.532 198.159 290.244 197.725 289.855 197.404C289.467 197.082 288.984 196.921 288.406 196.921C287.815 196.921 287.322 197.082 286.929 197.404C286.541 197.725 286.25 198.159 286.056 198.703C285.866 199.243 285.772 199.847 285.772 200.514C285.772 201.177 285.866 201.779 286.056 202.318C286.25 202.858 286.541 203.289 286.929 203.611C287.322 203.928 287.815 204.087 288.406 204.087ZM299.85 206.125C298.993 206.125 298.226 205.905 297.549 205.465C296.872 205.024 296.337 204.385 295.944 203.547C295.551 202.709 295.354 201.691 295.354 200.493C295.354 199.281 295.553 198.258 295.951 197.425C296.353 196.587 296.895 195.955 297.577 195.529C298.259 195.098 299.019 194.882 299.857 194.882C300.496 194.882 301.022 194.991 301.434 195.209C301.846 195.422 302.172 195.68 302.414 195.983C302.655 196.281 302.842 196.563 302.975 196.828H303.082V191.388H305.66V205.933H303.131V204.215H302.975C302.842 204.48 302.651 204.761 302.4 205.06C302.149 205.353 301.817 205.604 301.405 205.813C300.993 206.021 300.475 206.125 299.85 206.125ZM300.567 204.016C301.112 204.016 301.576 203.869 301.959 203.575C302.343 203.277 302.634 202.863 302.833 202.332C303.032 201.802 303.131 201.184 303.131 200.479C303.131 199.773 303.032 199.16 302.833 198.639C302.639 198.118 302.35 197.714 301.967 197.425C301.588 197.136 301.121 196.992 300.567 196.992C299.994 196.992 299.516 197.141 299.133 197.439C298.749 197.737 298.46 198.149 298.266 198.675C298.072 199.2 297.975 199.802 297.975 200.479C297.975 201.161 298.072 201.769 298.266 202.304C298.465 202.834 298.756 203.253 299.14 203.561C299.528 203.864 300.004 204.016 300.567 204.016ZM311.539 206.154C310.847 206.154 310.225 206.03 309.671 205.784C309.121 205.533 308.686 205.164 308.364 204.676C308.047 204.189 307.888 203.587 307.888 202.872C307.888 202.257 308.002 201.748 308.229 201.345C308.456 200.943 308.766 200.621 309.159 200.379C309.552 200.138 309.995 199.956 310.487 199.832C310.985 199.705 311.498 199.612 312.029 199.556C312.668 199.489 313.186 199.43 313.584 199.378C313.982 199.321 314.271 199.236 314.451 199.122C314.635 199.004 314.728 198.822 314.728 198.575V198.533C314.728 197.998 314.569 197.583 314.252 197.29C313.934 196.996 313.478 196.85 312.881 196.85C312.251 196.85 311.752 196.987 311.382 197.261C311.018 197.536 310.772 197.86 310.644 198.234L308.243 197.894C308.433 197.231 308.745 196.677 309.181 196.232C309.616 195.782 310.149 195.446 310.779 195.223C311.408 194.996 312.104 194.882 312.867 194.882C313.392 194.882 313.915 194.944 314.436 195.067C314.957 195.19 315.433 195.394 315.864 195.678C316.295 195.957 316.64 196.338 316.901 196.821C317.166 197.304 317.299 197.908 317.299 198.632V205.933H314.827V204.435H314.742C314.585 204.738 314.365 205.022 314.081 205.287C313.802 205.547 313.449 205.758 313.023 205.919C312.602 206.075 312.107 206.154 311.539 206.154ZM312.206 204.264C312.722 204.264 313.17 204.163 313.549 203.959C313.927 203.751 314.219 203.476 314.422 203.135C314.63 202.794 314.735 202.422 314.735 202.02V200.734C314.654 200.801 314.517 200.862 314.323 200.919C314.133 200.976 313.92 201.026 313.683 201.068C313.447 201.111 313.212 201.149 312.98 201.182C312.748 201.215 312.547 201.243 312.377 201.267C311.993 201.319 311.65 201.404 311.347 201.523C311.044 201.641 310.805 201.807 310.63 202.02C310.454 202.228 310.367 202.498 310.367 202.83C310.367 203.303 310.54 203.661 310.885 203.902C311.231 204.144 311.671 204.264 312.206 204.264ZM321.091 210.024C320.741 210.024 320.416 209.996 320.118 209.939C319.825 209.887 319.59 209.825 319.415 209.754L320.012 207.752C320.386 207.86 320.719 207.913 321.013 207.908C321.307 207.903 321.565 207.811 321.787 207.631C322.014 207.456 322.206 207.162 322.362 206.75L322.583 206.161L318.627 195.024H321.354L323.868 203.263H323.982L326.503 195.024H329.237L324.87 207.254C324.666 207.832 324.396 208.327 324.06 208.739C323.724 209.155 323.312 209.473 322.824 209.69C322.341 209.913 321.764 210.024 321.091 210.024ZM333.474 201.658V201.473C333.479 200.616 333.559 199.934 333.715 199.428C333.876 198.921 334.104 198.514 334.397 198.206C334.691 197.894 335.048 197.607 335.47 197.347C335.759 197.167 336.017 196.97 336.244 196.757C336.476 196.539 336.658 196.298 336.791 196.033C336.923 195.763 336.99 195.462 336.99 195.131C336.99 194.757 336.902 194.432 336.727 194.158C336.552 193.883 336.315 193.67 336.017 193.519C335.723 193.367 335.394 193.291 335.029 193.291C334.693 193.291 334.374 193.365 334.071 193.511C333.772 193.654 333.524 193.871 333.325 194.165C333.131 194.454 333.022 194.821 332.998 195.266H330.47C330.493 194.366 330.711 193.613 331.123 193.007C331.54 192.401 332.089 191.947 332.771 191.644C333.457 191.341 334.215 191.189 335.044 191.189C335.948 191.189 336.743 191.348 337.43 191.665C338.121 191.982 338.659 192.434 339.042 193.021C339.43 193.604 339.625 194.295 339.625 195.095C339.625 195.635 339.537 196.118 339.362 196.544C339.191 196.97 338.947 197.349 338.63 197.681C338.313 198.012 337.937 198.308 337.501 198.568C337.117 198.805 336.803 199.051 336.556 199.307C336.315 199.563 336.135 199.863 336.017 200.209C335.903 200.55 335.844 200.971 335.839 201.473V201.658H333.474ZM334.71 206.09C334.284 206.09 333.917 205.938 333.609 205.635C333.301 205.332 333.147 204.963 333.147 204.527C333.147 204.101 333.301 203.736 333.609 203.433C333.917 203.13 334.284 202.979 334.71 202.979C335.131 202.979 335.496 203.13 335.804 203.433C336.116 203.736 336.272 204.101 336.272 204.527C336.272 204.816 336.199 205.079 336.052 205.315C335.91 205.552 335.721 205.742 335.484 205.884C335.252 206.021 334.994 206.09 334.71 206.09Z" fill="black"/>
<path d="M124.183 434.522L115.377 416.911C115.377 427.603 106.648 443.958 106.648 443.958C106.648 443.958 121.248 439.135 124.183 434.522Z" fill="#D9D9D9"/>
<rect x="114.204" y="375.121" width="246.316" height="62.0533" rx="10" fill="#D9D9D9"/>
<path d="M124.183 433.987L115.377 415.376C115.377 426.675 106.648 443.958 106.648 443.958C106.648 443.958 121.248 438.861 124.183 433.987Z" fill="#EDEDED"/>
<rect x="114.204" y="358.087" width="246.316" height="78.7025" rx="10" fill="#EDEDED"/>
<path d="M142.858 378.598H140.202C140.126 378.163 139.986 377.777 139.783 377.441C139.579 377.1 139.326 376.811 139.023 376.574C138.72 376.338 138.374 376.16 137.986 376.042C137.602 375.918 137.188 375.857 136.743 375.857C135.952 375.857 135.251 376.056 134.641 376.454C134.03 376.847 133.551 377.424 133.206 378.186C132.86 378.944 132.687 379.87 132.687 380.963C132.687 382.076 132.86 383.014 133.206 383.776C133.556 384.534 134.034 385.106 134.641 385.495C135.251 385.878 135.95 386.07 136.736 386.07C137.171 386.07 137.578 386.013 137.957 385.9C138.341 385.781 138.684 385.608 138.987 385.381C139.295 385.154 139.553 384.874 139.761 384.543C139.974 384.212 140.121 383.833 140.202 383.407L142.858 383.421C142.758 384.112 142.543 384.761 142.212 385.367C141.885 385.973 141.456 386.508 140.926 386.972C140.396 387.431 139.775 387.791 139.065 388.052C138.355 388.307 137.567 388.435 136.7 388.435C135.422 388.435 134.281 388.139 133.277 387.547C132.273 386.955 131.482 386.101 130.905 384.983C130.327 383.866 130.038 382.526 130.038 380.963C130.038 379.396 130.329 378.056 130.912 376.944C131.494 375.826 132.287 374.972 133.291 374.38C134.295 373.788 135.431 373.492 136.7 373.492C137.51 373.492 138.263 373.606 138.959 373.833C139.655 374.06 140.275 374.394 140.819 374.834C141.364 375.27 141.811 375.805 142.162 376.439C142.517 377.069 142.749 377.789 142.858 378.598ZM148.296 388.456C147.605 388.456 146.982 388.333 146.429 388.087C145.879 387.836 145.444 387.467 145.122 386.979C144.804 386.491 144.646 385.89 144.646 385.175C144.646 384.56 144.759 384.051 144.987 383.648C145.214 383.246 145.524 382.924 145.917 382.682C146.31 382.441 146.753 382.258 147.245 382.135C147.742 382.008 148.256 381.915 148.786 381.858C149.426 381.792 149.944 381.733 150.342 381.681C150.74 381.624 151.028 381.539 151.208 381.425C151.393 381.307 151.485 381.124 151.485 380.878V380.836C151.485 380.301 151.327 379.886 151.009 379.593C150.692 379.299 150.235 379.152 149.639 379.152C149.009 379.152 148.509 379.29 148.14 379.564C147.776 379.839 147.529 380.163 147.402 380.537L145.001 380.196C145.19 379.534 145.503 378.98 145.938 378.535C146.374 378.085 146.907 377.749 147.536 377.526C148.166 377.299 148.862 377.185 149.625 377.185C150.15 377.185 150.673 377.247 151.194 377.37C151.715 377.493 152.191 377.696 152.622 377.981C153.053 378.26 153.398 378.641 153.659 379.124C153.924 379.607 154.056 380.211 154.056 380.935V388.236H151.585V386.738H151.5C151.343 387.041 151.123 387.325 150.839 387.59C150.56 387.85 150.207 388.061 149.781 388.222C149.359 388.378 148.865 388.456 148.296 388.456ZM148.964 386.567C149.48 386.567 149.928 386.465 150.306 386.262C150.685 386.053 150.976 385.779 151.18 385.438C151.388 385.097 151.492 384.725 151.492 384.323V383.037C151.412 383.104 151.275 383.165 151.08 383.222C150.891 383.279 150.678 383.329 150.441 383.371C150.205 383.414 149.97 383.452 149.738 383.485C149.506 383.518 149.305 383.546 149.134 383.57C148.751 383.622 148.408 383.707 148.105 383.826C147.802 383.944 147.563 384.11 147.387 384.323C147.212 384.531 147.125 384.801 147.125 385.133C147.125 385.606 147.297 385.963 147.643 386.205C147.989 386.446 148.429 386.567 148.964 386.567ZM159.213 381.844V388.236H156.642V377.327H159.099V379.181H159.227C159.478 378.57 159.878 378.085 160.427 377.725C160.981 377.365 161.665 377.185 162.48 377.185C163.232 377.185 163.888 377.346 164.447 377.668C165.01 377.99 165.446 378.456 165.754 379.067C166.066 379.678 166.22 380.419 166.215 381.29V388.236H163.644V381.688C163.644 380.959 163.455 380.388 163.076 379.976C162.702 379.564 162.184 379.358 161.521 379.358C161.071 379.358 160.671 379.458 160.321 379.657C159.975 379.851 159.703 380.133 159.504 380.502C159.31 380.871 159.213 381.319 159.213 381.844ZM175.388 392.327C175.038 392.327 174.713 392.299 174.415 392.242C174.121 392.19 173.887 392.128 173.712 392.057L174.308 390.054C174.683 390.163 175.016 390.215 175.31 390.211C175.603 390.206 175.862 390.114 176.084 389.934C176.311 389.758 176.503 389.465 176.659 389.053L176.88 388.463L172.924 377.327H175.651L178.165 385.566H178.279L180.8 377.327H183.534L179.166 389.557C178.963 390.135 178.693 390.63 178.357 391.042C178.021 391.458 177.609 391.776 177.121 391.993C176.638 392.216 176.06 392.327 175.388 392.327ZM189.701 388.449C188.636 388.449 187.712 388.215 186.931 387.746C186.15 387.277 185.544 386.622 185.113 385.779C184.687 384.936 184.474 383.951 184.474 382.824C184.474 381.697 184.687 380.71 185.113 379.863C185.544 379.015 186.15 378.357 186.931 377.888C187.712 377.419 188.636 377.185 189.701 377.185C190.766 377.185 191.69 377.419 192.471 377.888C193.252 378.357 193.856 379.015 194.282 379.863C194.713 380.71 194.928 381.697 194.928 382.824C194.928 383.951 194.713 384.936 194.282 385.779C193.856 386.622 193.252 387.277 192.471 387.746C191.69 388.215 190.766 388.449 189.701 388.449ZM189.715 386.39C190.293 386.39 190.776 386.231 191.164 385.914C191.552 385.592 191.841 385.161 192.03 384.621C192.225 384.081 192.322 383.48 192.322 382.817C192.322 382.15 192.225 381.546 192.03 381.006C191.841 380.462 191.552 380.028 191.164 379.706C190.776 379.384 190.293 379.223 189.715 379.223C189.123 379.223 188.631 379.384 188.238 379.706C187.85 380.028 187.558 380.462 187.364 381.006C187.175 381.546 187.08 382.15 187.08 382.817C187.08 383.48 187.175 384.081 187.364 384.621C187.558 385.161 187.85 385.592 188.238 385.914C188.631 386.231 189.123 386.39 189.715 386.39ZM204.063 383.648V377.327H206.634V388.236H204.142V386.297H204.028C203.782 386.908 203.377 387.408 202.813 387.796C202.255 388.184 201.566 388.378 200.747 388.378C200.032 388.378 199.4 388.22 198.85 387.902C198.306 387.58 197.88 387.114 197.572 386.503C197.264 385.888 197.11 385.144 197.11 384.273V377.327H199.681V383.875C199.681 384.567 199.871 385.116 200.25 385.523C200.628 385.93 201.125 386.134 201.741 386.134C202.12 386.134 202.487 386.042 202.842 385.857C203.197 385.672 203.488 385.398 203.715 385.033C203.947 384.664 204.063 384.202 204.063 383.648ZM217.378 388.456C216.687 388.456 216.065 388.333 215.511 388.087C214.961 387.836 214.526 387.467 214.204 386.979C213.886 386.491 213.728 385.89 213.728 385.175C213.728 384.56 213.842 384.051 214.069 383.648C214.296 383.246 214.606 382.924 214.999 382.682C215.392 382.441 215.835 382.258 216.327 382.135C216.824 382.008 217.338 381.915 217.868 381.858C218.508 381.792 219.026 381.733 219.424 381.681C219.822 381.624 220.11 381.539 220.29 381.425C220.475 381.307 220.567 381.124 220.567 380.878V380.836C220.567 380.301 220.409 379.886 220.092 379.593C219.774 379.299 219.317 379.152 218.721 379.152C218.091 379.152 217.592 379.29 217.222 379.564C216.858 379.839 216.611 380.163 216.484 380.537L214.083 380.196C214.272 379.534 214.585 378.98 215.02 378.535C215.456 378.085 215.989 377.749 216.618 377.526C217.248 377.299 217.944 377.185 218.707 377.185C219.232 377.185 219.755 377.247 220.276 377.37C220.797 377.493 221.273 377.696 221.704 377.981C222.135 378.26 222.48 378.641 222.741 379.124C223.006 379.607 223.138 380.211 223.138 380.935V388.236H220.667V386.738H220.582C220.425 387.041 220.205 387.325 219.921 387.59C219.642 387.85 219.289 388.061 218.863 388.222C218.441 388.378 217.947 388.456 217.378 388.456ZM218.046 386.567C218.562 386.567 219.01 386.465 219.388 386.262C219.767 386.053 220.058 385.779 220.262 385.438C220.47 385.097 220.574 384.725 220.574 384.323V383.037C220.494 383.104 220.357 383.165 220.163 383.222C219.973 383.279 219.76 383.329 219.523 383.371C219.287 383.414 219.052 383.452 218.82 383.485C218.588 383.518 218.387 383.546 218.217 383.57C217.833 383.622 217.49 383.707 217.187 383.826C216.884 383.944 216.645 384.11 216.469 384.323C216.294 384.531 216.207 384.801 216.207 385.133C216.207 385.606 216.379 385.963 216.725 386.205C217.071 386.446 217.511 386.567 218.046 386.567ZM234.346 380.211L232.002 380.466C231.936 380.23 231.82 380.007 231.654 379.799C231.493 379.59 231.275 379.422 231.001 379.294C230.726 379.167 230.39 379.103 229.992 379.103C229.457 379.103 229.007 379.219 228.643 379.451C228.283 379.683 228.105 379.983 228.11 380.353C228.105 380.67 228.221 380.928 228.458 381.127C228.699 381.326 229.097 381.489 229.651 381.617L231.512 382.015C232.544 382.237 233.311 382.59 233.813 383.073C234.32 383.556 234.575 384.188 234.58 384.969C234.575 385.656 234.374 386.262 233.976 386.787C233.583 387.308 233.037 387.715 232.336 388.009C231.635 388.302 230.83 388.449 229.921 388.449C228.586 388.449 227.511 388.17 226.697 387.611C225.882 387.048 225.397 386.264 225.241 385.26L227.748 385.019C227.861 385.511 228.103 385.883 228.472 386.134C228.842 386.385 229.322 386.51 229.914 386.51C230.525 386.51 231.015 386.385 231.384 386.134C231.758 385.883 231.945 385.573 231.945 385.204C231.945 384.891 231.824 384.633 231.583 384.429C231.346 384.226 230.977 384.07 230.475 383.961L228.614 383.57C227.568 383.352 226.794 382.985 226.292 382.469C225.79 381.948 225.541 381.29 225.546 380.495C225.541 379.822 225.724 379.24 226.093 378.748C226.467 378.25 226.985 377.867 227.648 377.597C228.316 377.322 229.085 377.185 229.957 377.185C231.235 377.185 232.241 377.457 232.975 378.002C233.714 378.546 234.171 379.283 234.346 380.211ZM239.044 384.813L239.037 381.709H239.449L243.369 377.327H246.373L241.551 382.696H241.018L239.044 384.813ZM236.7 388.236V373.691H239.271V388.236H236.7ZM243.547 388.236L239.996 383.272L241.729 381.461L246.622 388.236H243.547ZM258.573 377.327V379.316H252.125V377.327H258.573ZM253.737 388.236V376.297C253.737 375.563 253.888 374.953 254.191 374.465C254.499 373.977 254.911 373.613 255.427 373.371C255.943 373.13 256.516 373.009 257.146 373.009C257.591 373.009 257.986 373.044 258.332 373.115C258.678 373.186 258.933 373.25 259.099 373.307L258.588 375.296C258.479 375.263 258.341 375.23 258.176 375.196C258.01 375.159 257.825 375.14 257.622 375.14C257.143 375.14 256.805 375.256 256.606 375.488C256.412 375.715 256.315 376.042 256.315 376.468V388.236H253.737ZM264.935 388.449C263.87 388.449 262.947 388.215 262.165 387.746C261.384 387.277 260.778 386.622 260.347 385.779C259.921 384.936 259.708 383.951 259.708 382.824C259.708 381.697 259.921 380.71 260.347 379.863C260.778 379.015 261.384 378.357 262.165 377.888C262.947 377.419 263.87 377.185 264.935 377.185C266.001 377.185 266.924 377.419 267.705 377.888C268.486 378.357 269.09 379.015 269.516 379.863C269.947 380.71 270.163 381.697 270.163 382.824C270.163 383.951 269.947 384.936 269.516 385.779C269.09 386.622 268.486 387.277 267.705 387.746C266.924 388.215 266.001 388.449 264.935 388.449ZM264.949 386.39C265.527 386.39 266.01 386.231 266.398 385.914C266.787 385.592 267.075 385.161 267.265 384.621C267.459 384.081 267.556 383.48 267.556 382.817C267.556 382.15 267.459 381.546 267.265 381.006C267.075 380.462 266.787 380.028 266.398 379.706C266.01 379.384 265.527 379.223 264.949 379.223C264.358 379.223 263.865 379.384 263.472 379.706C263.084 380.028 262.793 380.462 262.599 381.006C262.409 381.546 262.315 382.15 262.315 382.817C262.315 383.48 262.409 384.081 262.599 384.621C262.793 385.161 263.084 385.592 263.472 385.914C263.865 386.231 264.358 386.39 264.949 386.39ZM272.345 388.236V377.327H274.838V379.145H274.951C275.15 378.516 275.491 378.03 275.974 377.689C276.462 377.344 277.018 377.171 277.643 377.171C277.785 377.171 277.944 377.178 278.119 377.192C278.299 377.202 278.448 377.218 278.566 377.242V379.607C278.457 379.569 278.285 379.536 278.048 379.508C277.816 379.474 277.591 379.458 277.373 379.458C276.904 379.458 276.483 379.56 276.109 379.763C275.74 379.962 275.448 380.239 275.235 380.594C275.022 380.949 274.916 381.359 274.916 381.823V388.236H272.345ZM290.683 377.327V379.316H284.411V377.327H290.683ZM285.96 374.713H288.531V384.955C288.531 385.301 288.583 385.566 288.687 385.75C288.796 385.93 288.938 386.053 289.113 386.12C289.288 386.186 289.482 386.219 289.696 386.219C289.857 386.219 290.003 386.207 290.136 386.184C290.273 386.16 290.377 386.139 290.448 386.12L290.882 388.13C290.744 388.177 290.548 388.229 290.292 388.286C290.041 388.343 289.733 388.376 289.369 388.385C288.725 388.404 288.145 388.307 287.629 388.094C287.113 387.876 286.703 387.54 286.4 387.086C286.102 386.631 285.955 386.063 285.96 385.381V374.713ZM295.638 381.844V388.236H293.067V373.691H295.582V379.181H295.709C295.965 378.565 296.36 378.08 296.895 377.725C297.435 377.365 298.122 377.185 298.955 377.185C299.713 377.185 300.373 377.344 300.937 377.661C301.5 377.978 301.936 378.442 302.243 379.053C302.556 379.664 302.712 380.41 302.712 381.29V388.236H300.141V381.688C300.141 380.954 299.952 380.383 299.573 379.976C299.199 379.564 298.673 379.358 297.996 379.358C297.542 379.358 297.135 379.458 296.775 379.657C296.42 379.851 296.14 380.133 295.937 380.502C295.738 380.871 295.638 381.319 295.638 381.844ZM310.163 388.449C309.069 388.449 308.124 388.222 307.329 387.767C306.538 387.308 305.93 386.66 305.503 385.821C305.077 384.979 304.864 383.987 304.864 382.846C304.864 381.723 305.077 380.739 305.503 379.891C305.934 379.039 306.536 378.376 307.307 377.902C308.079 377.424 308.986 377.185 310.028 377.185C310.7 377.185 311.334 377.294 311.931 377.512C312.532 377.725 313.063 378.056 313.522 378.506C313.986 378.956 314.351 379.529 314.616 380.225C314.881 380.916 315.013 381.74 315.013 382.696V383.485H306.072V381.752H312.549C312.544 381.259 312.438 380.821 312.229 380.438C312.021 380.05 311.73 379.744 311.356 379.522C310.986 379.299 310.556 379.188 310.063 379.188C309.538 379.188 309.076 379.316 308.678 379.571C308.28 379.822 307.97 380.154 307.748 380.566C307.53 380.973 307.419 381.42 307.414 381.908V383.421C307.414 384.055 307.53 384.6 307.762 385.054C307.994 385.504 308.318 385.85 308.735 386.091C309.152 386.328 309.639 386.446 310.198 386.446C310.572 386.446 310.911 386.394 311.214 386.29C311.517 386.181 311.779 386.023 312.002 385.814C312.225 385.606 312.393 385.348 312.506 385.04L314.907 385.31C314.755 385.945 314.467 386.499 314.04 386.972C313.619 387.441 313.079 387.805 312.421 388.066C311.763 388.321 311.01 388.449 310.163 388.449ZM132.865 403.691V418.236H130.294V403.691H132.865ZM140.267 418.449C139.202 418.449 138.279 418.215 137.497 417.746C136.716 417.277 136.11 416.622 135.679 415.779C135.253 414.936 135.04 413.951 135.04 412.824C135.04 411.697 135.253 410.71 135.679 409.863C136.11 409.015 136.716 408.357 137.497 407.888C138.279 407.419 139.202 407.185 140.267 407.185C141.333 407.185 142.256 407.419 143.037 407.888C143.818 408.357 144.422 409.015 144.848 409.863C145.279 410.71 145.495 411.697 145.495 412.824C145.495 413.951 145.279 414.936 144.848 415.779C144.422 416.622 143.818 417.277 143.037 417.746C142.256 418.215 141.333 418.449 140.267 418.449ZM140.281 416.39C140.859 416.39 141.342 416.231 141.73 415.914C142.119 415.592 142.407 415.161 142.597 414.621C142.791 414.081 142.888 413.48 142.888 412.817C142.888 412.15 142.791 411.546 142.597 411.006C142.407 410.462 142.119 410.028 141.73 409.706C141.342 409.384 140.859 409.223 140.281 409.223C139.69 409.223 139.197 409.384 138.804 409.706C138.416 410.028 138.125 410.462 137.931 411.006C137.741 411.546 137.647 412.15 137.647 412.817C137.647 413.48 137.741 414.081 137.931 414.621C138.125 415.161 138.416 415.592 138.804 415.914C139.197 416.231 139.69 416.39 140.281 416.39ZM152.435 418.449C151.346 418.449 150.411 418.21 149.63 417.732C148.853 417.254 148.254 416.593 147.833 415.75C147.416 414.903 147.208 413.927 147.208 412.824C147.208 411.716 147.421 410.739 147.847 409.891C148.273 409.039 148.875 408.376 149.651 407.902C150.432 407.424 151.356 407.185 152.421 407.185C153.306 407.185 154.09 407.348 154.772 407.675C155.458 407.997 156.005 408.454 156.413 409.046C156.82 409.633 157.052 410.32 157.109 411.106H154.651C154.552 410.58 154.315 410.142 153.941 409.792C153.572 409.436 153.077 409.259 152.457 409.259C151.931 409.259 151.469 409.401 151.072 409.685C150.674 409.964 150.364 410.367 150.141 410.892C149.923 411.418 149.815 412.048 149.815 412.782C149.815 413.525 149.923 414.164 150.141 414.699C150.359 415.23 150.664 415.639 151.057 415.928C151.455 416.212 151.922 416.354 152.457 416.354C152.835 416.354 153.174 416.283 153.472 416.141C153.775 415.994 154.029 415.784 154.232 415.509C154.436 415.234 154.575 414.901 154.651 414.508H157.109C157.047 415.279 156.82 415.963 156.427 416.56C156.034 417.152 155.499 417.616 154.822 417.952C154.145 418.284 153.349 418.449 152.435 418.449ZM162.359 418.456C161.668 418.456 161.045 418.333 160.491 418.087C159.942 417.836 159.506 417.467 159.184 416.979C158.867 416.491 158.708 415.89 158.708 415.175C158.708 414.56 158.822 414.051 159.049 413.648C159.277 413.246 159.587 412.924 159.98 412.682C160.373 412.441 160.815 412.258 161.308 412.135C161.805 412.008 162.319 411.915 162.849 411.858C163.488 411.792 164.007 411.733 164.404 411.681C164.802 411.624 165.091 411.539 165.271 411.425C165.456 411.307 165.548 411.124 165.548 410.878V410.836C165.548 410.301 165.389 409.886 165.072 409.593C164.755 409.299 164.298 409.152 163.701 409.152C163.072 409.152 162.572 409.29 162.203 409.564C161.838 409.839 161.592 410.163 161.464 410.537L159.063 410.196C159.253 409.534 159.565 408.98 160.001 408.535C160.437 408.085 160.969 407.749 161.599 407.526C162.229 407.299 162.925 407.185 163.687 407.185C164.213 407.185 164.736 407.247 165.257 407.37C165.777 407.493 166.253 407.696 166.684 407.981C167.115 408.26 167.461 408.641 167.721 409.124C167.986 409.607 168.119 410.211 168.119 410.935V418.236H165.647V416.738H165.562C165.406 417.041 165.186 417.325 164.902 417.59C164.622 417.85 164.269 418.061 163.843 418.222C163.422 418.378 162.927 418.456 162.359 418.456ZM163.027 416.567C163.543 416.567 163.99 416.465 164.369 416.262C164.748 416.053 165.039 415.779 165.242 415.438C165.451 415.097 165.555 414.725 165.555 414.323V413.037C165.474 413.104 165.337 413.165 165.143 413.222C164.954 413.279 164.741 413.329 164.504 413.371C164.267 413.414 164.033 413.452 163.801 413.485C163.569 413.518 163.367 413.546 163.197 413.57C162.813 413.622 162.47 413.707 162.167 413.826C161.864 413.944 161.625 414.11 161.45 414.323C161.275 414.531 161.187 414.801 161.187 415.133C161.187 415.606 161.36 415.963 161.706 416.205C162.051 416.446 162.491 416.567 163.027 416.567ZM176.152 407.327V409.316H169.88V407.327H176.152ZM171.429 404.713H174V414.955C174 415.301 174.052 415.566 174.156 415.75C174.265 415.93 174.407 416.053 174.582 416.12C174.757 416.186 174.951 416.219 175.164 416.219C175.325 416.219 175.472 416.207 175.605 416.184C175.742 416.16 175.846 416.139 175.917 416.12L176.35 418.13C176.213 418.177 176.017 418.229 175.761 418.286C175.51 418.343 175.202 418.376 174.838 418.385C174.194 418.404 173.614 418.307 173.098 418.094C172.581 417.876 172.172 417.54 171.869 417.086C171.571 416.631 171.424 416.063 171.429 415.381V404.713ZM178.302 418.236V407.327H180.873V418.236H178.302ZM179.594 405.779C179.187 405.779 178.837 405.644 178.543 405.374C178.25 405.099 178.103 404.77 178.103 404.387C178.103 403.999 178.25 403.669 178.543 403.4C178.837 403.125 179.187 402.988 179.594 402.988C180.006 402.988 180.357 403.125 180.645 403.4C180.939 403.669 181.086 403.999 181.086 404.387C181.086 404.77 180.939 405.099 180.645 405.374C180.357 405.644 180.006 405.779 179.594 405.779ZM188.275 418.449C187.21 418.449 186.286 418.215 185.505 417.746C184.724 417.277 184.118 416.622 183.687 415.779C183.261 414.936 183.048 413.951 183.048 412.824C183.048 411.697 183.261 410.71 183.687 409.863C184.118 409.015 184.724 408.357 185.505 407.888C186.286 407.419 187.21 407.185 188.275 407.185C189.34 407.185 190.264 407.419 191.045 407.888C191.826 408.357 192.43 409.015 192.856 409.863C193.287 410.71 193.502 411.697 193.502 412.824C193.502 413.951 193.287 414.936 192.856 415.779C192.43 416.622 191.826 417.277 191.045 417.746C190.264 418.215 189.34 418.449 188.275 418.449ZM188.289 416.39C188.867 416.39 189.35 416.231 189.738 415.914C190.126 415.592 190.415 415.161 190.605 414.621C190.799 414.081 190.896 413.48 190.896 412.817C190.896 412.15 190.799 411.546 190.605 411.006C190.415 410.462 190.126 410.028 189.738 409.706C189.35 409.384 188.867 409.223 188.289 409.223C187.697 409.223 187.205 409.384 186.812 409.706C186.424 410.028 186.133 410.462 185.938 411.006C185.749 411.546 185.654 412.15 185.654 412.817C185.654 413.48 185.749 414.081 185.938 414.621C186.133 415.161 186.424 415.592 186.812 415.914C187.205 416.231 187.697 416.39 188.289 416.39ZM198.256 411.844V418.236H195.685V407.327H198.142V409.181H198.27C198.521 408.57 198.921 408.085 199.47 407.725C200.024 407.365 200.708 407.185 201.523 407.185C202.275 407.185 202.931 407.346 203.49 407.668C204.053 407.99 204.489 408.456 204.797 409.067C205.109 409.678 205.263 410.419 205.258 411.29V418.236H202.687V411.688C202.687 410.959 202.498 410.388 202.119 409.976C201.745 409.564 201.227 409.358 200.564 409.358C200.114 409.358 199.714 409.458 199.364 409.657C199.018 409.851 198.746 410.133 198.547 410.502C198.353 410.871 198.256 411.319 198.256 411.844ZM215.972 418.456C215.281 418.456 214.658 418.333 214.104 418.087C213.555 417.836 213.119 417.467 212.797 416.979C212.48 416.491 212.322 415.89 212.322 415.175C212.322 414.56 212.435 414.051 212.663 413.648C212.89 413.246 213.2 412.924 213.593 412.682C213.986 412.441 214.429 412.258 214.921 412.135C215.418 412.008 215.932 411.915 216.462 411.858C217.101 411.792 217.62 411.733 218.018 411.681C218.415 411.624 218.704 411.539 218.884 411.425C219.069 411.307 219.161 411.124 219.161 410.878V410.836C219.161 410.301 219.002 409.886 218.685 409.593C218.368 409.299 217.911 409.152 217.315 409.152C216.685 409.152 216.185 409.29 215.816 409.564C215.451 409.839 215.205 410.163 215.077 410.537L212.677 410.196C212.866 409.534 213.179 408.98 213.614 408.535C214.05 408.085 214.583 407.749 215.212 407.526C215.842 407.299 216.538 407.185 217.3 407.185C217.826 407.185 218.349 407.247 218.87 407.37C219.391 407.493 219.867 407.696 220.297 407.981C220.728 408.26 221.074 408.641 221.334 409.124C221.6 409.607 221.732 410.211 221.732 410.935V418.236H219.261V416.738H219.175C219.019 417.041 218.799 417.325 218.515 417.59C218.235 417.85 217.883 418.061 217.457 418.222C217.035 418.378 216.54 418.456 215.972 418.456ZM216.64 416.567C217.156 416.567 217.603 416.465 217.982 416.262C218.361 416.053 218.652 415.779 218.856 415.438C219.064 415.097 219.168 414.725 219.168 414.323V413.037C219.088 413.104 218.95 413.165 218.756 413.222C218.567 413.279 218.354 413.329 218.117 413.371C217.88 413.414 217.646 413.452 217.414 413.485C217.182 413.518 216.981 413.546 216.81 413.57C216.427 413.622 216.083 413.707 215.78 413.826C215.477 413.944 215.238 414.11 215.063 414.323C214.888 414.531 214.8 414.801 214.8 415.133C214.8 415.606 214.973 415.963 215.319 416.205C215.664 416.446 216.105 416.567 216.64 416.567ZM226.888 411.844V418.236H224.317V407.327H226.775V409.181H226.903C227.154 408.57 227.554 408.085 228.103 407.725C228.657 407.365 229.341 407.185 230.155 407.185C230.908 407.185 231.564 407.346 232.123 407.668C232.686 407.99 233.122 408.456 233.43 409.067C233.742 409.678 233.896 410.419 233.891 411.29V418.236H231.32V411.688C231.32 410.959 231.131 410.388 230.752 409.976C230.378 409.564 229.86 409.358 229.197 409.358C228.747 409.358 228.347 409.458 227.996 409.657C227.651 409.851 227.378 410.133 227.18 410.502C226.985 410.871 226.888 411.319 226.888 411.844ZM240.553 418.428C239.696 418.428 238.929 418.208 238.252 417.767C237.575 417.327 237.04 416.688 236.647 415.85C236.254 415.012 236.057 413.994 236.057 412.796C236.057 411.584 236.256 410.561 236.654 409.728C237.056 408.89 237.599 408.258 238.28 407.831C238.962 407.401 239.722 407.185 240.56 407.185C241.199 407.185 241.725 407.294 242.137 407.512C242.549 407.725 242.876 407.983 243.117 408.286C243.359 408.584 243.546 408.866 243.678 409.131H243.785V403.691H246.363V418.236H243.834V416.517H243.678C243.546 416.783 243.354 417.064 243.103 417.363C242.852 417.656 242.52 417.907 242.109 418.115C241.697 418.324 241.178 418.428 240.553 418.428ZM241.27 416.319C241.815 416.319 242.279 416.172 242.663 415.878C243.046 415.58 243.337 415.166 243.536 414.635C243.735 414.105 243.834 413.487 243.834 412.782C243.834 412.076 243.735 411.463 243.536 410.942C243.342 410.421 243.053 410.017 242.67 409.728C242.291 409.439 241.824 409.294 241.27 409.294C240.698 409.294 240.219 409.444 239.836 409.742C239.452 410.04 239.163 410.452 238.969 410.978C238.775 411.503 238.678 412.105 238.678 412.782C238.678 413.463 238.775 414.072 238.969 414.607C239.168 415.137 239.459 415.556 239.843 415.864C240.231 416.167 240.707 416.319 241.27 416.319ZM259.511 407.327V409.316H253.24V407.327H259.511ZM254.788 404.713H257.359V414.955C257.359 415.301 257.411 415.566 257.515 415.75C257.624 415.93 257.766 416.053 257.941 416.12C258.116 416.186 258.311 416.219 258.524 416.219C258.685 416.219 258.831 416.207 258.964 416.184C259.101 416.16 259.205 416.139 259.277 416.12L259.71 418.13C259.572 418.177 259.376 418.229 259.12 418.286C258.869 418.343 258.562 418.376 258.197 418.385C257.553 418.404 256.973 418.307 256.457 418.094C255.941 417.876 255.531 417.54 255.228 417.086C254.93 416.631 254.783 416.063 254.788 415.381V404.713ZM261.661 418.236V407.327H264.232V418.236H261.661ZM262.954 405.779C262.547 405.779 262.196 405.644 261.903 405.374C261.609 405.099 261.462 404.77 261.462 404.387C261.462 403.999 261.609 403.669 261.903 403.4C262.196 403.125 262.547 402.988 262.954 402.988C263.366 402.988 263.716 403.125 264.005 403.4C264.298 403.669 264.445 403.999 264.445 404.387C264.445 404.77 264.298 405.099 264.005 405.374C263.716 405.644 263.366 405.779 262.954 405.779ZM266.876 418.236V407.327H269.333V409.181H269.461C269.688 408.556 270.065 408.068 270.59 407.718C271.116 407.363 271.743 407.185 272.473 407.185C273.211 407.185 273.834 407.365 274.34 407.725C274.852 408.08 275.212 408.565 275.42 409.181H275.534C275.775 408.575 276.182 408.092 276.755 407.732C277.333 407.367 278.017 407.185 278.808 407.185C279.812 407.185 280.631 407.502 281.265 408.137C281.9 408.771 282.217 409.697 282.217 410.914V418.236H279.639V411.311C279.639 410.634 279.459 410.14 279.099 409.827C278.739 409.51 278.299 409.351 277.778 409.351C277.158 409.351 276.672 409.545 276.322 409.934C275.976 410.317 275.804 410.817 275.804 411.432V418.236H273.282V411.205C273.282 410.642 273.112 410.192 272.771 409.856C272.435 409.519 271.994 409.351 271.45 409.351C271.08 409.351 270.744 409.446 270.441 409.635C270.138 409.82 269.897 410.083 269.717 410.424C269.537 410.76 269.447 411.153 269.447 411.603V418.236H266.876ZM289.655 418.449C288.561 418.449 287.616 418.222 286.821 417.767C286.03 417.308 285.422 416.66 284.996 415.821C284.569 414.979 284.356 413.987 284.356 412.846C284.356 411.723 284.569 410.739 284.996 409.891C285.426 409.039 286.028 408.376 286.8 407.902C287.571 407.424 288.478 407.185 289.52 407.185C290.192 407.185 290.827 407.294 291.423 407.512C292.025 407.725 292.555 408.056 293.014 408.506C293.478 408.956 293.843 409.529 294.108 410.225C294.373 410.916 294.506 411.74 294.506 412.696V413.485H285.564V411.752H292.041C292.036 411.259 291.93 410.821 291.721 410.438C291.513 410.05 291.222 409.744 290.848 409.522C290.479 409.299 290.048 409.188 289.555 409.188C289.03 409.188 288.568 409.316 288.17 409.571C287.773 409.822 287.462 410.154 287.24 410.566C287.022 410.973 286.911 411.42 286.906 411.908V413.421C286.906 414.055 287.022 414.6 287.254 415.054C287.486 415.504 287.81 415.85 288.227 416.091C288.644 416.328 289.132 416.446 289.69 416.446C290.064 416.446 290.403 416.394 290.706 416.29C291.009 416.181 291.272 416.023 291.494 415.814C291.717 415.606 291.885 415.348 291.998 415.04L294.399 415.31C294.248 415.945 293.959 416.499 293.533 416.972C293.111 417.441 292.571 417.805 291.913 418.066C291.255 418.321 290.502 418.449 289.655 418.449Z" fill="black"/>
<path d="M469.92 332.845L478.726 315.234C478.726 325.926 487.456 342.281 487.456 342.281C487.456 342.281 472.856 337.457 469.92 332.845Z" fill="#2796FC"/>
<rect width="302.064" height="86.9166" rx="10" transform="matrix(-1 0 0 1 479.899 248.581)" fill="#2796FC"/>
<path d="M196.147 282.963V268.418H201.331C202.458 268.418 203.394 268.612 204.137 269C204.885 269.388 205.444 269.926 205.813 270.612C206.182 271.294 206.367 272.083 206.367 272.977C206.367 273.868 206.18 274.651 205.806 275.328C205.437 276.001 204.878 276.524 204.13 276.898C203.386 277.272 202.451 277.459 201.324 277.459H197.397V275.57H201.126C201.836 275.57 202.413 275.468 202.858 275.264C203.308 275.061 203.637 274.765 203.846 274.377C204.054 273.988 204.158 273.522 204.158 272.977C204.158 272.428 204.052 271.952 203.839 271.55C203.63 271.147 203.301 270.84 202.851 270.627C202.406 270.409 201.822 270.3 201.097 270.3H198.341V282.963H196.147ZM203.327 276.401L206.921 282.963H204.421L200.898 276.401H203.327ZM208.867 282.963V272.054H210.991V282.963H208.867ZM209.939 270.371C209.57 270.371 209.253 270.248 208.988 270.002C208.727 269.751 208.597 269.452 208.597 269.107C208.597 268.756 208.727 268.458 208.988 268.212C209.253 267.961 209.57 267.835 209.939 267.835C210.309 267.835 210.624 267.961 210.884 268.212C211.149 268.458 211.282 268.756 211.282 269.107C211.282 269.452 211.149 269.751 210.884 270.002C210.624 270.248 210.309 270.371 209.939 270.371ZM217.931 283.176C217.051 283.176 216.265 282.951 215.573 282.502C214.887 282.047 214.347 281.401 213.954 280.563C213.566 279.72 213.372 278.709 213.372 277.53C213.372 276.351 213.568 275.343 213.961 274.504C214.359 273.666 214.903 273.025 215.595 272.58C216.286 272.135 217.07 271.912 217.945 271.912C218.623 271.912 219.167 272.026 219.579 272.253C219.996 272.476 220.318 272.736 220.545 273.034C220.777 273.333 220.957 273.595 221.085 273.823H221.213V268.418H223.336V282.963H221.262V281.266H221.085C220.957 281.498 220.772 281.763 220.531 282.061C220.294 282.36 219.967 282.62 219.551 282.843C219.134 283.065 218.594 283.176 217.931 283.176ZM218.4 281.365C219.011 281.365 219.527 281.204 219.948 280.882C220.374 280.556 220.696 280.103 220.914 279.526C221.137 278.948 221.248 278.276 221.248 277.509C221.248 276.751 221.139 276.088 220.921 275.52C220.704 274.952 220.384 274.509 219.963 274.192C219.541 273.875 219.02 273.716 218.4 273.716C217.761 273.716 217.228 273.882 216.802 274.213C216.376 274.545 216.054 274.997 215.836 275.57C215.623 276.143 215.517 276.789 215.517 277.509C215.517 278.238 215.625 278.894 215.843 279.476C216.061 280.058 216.383 280.52 216.809 280.861C217.24 281.197 217.77 281.365 218.4 281.365ZM231.069 283.183C229.994 283.183 229.068 282.954 228.292 282.495C227.52 282.03 226.923 281.379 226.502 280.541C226.085 279.699 225.877 278.711 225.877 277.58C225.877 276.462 226.085 275.477 226.502 274.625C226.923 273.773 227.51 273.108 228.263 272.629C229.021 272.151 229.906 271.912 230.92 271.912C231.535 271.912 232.132 272.014 232.709 272.218C233.287 272.421 233.805 272.741 234.265 273.176C234.724 273.612 235.086 274.178 235.351 274.874C235.617 275.565 235.749 276.405 235.749 277.395V278.148H227.077V276.557H233.668C233.668 275.998 233.555 275.504 233.327 275.073C233.1 274.637 232.78 274.294 232.368 274.043C231.961 273.792 231.483 273.666 230.934 273.666C230.337 273.666 229.816 273.813 229.371 274.107C228.931 274.396 228.59 274.774 228.349 275.243C228.112 275.707 227.993 276.211 227.993 276.756V277.999C227.993 278.728 228.121 279.348 228.377 279.86C228.637 280.371 229 280.762 229.464 281.031C229.928 281.297 230.47 281.429 231.09 281.429C231.492 281.429 231.859 281.372 232.191 281.259C232.522 281.14 232.809 280.965 233.05 280.733C233.292 280.501 233.476 280.215 233.604 279.874L235.614 280.236C235.453 280.828 235.164 281.346 234.748 281.791C234.336 282.232 233.817 282.575 233.192 282.821C232.572 283.063 231.864 283.183 231.069 283.183ZM238.105 282.963V272.054H240.158V273.787H240.271C240.47 273.2 240.821 272.738 241.323 272.402C241.829 272.061 242.402 271.891 243.041 271.891C243.174 271.891 243.33 271.896 243.51 271.905C243.695 271.914 243.839 271.926 243.943 271.941V273.972C243.858 273.948 243.707 273.922 243.489 273.894C243.271 273.861 243.053 273.844 242.835 273.844C242.334 273.844 241.886 273.95 241.493 274.164C241.105 274.372 240.797 274.663 240.57 275.037C240.343 275.406 240.229 275.828 240.229 276.301V282.963H238.105ZM255.669 283.183C254.613 283.183 253.704 282.944 252.942 282.466C252.184 281.983 251.602 281.318 251.195 280.47C250.788 279.623 250.584 278.652 250.584 277.558C250.584 276.45 250.792 275.473 251.209 274.625C251.626 273.773 252.213 273.108 252.97 272.629C253.728 272.151 254.62 271.912 255.648 271.912C256.477 271.912 257.215 272.066 257.864 272.374C258.512 272.677 259.036 273.103 259.433 273.652C259.836 274.201 260.075 274.843 260.151 275.577H258.084C257.97 275.066 257.71 274.625 257.303 274.256C256.9 273.887 256.36 273.702 255.683 273.702C255.092 273.702 254.573 273.858 254.128 274.171C253.688 274.478 253.344 274.919 253.098 275.492C252.852 276.06 252.729 276.732 252.729 277.509C252.729 278.304 252.85 278.991 253.091 279.568C253.333 280.146 253.673 280.593 254.114 280.911C254.559 281.228 255.082 281.387 255.683 281.387C256.086 281.387 256.45 281.313 256.777 281.166C257.109 281.015 257.386 280.799 257.608 280.52C257.835 280.241 257.994 279.905 258.084 279.512H260.151C260.075 280.217 259.845 280.847 259.462 281.401C259.078 281.955 258.565 282.39 257.921 282.708C257.281 283.025 256.531 283.183 255.669 283.183ZM267.017 283.183C265.994 283.183 265.102 282.949 264.339 282.48C263.577 282.012 262.985 281.356 262.564 280.513C262.142 279.67 261.932 278.685 261.932 277.558C261.932 276.427 262.142 275.437 262.564 274.59C262.985 273.742 263.577 273.084 264.339 272.615C265.102 272.146 265.994 271.912 267.017 271.912C268.04 271.912 268.932 272.146 269.694 272.615C270.457 273.084 271.049 273.742 271.47 274.59C271.891 275.437 272.102 276.427 272.102 277.558C272.102 278.685 271.891 279.67 271.47 280.513C271.049 281.356 270.457 282.012 269.694 282.48C268.932 282.949 268.04 283.183 267.017 283.183ZM267.024 281.401C267.687 281.401 268.236 281.226 268.672 280.875C269.107 280.525 269.429 280.058 269.638 279.476C269.851 278.894 269.957 278.252 269.957 277.551C269.957 276.855 269.851 276.216 269.638 275.634C269.429 275.047 269.107 274.575 268.672 274.22C268.236 273.865 267.687 273.688 267.024 273.688C266.356 273.688 265.802 273.865 265.362 274.22C264.926 274.575 264.602 275.047 264.389 275.634C264.181 276.216 264.077 276.855 264.077 277.551C264.077 278.252 264.181 278.894 264.389 279.476C264.602 280.058 264.926 280.525 265.362 280.875C265.802 281.226 266.356 281.401 267.024 281.401ZM274.472 282.963V272.054H276.511V273.83H276.646C276.873 273.228 277.245 272.76 277.761 272.423C278.277 272.083 278.895 271.912 279.615 271.912C280.344 271.912 280.954 272.083 281.447 272.423C281.944 272.764 282.311 273.233 282.548 273.83H282.661C282.922 273.247 283.336 272.783 283.904 272.438C284.472 272.087 285.15 271.912 285.936 271.912C286.925 271.912 287.732 272.222 288.357 272.843C288.987 273.463 289.302 274.398 289.302 275.648V282.963H287.178V275.847C287.178 275.108 286.977 274.573 286.575 274.242C286.172 273.91 285.692 273.745 285.133 273.745C284.442 273.745 283.904 273.958 283.521 274.384C283.137 274.805 282.945 275.347 282.945 276.01V282.963H280.829V275.712C280.829 275.12 280.644 274.644 280.275 274.284C279.906 273.924 279.425 273.745 278.833 273.745C278.431 273.745 278.059 273.851 277.718 274.064C277.382 274.272 277.11 274.564 276.901 274.938C276.698 275.312 276.596 275.745 276.596 276.237V282.963H274.472ZM292.148 287.054V272.054H294.222V273.823H294.4C294.523 273.595 294.7 273.333 294.932 273.034C295.164 272.736 295.486 272.476 295.898 272.253C296.31 272.026 296.855 271.912 297.532 271.912C298.412 271.912 299.198 272.135 299.89 272.58C300.581 273.025 301.123 273.666 301.516 274.504C301.914 275.343 302.113 276.351 302.113 277.53C302.113 278.709 301.916 279.72 301.523 280.563C301.13 281.401 300.59 282.047 299.904 282.502C299.217 282.951 298.434 283.176 297.553 283.176C296.89 283.176 296.348 283.065 295.927 282.843C295.51 282.62 295.183 282.36 294.947 282.061C294.71 281.763 294.528 281.498 294.4 281.266H294.272V287.054H292.148ZM294.229 277.509C294.229 278.276 294.34 278.948 294.563 279.526C294.786 280.103 295.108 280.556 295.529 280.882C295.95 281.204 296.466 281.365 297.077 281.365C297.712 281.365 298.242 281.197 298.668 280.861C299.094 280.52 299.416 280.058 299.634 279.476C299.857 278.894 299.968 278.238 299.968 277.509C299.968 276.789 299.859 276.143 299.641 275.57C299.428 274.997 299.106 274.545 298.675 274.213C298.249 273.882 297.716 273.716 297.077 273.716C296.462 273.716 295.941 273.875 295.515 274.192C295.093 274.509 294.774 274.952 294.556 275.52C294.338 276.088 294.229 276.751 294.229 277.509ZM306.616 268.418V282.963H304.492V268.418H306.616ZM312.647 283.205C311.956 283.205 311.331 283.077 310.772 282.821C310.213 282.561 309.771 282.184 309.444 281.692C309.122 281.2 308.961 280.596 308.961 279.881C308.961 279.265 309.079 278.759 309.316 278.361C309.553 277.963 309.873 277.648 310.275 277.416C310.677 277.184 311.127 277.009 311.624 276.891C312.122 276.772 312.628 276.682 313.144 276.621C313.798 276.545 314.328 276.484 314.735 276.436C315.142 276.384 315.438 276.301 315.623 276.188C315.808 276.074 315.9 275.889 315.9 275.634V275.584C315.9 274.964 315.725 274.483 315.374 274.142C315.029 273.801 314.513 273.631 313.826 273.631C313.111 273.631 312.548 273.789 312.136 274.107C311.729 274.419 311.447 274.767 311.291 275.151L309.295 274.696C309.532 274.033 309.877 273.498 310.332 273.091C310.791 272.679 311.319 272.381 311.916 272.196C312.512 272.007 313.14 271.912 313.798 271.912C314.233 271.912 314.695 271.964 315.183 272.068C315.675 272.168 316.134 272.352 316.561 272.622C316.991 272.892 317.344 273.278 317.619 273.78C317.893 274.277 318.031 274.923 318.031 275.719V282.963H315.957V281.472H315.872C315.734 281.746 315.528 282.016 315.254 282.281C314.979 282.547 314.626 282.767 314.195 282.942C313.765 283.117 313.249 283.205 312.647 283.205ZM313.109 281.5C313.696 281.5 314.198 281.384 314.615 281.152C315.036 280.92 315.356 280.617 315.573 280.243C315.796 279.864 315.907 279.459 315.907 279.029V277.622C315.831 277.698 315.685 277.769 315.467 277.835C315.254 277.897 315.01 277.951 314.735 277.999C314.461 278.041 314.193 278.082 313.933 278.12C313.672 278.153 313.454 278.181 313.279 278.205C312.867 278.257 312.491 278.344 312.15 278.468C311.814 278.591 311.544 278.768 311.34 279C311.142 279.227 311.042 279.53 311.042 279.909C311.042 280.435 311.236 280.833 311.624 281.102C312.013 281.368 312.508 281.5 313.109 281.5ZM320.859 282.963V272.054H322.983V282.963H320.859ZM321.932 270.371C321.562 270.371 321.245 270.248 320.98 270.002C320.72 269.751 320.589 269.452 320.589 269.107C320.589 268.756 320.72 268.458 320.98 268.212C321.245 267.961 321.562 267.835 321.932 267.835C322.301 267.835 322.616 267.961 322.876 268.212C323.141 268.458 323.274 268.756 323.274 269.107C323.274 269.452 323.141 269.751 322.876 270.002C322.616 270.248 322.301 270.371 321.932 270.371ZM327.963 276.486V282.963H325.84V272.054H327.878V273.83H328.013C328.264 273.252 328.657 272.788 329.192 272.438C329.732 272.087 330.411 271.912 331.23 271.912C331.974 271.912 332.625 272.068 333.183 272.381C333.742 272.689 334.175 273.148 334.483 273.759C334.791 274.37 334.945 275.125 334.945 276.024V282.963H332.821V276.28C332.821 275.489 332.615 274.871 332.203 274.426C331.791 273.977 331.226 273.752 330.506 273.752C330.013 273.752 329.575 273.858 329.192 274.071C328.813 274.284 328.512 274.597 328.29 275.009C328.072 275.416 327.963 275.908 327.963 276.486ZM342.885 272.054V273.759H336.926V272.054H342.885ZM338.524 269.441H340.648V279.76C340.648 280.172 340.709 280.482 340.833 280.691C340.956 280.894 341.114 281.034 341.308 281.11C341.507 281.181 341.723 281.216 341.955 281.216C342.125 281.216 342.274 281.204 342.402 281.181C342.53 281.157 342.629 281.138 342.7 281.124L343.084 282.878C342.961 282.925 342.786 282.973 342.558 283.02C342.331 283.072 342.047 283.101 341.706 283.105C341.147 283.115 340.627 283.015 340.144 282.807C339.661 282.599 339.27 282.277 338.972 281.841C338.673 281.405 338.524 280.859 338.524 280.2V269.441ZM353.702 283.205C353.011 283.205 352.386 283.077 351.827 282.821C351.268 282.561 350.825 282.184 350.499 281.692C350.177 281.2 350.016 280.596 350.016 279.881C350.016 279.265 350.134 278.759 350.371 278.361C350.608 277.963 350.927 277.648 351.33 277.416C351.732 277.184 352.182 277.009 352.679 276.891C353.176 276.772 353.683 276.682 354.199 276.621C354.852 276.545 355.383 276.484 355.79 276.436C356.197 276.384 356.493 276.301 356.678 276.188C356.862 276.074 356.955 275.889 356.955 275.634V275.584C356.955 274.964 356.78 274.483 356.429 274.142C356.084 273.801 355.567 273.631 354.881 273.631C354.166 273.631 353.602 273.789 353.191 274.107C352.783 274.419 352.502 274.767 352.345 275.151L350.35 274.696C350.586 274.033 350.932 273.498 351.387 273.091C351.846 272.679 352.374 272.381 352.97 272.196C353.567 272.007 354.194 271.912 354.852 271.912C355.288 271.912 355.75 271.964 356.237 272.068C356.73 272.168 357.189 272.352 357.615 272.622C358.046 272.892 358.399 273.278 358.673 273.78C358.948 274.277 359.085 274.923 359.085 275.719V282.963H357.012V281.472H356.926C356.789 281.746 356.583 282.016 356.308 282.281C356.034 282.547 355.681 282.767 355.25 282.942C354.819 283.117 354.303 283.205 353.702 283.205ZM354.164 281.5C354.751 281.5 355.253 281.384 355.669 281.152C356.091 280.92 356.41 280.617 356.628 280.243C356.851 279.864 356.962 279.459 356.962 279.029V277.622C356.886 277.698 356.739 277.769 356.521 277.835C356.308 277.897 356.065 277.951 355.79 277.999C355.515 278.041 355.248 278.082 354.987 278.12C354.727 278.153 354.509 278.181 354.334 278.205C353.922 278.257 353.546 278.344 353.205 278.468C352.869 278.591 352.599 278.768 352.395 279C352.196 279.227 352.097 279.53 352.097 279.909C352.097 280.435 352.291 280.833 352.679 281.102C353.067 281.368 353.562 281.5 354.164 281.5ZM362.084 282.963V268.418H364.208V273.823H364.336C364.459 273.595 364.636 273.333 364.868 273.034C365.1 272.736 365.422 272.476 365.834 272.253C366.246 272.026 366.791 271.912 367.468 271.912C368.349 271.912 369.135 272.135 369.826 272.58C370.517 273.025 371.059 273.666 371.452 274.504C371.85 275.343 372.049 276.351 372.049 277.53C372.049 278.709 371.852 279.72 371.459 280.563C371.066 281.401 370.527 282.047 369.84 282.502C369.153 282.951 368.37 283.176 367.489 283.176C366.826 283.176 366.284 283.065 365.863 282.843C365.446 282.62 365.119 282.36 364.883 282.061C364.646 281.763 364.464 281.498 364.336 281.266H364.158V282.963H362.084ZM364.165 277.509C364.165 278.276 364.277 278.948 364.499 279.526C364.722 280.103 365.044 280.556 365.465 280.882C365.886 281.204 366.403 281.365 367.013 281.365C367.648 281.365 368.178 281.197 368.604 280.861C369.03 280.52 369.352 280.058 369.57 279.476C369.793 278.894 369.904 278.238 369.904 277.509C369.904 276.789 369.795 276.143 369.577 275.57C369.364 274.997 369.042 274.545 368.611 274.213C368.185 273.882 367.653 273.716 367.013 273.716C366.398 273.716 365.877 273.875 365.451 274.192C365.029 274.509 364.71 274.952 364.492 275.52C364.274 276.088 364.165 276.751 364.165 277.509ZM379.029 283.183C378.006 283.183 377.113 282.949 376.351 282.48C375.589 282.012 374.997 281.356 374.575 280.513C374.154 279.67 373.943 278.685 373.943 277.558C373.943 276.427 374.154 275.437 374.575 274.59C374.997 273.742 375.589 273.084 376.351 272.615C377.113 272.146 378.006 271.912 379.029 271.912C380.051 271.912 380.944 272.146 381.706 272.615C382.468 273.084 383.06 273.742 383.482 274.59C383.903 275.437 384.114 276.427 384.114 277.558C384.114 278.685 383.903 279.67 383.482 280.513C383.06 281.356 382.468 282.012 381.706 282.48C380.944 282.949 380.051 283.183 379.029 283.183ZM379.036 281.401C379.699 281.401 380.248 281.226 380.683 280.875C381.119 280.525 381.441 280.058 381.649 279.476C381.862 278.894 381.969 278.252 381.969 277.551C381.969 276.855 381.862 276.216 381.649 275.634C381.441 275.047 381.119 274.575 380.683 274.22C380.248 273.865 379.699 273.688 379.036 273.688C378.368 273.688 377.814 273.865 377.374 274.22C376.938 274.575 376.614 275.047 376.401 275.634C376.192 276.216 376.088 276.855 376.088 277.551C376.088 278.252 376.192 278.894 376.401 279.476C376.614 280.058 376.938 280.525 377.374 280.875C377.814 281.226 378.368 281.401 379.036 281.401ZM393.395 278.439V272.054H395.525V282.963H393.437V281.074H393.324C393.073 281.656 392.67 282.142 392.116 282.53C391.567 282.914 390.883 283.105 390.064 283.105C389.363 283.105 388.743 282.951 388.203 282.644C387.668 282.331 387.247 281.87 386.939 281.259C386.636 280.648 386.484 279.893 386.484 278.993V272.054H388.608V278.737C388.608 279.481 388.814 280.073 389.226 280.513C389.638 280.953 390.173 281.173 390.831 281.173C391.229 281.173 391.624 281.074 392.017 280.875C392.415 280.676 392.744 280.376 393.004 279.973C393.269 279.571 393.399 279.059 393.395 278.439ZM403.471 272.054V273.759H397.512V272.054H403.471ZM399.11 269.441H401.234V279.76C401.234 280.172 401.295 280.482 401.419 280.691C401.542 280.894 401.7 281.034 401.894 281.11C402.093 281.181 402.309 281.216 402.541 281.216C402.711 281.216 402.86 281.204 402.988 281.181C403.116 281.157 403.215 281.138 403.286 281.124L403.67 282.878C403.547 282.925 403.372 282.973 403.144 283.02C402.917 283.072 402.633 283.101 402.292 283.105C401.733 283.115 401.213 283.015 400.73 282.807C400.247 282.599 399.856 282.277 399.558 281.841C399.259 281.405 399.11 280.859 399.11 280.2V269.441ZM411.284 282.963V268.418H413.407V273.823H413.535C413.658 273.595 413.836 273.333 414.068 273.034C414.3 272.736 414.622 272.476 415.034 272.253C415.445 272.026 415.99 271.912 416.667 271.912C417.548 271.912 418.334 272.135 419.025 272.58C419.716 273.025 420.258 273.666 420.651 274.504C421.049 275.343 421.248 276.351 421.248 277.53C421.248 278.709 421.052 279.72 420.659 280.563C420.266 281.401 419.726 282.047 419.039 282.502C418.353 282.951 417.569 283.176 416.688 283.176C416.026 283.176 415.483 283.065 415.062 282.843C414.645 282.62 414.319 282.36 414.082 282.061C413.845 281.763 413.663 281.498 413.535 281.266H413.357V282.963H411.284ZM413.365 277.509C413.365 278.276 413.476 278.948 413.698 279.526C413.921 280.103 414.243 280.556 414.664 280.882C415.086 281.204 415.602 281.365 416.213 281.365C416.847 281.365 417.377 281.197 417.803 280.861C418.23 280.52 418.552 280.058 418.769 279.476C418.992 278.894 419.103 278.238 419.103 277.509C419.103 276.789 418.994 276.143 418.776 275.57C418.563 274.997 418.241 274.545 417.811 274.213C417.384 273.882 416.852 273.716 416.213 273.716C415.597 273.716 415.076 273.875 414.65 274.192C414.229 274.509 413.909 274.952 413.691 275.52C413.473 276.088 413.365 276.751 413.365 277.509ZM430.543 278.439V272.054H432.674V282.963H430.586V281.074H430.472C430.221 281.656 429.819 282.142 429.265 282.53C428.715 282.914 428.031 283.105 427.212 283.105C426.511 283.105 425.891 282.951 425.351 282.644C424.816 282.331 424.395 281.87 424.087 281.259C423.784 280.648 423.633 279.893 423.633 278.993V272.054H425.756V278.737C425.756 279.481 425.962 280.073 426.374 280.513C426.786 280.953 427.321 281.173 427.979 281.173C428.377 281.173 428.772 281.074 429.165 280.875C429.563 280.676 429.892 280.376 430.153 279.973C430.418 279.571 430.548 279.059 430.543 278.439ZM443.702 274.718L441.777 275.058C441.697 274.812 441.569 274.578 441.394 274.355C441.223 274.133 440.991 273.95 440.698 273.808C440.404 273.666 440.037 273.595 439.597 273.595C438.995 273.595 438.494 273.73 438.091 274C437.689 274.265 437.487 274.609 437.487 275.03C437.487 275.395 437.622 275.688 437.892 275.911C438.162 276.133 438.598 276.316 439.199 276.458L440.932 276.855C441.936 277.087 442.684 277.445 443.176 277.928C443.669 278.411 443.915 279.038 443.915 279.81C443.915 280.463 443.726 281.046 443.347 281.557C442.973 282.064 442.45 282.461 441.777 282.75C441.11 283.039 440.335 283.183 439.455 283.183C438.233 283.183 437.236 282.923 436.465 282.402C435.693 281.877 435.219 281.131 435.044 280.165L437.097 279.852C437.225 280.387 437.487 280.792 437.885 281.067C438.283 281.337 438.801 281.472 439.441 281.472C440.137 281.472 440.693 281.327 441.11 281.039C441.526 280.745 441.735 280.387 441.735 279.966C441.735 279.625 441.607 279.339 441.351 279.107C441.1 278.875 440.714 278.7 440.193 278.581L438.347 278.176C437.329 277.944 436.576 277.575 436.088 277.068C435.605 276.562 435.364 275.92 435.364 275.144C435.364 274.5 435.544 273.936 435.904 273.453C436.263 272.97 436.761 272.594 437.395 272.324C438.03 272.049 438.756 271.912 439.575 271.912C440.754 271.912 441.682 272.168 442.36 272.679C443.037 273.186 443.484 273.865 443.702 274.718ZM196.147 312.963V298.418H198.27V303.823H198.398C198.521 303.595 198.699 303.333 198.931 303.034C199.163 302.736 199.485 302.476 199.897 302.253C200.309 302.026 200.853 301.912 201.53 301.912C202.411 301.912 203.197 302.135 203.888 302.58C204.58 303.025 205.122 303.666 205.515 304.504C205.912 305.343 206.111 306.351 206.111 307.53C206.111 308.709 205.915 309.72 205.522 310.563C205.129 311.401 204.589 312.047 203.903 312.502C203.216 312.951 202.432 313.176 201.552 313.176C200.889 313.176 200.347 313.065 199.925 312.843C199.509 312.62 199.182 312.36 198.945 312.061C198.708 311.763 198.526 311.498 198.398 311.266H198.221V312.963H196.147ZM198.228 307.509C198.228 308.276 198.339 308.948 198.562 309.526C198.784 310.103 199.106 310.556 199.528 310.882C199.949 311.204 200.465 311.365 201.076 311.365C201.71 311.365 202.241 311.197 202.667 310.861C203.093 310.52 203.415 310.058 203.633 309.476C203.855 308.894 203.966 308.238 203.966 307.509C203.966 306.789 203.858 306.143 203.64 305.57C203.427 304.997 203.105 304.545 202.674 304.213C202.248 303.882 201.715 303.716 201.076 303.716C200.46 303.716 199.939 303.875 199.513 304.192C199.092 304.509 198.772 304.952 198.555 305.52C198.337 306.088 198.228 306.751 198.228 307.509ZM213.198 313.183C212.123 313.183 211.197 312.954 210.421 312.495C209.649 312.03 209.052 311.379 208.631 310.541C208.214 309.699 208.006 308.711 208.006 307.58C208.006 306.462 208.214 305.477 208.631 304.625C209.052 303.773 209.639 303.108 210.392 302.629C211.15 302.151 212.035 301.912 213.048 301.912C213.664 301.912 214.261 302.014 214.838 302.218C215.416 302.421 215.934 302.741 216.394 303.176C216.853 303.612 217.215 304.178 217.48 304.874C217.745 305.565 217.878 306.405 217.878 307.395V308.148H209.206V306.557H215.797C215.797 305.998 215.683 305.504 215.456 305.073C215.229 304.637 214.909 304.294 214.497 304.043C214.09 303.792 213.612 303.666 213.063 303.666C212.466 303.666 211.945 303.813 211.5 304.107C211.06 304.396 210.719 304.774 210.477 305.243C210.241 305.707 210.122 306.211 210.122 306.756V307.999C210.122 308.728 210.25 309.348 210.506 309.86C210.766 310.371 211.128 310.762 211.593 311.031C212.057 311.297 212.599 311.429 213.219 311.429C213.621 311.429 213.988 311.372 214.32 311.259C214.651 311.14 214.938 310.965 215.179 310.733C215.421 310.501 215.605 310.215 215.733 309.874L217.743 310.236C217.582 310.828 217.293 311.346 216.877 311.791C216.465 312.232 215.946 312.575 215.321 312.821C214.701 313.063 213.993 313.183 213.198 313.183ZM220.234 312.963V302.054H222.358V312.963H220.234ZM221.307 300.371C220.937 300.371 220.62 300.248 220.355 300.002C220.095 299.751 219.964 299.452 219.964 299.107C219.964 298.756 220.095 298.458 220.355 298.212C220.62 297.961 220.937 297.835 221.307 297.835C221.676 297.835 221.991 297.961 222.251 298.212C222.516 298.458 222.649 298.756 222.649 299.107C222.649 299.452 222.516 299.751 222.251 300.002C221.991 300.248 221.676 300.371 221.307 300.371ZM227.338 306.486V312.963H225.215V302.054H227.253V303.83H227.388C227.639 303.252 228.032 302.788 228.567 302.438C229.107 302.087 229.786 301.912 230.605 301.912C231.349 301.912 232 302.068 232.558 302.381C233.117 302.689 233.55 303.148 233.858 303.759C234.166 304.37 234.32 305.125 234.32 306.024V312.963H232.196V306.28C232.196 305.489 231.99 304.871 231.578 304.426C231.166 303.977 230.601 303.752 229.881 303.752C229.388 303.752 228.95 303.858 228.567 304.071C228.188 304.284 227.887 304.597 227.665 305.009C227.447 305.416 227.338 305.908 227.338 306.486ZM241.742 317.281C240.875 317.281 240.129 317.168 239.504 316.941C238.884 316.713 238.378 316.413 237.985 316.039C237.592 315.664 237.298 315.255 237.104 314.81L238.929 314.057C239.057 314.265 239.227 314.486 239.441 314.718C239.658 314.954 239.952 315.155 240.321 315.321C240.695 315.487 241.176 315.57 241.763 315.57C242.568 315.57 243.233 315.373 243.759 314.98C244.284 314.592 244.547 313.972 244.547 313.12V310.975H244.412C244.284 311.207 244.1 311.465 243.858 311.749C243.621 312.033 243.295 312.279 242.878 312.487C242.461 312.696 241.919 312.8 241.252 312.8C240.39 312.8 239.613 312.599 238.922 312.196C238.235 311.789 237.691 311.19 237.289 310.399C236.891 309.604 236.692 308.626 236.692 307.466C236.692 306.306 236.888 305.312 237.281 304.483C237.679 303.655 238.224 303.02 238.915 302.58C239.606 302.135 240.39 301.912 241.266 301.912C241.943 301.912 242.49 302.026 242.906 302.253C243.323 302.476 243.647 302.736 243.879 303.034C244.116 303.333 244.298 303.595 244.426 303.823H244.583V302.054H246.664V313.205C246.664 314.142 246.446 314.912 246.01 315.513C245.575 316.114 244.985 316.559 244.242 316.848C243.503 317.137 242.67 317.281 241.742 317.281ZM241.72 311.039C242.331 311.039 242.847 310.896 243.269 310.612C243.695 310.324 244.017 309.912 244.235 309.377C244.457 308.837 244.568 308.191 244.568 307.438C244.568 306.704 244.459 306.057 244.242 305.499C244.024 304.94 243.704 304.504 243.283 304.192C242.861 303.875 242.341 303.716 241.72 303.716C241.081 303.716 240.548 303.882 240.122 304.213C239.696 304.54 239.374 304.985 239.156 305.548C238.943 306.112 238.837 306.742 238.837 307.438C238.837 308.153 238.946 308.78 239.164 309.32C239.381 309.86 239.703 310.281 240.129 310.584C240.56 310.887 241.091 311.039 241.72 311.039ZM256.928 298.418V312.963H254.805V298.418H256.928ZM262.96 313.205C262.268 313.205 261.643 313.077 261.085 312.821C260.526 312.561 260.083 312.184 259.757 311.692C259.435 311.2 259.274 310.596 259.274 309.881C259.274 309.265 259.392 308.759 259.629 308.361C259.865 307.963 260.185 307.648 260.588 307.416C260.99 307.184 261.44 307.009 261.937 306.891C262.434 306.772 262.941 306.682 263.457 306.621C264.11 306.545 264.641 306.484 265.048 306.436C265.455 306.384 265.751 306.301 265.936 306.188C266.12 306.074 266.213 305.889 266.213 305.634V305.584C266.213 304.964 266.037 304.483 265.687 304.142C265.341 303.801 264.825 303.631 264.139 303.631C263.424 303.631 262.86 303.789 262.448 304.107C262.041 304.419 261.759 304.767 261.603 305.151L259.607 304.696C259.844 304.033 260.19 303.498 260.644 303.091C261.104 302.679 261.632 302.381 262.228 302.196C262.825 302.007 263.452 301.912 264.11 301.912C264.546 301.912 265.008 301.964 265.495 302.068C265.988 302.168 266.447 302.352 266.873 302.622C267.304 302.892 267.657 303.278 267.931 303.78C268.206 304.277 268.343 304.923 268.343 305.719V312.963H266.269V311.472H266.184C266.047 311.746 265.841 312.016 265.566 312.281C265.292 312.547 264.939 312.767 264.508 312.942C264.077 313.117 263.561 313.205 262.96 313.205ZM263.421 311.5C264.008 311.5 264.51 311.384 264.927 311.152C265.348 310.92 265.668 310.617 265.886 310.243C266.108 309.864 266.22 309.459 266.22 309.029V307.622C266.144 307.698 265.997 307.769 265.779 307.835C265.566 307.897 265.322 307.951 265.048 307.999C264.773 308.041 264.506 308.082 264.245 308.12C263.985 308.153 263.767 308.181 263.592 308.205C263.18 308.257 262.803 308.344 262.463 308.468C262.126 308.591 261.856 308.768 261.653 309C261.454 309.227 261.355 309.53 261.355 309.909C261.355 310.435 261.549 310.833 261.937 311.102C262.325 311.368 262.82 311.5 263.421 311.5ZM276.264 302.054V303.759H270.305V302.054H276.264ZM271.903 299.441H274.027V309.76C274.027 310.172 274.088 310.482 274.211 310.691C274.335 310.894 274.493 311.034 274.687 311.11C274.886 311.181 275.102 311.216 275.334 311.216C275.504 311.216 275.653 311.204 275.781 311.181C275.909 311.157 276.008 311.138 276.079 311.124L276.463 312.878C276.34 312.925 276.165 312.973 275.937 313.02C275.71 313.072 275.426 313.101 275.085 313.105C274.526 313.115 274.006 313.015 273.523 312.807C273.04 312.599 272.649 312.277 272.351 311.841C272.052 311.405 271.903 310.859 271.903 310.2V299.441ZM283.198 313.183C282.123 313.183 281.197 312.954 280.421 312.495C279.649 312.03 279.052 311.379 278.631 310.541C278.214 309.699 278.006 308.711 278.006 307.58C278.006 306.462 278.214 305.477 278.631 304.625C279.052 303.773 279.639 303.108 280.392 302.629C281.15 302.151 282.035 301.912 283.048 301.912C283.664 301.912 284.261 302.014 284.838 302.218C285.416 302.421 285.934 302.741 286.394 303.176C286.853 303.612 287.215 304.178 287.48 304.874C287.745 305.565 287.878 306.405 287.878 307.395V308.148H279.206V306.557H285.797C285.797 305.998 285.683 305.504 285.456 305.073C285.229 304.637 284.909 304.294 284.497 304.043C284.09 303.792 283.612 303.666 283.063 303.666C282.466 303.666 281.945 303.813 281.5 304.107C281.06 304.396 280.719 304.774 280.477 305.243C280.241 305.707 280.122 306.211 280.122 306.756V307.999C280.122 308.728 280.25 309.348 280.506 309.86C280.766 310.371 281.128 310.762 281.593 311.031C282.057 311.297 282.599 311.429 283.219 311.429C283.621 311.429 283.988 311.372 284.32 311.259C284.651 311.14 284.938 310.965 285.179 310.733C285.421 310.501 285.605 310.215 285.733 309.874L287.743 310.236C287.582 310.828 287.293 311.346 286.877 311.791C286.465 312.232 285.946 312.575 285.321 312.821C284.701 313.063 283.993 313.183 283.198 313.183ZM300.122 313.183C299.1 313.183 298.207 312.949 297.445 312.48C296.682 312.012 296.091 311.356 295.669 310.513C295.248 309.67 295.037 308.685 295.037 307.558C295.037 306.427 295.248 305.437 295.669 304.59C296.091 303.742 296.682 303.084 297.445 302.615C298.207 302.146 299.1 301.912 300.122 301.912C301.145 301.912 302.038 302.146 302.8 302.615C303.562 303.084 304.154 303.742 304.575 304.59C304.997 305.437 305.208 306.427 305.208 307.558C305.208 308.685 304.997 309.67 304.575 310.513C304.154 311.356 303.562 312.012 302.8 312.48C302.038 312.949 301.145 313.183 300.122 313.183ZM300.129 311.401C300.792 311.401 301.342 311.226 301.777 310.875C302.213 310.525 302.535 310.058 302.743 309.476C302.956 308.894 303.063 308.252 303.063 307.551C303.063 306.855 302.956 306.216 302.743 305.634C302.535 305.047 302.213 304.575 301.777 304.22C301.342 303.865 300.792 303.688 300.129 303.688C299.462 303.688 298.908 303.865 298.468 304.22C298.032 304.575 297.708 305.047 297.494 305.634C297.286 306.216 297.182 306.855 297.182 307.551C297.182 308.252 297.286 308.894 297.494 309.476C297.708 310.058 298.032 310.525 298.468 310.875C298.908 311.226 299.462 311.401 300.129 311.401ZM309.702 306.486V312.963H307.578V302.054H309.616V303.83H309.751C310.002 303.252 310.395 302.788 310.93 302.438C311.47 302.087 312.149 301.912 312.969 301.912C313.712 301.912 314.363 302.068 314.922 302.381C315.48 302.689 315.914 303.148 316.221 303.759C316.529 304.37 316.683 305.125 316.683 306.024V312.963H314.559V306.28C314.559 305.489 314.354 304.871 313.942 304.426C313.53 303.977 312.964 303.752 312.244 303.752C311.752 303.752 311.314 303.858 310.93 304.071C310.551 304.284 310.251 304.597 310.028 305.009C309.81 305.416 309.702 305.908 309.702 306.486ZM324.824 312.963V302.054H326.877V303.787H326.99C327.189 303.2 327.539 302.738 328.041 302.402C328.548 302.061 329.121 301.891 329.76 301.891C329.893 301.891 330.049 301.896 330.229 301.905C330.414 301.914 330.558 301.926 330.662 301.941V303.972C330.577 303.948 330.425 303.922 330.208 303.894C329.99 303.861 329.772 303.844 329.554 303.844C329.052 303.844 328.605 303.95 328.212 304.164C327.824 304.372 327.516 304.663 327.289 305.037C327.061 305.406 326.948 305.828 326.948 306.301V312.963H324.824ZM336.704 313.183C335.682 313.183 334.789 312.949 334.027 312.48C333.265 312.012 332.673 311.356 332.251 310.513C331.83 309.67 331.619 308.685 331.619 307.558C331.619 306.427 331.83 305.437 332.251 304.59C332.673 303.742 333.265 303.084 334.027 302.615C334.789 302.146 335.682 301.912 336.704 301.912C337.727 301.912 338.62 302.146 339.382 302.615C340.144 303.084 340.736 303.742 341.157 304.59C341.579 305.437 341.79 306.427 341.79 307.558C341.79 308.685 341.579 309.67 341.157 310.513C340.736 311.356 340.144 312.012 339.382 312.48C338.62 312.949 337.727 313.183 336.704 313.183ZM336.711 311.401C337.374 311.401 337.924 311.226 338.359 310.875C338.795 310.525 339.117 310.058 339.325 309.476C339.538 308.894 339.645 308.252 339.645 307.551C339.645 306.855 339.538 306.216 339.325 305.634C339.117 305.047 338.795 304.575 338.359 304.22C337.924 303.865 337.374 303.688 336.711 303.688C336.044 303.688 335.49 303.865 335.05 304.22C334.614 304.575 334.29 305.047 334.077 305.634C333.868 306.216 333.764 306.855 333.764 307.551C333.764 308.252 333.868 308.894 334.077 309.476C334.29 310.058 334.614 310.525 335.05 310.875C335.49 311.226 336.044 311.401 336.711 311.401ZM351.07 308.439V302.054H353.201V312.963H351.113V311.074H350.999C350.749 311.656 350.346 312.142 349.792 312.53C349.243 312.914 348.559 313.105 347.74 313.105C347.039 313.105 346.419 312.951 345.879 312.644C345.344 312.331 344.922 311.87 344.615 311.259C344.311 310.648 344.16 309.893 344.16 308.993V302.054H346.284V308.737C346.284 309.481 346.49 310.073 346.901 310.513C347.313 310.953 347.848 311.173 348.507 311.173C348.904 311.173 349.3 311.074 349.693 310.875C350.09 310.676 350.419 310.376 350.68 309.973C350.945 309.571 351.075 309.059 351.07 308.439ZM361.147 302.054V303.759H355.188V302.054H361.147ZM356.786 299.441H358.91V309.76C358.91 310.172 358.971 310.482 359.094 310.691C359.217 310.894 359.376 311.034 359.57 311.11C359.769 311.181 359.984 311.216 360.216 311.216C360.387 311.216 360.536 311.204 360.664 311.181C360.792 311.157 360.891 311.138 360.962 311.124L361.346 312.878C361.223 312.925 361.047 312.973 360.82 313.02C360.593 313.072 360.309 313.101 359.968 313.105C359.409 313.115 358.888 313.015 358.405 312.807C357.922 312.599 357.532 312.277 357.233 311.841C356.935 311.405 356.786 310.859 356.786 310.2V299.441ZM368.08 313.183C367.006 313.183 366.08 312.954 365.303 312.495C364.532 312.03 363.935 311.379 363.514 310.541C363.097 309.699 362.889 308.711 362.889 307.58C362.889 306.462 363.097 305.477 363.514 304.625C363.935 303.773 364.522 303.108 365.275 302.629C366.033 302.151 366.918 301.912 367.931 301.912C368.547 301.912 369.143 302.014 369.721 302.218C370.299 302.421 370.817 302.741 371.276 303.176C371.736 303.612 372.098 304.178 372.363 304.874C372.628 305.565 372.761 306.405 372.761 307.395V308.148H364.089V306.557H370.68C370.68 305.998 370.566 305.504 370.339 305.073C370.112 304.637 369.792 304.294 369.38 304.043C368.973 303.792 368.495 303.666 367.945 303.666C367.349 303.666 366.828 303.813 366.383 304.107C365.943 304.396 365.602 304.774 365.36 305.243C365.124 305.707 365.005 306.211 365.005 306.756V307.999C365.005 308.728 365.133 309.348 365.389 309.86C365.649 310.371 366.011 310.762 366.475 311.031C366.939 311.297 367.481 311.429 368.102 311.429C368.504 311.429 368.871 311.372 369.203 311.259C369.534 311.14 369.82 310.965 370.062 310.733C370.303 310.501 370.488 310.215 370.616 309.874L372.626 310.236C372.465 310.828 372.176 311.346 371.759 311.791C371.347 312.232 370.829 312.575 370.204 312.821C369.584 313.063 368.876 313.183 368.08 313.183ZM385.445 313.162C384.47 313.162 383.599 312.994 382.832 312.658C382.07 312.322 381.466 311.855 381.021 311.259C380.58 310.657 380.344 309.961 380.311 309.171H382.541C382.569 309.602 382.713 309.976 382.974 310.293C383.239 310.605 383.585 310.847 384.011 311.017C384.437 311.188 384.91 311.273 385.431 311.273C386.004 311.273 386.511 311.173 386.951 310.975C387.396 310.776 387.744 310.499 387.995 310.144C388.246 309.784 388.372 309.37 388.372 308.901C388.372 308.413 388.246 307.985 387.995 307.615C387.749 307.241 387.387 306.948 386.909 306.735C386.435 306.521 385.862 306.415 385.19 306.415H383.961V304.625H385.19C385.73 304.625 386.203 304.528 386.61 304.334C387.022 304.14 387.344 303.87 387.576 303.524C387.808 303.174 387.924 302.764 387.924 302.296C387.924 301.846 387.822 301.455 387.619 301.124C387.42 300.788 387.136 300.525 386.767 300.335C386.402 300.146 385.971 300.051 385.474 300.051C385 300.051 384.558 300.139 384.146 300.314C383.739 300.485 383.407 300.731 383.151 301.053C382.896 301.37 382.758 301.751 382.74 302.196H380.616C380.64 301.41 380.872 300.719 381.312 300.122C381.757 299.526 382.344 299.059 383.073 298.723C383.802 298.387 384.612 298.219 385.502 298.219C386.435 298.219 387.24 298.401 387.917 298.766C388.599 299.126 389.124 299.606 389.494 300.208C389.868 300.809 390.052 301.467 390.048 302.182C390.052 302.996 389.825 303.688 389.366 304.256C388.911 304.824 388.305 305.205 387.548 305.399V305.513C388.514 305.66 389.262 306.043 389.792 306.664C390.327 307.284 390.592 308.053 390.588 308.972C390.592 309.772 390.37 310.489 389.92 311.124C389.475 311.758 388.866 312.258 388.095 312.622C387.323 312.982 386.44 313.162 385.445 313.162ZM398.336 313.205C397.214 313.2 396.255 312.904 395.46 312.317C394.664 311.73 394.056 310.875 393.634 309.753C393.213 308.631 393.002 307.279 393.002 305.698C393.002 304.121 393.213 302.774 393.634 301.656C394.061 300.539 394.671 299.687 395.467 299.1C396.267 298.512 397.223 298.219 398.336 298.219C399.449 298.219 400.403 298.515 401.198 299.107C401.994 299.694 402.602 300.546 403.024 301.664C403.45 302.776 403.663 304.121 403.663 305.698C403.663 307.284 403.452 308.638 403.031 309.76C402.609 310.878 402.001 311.732 401.205 312.324C400.41 312.911 399.454 313.205 398.336 313.205ZM398.336 311.308C399.321 311.308 400.09 310.828 400.644 309.867C401.203 308.905 401.482 307.516 401.482 305.698C401.482 304.49 401.355 303.47 401.099 302.637C400.848 301.798 400.486 301.164 400.012 300.733C399.544 300.298 398.985 300.08 398.336 300.08C397.356 300.08 396.587 300.563 396.028 301.529C395.469 302.495 395.187 303.884 395.183 305.698C395.183 306.91 395.308 307.935 395.559 308.773C395.815 309.606 396.177 310.238 396.646 310.669C397.115 311.095 397.678 311.308 398.336 311.308Z" fill="white"/>
<path d="M490.58 147.266H495.58V142.266V62.5231C495.58 54.2388 488.864 47.5231 480.58 47.5231H112.847C104.562 47.5231 97.8467 54.2388 97.8467 62.5231V142.266V147.266H102.847H490.58Z" fill="#65D2FF" stroke="#65D2FF" stroke-width="10"/>
<circle cx="296.713" cy="86.1124" r="29.8217" fill="white" stroke="#D9D9D9" stroke-width="12"/>
<path d="M290.427 100.498L281.621 82.8867C281.621 93.5793 272.892 109.934 272.892 109.934C272.892 109.934 287.492 105.111 290.427 100.498Z" fill="white"/>
<path d="M277.085 59.503C275.416 65.0068 276.812 70.6493 277.777 72.8839C281.11 70.6452 287.478 65.9738 286.284 65.1977C284.951 64.3317 280.111 61.5631 278.026 59.3332C277.744 59.0325 277.204 59.109 277.085 59.503Z" fill="white" stroke="white"/>
<path d="M315.55 58.0851C317.218 63.5889 315.822 69.2314 314.858 71.466C311.525 69.2273 305.157 64.5559 306.351 63.7798C307.683 62.9138 312.523 60.1452 314.609 57.9153C314.89 57.6146 315.43 57.691 315.55 58.0851Z" fill="white" stroke="white"/>
<path d="M291.438 91.0973H281.659" stroke="#D9D9D9" stroke-linecap="round"/>
<path d="M301.556 91.0973H311.334" stroke="#D9D9D9" stroke-linecap="round"/>
<path d="M291.438 93.5563L282.314 96.0607" stroke="#D9D9D9" stroke-linecap="round"/>
<path d="M301.555 93.5563L310.679 96.0607" stroke="#D9D9D9" stroke-linecap="round"/>
<path d="M291.438 88.6385L282.425 86.1124" stroke="#D9D9D9" stroke-linecap="round"/>
<path d="M301.555 88.6385L310.568 86.1124" stroke="#D9D9D9" stroke-linecap="round"/>
<path d="M289.378 133.823H287.616C287.512 133.316 287.33 132.871 287.069 132.488C286.814 132.104 286.501 131.782 286.132 131.522C285.767 131.257 285.362 131.058 284.917 130.925C284.472 130.793 284.008 130.726 283.525 130.726C282.645 130.726 281.847 130.949 281.132 131.394C280.422 131.839 279.856 132.495 279.434 133.361C279.018 134.228 278.809 135.291 278.809 136.55C278.809 137.81 279.018 138.873 279.434 139.739C279.856 140.606 280.422 141.261 281.132 141.707C281.847 142.152 282.645 142.374 283.525 142.374C284.008 142.374 284.472 142.308 284.917 142.175C285.362 142.043 285.767 141.846 286.132 141.586C286.501 141.321 286.814 140.996 287.069 140.613C287.33 140.225 287.512 139.779 287.616 139.278H289.378C289.245 140.021 289.003 140.686 288.653 141.273C288.303 141.86 287.867 142.36 287.346 142.772C286.825 143.179 286.241 143.489 285.592 143.702C284.948 143.915 284.259 144.022 283.525 144.022C282.285 144.022 281.182 143.719 280.216 143.113C279.25 142.507 278.49 141.645 277.936 140.528C277.382 139.41 277.105 138.084 277.105 136.55C277.105 135.016 277.382 133.69 277.936 132.573C278.49 131.456 279.25 130.594 280.216 129.988C281.182 129.382 282.285 129.079 283.525 129.079C284.259 129.079 284.948 129.185 285.592 129.398C286.241 129.611 286.825 129.924 287.346 130.336C287.867 130.743 288.303 131.24 288.653 131.827C289.003 132.41 289.245 133.075 289.378 133.823ZM292.82 143.823H290.974L296.315 129.278H298.133L303.474 143.823H301.627L297.281 131.579H297.167L292.82 143.823ZM293.502 138.141H300.945V139.704H293.502V138.141ZM303.245 130.84V129.278H314.154V130.84H309.58V143.823H307.819V130.84H303.245Z" fill="white"/>
</g>
</g>
<defs>
<filter id="filter0_d_105_11" x="0.498047" y="0.76593" width="600.431" height="534.008" filterUnits="userSpaceOnUse" color-interpolation-filters="sRGB">
<feFlood flood-opacity="0" result="BackgroundImageFix"/>
<feColorMatrix in="SourceAlpha" type="matrix" values="0 0 0 0 0 0 0 0 0 0 0 0 0 0 0 0 0 0 127 0" result="hardAlpha"/>
<feOffset dx="4" dy="4"/>
<feGaussianBlur stdDeviation="5"/>
<feComposite in2="hardAlpha" operator="out"/>
<feColorMatrix type="matrix" values="0 0 0 0 0 0 0 0 0 0 0 0 0 0 0 0 0 0 0.25 0"/>
<feBlend mode="normal" in2="BackgroundImageFix" result="effect1_dropShadow_105_11"/>
<feBlend mode="normal" in="SourceGraphic" in2="effect1_dropShadow_105_11" result="shape"/>
</filter>
<filter id="filter1_d_105_11" x="2.49805" y="6.76593" width="588.431" height="522.008" filterUnits="userSpaceOnUse" color-interpolation-filters="sRGB">
<feFlood flood-opacity="0" result="BackgroundImageFix"/>
<feColorMatrix in="SourceAlpha" type="matrix" values="0 0 0 0 0 0 0 0 0 0 0 0 0 0 0 0 0 0 127 0" result="hardAlpha"/>
<feOffset dy="4"/>
<feGaussianBlur stdDeviation="2"/>
<feComposite in2="hardAlpha" operator="out"/>
<feColorMatrix type="matrix" values="0 0 0 0 0 0 0 0 0 0 0 0 0 0 0 0 0 0 0.05 0"/>
<feBlend mode="normal" in2="BackgroundImageFix" result="effect1_dropShadow_105_11"/>
<feBlend mode="normal" in="SourceGraphic" in2="effect1_dropShadow_105_11" result="shape"/>
</filter>
</defs>
</svg>
