<svg width="589" height="523" viewBox="0 0 589 523" fill="none" xmlns="http://www.w3.org/2000/svg">
<g filter="url(#filter0_d_425_91)">
<rect x="19.1877" y="15.4607" width="550.431" height="484.008" rx="30" fill="#F1F1F1"/>
<rect x="11.6877" y="7.96069" width="565.431" height="499.008" rx="37.5" stroke="#E1DFDF" stroke-width="15"/>
</g>
<mask id="mask0_425_91" style="mask-type:alpha" maskUnits="userSpaceOnUse" x="19" y="15" width="551" height="485">
<rect x="19.1877" y="15.4607" width="550.431" height="484.008" rx="30" fill="white" fill-opacity="0.8"/>
</mask>
<g mask="url(#mask0_425_91)">
<g filter="url(#filter1_d_425_91)">
<path d="M204.6 41.3699L110.454 338.375L151.954 426.667L440.854 470.814L563.274 224.592L547.814 162.752L204.6 41.3699Z" fill="#E7E7E7"/>
<path d="M204.6 41.3699L110.454 338.375L151.954 426.667L440.854 470.814L563.274 224.592L547.814 162.752L204.6 41.3699Z" stroke="white"/>
</g>
<g filter="url(#filter2_d_425_91)">
<path d="M36.8888 152.046L253.985 66.0687L462.392 -25.1106L622.168 358.648L196.666 535.805L36.8888 152.046Z" fill="white"/>
</g>
<g filter="url(#filter3_d_425_91)">
<path d="M36.8888 152.046L253.985 66.0687L462.392 -25.1106L622.168 358.648L196.666 535.805L36.8888 152.046Z" fill="white"/>
</g>
<path d="M241.451 261.056C240.068 261.637 238.735 261.917 237.453 261.896C236.178 261.873 235.045 261.572 234.055 260.994C233.068 260.405 232.311 259.561 231.783 258.459L234.423 257.351C234.769 258.019 235.258 258.517 235.888 258.844C236.515 259.164 237.225 259.318 238.017 259.306C238.809 259.294 239.617 259.115 240.441 258.768C241.363 258.381 242.113 257.878 242.691 257.257C243.268 256.637 243.639 255.955 243.804 255.212C243.969 254.469 243.893 253.721 243.576 252.966C243.245 252.177 242.757 251.564 242.114 251.128C241.468 250.684 240.695 250.45 239.797 250.424C238.899 250.398 237.905 250.614 236.816 251.072L235.097 251.793L234.13 249.488L235.848 248.767C236.7 248.409 237.383 247.942 237.897 247.364C238.417 246.784 238.742 246.139 238.87 245.427C239.006 244.713 238.916 243.979 238.599 243.224C238.294 242.498 237.868 241.933 237.321 241.53C236.774 241.127 236.144 240.899 235.431 240.845C234.725 240.788 233.977 240.925 233.188 241.256C232.448 241.567 231.806 241.997 231.264 242.545C230.726 243.083 230.358 243.693 230.16 244.376C229.959 245.052 229.99 245.754 230.254 246.481L227.74 247.537C227.309 246.394 227.235 245.267 227.516 244.155C227.793 243.036 228.346 242.024 229.174 241.118C230.008 240.209 231.043 239.495 232.28 238.976C233.607 238.418 234.858 238.209 236.034 238.348C237.207 238.48 238.232 238.876 239.108 239.535C239.985 240.194 240.635 241.03 241.061 242.043C241.568 243.251 241.683 244.415 241.405 245.534C241.134 246.65 240.526 247.6 239.581 248.383L239.652 248.55C241.1 248.205 242.401 248.337 243.552 248.946C244.701 249.549 245.561 250.531 246.132 251.893C246.622 253.06 246.744 254.241 246.499 255.437C246.257 256.623 245.703 257.71 244.836 258.698C243.969 259.687 242.841 260.472 241.451 261.056ZM250.513 251.73L249.616 249.593L252.782 230.714L254.333 230.063L255.723 233.374L254.675 233.813L252.283 248.079L252.354 248.246L265.053 242.915L266.02 245.22L250.513 251.73ZM262.461 251.891L260.341 246.84L259.923 245.845L253.453 230.432L255.926 229.394L264.934 250.852L262.461 251.891ZM271.794 247.972L271.003 246.086L274.831 235.359C275.281 234.102 275.634 233.026 275.89 232.129C276.143 231.226 276.275 230.423 276.284 229.721C276.297 229.009 276.166 228.324 275.89 227.668C275.574 226.913 275.118 226.336 274.523 225.937C273.935 225.535 273.267 225.314 272.519 225.275C271.772 225.235 271.01 225.378 270.235 225.704C269.411 226.05 268.763 226.523 268.292 227.123C267.825 227.714 267.551 228.383 267.471 229.132C267.398 229.877 267.533 230.659 267.876 231.476L265.403 232.514C264.875 231.257 264.702 230.031 264.883 228.838C265.064 227.644 265.542 226.573 266.318 225.622C267.101 224.669 268.118 223.93 269.368 223.405C270.626 222.878 271.851 222.675 273.045 222.799C274.239 222.922 275.301 223.318 276.231 223.988C277.161 224.657 277.858 225.544 278.321 226.647C278.653 227.437 278.833 228.269 278.864 229.143C278.898 230.008 278.76 231.048 278.448 232.263C278.141 233.469 277.649 234.989 276.974 236.826L274.319 244.004L274.389 244.172L284.364 239.984L285.332 242.289L271.794 247.972Z" fill="black"/>
<path d="M238.98 280.593L237.681 281.138C237.447 280.797 237.175 280.525 236.864 280.322C236.557 280.119 236.227 279.978 235.874 279.9C235.523 279.818 235.162 279.796 234.793 279.836C234.424 279.876 234.061 279.971 233.705 280.121C233.055 280.393 232.535 280.805 232.146 281.354C231.76 281.903 231.546 282.561 231.503 283.331C231.464 284.099 231.64 284.948 232.03 285.877C232.42 286.806 232.902 287.526 233.478 288.036C234.057 288.544 234.678 288.853 235.339 288.961C236.005 289.068 236.662 288.985 237.312 288.712C237.668 288.563 237.99 288.37 238.277 288.135C238.564 287.899 238.802 287.629 238.99 287.324C239.18 287.014 239.311 286.678 239.38 286.316C239.452 285.949 239.449 285.564 239.37 285.161L240.67 284.616C240.802 285.205 240.83 285.771 240.753 286.313C240.677 286.854 240.51 287.357 240.253 287.823C239.995 288.284 239.66 288.694 239.247 289.052C238.838 289.409 238.363 289.701 237.822 289.928C236.907 290.312 235.999 290.43 235.099 290.282C234.199 290.134 233.371 289.734 232.617 289.081C231.862 288.429 231.247 287.536 230.772 286.405C230.297 285.273 230.091 284.209 230.154 283.214C230.216 282.218 230.51 281.347 231.035 280.601C231.559 279.855 232.279 279.289 233.194 278.905C233.736 278.678 234.277 278.543 234.818 278.501C235.362 278.457 235.891 278.507 236.402 278.649C236.913 278.788 237.388 279.02 237.828 279.345C238.267 279.666 238.651 280.082 238.98 280.593ZM247.348 285.953C246.622 286.258 245.912 286.353 245.218 286.237C244.528 286.12 243.899 285.815 243.331 285.323C242.766 284.829 242.309 284.166 241.96 283.335C241.608 282.497 241.453 281.701 241.495 280.948C241.539 280.194 241.762 279.53 242.161 278.955C242.565 278.379 243.129 277.939 243.856 277.634C244.582 277.329 245.291 277.235 245.981 277.352C246.674 277.468 247.304 277.774 247.87 278.272C248.44 278.768 248.901 279.435 249.253 280.273C249.602 281.105 249.753 281.895 249.707 282.646C249.664 283.395 249.441 284.058 249.038 284.634C248.638 285.209 248.075 285.648 247.348 285.953ZM246.882 284.843C247.434 284.611 247.829 284.279 248.066 283.846C248.304 283.414 248.411 282.931 248.389 282.398C248.366 281.866 248.242 281.33 248.016 280.792C247.791 280.254 247.495 279.789 247.129 279.397C246.762 279.004 246.341 278.739 245.865 278.602C245.388 278.465 244.874 278.513 244.322 278.745C243.77 278.976 243.376 279.31 243.14 279.746C242.904 280.182 242.798 280.668 242.822 281.204C242.846 281.741 242.971 282.278 243.197 282.816C243.422 283.354 243.718 283.817 244.082 284.206C244.447 284.595 244.867 284.857 245.342 284.99C245.817 285.123 246.33 285.074 246.882 284.843ZM252.812 283.463L249.433 275.416L250.628 274.914L251.156 276.171L251.261 276.127C251.248 275.628 251.378 275.18 251.652 274.786C251.925 274.388 252.323 274.079 252.847 273.859C253.378 273.636 253.87 273.571 254.324 273.664C254.78 273.752 255.198 273.969 255.577 274.315L255.661 274.28C255.693 273.778 255.863 273.318 256.173 272.901C256.481 272.48 256.923 272.148 257.499 271.906C258.219 271.604 258.902 271.582 259.548 271.841C260.194 272.096 260.715 272.697 261.112 273.643L263.373 279.029L262.137 279.548L259.876 274.162C259.627 273.568 259.286 273.212 258.854 273.094C258.422 272.975 257.986 273.008 257.546 273.193C256.981 273.43 256.614 273.786 256.447 274.258C256.278 274.728 256.303 275.222 256.522 275.743L258.721 280.982L257.464 281.51L255.15 275.998C254.958 275.541 254.655 275.235 254.241 275.08C253.825 274.921 253.383 274.941 252.915 275.137C252.594 275.272 252.329 275.484 252.122 275.772C251.918 276.059 251.794 276.39 251.75 276.766C251.709 277.137 251.771 277.519 251.937 277.914L254.048 282.943L252.812 283.463ZM266.901 281.097L262.256 270.033L263.45 269.531L263.987 270.81L264.133 270.748C264.166 270.57 264.217 270.339 264.286 270.055C264.358 269.766 264.51 269.473 264.742 269.174C264.976 268.87 265.355 268.608 265.879 268.388C266.556 268.104 267.225 268.023 267.884 268.144C268.543 268.266 269.148 268.577 269.699 269.077C270.25 269.577 270.703 270.25 271.057 271.095C271.415 271.947 271.58 272.747 271.553 273.493C271.524 274.237 271.325 274.887 270.955 275.445C270.584 276 270.063 276.417 269.392 276.699C268.875 276.916 268.426 277.004 268.043 276.964C267.659 276.919 267.337 276.822 267.077 276.673C266.815 276.52 266.608 276.389 266.456 276.28L266.351 276.324L268.137 280.578L266.901 281.097ZM265.16 273.546C265.415 274.154 265.729 274.652 266.103 275.042C266.474 275.428 266.886 275.681 267.338 275.799C267.789 275.914 268.263 275.867 268.758 275.659C269.275 275.442 269.65 275.124 269.881 274.707C270.114 274.284 270.221 273.804 270.201 273.266C270.182 272.724 270.053 272.166 269.812 271.593C269.575 271.027 269.273 270.554 268.908 270.173C268.545 269.787 268.133 269.535 267.672 269.416C267.214 269.293 266.722 269.341 266.198 269.561C265.696 269.772 265.326 270.077 265.091 270.475C264.854 270.87 264.744 271.332 264.76 271.859C264.775 272.383 264.908 272.945 265.16 273.546ZM271.356 263.057L275.86 273.787L274.624 274.306L270.12 263.576L271.356 263.057ZM280.572 272.03C280.062 272.245 279.559 272.343 279.063 272.325C278.565 272.304 278.117 272.161 277.718 271.897C277.318 271.63 277.008 271.234 276.789 270.71C276.595 270.249 276.529 269.837 276.59 269.475C276.65 269.109 276.798 268.78 277.033 268.488C277.268 268.196 277.552 267.933 277.885 267.699C278.22 267.46 278.564 267.237 278.917 267.031C279.379 266.763 279.756 266.55 280.047 266.391C280.339 266.227 280.539 266.075 280.645 265.936C280.754 265.796 280.767 265.626 280.684 265.427L280.666 265.385C280.449 264.868 280.139 264.526 279.736 264.358C279.336 264.189 278.852 264.224 278.282 264.463C277.692 264.711 277.284 265.034 277.057 265.434C276.83 265.833 276.71 266.208 276.697 266.558L275.348 266.632C275.352 266.055 275.471 265.557 275.706 265.138C275.943 264.714 276.247 264.36 276.617 264.078C276.989 263.79 277.378 263.561 277.783 263.391C278.041 263.283 278.351 263.189 278.713 263.111C279.077 263.029 279.455 263.015 279.849 263.072C280.246 263.127 280.629 263.301 280.999 263.594C281.368 263.887 281.687 264.353 281.955 264.992L284.181 270.294L282.944 270.813L282.487 269.723L282.424 269.749C282.414 269.959 282.352 270.205 282.24 270.486C282.128 270.767 281.939 271.046 281.673 271.322C281.407 271.598 281.04 271.834 280.572 272.03ZM280.294 270.841C280.783 270.635 281.155 270.366 281.41 270.033C281.668 269.699 281.819 269.344 281.862 268.968C281.909 268.591 281.862 268.235 281.722 267.9L281.247 266.768C281.221 266.853 281.129 266.959 280.973 267.086C280.819 267.208 280.635 267.337 280.421 267.472C280.208 267.602 280 267.727 279.795 267.846C279.592 267.96 279.428 268.053 279.303 268.126C278.999 268.303 278.727 268.497 278.487 268.709C278.25 268.916 278.084 269.148 277.99 269.404C277.899 269.656 277.919 269.94 278.051 270.254C278.232 270.684 278.527 270.942 278.937 271.028C279.349 271.11 279.802 271.047 280.294 270.841ZM286.437 269.346L283.059 261.299L284.296 260.78L287.674 268.827L286.437 269.346ZM283.125 259.694C282.884 259.795 282.642 259.8 282.398 259.71C282.158 259.617 281.99 259.456 281.893 259.225C281.796 258.995 281.799 258.762 281.901 258.526C282.007 258.288 282.18 258.119 282.421 258.018C282.662 257.917 282.903 257.912 283.143 258.004C283.386 258.095 283.556 258.256 283.653 258.486C283.75 258.717 283.745 258.951 283.64 259.188C283.538 259.424 283.366 259.593 283.125 259.694ZM289.143 262.517L291.175 267.357L289.938 267.876L286.56 259.83L287.755 259.328L288.282 260.585L288.387 260.541C288.404 260.054 288.553 259.605 288.833 259.196C289.112 258.783 289.555 258.449 290.162 258.194C290.707 257.965 291.231 257.877 291.733 257.929C292.234 257.977 292.693 258.179 293.109 258.534C293.524 258.886 293.875 259.404 294.162 260.089L296.309 265.202L295.072 265.721L292.961 260.692C292.696 260.06 292.325 259.636 291.848 259.421C291.371 259.203 290.845 259.214 290.272 259.454C289.878 259.62 289.561 259.854 289.322 260.155C289.086 260.455 288.949 260.807 288.908 261.21C288.868 261.613 288.946 262.049 289.143 262.517ZM298.69 254.738L299.129 255.785L294.959 257.536L294.519 256.488L298.69 254.738ZM294.925 254.05L296.162 253.531L299.382 261.201C299.528 261.55 299.689 261.791 299.863 261.923C300.04 262.05 300.221 262.109 300.407 262.101C300.594 262.088 300.779 262.044 300.961 261.967C301.097 261.91 301.206 261.856 301.287 261.806C301.367 261.752 301.431 261.708 301.479 261.676L302.197 262.681C302.126 262.748 302.022 262.828 301.885 262.923C301.75 263.021 301.567 263.118 301.336 263.215C300.987 263.361 300.613 263.43 300.215 263.421C299.82 263.41 299.448 263.297 299.099 263.082C298.754 262.865 298.482 262.523 298.286 262.055L294.925 254.05ZM306.862 253.427L305.883 254.207C305.736 254.051 305.557 253.915 305.347 253.797C305.14 253.675 304.897 253.604 304.618 253.586C304.339 253.567 304.02 253.634 303.66 253.785C303.167 253.991 302.805 254.277 302.572 254.642C302.341 255.002 302.298 255.355 302.443 255.701C302.572 256.008 302.786 256.204 303.084 256.288C303.382 256.372 303.794 256.374 304.319 256.293L305.636 256.085C306.429 255.958 307.077 256 307.581 256.212C308.083 256.42 308.453 256.805 308.689 257.367C308.882 257.828 308.923 258.296 308.81 258.771C308.7 259.244 308.454 259.685 308.07 260.092C307.687 260.5 307.182 260.835 306.557 261.097C305.736 261.442 304.982 261.549 304.295 261.418C303.607 261.288 303.048 260.91 302.618 260.286L303.668 259.5C303.962 259.886 304.309 260.122 304.711 260.208C305.116 260.293 305.572 260.229 306.079 260.016C306.655 259.774 307.061 259.46 307.297 259.073C307.535 258.681 307.582 258.313 307.437 257.967C307.32 257.688 307.124 257.495 306.849 257.388C306.573 257.278 306.212 257.261 305.767 257.337L304.294 257.586C303.484 257.72 302.829 257.677 302.329 257.455C301.832 257.229 301.466 256.838 301.233 256.283C301.042 255.828 301.001 255.373 301.11 254.917C301.221 254.459 301.457 254.038 301.817 253.652C302.181 253.266 302.645 252.954 303.211 252.716C304.008 252.382 304.706 252.294 305.307 252.453C305.911 252.61 306.429 252.934 306.862 253.427Z" fill="black"/>
<path d="M365.753 210.182L364.961 208.296L368.789 197.569C369.239 196.312 369.592 195.235 369.849 194.339C370.102 193.435 370.233 192.633 370.242 191.93C370.256 191.218 370.125 190.534 369.849 189.877C369.532 189.123 369.076 188.546 368.481 188.147C367.894 187.744 367.226 187.523 366.478 187.484C365.73 187.445 364.969 187.588 364.193 187.913C363.369 188.259 362.721 188.732 362.25 189.333C361.783 189.923 361.51 190.593 361.43 191.341C361.357 192.087 361.491 192.868 361.835 193.685L359.362 194.723C358.834 193.466 358.661 192.241 358.841 191.047C359.022 189.854 359.501 188.782 360.277 187.832C361.06 186.879 362.077 186.14 363.327 185.615C364.584 185.087 365.81 184.885 367.004 185.008C368.198 185.131 369.259 185.528 370.19 186.197C371.12 186.866 371.816 187.753 372.28 188.857C372.611 189.646 372.792 190.478 372.822 191.353C372.857 192.217 372.718 193.257 372.407 194.473C372.099 195.678 371.608 197.199 370.933 199.035L368.277 206.214L368.348 206.381L378.322 202.194L379.29 204.499L365.753 210.182ZM390.74 200.037C389.161 200.7 387.636 200.835 386.165 200.442C384.691 200.042 383.315 199.145 382.04 197.749C380.761 196.347 379.632 194.48 378.652 192.146C377.679 189.827 377.141 187.724 377.038 185.836C376.94 183.938 377.264 182.323 378.011 180.991C378.762 179.648 379.92 178.649 381.485 177.992C383.05 177.335 384.571 177.21 386.048 177.617C387.529 178.014 388.909 178.914 390.188 180.316C391.471 181.708 392.599 183.564 393.573 185.883C394.552 188.216 395.094 190.33 395.2 192.225C395.302 194.112 394.98 195.723 394.233 197.055C393.483 198.38 392.318 199.375 390.74 200.037ZM389.772 197.732C391.337 197.075 392.235 195.811 392.468 193.938C392.701 192.066 392.231 189.733 391.058 186.938C390.278 185.08 389.415 183.582 388.468 182.443C387.529 181.301 386.545 180.543 385.517 180.169C384.496 179.793 383.469 179.821 382.435 180.255C380.884 180.906 379.994 182.18 379.763 184.076C379.529 185.965 379.997 188.304 381.167 191.091C381.947 192.949 382.805 194.445 383.742 195.58C384.678 196.715 385.656 197.468 386.674 197.837C387.698 198.204 388.731 198.169 389.772 197.732Z" fill="black"/>
<path d="M368.919 223.754L373.424 234.483L372.124 235.028L367.62 224.299L368.919 223.754ZM378.939 224.822L377.961 225.602C377.813 225.447 377.635 225.31 377.425 225.193C377.218 225.07 376.974 225 376.695 224.981C376.417 224.963 376.097 225.029 375.738 225.18C375.245 225.387 374.882 225.673 374.649 226.037C374.418 226.397 374.375 226.75 374.521 227.096C374.65 227.403 374.863 227.599 375.162 227.683C375.46 227.768 375.871 227.77 376.396 227.689L377.714 227.481C378.507 227.353 379.155 227.395 379.659 227.607C380.161 227.815 380.53 228.201 380.766 228.763C380.96 229.224 381 229.692 380.887 230.166C380.778 230.64 380.531 231.08 380.148 231.487C379.764 231.895 379.26 232.23 378.635 232.492C377.814 232.837 377.06 232.944 376.372 232.813C375.685 232.683 375.126 232.306 374.695 231.681L375.746 230.895C376.039 231.281 376.387 231.517 376.789 231.603C377.194 231.688 377.65 231.624 378.156 231.411C378.733 231.17 379.139 230.855 379.375 230.468C379.613 230.077 379.66 229.708 379.514 229.362C379.397 229.083 379.201 228.89 378.926 228.783C378.65 228.674 378.29 228.656 377.845 228.732L376.372 228.981C375.562 229.116 374.907 229.072 374.407 228.851C373.909 228.624 373.544 228.233 373.311 227.678C373.12 227.224 373.079 226.769 373.187 226.312C373.299 225.855 373.535 225.433 373.895 225.048C374.258 224.661 374.723 224.349 375.289 224.111C376.085 223.777 376.784 223.689 377.384 223.848C377.988 224.005 378.507 224.33 378.939 224.822ZM386.647 221.586L385.668 222.367C385.521 222.211 385.342 222.074 385.133 221.957C384.925 221.834 384.682 221.764 384.403 221.746C384.124 221.727 383.805 221.793 383.445 221.944C382.953 222.151 382.59 222.437 382.357 222.802C382.126 223.162 382.083 223.514 382.228 223.86C382.357 224.168 382.571 224.363 382.869 224.448C383.168 224.532 383.579 224.534 384.104 224.453L385.422 224.245C386.214 224.118 386.863 224.16 387.366 224.371C387.869 224.58 388.238 224.965 388.474 225.527C388.668 225.988 388.708 226.456 388.595 226.931C388.485 227.404 388.239 227.844 387.855 228.252C387.472 228.659 386.968 228.994 386.342 229.257C385.522 229.601 384.768 229.708 384.08 229.578C383.393 229.447 382.834 229.07 382.403 228.445L383.454 227.659C383.747 228.046 384.095 228.282 384.496 228.368C384.902 228.452 385.358 228.388 385.864 228.176C386.44 227.934 386.846 227.619 387.083 227.233C387.321 226.841 387.367 226.472 387.222 226.127C387.105 225.847 386.909 225.654 386.634 225.548C386.358 225.438 385.997 225.421 385.553 225.496L384.08 225.745C383.269 225.88 382.614 225.836 382.115 225.615C381.617 225.388 381.251 224.997 381.018 224.442C380.828 223.988 380.787 223.533 380.895 223.077C381.007 222.619 381.243 222.197 381.603 221.812C381.966 221.425 382.431 221.113 382.997 220.876C383.793 220.541 384.491 220.453 385.092 220.612C385.696 220.769 386.215 221.094 386.647 221.586ZM394.967 221.569L392.97 216.812L394.206 216.293L397.584 224.34L396.348 224.859L395.776 223.497L395.692 223.532C395.675 224.02 395.528 224.491 395.25 224.944C394.97 225.394 394.527 225.747 393.919 226.002C393.416 226.213 392.923 226.291 392.439 226.235C391.954 226.176 391.506 225.969 391.095 225.616C390.682 225.259 390.332 224.739 390.045 224.054L387.898 218.941L389.135 218.422L391.246 223.451C391.492 224.038 391.853 224.437 392.328 224.649C392.806 224.859 393.302 224.856 393.816 224.64C394.123 224.511 394.403 224.301 394.654 224.011C394.91 223.719 395.078 223.365 395.158 222.949C395.241 222.532 395.178 222.072 394.967 221.569ZM403.293 222.141C402.517 222.466 401.777 222.576 401.071 222.47C400.367 222.358 399.733 222.057 399.17 221.567C398.608 221.071 398.155 220.411 397.809 219.587C397.463 218.763 397.308 217.973 397.344 217.219C397.383 216.459 397.599 215.789 397.992 215.209C398.387 214.624 398.948 214.179 399.675 213.874C400.094 213.698 400.537 213.594 401.004 213.562C401.471 213.531 401.939 213.601 402.406 213.775C402.872 213.945 403.312 214.245 403.727 214.675C404.141 215.105 404.506 215.695 404.821 216.446L405.041 216.97L398.838 219.574L398.39 218.505L403.335 216.429C403.145 215.975 402.884 215.608 402.553 215.328C402.225 215.046 401.852 214.872 401.434 214.806C401.019 214.737 400.588 214.797 400.141 214.985C399.648 215.191 399.274 215.493 399.017 215.888C398.761 216.279 398.619 216.708 398.59 217.176C398.561 217.645 398.639 218.101 398.825 218.544L399.124 219.257C399.379 219.864 399.7 220.336 400.087 220.67C400.476 221 400.906 221.196 401.375 221.257C401.843 221.315 402.327 221.24 402.827 221.03C403.151 220.894 403.426 220.725 403.65 220.524C403.875 220.319 404.046 220.083 404.16 219.817C404.273 219.548 404.323 219.252 404.31 218.928L405.646 218.762C405.69 219.22 405.628 219.665 405.46 220.097C405.291 220.525 405.024 220.917 404.659 221.271C404.293 221.622 403.838 221.912 403.293 222.141ZM411.513 211.147L410.535 211.928C410.387 211.772 410.209 211.635 409.999 211.518C409.792 211.395 409.548 211.325 409.27 211.306C408.991 211.288 408.671 211.354 408.312 211.505C407.819 211.712 407.456 211.998 407.223 212.363C406.992 212.722 406.95 213.075 407.095 213.421C407.224 213.728 407.437 213.924 407.736 214.009C408.034 214.093 408.446 214.095 408.97 214.014L410.288 213.806C411.081 213.678 411.729 213.721 412.233 213.932C412.735 214.14 413.104 214.526 413.34 215.088C413.534 215.549 413.574 216.017 413.461 216.491C413.352 216.965 413.105 217.405 412.722 217.813C412.338 218.22 411.834 218.555 411.209 218.817C410.388 219.162 409.634 219.269 408.947 219.139C408.259 219.008 407.7 218.631 407.27 218.006L408.32 217.22C408.613 217.606 408.961 217.843 409.363 217.929C409.768 218.013 410.224 217.949 410.73 217.737C411.307 217.495 411.713 217.18 411.949 216.794C412.187 216.402 412.234 216.033 412.089 215.687C411.971 215.408 411.775 215.215 411.5 215.109C411.224 214.999 410.864 214.982 410.419 215.057L408.946 215.306C408.136 215.441 407.481 215.397 406.981 215.176C406.483 214.949 406.118 214.558 405.885 214.003C405.694 213.549 405.653 213.094 405.761 212.637C405.873 212.18 406.109 211.758 406.469 211.373C406.833 210.986 407.297 210.674 407.863 210.437C408.659 210.102 409.358 210.014 409.958 210.173C410.563 210.33 411.081 210.655 411.513 211.147Z" fill="black"/>
<path d="M375.691 290.518C374.252 291.122 372.874 291.401 371.556 291.354C370.242 291.298 369.089 290.948 368.096 290.305C367.1 289.655 366.362 288.749 365.882 287.586C365.494 286.681 365.32 285.768 365.361 284.847C365.399 283.92 365.623 283.065 366.035 282.284C366.451 281.494 367.02 280.864 367.744 280.396L367.691 280.27C366.553 280.436 365.494 280.203 364.514 279.571C363.531 278.932 362.804 278.042 362.333 276.9C361.868 275.813 361.735 274.723 361.933 273.629C362.131 272.535 362.615 271.535 363.385 270.629C364.162 269.719 365.179 269.001 366.436 268.473C367.679 267.951 368.894 267.733 370.08 267.818C371.266 267.904 372.319 268.259 373.239 268.883C374.165 269.505 374.861 270.359 375.325 271.446C375.796 272.587 375.912 273.734 375.673 274.886C375.437 276.028 374.872 276.943 373.978 277.631L374.031 277.757C374.865 277.571 375.703 277.61 376.544 277.873C377.383 278.128 378.15 278.566 378.846 279.186C379.539 279.799 380.079 280.558 380.467 281.463C380.947 282.626 381.067 283.792 380.826 284.961C380.59 286.12 380.032 287.188 379.152 288.165C378.277 289.133 377.123 289.917 375.691 290.518ZM374.723 288.213C375.694 287.806 376.466 287.296 377.04 286.686C377.613 286.075 377.972 285.403 378.116 284.669C378.259 283.935 378.174 283.182 377.858 282.411C377.511 281.604 377.001 280.976 376.328 280.527C375.654 280.078 374.887 279.825 374.025 279.768C373.17 279.708 372.288 279.869 371.38 280.25C370.465 280.634 369.723 281.155 369.153 281.814C368.59 282.469 368.233 283.194 368.082 283.989C367.937 284.78 368.039 285.58 368.386 286.387C368.702 287.159 369.168 287.752 369.786 288.166C370.411 288.577 371.145 288.791 371.99 288.806C372.834 288.821 373.745 288.624 374.723 288.213ZM370.448 278.029C371.216 277.706 371.833 277.267 372.297 276.71C372.769 276.15 373.06 275.523 373.171 274.827C373.281 274.132 373.185 273.412 372.881 272.669C372.569 271.946 372.132 271.385 371.571 270.988C371.007 270.584 370.367 270.36 369.65 270.316C368.93 270.265 368.175 270.405 367.386 270.736C366.583 271.073 365.944 271.518 365.469 272.071C364.992 272.616 364.703 273.231 364.604 273.913C364.501 274.589 364.606 275.288 364.918 276.012C365.222 276.755 365.657 277.333 366.224 277.744C366.798 278.152 367.45 278.383 368.179 278.439C368.909 278.494 369.665 278.357 370.448 278.029ZM391.15 269.707L392.118 272.012L382.73 275.954L381.762 273.649L391.15 269.707ZM398.147 255.16C399.03 254.798 399.981 254.596 400.999 254.555C402.017 254.514 403.049 254.721 404.095 255.178C405.138 255.627 406.154 256.413 407.142 257.534C408.131 258.656 409.038 260.201 409.865 262.171C410.666 264.078 411.195 265.848 411.454 267.482C411.716 269.105 411.721 270.565 411.469 271.863C411.223 273.157 410.729 274.268 409.985 275.197C409.248 276.123 408.275 276.839 407.067 277.346C405.865 277.851 404.693 278.063 403.551 277.984C402.412 277.895 401.364 277.551 400.405 276.951C399.451 276.341 398.653 275.505 398.01 274.444L400.566 273.371C401.21 274.259 402.01 274.881 402.964 275.236C403.922 275.581 404.967 275.516 406.099 275.041C407.754 274.346 408.757 273.075 409.107 271.227C409.464 269.377 409.088 267.131 407.98 264.491L407.812 264.561C407.667 265.312 407.415 266.014 407.056 266.665C406.697 267.317 406.238 267.896 405.678 268.403C405.118 268.909 404.468 269.317 403.728 269.628C402.498 270.144 401.243 270.314 399.961 270.137C398.683 269.951 397.512 269.452 396.449 268.641C395.39 267.821 394.57 266.719 393.989 265.336C393.438 264.023 393.227 262.698 393.356 261.362C393.489 260.016 393.954 258.794 394.75 257.696C395.553 256.595 396.685 255.749 398.147 255.16ZM399.115 257.466C398.235 257.835 397.534 258.388 397.013 259.124C396.497 259.85 396.188 260.67 396.086 261.584C395.989 262.487 396.128 263.386 396.504 264.28C396.879 265.174 397.416 265.906 398.115 266.475C398.818 267.035 399.603 267.387 400.469 267.533C401.34 267.669 402.215 267.552 403.095 267.182C403.759 266.904 404.323 266.515 404.787 266.016C405.248 265.51 405.597 264.941 405.832 264.308C406.072 263.665 406.192 263.002 406.193 262.32C406.191 261.63 406.057 260.968 405.79 260.332C405.438 259.494 404.906 258.793 404.193 258.23C403.487 257.664 402.686 257.302 401.79 257.144C400.9 256.983 400.009 257.09 399.115 257.466ZM423.795 270.422C422.776 270.85 421.769 271.047 420.777 271.011C419.781 270.969 418.885 270.684 418.088 270.156C417.289 269.621 416.669 268.829 416.229 267.781C415.842 266.859 415.71 266.036 415.832 265.311C415.952 264.578 416.247 263.92 416.717 263.337C417.187 262.754 417.755 262.228 418.421 261.759C419.091 261.281 419.779 260.835 420.486 260.424C421.411 259.888 422.164 259.461 422.745 259.143C423.331 258.815 423.729 258.512 423.941 258.234C424.16 257.953 424.186 257.613 424.019 257.215L423.984 257.131C423.55 256.098 422.93 255.413 422.123 255.078C421.324 254.74 420.355 254.809 419.217 255.287C418.036 255.783 417.219 256.43 416.765 257.228C416.312 258.027 416.072 258.777 416.046 259.478L413.347 259.625C413.356 258.471 413.595 257.475 414.065 256.637C414.538 255.789 415.145 255.082 415.886 254.517C416.63 253.941 417.408 253.483 418.218 253.143C418.735 252.926 419.355 252.74 420.078 252.584C420.806 252.418 421.563 252.392 422.35 252.505C423.144 252.616 423.91 252.964 424.649 253.549C425.388 254.135 426.025 255.066 426.562 256.345L431.013 266.948L428.541 267.986L427.626 265.807L427.5 265.86C427.479 266.279 427.357 266.77 427.133 267.333C426.908 267.895 426.53 268.452 425.998 269.005C425.466 269.557 424.731 270.029 423.795 270.422ZM423.24 268.042C424.218 267.632 424.962 267.094 425.471 266.428C425.987 265.759 426.289 265.049 426.376 264.298C426.47 263.544 426.377 262.831 426.095 262.161L425.145 259.897C425.093 260.067 424.911 260.279 424.599 260.534C424.29 260.778 423.922 261.035 423.493 261.306C423.068 261.566 422.651 261.815 422.242 262.053C421.836 262.281 421.508 262.468 421.257 262.614C420.65 262.968 420.106 263.356 419.626 263.779C419.151 264.193 418.82 264.656 418.633 265.17C418.45 265.674 418.491 266.24 418.754 266.869C419.115 267.728 419.706 268.245 420.526 268.418C421.351 268.581 422.255 268.456 423.24 268.042ZM435.527 265.054L428.77 248.96L431.159 247.957L432.215 250.471L432.425 250.383C432.399 249.384 432.661 248.489 433.209 247.7C433.754 246.905 434.55 246.287 435.598 245.847C436.66 245.401 437.644 245.271 438.552 245.457C439.464 245.633 440.299 246.067 441.058 246.759L441.226 246.689C441.289 245.684 441.63 244.765 442.249 243.93C442.865 243.088 443.75 242.425 444.902 241.941C446.341 241.337 447.707 241.293 449.001 241.81C450.291 242.32 451.334 243.522 452.128 245.415L456.65 256.186L454.177 257.224L449.655 246.453C449.157 245.265 448.476 244.553 447.612 244.316C446.748 244.079 445.877 244.145 444.996 244.514C443.865 244.989 443.132 245.7 442.798 246.645C442.46 247.584 442.51 248.573 442.947 249.614L447.346 260.092L444.831 261.148L440.204 250.125C439.82 249.21 439.213 248.598 438.385 248.288C437.554 247.971 436.67 248.01 435.734 248.403C435.091 248.672 434.563 249.096 434.147 249.673C433.739 250.246 433.492 250.909 433.404 251.661C433.321 252.402 433.445 253.167 433.777 253.957L438 264.015L435.527 265.054Z" fill="black"/>
<path d="M377.595 316.895L373.091 306.166L376.842 304.591C377.589 304.277 378.26 304.148 378.854 304.202C379.446 304.254 379.952 304.446 380.371 304.779C380.789 305.109 381.108 305.536 381.328 306.06C381.522 306.521 381.599 306.936 381.561 307.305C381.527 307.673 381.413 308 381.221 308.286C381.033 308.571 380.802 308.819 380.53 309.032L380.574 309.137C380.911 309.02 381.29 308.997 381.709 309.067C382.129 309.137 382.533 309.321 382.921 309.619C383.308 309.916 383.621 310.348 383.858 310.913C384.084 311.451 384.165 311.986 384.101 312.518C384.037 313.051 383.794 313.553 383.372 314.026C382.95 314.499 382.317 314.913 381.472 315.268L377.595 316.895ZM378.41 315.197L380.988 314.115C381.836 313.759 382.37 313.342 382.588 312.864C382.809 312.381 382.82 311.904 382.622 311.432C382.47 311.069 382.236 310.773 381.922 310.543C381.607 310.31 381.239 310.173 380.819 310.131C380.397 310.086 379.953 310.162 379.485 310.359L376.844 311.467L378.41 315.197ZM376.369 310.335L378.779 309.324C379.17 309.16 379.491 308.935 379.741 308.649C379.994 308.362 380.154 308.04 380.222 307.683C380.294 307.324 380.25 306.956 380.092 306.579C379.894 306.107 379.562 305.776 379.096 305.586C378.628 305.392 378.038 305.445 377.325 305.744L374.874 306.773L376.369 310.335ZM390.712 307.518L388.715 302.762L389.952 302.242L393.33 310.289L392.093 310.808L391.522 309.446L391.438 309.482C391.421 309.969 391.273 310.44 390.995 310.894C390.716 311.344 390.272 311.696 389.665 311.951C389.162 312.162 388.668 312.24 388.185 312.184C387.7 312.125 387.252 311.919 386.841 311.566C386.428 311.209 386.078 310.688 385.79 310.004L383.644 304.89L384.88 304.371L386.992 309.401C387.238 309.988 387.599 310.387 388.074 310.598C388.552 310.808 389.048 310.805 389.561 310.59C389.869 310.461 390.148 310.251 390.4 309.96C390.655 309.668 390.823 309.314 390.903 308.899C390.987 308.481 390.923 308.021 390.712 307.518ZM398.673 300.701L397.694 301.482C397.546 301.326 397.368 301.189 397.158 301.072C396.951 300.949 396.708 300.879 396.429 300.861C396.15 300.842 395.83 300.908 395.471 301.059C394.978 301.266 394.616 301.552 394.383 301.917C394.152 302.277 394.109 302.629 394.254 302.975C394.383 303.283 394.597 303.478 394.895 303.563C395.193 303.647 395.605 303.649 396.13 303.568L397.447 303.36C398.24 303.233 398.888 303.275 399.392 303.486C399.894 303.695 400.263 304.08 400.5 304.642C400.693 305.103 400.733 305.571 400.62 306.046C400.511 306.519 400.264 306.959 399.881 307.367C399.497 307.774 398.993 308.109 398.368 308.372C397.547 308.716 396.793 308.823 396.106 308.693C395.418 308.562 394.859 308.185 394.429 307.56L395.479 306.774C395.773 307.161 396.12 307.397 396.522 307.483C396.927 307.567 397.383 307.503 397.889 307.291C398.466 307.049 398.872 306.734 399.108 306.348C399.346 305.956 399.393 305.587 399.248 305.242C399.13 304.962 398.934 304.769 398.66 304.663C398.383 304.553 398.023 304.536 397.578 304.611L396.105 304.86C395.295 304.995 394.64 304.951 394.14 304.73C393.642 304.503 393.277 304.112 393.044 303.557C392.853 303.103 392.812 302.648 392.92 302.192C393.032 301.734 393.268 301.312 393.628 300.927C393.992 300.54 394.456 300.228 395.022 299.991C395.818 299.656 396.517 299.568 397.118 299.727C397.722 299.884 398.24 300.209 398.673 300.701ZM403.302 306.103L399.924 298.056L401.16 297.537L404.538 305.584L403.302 306.103ZM399.989 296.451C399.748 296.552 399.506 296.557 399.263 296.466C399.023 296.374 398.854 296.213 398.757 295.982C398.661 295.752 398.663 295.518 398.766 295.282C398.871 295.045 399.045 294.876 399.286 294.775C399.527 294.673 399.767 294.669 400.007 294.761C400.251 294.852 400.421 295.013 400.518 295.243C400.614 295.474 400.61 295.708 400.504 295.945C400.402 296.181 400.23 296.35 399.989 296.451ZM410.247 303.385C409.472 303.71 408.731 303.82 408.025 303.714C407.321 303.602 406.687 303.301 406.124 302.811C405.563 302.315 405.109 301.655 404.763 300.831C404.417 300.007 404.262 299.217 404.299 298.463C404.337 297.703 404.553 297.033 404.946 296.453C405.342 295.868 405.902 295.423 406.629 295.118C407.048 294.942 407.491 294.838 407.958 294.806C408.426 294.774 408.893 294.845 409.36 295.019C409.826 295.189 410.266 295.489 410.681 295.919C411.095 296.349 411.46 296.939 411.776 297.69L411.996 298.214L405.793 300.818L405.344 299.749L410.29 297.673C410.099 297.219 409.838 296.852 409.507 296.572C409.179 296.29 408.806 296.116 408.388 296.049C407.973 295.981 407.542 296.041 407.095 296.229C406.603 296.435 406.228 296.737 405.971 297.132C405.716 297.523 405.573 297.952 405.544 298.42C405.515 298.889 405.593 299.345 405.779 299.788L406.079 300.501C406.334 301.108 406.655 301.579 407.042 301.914C407.431 302.244 407.86 302.439 408.33 302.501C408.798 302.559 409.281 302.484 409.781 302.274C410.106 302.138 410.38 301.969 410.604 301.768C410.83 301.563 411 301.327 411.114 301.061C411.227 300.792 411.277 300.495 411.265 300.172L412.6 300.006C412.644 300.464 412.583 300.909 412.415 301.341C412.245 301.769 411.978 302.161 411.614 302.515C411.247 302.866 410.792 303.156 410.247 303.385ZM418.468 292.391L417.489 293.172C417.341 293.016 417.163 292.879 416.953 292.762C416.746 292.639 416.503 292.569 416.224 292.55C415.945 292.532 415.626 292.598 415.266 292.749C414.773 292.956 414.411 293.242 414.178 293.607C413.947 293.966 413.904 294.319 414.049 294.665C414.178 294.972 414.392 295.168 414.69 295.252C414.988 295.337 415.4 295.339 415.925 295.258L417.242 295.05C418.035 294.922 418.683 294.965 419.187 295.176C419.689 295.384 420.059 295.77 420.295 296.332C420.488 296.793 420.529 297.261 420.416 297.735C420.306 298.209 420.06 298.649 419.676 299.056C419.293 299.464 418.788 299.799 418.163 300.061C417.342 300.406 416.588 300.513 415.901 300.383C415.213 300.252 414.654 299.875 414.224 299.25L415.274 298.464C415.568 298.85 415.915 299.086 416.317 299.173C416.722 299.257 417.178 299.193 417.685 298.981C418.261 298.739 418.667 298.424 418.903 298.038C419.141 297.646 419.188 297.277 419.043 296.931C418.926 296.652 418.729 296.459 418.455 296.353C418.179 296.243 417.818 296.225 417.373 296.301L415.9 296.55C415.09 296.685 414.435 296.641 413.935 296.42C413.438 296.193 413.072 295.802 412.839 295.247C412.648 294.793 412.607 294.338 412.716 293.881C412.827 293.424 413.063 293.002 413.423 292.617C413.787 292.23 414.251 291.918 414.817 291.68C415.614 291.346 416.312 291.258 416.913 291.417C417.517 291.574 418.035 291.899 418.468 292.391ZM423.219 288.277L423.658 289.325L419.488 291.075L419.048 290.027L423.219 288.277ZM419.454 287.589L420.691 287.07L423.911 294.74C424.057 295.089 424.218 295.33 424.392 295.462C424.569 295.589 424.75 295.649 424.936 295.641C425.123 295.628 425.308 295.583 425.49 295.507C425.626 295.45 425.735 295.396 425.816 295.345C425.896 295.291 425.96 295.248 426.008 295.215L426.726 296.22C426.655 296.287 426.551 296.367 426.414 296.462C426.279 296.56 426.096 296.657 425.865 296.754C425.516 296.901 425.142 296.969 424.744 296.96C424.349 296.949 423.977 296.836 423.628 296.621C423.283 296.405 423.012 296.062 422.815 295.594L419.454 287.589ZM428.166 284.4L427.682 283.248L435.729 279.87L436.213 281.022L432.839 282.439L436.86 292.015L435.56 292.561L431.54 282.984L428.166 284.4ZM442.071 289.827L438.693 281.78L439.929 281.261L443.307 289.308L442.071 289.827ZM438.759 280.175C438.518 280.277 438.275 280.282 438.032 280.191C437.792 280.099 437.623 279.937 437.527 279.707C437.43 279.476 437.433 279.243 437.535 279.007C437.64 278.769 437.814 278.6 438.055 278.499C438.296 278.398 438.536 278.393 438.776 278.486C439.02 278.577 439.19 278.737 439.287 278.968C439.384 279.198 439.379 279.432 439.273 279.67C439.171 279.906 439 280.074 438.759 280.175ZM445.572 288.358L442.194 280.311L443.388 279.809L443.916 281.067L444.021 281.023C444.008 280.523 444.139 280.076 444.413 279.681C444.685 279.283 445.084 278.974 445.608 278.754C446.138 278.532 446.631 278.467 447.085 278.56C447.541 278.647 447.958 278.864 448.338 279.21L448.422 279.175C448.453 278.673 448.624 278.213 448.933 277.796C449.241 277.375 449.683 277.043 450.26 276.801C450.979 276.499 451.662 276.478 452.309 276.736C452.954 276.991 453.475 277.592 453.873 278.538L456.134 283.924L454.897 284.443L452.636 279.057C452.387 278.464 452.047 278.107 451.615 277.989C451.183 277.87 450.747 277.903 450.307 278.088C449.741 278.326 449.375 278.681 449.207 279.153C449.039 279.623 449.064 280.118 449.282 280.638L451.481 285.877L450.224 286.405L447.91 280.893C447.718 280.436 447.415 280.13 447.001 279.975C446.585 279.817 446.144 279.836 445.676 280.032C445.354 280.167 445.09 280.379 444.882 280.667C444.678 280.954 444.554 281.286 444.511 281.661C444.469 282.032 444.531 282.415 444.697 282.809L446.808 287.839L445.572 288.358ZM461.838 281.726C461.063 282.052 460.322 282.161 459.616 282.055C458.912 281.944 458.279 281.643 457.715 281.152C457.154 280.657 456.7 279.997 456.354 279.173C456.008 278.348 455.853 277.559 455.89 276.804C455.928 276.044 456.144 275.375 456.538 274.794C456.933 274.21 457.494 273.765 458.22 273.46C458.639 273.284 459.082 273.18 459.55 273.148C460.017 273.116 460.484 273.187 460.952 273.36C461.417 273.531 461.858 273.831 462.272 274.26C462.687 274.69 463.052 275.281 463.367 276.031L463.587 276.555L457.384 279.159L456.935 278.091L461.881 276.014C461.69 275.56 461.429 275.193 461.098 274.913C460.771 274.632 460.398 274.458 459.979 274.391C459.564 274.323 459.133 274.383 458.686 274.57C458.194 274.777 457.819 275.078 457.562 275.474C457.307 275.864 457.165 276.294 457.135 276.762C457.106 277.23 457.185 277.686 457.371 278.13L457.67 278.842C457.925 279.45 458.246 279.921 458.633 280.256C459.022 280.585 459.451 280.781 459.921 280.843C460.389 280.901 460.873 280.825 461.372 280.616C461.697 280.479 461.971 280.311 462.195 280.11C462.421 279.904 462.591 279.668 462.705 279.403C462.818 279.133 462.869 278.837 462.856 278.514L464.191 278.347C464.236 278.805 464.174 279.25 464.006 279.682C463.837 280.111 463.57 280.502 463.205 280.857C462.839 281.208 462.383 281.497 461.838 281.726Z" fill="black"/>
<path d="M281.414 322.92L280.517 320.783L283.683 301.904L285.234 301.253L286.624 304.564L285.576 305.004L283.184 319.269L283.255 319.436L295.954 314.105L296.922 316.41L281.414 322.92ZM293.362 323.081L291.242 318.03L290.824 317.035L284.354 301.622L286.827 300.584L295.835 322.043L293.362 323.081Z" fill="black"/>
<path d="M279.005 356.63L274.501 345.9L278.126 344.379C278.964 344.027 279.712 343.881 280.37 343.942C281.027 343.999 281.589 344.221 282.055 344.608C282.522 344.996 282.888 345.506 283.153 346.138C283.419 346.77 283.525 347.385 283.472 347.982C283.419 348.58 283.183 349.13 282.766 349.634C282.348 350.134 281.723 350.559 280.892 350.908L277.958 352.14L277.465 350.966L280.357 349.752C280.93 349.512 281.356 349.234 281.635 348.92C281.917 348.604 282.072 348.26 282.1 347.886C282.131 347.508 282.055 347.104 281.875 346.674C281.695 346.245 281.457 345.903 281.161 345.649C280.866 345.395 280.505 345.255 280.079 345.229C279.651 345.199 279.148 345.305 278.568 345.549L276.284 346.508L280.304 356.084L279.005 356.63ZM282.032 349.69L286.696 353.401L285.187 354.035L280.565 350.306L282.032 349.69ZM291.527 351.57C290.8 351.875 290.09 351.97 289.397 351.854C288.707 351.737 288.078 351.432 287.509 350.94C286.945 350.446 286.488 349.783 286.139 348.952C285.787 348.113 285.632 347.318 285.673 346.565C285.718 345.811 285.94 345.147 286.34 344.572C286.743 343.996 287.308 343.556 288.034 343.251C288.761 342.946 289.469 342.852 290.159 342.969C290.852 343.084 291.482 343.391 292.049 343.889C292.618 344.385 293.079 345.052 293.431 345.89C293.78 346.721 293.931 347.512 293.885 348.263C293.842 349.012 293.619 349.675 293.216 350.251C292.816 350.825 292.253 351.265 291.527 351.57ZM291.061 350.459C291.612 350.228 292.007 349.896 292.245 349.463C292.482 349.031 292.59 348.548 292.567 348.015C292.545 347.482 292.421 346.947 292.195 346.409C291.969 345.871 291.673 345.406 291.307 345.013C290.941 344.621 290.519 344.356 290.043 344.219C289.567 344.082 289.052 344.13 288.501 344.361C287.949 344.593 287.555 344.927 287.319 345.363C287.083 345.799 286.977 346.285 287.001 346.821C287.024 347.358 287.149 347.895 287.375 348.433C287.601 348.97 287.896 349.434 288.261 349.823C288.625 350.212 289.045 350.474 289.52 350.607C289.995 350.74 290.509 350.691 291.061 350.459ZM300.68 343.66L298.683 338.904L299.919 338.385L303.298 346.431L302.061 346.95L301.489 345.588L301.406 345.624C301.389 346.111 301.241 346.582 300.963 347.036C300.684 347.486 300.24 347.838 299.632 348.093C299.13 348.304 298.636 348.382 298.153 348.326C297.668 348.267 297.22 348.061 296.808 347.708C296.396 347.351 296.046 346.83 295.758 346.146L293.612 341.032L294.848 340.513L296.96 345.543C297.206 346.13 297.567 346.529 298.041 346.74C298.52 346.95 299.016 346.947 299.529 346.732C299.837 346.603 300.116 346.393 300.368 346.102C300.623 345.81 300.791 345.456 300.871 345.041C300.955 344.623 300.891 344.163 300.68 343.66ZM305.684 335.965L306.123 337.012L301.953 338.763L301.513 337.715L305.684 335.965ZM301.919 335.277L303.156 334.758L306.376 342.428C306.522 342.777 306.683 343.018 306.857 343.15C307.034 343.277 307.215 343.337 307.401 343.329C307.588 343.316 307.773 343.271 307.955 343.195C308.091 343.137 308.2 343.084 308.281 343.033C308.361 342.979 308.425 342.936 308.473 342.903L309.191 343.908C309.12 343.975 309.016 344.055 308.879 344.15C308.744 344.248 308.561 344.345 308.33 344.442C307.981 344.589 307.607 344.657 307.209 344.648C306.814 344.637 306.442 344.524 306.093 344.309C305.748 344.092 305.477 343.75 305.28 343.282L301.919 335.277ZM314.279 342.018C313.504 342.344 312.763 342.454 312.057 342.347C311.353 342.236 310.72 341.935 310.156 341.445C309.595 340.949 309.141 340.289 308.795 339.465C308.449 338.641 308.294 337.851 308.331 337.096C308.369 336.337 308.585 335.667 308.978 335.087C309.374 334.502 309.935 334.057 310.661 333.752C311.08 333.576 311.523 333.472 311.991 333.44C312.458 333.408 312.925 333.479 313.392 333.653C313.858 333.823 314.298 334.123 314.713 334.553C315.128 334.982 315.493 335.573 315.808 336.324L316.028 336.848L309.825 339.452L309.376 338.383L314.322 336.307C314.131 335.853 313.87 335.486 313.539 335.206C313.211 334.924 312.838 334.75 312.42 334.683C312.005 334.615 311.574 334.675 311.127 334.863C310.635 335.069 310.26 335.37 310.003 335.766C309.748 336.156 309.606 336.586 309.576 337.054C309.547 337.522 309.625 337.978 309.812 338.422L310.111 339.134C310.366 339.742 310.687 340.213 311.074 340.548C311.463 340.878 311.892 341.073 312.362 341.135C312.83 341.193 313.314 341.117 313.813 340.908C314.138 340.771 314.412 340.603 314.636 340.402C314.862 340.196 315.032 339.961 315.146 339.695C315.259 339.426 315.309 339.129 315.297 338.806L316.632 338.64C316.677 339.098 316.615 339.543 316.447 339.975C316.278 340.403 316.011 340.795 315.646 341.149C315.28 341.5 314.824 341.79 314.279 342.018ZM322.5 331.025L321.521 331.805C321.374 331.65 321.195 331.513 320.986 331.396C320.778 331.273 320.535 331.203 320.256 331.184C319.977 331.166 319.658 331.232 319.298 331.383C318.806 331.59 318.443 331.876 318.21 332.24C317.979 332.6 317.936 332.953 318.081 333.299C318.21 333.606 318.424 333.802 318.722 333.886C319.021 333.971 319.432 333.972 319.957 333.892L321.275 333.684C322.067 333.556 322.716 333.598 323.219 333.81C323.722 334.018 324.091 334.403 324.327 334.966C324.52 335.427 324.561 335.895 324.448 336.369C324.338 336.842 324.092 337.283 323.708 337.69C323.325 338.098 322.82 338.433 322.195 338.695C321.375 339.04 320.62 339.147 319.933 339.016C319.246 338.886 318.687 338.509 318.256 337.884L319.306 337.098C319.6 337.484 319.948 337.72 320.349 337.806C320.755 337.891 321.21 337.827 321.717 337.614C322.293 337.372 322.699 337.058 322.936 336.671C323.174 336.28 323.22 335.911 323.075 335.565C322.958 335.286 322.762 335.093 322.487 334.986C322.211 334.876 321.85 334.859 321.406 334.935L319.932 335.184C319.122 335.319 318.467 335.275 317.967 335.054C317.47 334.827 317.104 334.436 316.871 333.881C316.681 333.427 316.639 332.972 316.748 332.515C316.86 332.058 317.096 331.636 317.456 331.251C317.819 330.864 318.284 330.552 318.849 330.314C319.646 329.98 320.344 329.892 320.945 330.051C321.549 330.208 322.067 330.533 322.5 331.025Z" fill="black"/>
<path d="M236.645 194.774L227.229 182.951L229.842 181.854L236.396 190.696L236.52 190.643L234.963 179.705L237.34 178.707L244.067 187.483L244.185 187.433L242.461 176.557L245.074 175.46L246.919 190.46L244.523 191.467L237.887 183.183L237.782 183.227L239.041 193.768L236.645 194.774ZM255.793 186.966C254.785 187.39 253.826 187.546 252.917 187.434C252.01 187.317 251.198 186.954 250.48 186.347C249.761 185.734 249.181 184.902 248.739 183.85C248.305 182.816 248.12 181.825 248.185 180.879C248.252 179.926 248.55 179.082 249.078 178.347C249.605 177.607 250.348 177.036 251.309 176.632C251.929 176.372 252.556 176.227 253.19 176.197C253.827 176.16 254.444 176.261 255.042 176.498C255.644 176.733 256.202 177.12 256.716 177.659C257.228 178.194 257.669 178.902 258.039 179.784L258.344 180.511L250.1 183.972L249.429 182.374L255.401 179.867C255.206 179.415 254.938 179.052 254.598 178.779C254.256 178.502 253.869 178.333 253.438 178.273C253.011 178.21 252.571 178.275 252.117 178.465C251.632 178.669 251.256 178.965 250.988 179.355C250.719 179.74 250.561 180.166 250.515 180.632C250.472 181.092 250.543 181.547 250.727 181.999L251.313 183.394C251.558 183.979 251.876 184.436 252.266 184.765C252.654 185.09 253.087 185.283 253.564 185.345C254.04 185.402 254.536 185.322 255.051 185.106C255.396 184.961 255.688 184.782 255.927 184.569C256.164 184.351 256.345 184.103 256.469 183.825C256.594 183.546 256.649 183.243 256.635 182.916L258.953 182.235C259.059 182.879 259.007 183.502 258.797 184.103C258.59 184.698 258.233 185.243 257.727 185.738C257.219 186.229 256.575 186.638 255.793 186.966ZM266.725 182.377C265.716 182.801 264.757 182.957 263.848 182.845C262.941 182.728 262.129 182.365 261.412 181.758C260.692 181.145 260.112 180.313 259.67 179.261C259.236 178.226 259.051 177.236 259.116 176.29C259.183 175.337 259.481 174.493 260.01 173.758C260.536 173.018 261.28 172.446 262.24 172.043C262.86 171.783 263.487 171.638 264.121 171.608C264.758 171.571 265.376 171.672 265.973 171.909C266.575 172.144 267.133 172.531 267.647 173.07C268.159 173.605 268.6 174.313 268.97 175.195L269.276 175.922L261.031 179.383L260.36 177.785L266.332 175.278C266.138 174.826 265.87 174.463 265.529 174.19C265.187 173.913 264.8 173.744 264.369 173.684C263.942 173.621 263.502 173.686 263.048 173.876C262.563 174.08 262.187 174.376 261.919 174.766C261.65 175.151 261.492 175.577 261.447 176.043C261.403 176.503 261.474 176.958 261.658 177.41L262.244 178.805C262.489 179.39 262.807 179.847 263.197 180.176C263.585 180.501 264.018 180.694 264.496 180.756C264.971 180.813 265.467 180.733 265.982 180.517C266.327 180.372 266.619 180.193 266.858 179.979C267.095 179.762 267.276 179.514 267.401 179.236C267.525 178.957 267.58 178.654 267.566 178.327L269.884 177.646C269.99 178.29 269.938 178.912 269.728 179.514C269.521 180.109 269.165 180.654 268.659 181.149C268.151 181.64 267.506 182.049 266.725 182.377ZM273.956 175.397L272.748 172.538L273.128 172.379L275.047 166.821L277.817 165.658L275.449 172.475L274.958 172.682L273.956 175.397ZM273.12 179.461L267.49 166.05L269.861 165.054L275.491 178.466L273.12 179.461ZM279.433 176.811L274.237 173.608L275.134 171.267L282.269 175.621L279.433 176.811ZM280.36 160.647L285.99 174.058L283.619 175.053L277.989 161.642L280.36 160.647ZM291.485 176.188C291.162 176.324 290.852 176.423 290.555 176.486C290.264 176.552 290.024 176.586 289.835 176.588L289.61 174.511C289.997 174.466 290.325 174.385 290.593 174.267C290.862 174.149 291.064 173.964 291.2 173.712C291.342 173.463 291.405 173.118 291.39 172.677L291.364 172.049L283.406 163.312L285.921 162.256L291.428 168.879L291.533 168.835L290.669 160.263L293.19 159.204L293.896 172.172C293.932 172.783 293.875 173.344 293.724 173.854C293.576 174.368 293.319 174.82 292.953 175.21C292.594 175.602 292.105 175.928 291.485 176.188ZM306.938 153.826C306.637 153.279 306.192 152.942 305.604 152.814C305.021 152.684 304.369 152.77 303.649 153.073C303.142 153.285 302.74 153.544 302.442 153.849C302.144 154.154 301.953 154.478 301.871 154.82C301.789 155.163 301.816 155.503 301.953 155.841C302.07 156.121 302.235 156.336 302.448 156.488C302.665 156.639 302.915 156.739 303.199 156.79C303.48 156.836 303.776 156.85 304.087 156.833C304.398 156.815 304.705 156.781 305.007 156.731L306.397 156.518C306.953 156.423 307.506 156.378 308.058 156.383C308.613 156.386 309.141 156.462 309.64 156.612C310.144 156.76 310.596 157.004 310.996 157.345C311.395 157.685 311.717 158.146 311.961 158.726C312.291 159.512 312.38 160.289 312.23 161.055C312.078 161.818 311.692 162.526 311.074 163.181C310.458 163.83 309.613 164.38 308.539 164.831C307.495 165.269 306.522 165.488 305.618 165.487C304.718 165.485 303.922 165.265 303.229 164.826C302.541 164.386 301.993 163.728 301.584 162.852L303.974 161.848C304.205 162.301 304.512 162.629 304.896 162.832C305.279 163.036 305.706 163.129 306.176 163.111C306.651 163.092 307.141 162.976 307.648 162.763C308.176 162.542 308.606 162.269 308.937 161.945C309.271 161.615 309.492 161.26 309.599 160.881C309.705 160.497 309.68 160.113 309.523 159.727C309.372 159.379 309.149 159.134 308.852 158.992C308.555 158.844 308.192 158.771 307.766 158.77C307.342 158.763 306.864 158.799 306.332 158.879L304.642 159.126C303.418 159.306 302.364 159.243 301.481 158.936C300.6 158.623 299.957 157.986 299.554 157.026C299.222 156.235 299.146 155.454 299.324 154.68C299.507 153.905 299.901 153.198 300.506 152.559C301.109 151.916 301.88 151.397 302.818 151.003C303.77 150.603 304.673 150.419 305.529 150.45C306.387 150.475 307.143 150.694 307.799 151.107C308.454 151.515 308.946 152.094 309.276 152.844L306.938 153.826ZM316.403 149.459L317.173 151.293L311.39 153.72L310.621 151.887L316.403 149.459ZM311.036 148.878L313.407 147.882L317.371 157.326C317.505 157.644 317.656 157.869 317.823 157.998C317.993 158.122 318.172 158.181 318.359 158.174C318.546 158.167 318.738 158.123 318.935 158.04C319.083 157.978 319.214 157.91 319.327 157.837C319.444 157.762 319.532 157.702 319.59 157.657L320.768 159.343C320.66 159.44 320.498 159.564 320.285 159.715C320.075 159.865 319.804 160.014 319.472 160.164C318.885 160.431 318.313 160.566 317.755 160.569C317.195 160.568 316.687 160.417 316.231 160.115C315.78 159.811 315.425 159.344 315.166 158.714L311.036 148.878ZM325.588 157.674C324.951 157.941 324.329 158.069 323.723 158.056C323.119 158.037 322.575 157.865 322.089 157.54C321.608 157.213 321.229 156.72 320.952 156.061C320.714 155.494 320.621 154.98 320.675 154.521C320.729 154.062 320.89 153.645 321.159 153.271C321.428 152.896 321.766 152.556 322.172 152.252C322.581 151.942 323.019 151.658 323.486 151.4C324.05 151.092 324.505 150.836 324.851 150.634C325.196 150.428 325.429 150.238 325.551 150.063C325.676 149.883 325.69 149.679 325.595 149.452L325.578 149.413C325.371 148.919 325.065 148.599 324.659 148.451C324.252 148.303 323.774 148.344 323.224 148.575C322.644 148.819 322.236 149.139 322.002 149.535C321.772 149.93 321.671 150.324 321.698 150.718L319.352 151.333C319.27 150.649 319.344 150.017 319.573 149.438C319.801 148.855 320.162 148.338 320.656 147.889C321.149 147.436 321.747 147.062 322.45 146.767C322.934 146.563 323.44 146.418 323.968 146.33C324.496 146.241 325.014 146.245 325.521 146.34C326.026 146.431 326.493 146.649 326.92 146.993C327.351 147.336 327.707 147.841 327.988 148.509L330.814 155.241L328.535 156.198L327.955 154.816L327.876 154.849C327.849 155.189 327.756 155.536 327.597 155.89C327.44 156.239 327.197 156.569 326.866 156.883C326.538 157.19 326.112 157.454 325.588 157.674ZM325.472 155.673C325.948 155.473 326.321 155.206 326.592 154.872C326.86 154.533 327.023 154.167 327.078 153.774C327.138 153.379 327.091 152.996 326.935 152.625L326.437 151.44C326.389 151.532 326.286 151.642 326.129 151.77C325.976 151.895 325.799 152.024 325.597 152.155C325.395 152.285 325.194 152.411 324.993 152.531C324.792 152.652 324.617 152.756 324.469 152.844C324.136 153.04 323.852 153.252 323.619 153.478C323.385 153.705 323.229 153.95 323.15 154.214C323.069 154.474 323.093 154.757 323.221 155.062C323.404 155.499 323.702 155.762 324.114 155.851C324.526 155.939 324.979 155.88 325.472 155.673ZM333.997 142.073L334.767 143.907L328.985 146.334L328.215 144.501L333.997 142.073ZM328.631 141.491L331.002 140.496L334.966 149.939C335.1 150.258 335.25 150.482 335.418 150.612C335.588 150.736 335.766 150.794 335.954 150.788C336.141 150.781 336.333 150.736 336.529 150.654C336.678 150.592 336.808 150.524 336.921 150.451C337.039 150.376 337.127 150.316 337.185 150.271L338.362 151.956C338.254 152.053 338.093 152.177 337.879 152.329C337.67 152.478 337.399 152.628 337.066 152.778C336.48 153.045 335.908 153.18 335.349 153.183C334.789 153.182 334.281 153.03 333.826 152.729C333.375 152.425 333.02 151.958 332.76 151.327L328.631 141.491ZM344.902 140.622L342.84 141.765C342.687 141.573 342.494 141.412 342.261 141.285C342.032 141.155 341.766 141.084 341.463 141.073C341.16 141.061 340.826 141.132 340.459 141.286C339.966 141.493 339.596 141.774 339.349 142.129C339.107 142.483 339.06 142.828 339.207 143.167C339.326 143.462 339.533 143.655 339.828 143.746C340.128 143.836 340.558 143.833 341.118 143.736L342.988 143.383C344.025 143.188 344.869 143.217 345.519 143.468C346.173 143.717 346.653 144.201 346.96 144.919C347.222 145.554 347.271 146.191 347.107 146.829C346.947 147.462 346.6 148.049 346.067 148.591C345.535 149.133 344.85 149.58 344.011 149.932C342.78 150.448 341.681 150.607 340.714 150.407C339.745 150.203 338.994 149.668 338.461 148.803L340.68 147.61C340.975 148.02 341.342 148.269 341.779 148.358C342.217 148.446 342.709 148.376 343.254 148.147C343.817 147.91 344.221 147.605 344.464 147.23C344.712 146.854 344.764 146.496 344.621 146.155C344.5 145.867 344.289 145.676 343.988 145.582C343.691 145.486 343.29 145.485 342.785 145.578L340.918 145.939C339.869 146.143 339.013 146.104 338.35 145.822C337.686 145.536 337.202 145.026 336.898 144.291C336.634 143.672 336.576 143.065 336.726 142.468C336.879 141.865 337.208 141.31 337.715 140.805C338.224 140.293 338.881 139.869 339.684 139.532C340.863 139.037 341.896 138.898 342.783 139.116C343.675 139.333 344.381 139.835 344.902 140.622Z" fill="black"/>
<line x1="179.796" y1="239.559" x2="424.979" y2="136.629" stroke="#575757" stroke-width="3"/>
<path d="M167.717 167.678L161.691 152.801L166.224 150.965L164.751 147.328L151.261 152.791L152.735 156.429L157.276 154.589L163.302 169.466L167.717 167.678ZM178.224 150.662L176.157 146.501C174.893 147.473 173.837 148.911 172.998 150.809L170.79 149.184L168.624 150.061L174.626 164.88L179.041 163.091L175.225 153.67C175.737 152.826 177.255 151.319 178.224 150.662ZM185.232 142.923C182.864 143.882 180.611 145.197 179.062 146.53L180.874 149.383C182.594 148.108 184.307 147.13 186.001 146.444C187.012 146.035 187.792 145.807 188.354 145.765L189.364 148.257L188.706 148.524C186.415 149.452 184.747 150.274 183.71 151.008C181.672 152.441 181.305 153.932 182.41 156.66C183.774 160.028 185.774 160.776 189.178 159.398C191.158 158.596 192.631 157.293 193.591 155.474L195.354 156.485L197.486 155.621L193.226 145.105C191.74 141.434 189.158 141.333 185.232 142.923ZM189.731 155.557L187.119 156.615L186.109 154.123C185.571 152.793 186.242 152.344 187.734 151.74L190.346 150.682L191.379 153.233C191.897 154.513 191.18 154.97 189.731 155.557ZM203.095 139.903L205.766 138.821L210.444 150.372L214.86 148.584L209.905 136.351C209.025 134.178 206.76 134.204 204.384 135.166C202.151 136.071 200.496 137.457 199.406 139.319L197.652 138.305L195.52 139.168L201.521 153.986L205.937 152.198L201.783 141.943C201.333 140.832 201.873 140.398 203.095 139.903ZM213.822 136.724C214.842 139.242 215.985 139.837 218.255 139.653C219.453 139.56 221.239 139.199 223.606 138.554L224.568 140.928C223.705 141.532 222.873 141.997 222.064 142.324C220.32 143.031 218.592 143.368 216.889 143.352L217.635 146.911C219.759 146.757 221.865 146.266 223.938 145.427C228.168 143.713 230.369 141.714 228.797 137.833C227.822 135.425 226.426 134.883 224.196 135.022C222.946 135.107 221.227 135.44 219.023 136.029L218.089 133.722C218.845 133.19 219.781 132.694 220.91 132.236C222.191 131.717 223.437 131.379 224.647 131.242L223.916 127.912C222.02 128.17 220.056 128.721 218.025 129.543C214.208 131.089 212.376 133.154 213.822 136.724ZM238.14 139.155L232.091 124.219L227.909 126.608L233.717 140.947L238.14 139.155ZM229.196 123.294C231.1 122.523 231.411 121.789 230.637 119.878C229.859 117.958 229.1 117.609 227.204 118.377C225.258 119.165 224.928 119.926 225.716 121.871C226.494 123.791 227.258 124.079 229.196 123.294ZM246.195 136.304C247.03 135.966 248.023 135.417 249.181 134.644L248.181 131.57C247.501 131.826 246.836 132.026 246.18 132.174L242.651 123.46L244.993 122.511L243.817 119.607L241.474 120.555L239.902 116.674L235.934 119.565L237.059 122.344L235.281 123.064L236.458 125.969L238.236 125.248L242.113 134.821C242.894 136.749 244.215 137.106 246.195 136.304ZM264.903 127.933L263.028 124.419C261.795 125.468 260.34 126.331 258.655 127.014C257.669 127.413 256.648 127.7 255.593 127.882L251.74 118.368C250.98 116.49 251.858 115.801 253.889 114.979C255.085 114.494 257.188 113.995 258.296 113.85L257.422 110.068C256.338 110.056 253.876 110.711 252.52 111.26C250.422 112.11 248.937 113.044 248.048 114.071C245.956 116.486 246.785 119.767 248.568 124.17C249.608 126.738 250.625 128.62 251.611 129.818C253.669 132.307 256.1 132.4 259.933 130.848C262.124 129.96 263.583 129.154 264.903 127.933ZM269.786 112.891L272.002 111.994L276.68 123.545L281.104 121.754L276.149 109.52C275.269 107.348 272.996 107.377 270.628 108.336C268.749 109.097 267.344 110.107 266.4 111.362L264.109 105.704L259.911 107.786L267.757 127.159L272.181 125.368L268.102 115.298C267.564 113.968 268.294 113.496 269.786 112.891ZM285.272 102.405C282.904 103.364 280.651 104.678 279.111 106.008L280.923 108.861C282.635 107.589 284.347 106.611 286.049 105.922C287.052 105.516 287.833 105.288 288.395 105.247L289.404 107.739L288.755 108.002C286.455 108.933 284.787 109.756 283.75 110.489C281.712 111.922 281.345 113.414 282.45 116.142C283.814 119.509 285.822 120.254 289.218 118.879C291.198 118.077 292.671 116.775 293.64 114.952L295.394 115.966L297.526 115.102L293.267 104.587C291.78 100.916 289.207 100.811 285.272 102.405ZM289.771 115.039L287.159 116.096L286.15 113.604C285.611 112.274 286.283 111.826 287.774 111.222L290.386 110.164L291.419 112.715C291.938 113.994 291.22 114.452 289.771 115.039ZM305.438 112.31C306.272 111.972 307.266 111.422 308.424 110.649L307.424 107.575C306.743 107.831 306.079 108.032 305.423 108.18L301.893 99.4657L304.236 98.517L303.059 95.6123L300.717 96.561L299.145 92.6796L295.176 95.5708L296.302 98.3492L294.524 99.0693L295.7 101.974L297.478 101.254L301.355 110.827C302.136 112.755 303.458 113.112 305.438 112.31Z" fill="#333333"/>
<path d="M125.396 207.709L125.536 207.652C129.956 205.861 133.889 203.048 137.011 199.443C140.132 195.838 142.354 191.545 143.494 186.916C144.633 182.287 144.658 177.455 143.565 172.816C142.473 168.177 140.294 163.864 137.209 160.231C128.671 174.356 125.528 197.996 125.396 207.709ZM121.859 156.301C122.27 156.063 98.9946 171.691 86.1401 190.691L86.2849 191.049C88.0077 195.11 90.5457 198.774 93.7421 201.815C103.772 180.852 113.671 169.764 131.179 154.801C126.599 151.689 121.249 149.9 115.716 149.628C110.183 149.357 104.682 150.614 99.8163 153.263C94.9505 155.911 90.9082 159.848 88.1333 164.641C85.3585 169.435 83.9583 174.899 84.0867 180.433C97.1944 167.279 115.182 159.603 121.859 156.301Z" fill="#F15A24"/>
<path d="M135.727 158.594C134.777 157.636 133.763 156.743 132.693 155.922C111.574 173.004 101.702 194.436 98.1611 205.224C103.3 208.447 109.292 210.05 115.357 209.824C116.76 199.7 122.13 178.797 135.727 158.594Z" fill="#619A3F"/>
<g filter="url(#filter4_d_425_91)">
<path d="M107.232 338.361L407.932 396.212L548.571 154.611L687.556 488.431L246.217 672.181L107.232 338.361Z" fill="#F7F4F4"/>
</g>
</g>
<defs>
<filter id="filter0_d_425_91" x="0.187744" y="0.460693" width="588.431" height="522.008" filterUnits="userSpaceOnUse" color-interpolation-filters="sRGB">
<feFlood flood-opacity="0" result="BackgroundImageFix"/>
<feColorMatrix in="SourceAlpha" type="matrix" values="0 0 0 0 0 0 0 0 0 0 0 0 0 0 0 0 0 0 127 0" result="hardAlpha"/>
<feOffset dy="4"/>
<feGaussianBlur stdDeviation="2"/>
<feComposite in2="hardAlpha" operator="out"/>
<feColorMatrix type="matrix" values="0 0 0 0 0 0 0 0 0 0 0 0 0 0 0 0 0 0 0.05 0"/>
<feBlend mode="normal" in2="BackgroundImageFix" result="effect1_dropShadow_425_91"/>
<feBlend mode="normal" in="SourceGraphic" in2="effect1_dropShadow_425_91" result="shape"/>
</filter>
<filter id="filter1_d_425_91" x="95.4543" y="41.3699" width="467.82" height="444.444" filterUnits="userSpaceOnUse" color-interpolation-filters="sRGB">
<feFlood flood-opacity="0" result="BackgroundImageFix"/>
<feColorMatrix in="SourceAlpha" type="matrix" values="0 0 0 0 0 0 0 0 0 0 0 0 0 0 0 0 0 0 127 0" result="hardAlpha"/>
<feOffset dx="-10" dy="10"/>
<feGaussianBlur stdDeviation="2.5"/>
<feComposite in2="hardAlpha" operator="out"/>
<feColorMatrix type="matrix" values="0 0 0 0 0 0 0 0 0 0 0 0 0 0 0 0 0 0 0.25 0"/>
<feBlend mode="normal" in2="BackgroundImageFix" result="effect1_dropShadow_425_91"/>
<feBlend mode="normal" in="SourceGraphic" in2="effect1_dropShadow_425_91" result="shape"/>
</filter>
<filter id="filter2_d_425_91" x="27.8889" y="-25.1106" width="595.279" height="575.915" filterUnits="userSpaceOnUse" color-interpolation-filters="sRGB">
<feFlood flood-opacity="0" result="BackgroundImageFix"/>
<feColorMatrix in="SourceAlpha" type="matrix" values="0 0 0 0 0 0 0 0 0 0 0 0 0 0 0 0 0 0 127 0" result="hardAlpha"/>
<feOffset dx="-4" dy="10"/>
<feGaussianBlur stdDeviation="2.5"/>
<feComposite in2="hardAlpha" operator="out"/>
<feColorMatrix type="matrix" values="0 0 0 0 0 0 0 0 0 0 0 0 0 0 0 0 0 0 0.25 0"/>
<feBlend mode="normal" in2="BackgroundImageFix" result="effect1_dropShadow_425_91"/>
<feBlend mode="normal" in="SourceGraphic" in2="effect1_dropShadow_425_91" result="shape"/>
</filter>
<filter id="filter3_d_425_91" x="27.8889" y="-25.1106" width="595.279" height="575.915" filterUnits="userSpaceOnUse" color-interpolation-filters="sRGB">
<feFlood flood-opacity="0" result="BackgroundImageFix"/>
<feColorMatrix in="SourceAlpha" type="matrix" values="0 0 0 0 0 0 0 0 0 0 0 0 0 0 0 0 0 0 127 0" result="hardAlpha"/>
<feOffset dx="-4" dy="10"/>
<feGaussianBlur stdDeviation="2.5"/>
<feComposite in2="hardAlpha" operator="out"/>
<feColorMatrix type="matrix" values="0 0 0 0 0 0 0 0 0 0 0 0 0 0 0 0 0 0 0.25 0"/>
<feBlend mode="normal" in2="BackgroundImageFix" result="effect1_dropShadow_425_91"/>
<feBlend mode="normal" in="SourceGraphic" in2="effect1_dropShadow_425_91" result="shape"/>
</filter>
<filter id="filter4_d_425_91" x="92.2322" y="154.611" width="595.324" height="532.57" filterUnits="userSpaceOnUse" color-interpolation-filters="sRGB">
<feFlood flood-opacity="0" result="BackgroundImageFix"/>
<feColorMatrix in="SourceAlpha" type="matrix" values="0 0 0 0 0 0 0 0 0 0 0 0 0 0 0 0 0 0 127 0" result="hardAlpha"/>
<feOffset dx="-10" dy="10"/>
<feGaussianBlur stdDeviation="2.5"/>
<feComposite in2="hardAlpha" operator="out"/>
<feColorMatrix type="matrix" values="0 0 0 0 0 0 0 0 0 0 0 0 0 0 0 0 0 0 0.25 0"/>
<feBlend mode="normal" in2="BackgroundImageFix" result="effect1_dropShadow_425_91"/>
<feBlend mode="normal" in="SourceGraphic" in2="effect1_dropShadow_425_91" result="shape"/>
</filter>
</defs>
</svg>
