<svg width="601" height="535" viewBox="0 0 601 535" fill="none" xmlns="http://www.w3.org/2000/svg">
<g filter="url(#filter0_d_41_260)">
<g filter="url(#filter1_d_41_260)">
<rect x="21.0208" y="21.4607" width="550.431" height="484.008" rx="30" fill="#F6F7F5" fill-opacity="0.8" shape-rendering="crispEdges"/>
<rect x="13.5208" y="13.9607" width="565.431" height="499.008" rx="37.5" stroke="#E1DFDF" stroke-width="15" shape-rendering="crispEdges"/>
</g>
<mask id="mask0_41_260" style="mask-type:alpha" maskUnits="userSpaceOnUse" x="21" y="21" width="551" height="485">
<rect x="21.0208" y="21.4607" width="550.431" height="484.008" rx="30" fill="white" fill-opacity="0.8"/>
</mask>
<g mask="url(#mask0_41_260)">
<g filter="url(#filter2_d_41_260)">
<path d="M206.433 47.3699L112.287 344.375L153.787 432.667L442.687 476.814L565.107 230.592L549.647 168.752L206.433 47.3699Z" fill="#E7E7E7"/>
<path d="M206.433 47.3699L112.287 344.375L153.787 432.667L442.687 476.814L565.107 230.592L549.647 168.752L206.433 47.3699Z" stroke="white"/>
</g>
<g filter="url(#filter3_d_41_260)">
<path d="M38.7218 158.046L255.818 72.0687L464.225 -19.1106L624.001 364.648L198.499 541.805L38.7218 158.046Z" fill="white"/>
</g>
<g filter="url(#filter4_d_41_260)">
<path d="M38.7218 158.046L255.818 72.0687L464.225 -19.1106L624.001 364.648L198.499 541.805L38.7218 158.046Z" fill="white"/>
</g>
<path d="M243.284 267.056C241.901 267.637 240.568 267.917 239.286 267.896C238.011 267.873 236.878 267.572 235.888 266.994C234.901 266.405 234.144 265.561 233.616 264.459L236.256 263.351C236.602 264.019 237.091 264.517 237.721 264.844C238.348 265.164 239.058 265.318 239.85 265.306C240.642 265.294 241.45 265.115 242.274 264.768C243.196 264.381 243.946 263.878 244.524 263.257C245.101 262.637 245.472 261.955 245.637 261.212C245.802 260.469 245.726 259.721 245.409 258.966C245.078 258.177 244.59 257.564 243.947 257.128C243.301 256.684 242.528 256.45 241.63 256.424C240.732 256.398 239.738 256.614 238.649 257.072L236.93 257.793L235.963 255.488L237.681 254.767C238.533 254.409 239.216 253.942 239.73 253.364C240.25 252.784 240.575 252.139 240.703 251.427C240.839 250.713 240.749 249.979 240.432 249.224C240.127 248.498 239.701 247.933 239.154 247.53C238.607 247.127 237.977 246.899 237.264 246.845C236.558 246.788 235.81 246.925 235.021 247.256C234.281 247.567 233.639 247.997 233.097 248.545C232.559 249.083 232.191 249.693 231.993 250.376C231.792 251.052 231.823 251.754 232.087 252.481L229.573 253.537C229.142 252.394 229.068 251.267 229.349 250.155C229.626 249.036 230.179 248.024 231.007 247.118C231.841 246.209 232.876 245.495 234.113 244.976C235.44 244.418 236.691 244.209 237.867 244.348C239.04 244.48 240.065 244.876 240.941 245.535C241.818 246.194 242.468 247.03 242.894 248.043C243.401 249.251 243.516 250.415 243.238 251.534C242.967 252.65 242.359 253.6 241.414 254.383L241.485 254.55C242.933 254.205 244.234 254.337 245.385 254.946C246.534 255.549 247.394 256.531 247.966 257.893C248.455 259.06 248.577 260.241 248.332 261.437C248.09 262.623 247.536 263.71 246.669 264.698C245.802 265.687 244.674 266.472 243.284 267.056ZM252.346 257.73L251.449 255.593L254.615 236.714L256.166 236.063L257.556 239.374L256.508 239.813L254.116 254.079L254.187 254.246L266.886 248.915L267.853 251.22L252.346 257.73ZM264.294 257.891L262.174 252.84L261.756 251.845L255.286 236.432L257.759 235.394L266.767 256.852L264.294 257.891ZM273.627 253.972L272.836 252.086L276.664 241.359C277.114 240.102 277.467 239.026 277.723 238.129C277.977 237.226 278.108 236.423 278.117 235.721C278.13 235.009 277.999 234.324 277.723 233.668C277.407 232.913 276.951 232.336 276.356 231.937C275.768 231.535 275.1 231.314 274.352 231.275C273.605 231.235 272.843 231.378 272.068 231.704C271.244 232.05 270.596 232.523 270.125 233.123C269.658 233.714 269.384 234.383 269.304 235.132C269.231 235.877 269.366 236.659 269.709 237.476L267.236 238.514C266.708 237.257 266.535 236.031 266.716 234.838C266.897 233.644 267.375 232.573 268.151 231.622C268.934 230.669 269.951 229.93 271.201 229.405C272.459 228.878 273.684 228.675 274.878 228.799C276.072 228.922 277.134 229.318 278.064 229.988C278.994 230.657 279.691 231.544 280.154 232.647C280.486 233.437 280.666 234.269 280.697 235.143C280.731 236.008 280.593 237.048 280.281 238.263C279.974 239.469 279.482 240.989 278.807 242.826L276.152 250.004L276.222 250.172L286.197 245.984L287.165 248.289L273.627 253.972Z" fill="black"/>
<path d="M240.813 286.593L239.514 287.138C239.281 286.797 239.008 286.525 238.697 286.322C238.39 286.119 238.06 285.978 237.707 285.9C237.356 285.818 236.995 285.796 236.626 285.836C236.257 285.876 235.894 285.971 235.538 286.121C234.888 286.393 234.369 286.805 233.979 287.354C233.593 287.903 233.379 288.561 233.336 289.331C233.297 290.099 233.473 290.948 233.863 291.877C234.253 292.806 234.735 293.526 235.311 294.036C235.89 294.544 236.511 294.853 237.172 294.961C237.838 295.068 238.495 294.985 239.145 294.712C239.501 294.563 239.823 294.37 240.11 294.135C240.397 293.899 240.635 293.629 240.823 293.324C241.013 293.014 241.144 292.678 241.213 292.316C241.285 291.949 241.282 291.564 241.203 291.161L242.503 290.616C242.635 291.205 242.663 291.771 242.586 292.313C242.51 292.854 242.343 293.357 242.086 293.823C241.828 294.284 241.493 294.694 241.08 295.052C240.671 295.409 240.196 295.701 239.655 295.928C238.74 296.312 237.832 296.43 236.932 296.282C236.032 296.134 235.204 295.734 234.45 295.081C233.695 294.429 233.08 293.536 232.605 292.405C232.13 291.273 231.924 290.209 231.987 289.214C232.049 288.218 232.343 287.347 232.868 286.601C233.392 285.855 234.112 285.289 235.027 284.905C235.569 284.678 236.11 284.543 236.651 284.501C237.195 284.457 237.724 284.507 238.235 284.649C238.746 284.788 239.221 285.02 239.661 285.345C240.1 285.666 240.484 286.082 240.813 286.593ZM249.181 291.953C248.455 292.258 247.745 292.353 247.051 292.237C246.361 292.12 245.732 291.815 245.164 291.323C244.599 290.829 244.142 290.166 243.793 289.335C243.441 288.497 243.286 287.701 243.328 286.948C243.372 286.194 243.595 285.53 243.994 284.955C244.398 284.379 244.962 283.939 245.689 283.634C246.415 283.329 247.124 283.235 247.814 283.352C248.507 283.468 249.137 283.774 249.703 284.272C250.273 284.768 250.734 285.435 251.086 286.273C251.435 287.105 251.586 287.895 251.54 288.646C251.497 289.395 251.274 290.058 250.871 290.634C250.471 291.209 249.908 291.648 249.181 291.953ZM248.715 290.843C249.267 290.611 249.662 290.279 249.899 289.846C250.137 289.414 250.244 288.931 250.222 288.398C250.199 287.866 250.075 287.33 249.849 286.792C249.624 286.254 249.328 285.789 248.962 285.397C248.595 285.004 248.174 284.739 247.698 284.602C247.221 284.465 246.707 284.513 246.155 284.745C245.603 284.976 245.209 285.31 244.973 285.746C244.737 286.182 244.631 286.668 244.655 287.204C244.679 287.741 244.804 288.278 245.03 288.816C245.255 289.354 245.551 289.817 245.915 290.206C246.28 290.595 246.7 290.857 247.175 290.99C247.65 291.123 248.163 291.074 248.715 290.843ZM254.645 289.463L251.266 281.416L252.461 280.914L252.989 282.171L253.094 282.127C253.081 281.628 253.211 281.18 253.485 280.786C253.758 280.388 254.156 280.079 254.68 279.859C255.211 279.636 255.703 279.571 256.157 279.664C256.613 279.752 257.031 279.969 257.41 280.315L257.494 280.28C257.526 279.778 257.696 279.318 258.006 278.901C258.314 278.48 258.756 278.148 259.332 277.906C260.052 277.604 260.735 277.582 261.381 277.841C262.027 278.096 262.548 278.697 262.945 279.643L265.206 285.029L263.97 285.548L261.709 280.162C261.46 279.568 261.119 279.212 260.687 279.094C260.255 278.975 259.819 279.008 259.379 279.193C258.814 279.43 258.447 279.786 258.28 280.258C258.111 280.728 258.136 281.222 258.355 281.743L260.554 286.982L259.297 287.51L256.983 281.998C256.791 281.541 256.488 281.235 256.074 281.08C255.658 280.921 255.216 280.941 254.748 281.137C254.427 281.272 254.162 281.484 253.955 281.772C253.751 282.059 253.627 282.39 253.583 282.766C253.542 283.137 253.604 283.519 253.77 283.914L255.881 288.943L254.645 289.463ZM268.734 287.097L264.089 276.033L265.283 275.531L265.82 276.81L265.966 276.748C265.999 276.57 266.05 276.339 266.119 276.055C266.191 275.766 266.343 275.473 266.575 275.174C266.809 274.87 267.188 274.608 267.712 274.388C268.389 274.104 269.058 274.023 269.717 274.144C270.376 274.266 270.981 274.577 271.532 275.077C272.083 275.577 272.536 276.25 272.89 277.095C273.248 277.947 273.413 278.747 273.386 279.493C273.357 280.237 273.158 280.887 272.788 281.445C272.417 282 271.896 282.417 271.225 282.699C270.708 282.916 270.259 283.004 269.876 282.964C269.492 282.919 269.17 282.822 268.91 282.673C268.648 282.52 268.441 282.389 268.289 282.28L268.184 282.324L269.97 286.578L268.734 287.097ZM266.993 279.546C267.248 280.154 267.562 280.652 267.936 281.042C268.307 281.428 268.719 281.681 269.171 281.799C269.622 281.914 270.096 281.867 270.591 281.659C271.108 281.442 271.483 281.124 271.714 280.707C271.947 280.284 272.054 279.804 272.034 279.266C272.015 278.724 271.886 278.166 271.645 277.593C271.408 277.027 271.106 276.554 270.741 276.173C270.378 275.787 269.966 275.535 269.505 275.416C269.047 275.293 268.555 275.341 268.031 275.561C267.529 275.772 267.159 276.077 266.924 276.475C266.687 276.87 266.577 277.332 266.593 277.859C266.608 278.383 266.741 278.945 266.993 279.546ZM273.189 269.057L277.693 279.787L276.457 280.306L271.953 269.576L273.189 269.057ZM282.405 278.03C281.895 278.245 281.392 278.343 280.896 278.325C280.398 278.304 279.95 278.161 279.551 277.897C279.151 277.63 278.841 277.234 278.622 276.71C278.428 276.249 278.362 275.837 278.423 275.475C278.483 275.109 278.631 274.78 278.866 274.488C279.101 274.196 279.385 273.933 279.718 273.699C280.053 273.46 280.397 273.237 280.75 273.031C281.212 272.763 281.589 272.55 281.88 272.391C282.172 272.227 282.372 272.075 282.478 271.936C282.587 271.796 282.6 271.626 282.517 271.427L282.499 271.385C282.282 270.868 281.972 270.526 281.569 270.358C281.169 270.189 280.685 270.224 280.115 270.463C279.525 270.711 279.117 271.034 278.89 271.434C278.663 271.833 278.543 272.208 278.53 272.558L277.181 272.632C277.185 272.055 277.304 271.557 277.539 271.138C277.776 270.714 278.08 270.36 278.45 270.078C278.822 269.79 279.211 269.561 279.616 269.391C279.874 269.283 280.184 269.189 280.546 269.111C280.91 269.029 281.288 269.015 281.682 269.072C282.079 269.127 282.462 269.301 282.832 269.594C283.201 269.887 283.52 270.353 283.788 270.992L286.014 276.294L284.777 276.813L284.32 275.723L284.257 275.749C284.247 275.959 284.185 276.205 284.073 276.486C283.961 276.767 283.772 277.046 283.506 277.322C283.24 277.598 282.873 277.834 282.405 278.03ZM282.127 276.841C282.616 276.635 282.988 276.366 283.243 276.033C283.501 275.699 283.652 275.344 283.695 274.968C283.742 274.591 283.695 274.235 283.555 273.9L283.08 272.768C283.054 272.853 282.962 272.959 282.806 273.086C282.652 273.208 282.468 273.337 282.254 273.472C282.041 273.602 281.833 273.727 281.628 273.846C281.425 273.96 281.261 274.053 281.136 274.126C280.832 274.303 280.56 274.497 280.32 274.709C280.083 274.916 279.917 275.148 279.823 275.404C279.732 275.656 279.752 275.94 279.884 276.254C280.065 276.684 280.36 276.942 280.77 277.028C281.182 277.11 281.635 277.047 282.127 276.841ZM288.27 275.346L284.892 267.299L286.129 266.78L289.507 274.827L288.27 275.346ZM284.958 265.694C284.717 265.795 284.475 265.8 284.231 265.71C283.991 265.617 283.823 265.456 283.726 265.225C283.629 264.995 283.632 264.762 283.734 264.526C283.84 264.288 284.013 264.119 284.254 264.018C284.495 263.917 284.736 263.912 284.976 264.004C285.219 264.095 285.389 264.256 285.486 264.486C285.583 264.717 285.578 264.951 285.473 265.188C285.371 265.424 285.199 265.593 284.958 265.694ZM290.976 268.517L293.008 273.357L291.771 273.876L288.393 265.83L289.588 265.328L290.115 266.585L290.22 266.541C290.237 266.054 290.386 265.605 290.666 265.196C290.945 264.783 291.388 264.449 291.995 264.194C292.54 263.965 293.064 263.877 293.566 263.929C294.067 263.977 294.526 264.179 294.942 264.534C295.357 264.886 295.708 265.404 295.995 266.089L298.142 271.202L296.905 271.721L294.794 266.692C294.529 266.06 294.158 265.636 293.681 265.421C293.204 265.203 292.678 265.214 292.105 265.454C291.711 265.62 291.394 265.854 291.155 266.155C290.919 266.455 290.782 266.807 290.741 267.21C290.701 267.613 290.779 268.049 290.976 268.517ZM300.523 260.738L300.962 261.785L296.792 263.536L296.352 262.488L300.523 260.738ZM296.758 260.05L297.995 259.531L301.215 267.201C301.361 267.55 301.522 267.791 301.696 267.923C301.873 268.05 302.054 268.109 302.24 268.101C302.427 268.088 302.612 268.044 302.794 267.967C302.93 267.91 303.039 267.856 303.12 267.806C303.2 267.752 303.264 267.708 303.312 267.676L304.03 268.681C303.959 268.748 303.855 268.828 303.718 268.923C303.583 269.021 303.4 269.118 303.169 269.215C302.82 269.361 302.446 269.43 302.048 269.421C301.653 269.41 301.281 269.297 300.932 269.082C300.587 268.865 300.315 268.523 300.119 268.055L296.758 260.05ZM308.695 259.427L307.716 260.207C307.569 260.051 307.39 259.915 307.18 259.797C306.973 259.675 306.73 259.604 306.451 259.586C306.172 259.567 305.853 259.634 305.493 259.785C305 259.991 304.638 260.277 304.405 260.642C304.174 261.002 304.131 261.355 304.276 261.701C304.405 262.008 304.619 262.204 304.917 262.288C305.215 262.372 305.627 262.374 306.152 262.293L307.469 262.085C308.262 261.958 308.91 262 309.414 262.212C309.916 262.42 310.286 262.805 310.522 263.367C310.715 263.828 310.756 264.296 310.643 264.771C310.533 265.244 310.287 265.685 309.903 266.092C309.52 266.5 309.015 266.835 308.39 267.097C307.569 267.442 306.815 267.549 306.128 267.418C305.44 267.288 304.881 266.91 304.451 266.286L305.501 265.5C305.795 265.886 306.142 266.122 306.544 266.208C306.949 266.293 307.405 266.229 307.912 266.016C308.488 265.774 308.894 265.46 309.13 265.073C309.368 264.681 309.415 264.313 309.27 263.967C309.153 263.688 308.957 263.495 308.682 263.388C308.406 263.278 308.045 263.261 307.6 263.337L306.127 263.586C305.317 263.72 304.662 263.677 304.162 263.455C303.665 263.229 303.299 262.838 303.066 262.283C302.875 261.828 302.834 261.373 302.943 260.917C303.054 260.459 303.29 260.038 303.65 259.652C304.014 259.266 304.478 258.954 305.044 258.716C305.841 258.382 306.539 258.294 307.14 258.453C307.744 258.61 308.262 258.934 308.695 259.427Z" fill="black"/>
<path d="M367.586 216.182L366.794 214.296L370.622 203.569C371.072 202.312 371.425 201.235 371.682 200.339C371.935 199.435 372.066 198.633 372.076 197.93C372.089 197.218 371.958 196.534 371.682 195.877C371.365 195.123 370.909 194.546 370.315 194.147C369.727 193.744 369.059 193.523 368.311 193.484C367.563 193.445 366.802 193.588 366.026 193.913C365.202 194.259 364.554 194.732 364.083 195.333C363.616 195.923 363.343 196.593 363.263 197.341C363.19 198.087 363.324 198.868 363.668 199.685L361.195 200.723C360.667 199.466 360.494 198.241 360.674 197.047C360.855 195.854 361.334 194.782 362.11 193.832C362.893 192.879 363.91 192.14 365.16 191.615C366.417 191.087 367.643 190.885 368.837 191.008C370.031 191.131 371.092 191.528 372.023 192.197C372.953 192.866 373.649 193.753 374.113 194.857C374.444 195.646 374.625 196.478 374.655 197.353C374.69 198.217 374.551 199.257 374.24 200.473C373.932 201.678 373.441 203.199 372.766 205.035L370.11 212.214L370.181 212.381L380.155 208.194L381.123 210.499L367.586 216.182ZM392.573 206.037C390.994 206.7 389.469 206.835 387.998 206.442C386.524 206.042 385.148 205.145 383.873 203.749C382.594 202.347 381.465 200.48 380.485 198.146C379.512 195.827 378.974 193.724 378.871 191.836C378.773 189.938 379.097 188.323 379.844 186.991C380.595 185.648 381.753 184.649 383.318 183.992C384.883 183.335 386.404 183.21 387.881 183.617C389.362 184.014 390.742 184.914 392.021 186.316C393.304 187.708 394.432 189.564 395.406 191.883C396.385 194.216 396.927 196.33 397.033 198.225C397.135 200.112 396.813 201.723 396.066 203.055C395.316 204.38 394.151 205.375 392.573 206.037ZM391.605 203.732C393.17 203.075 394.068 201.811 394.301 199.938C394.534 198.066 394.064 195.733 392.891 192.938C392.111 191.08 391.248 189.582 390.301 188.443C389.362 187.301 388.378 186.543 387.35 186.169C386.329 185.793 385.302 185.821 384.268 186.255C382.717 186.906 381.827 188.18 381.596 190.076C381.362 191.965 381.83 194.304 383 197.091C383.78 198.949 384.638 200.445 385.575 201.58C386.511 202.715 387.489 203.468 388.507 203.837C389.531 204.204 390.564 204.169 391.605 203.732Z" fill="black"/>
<path d="M370.752 229.754L375.257 240.483L373.957 241.028L369.453 230.299L370.752 229.754ZM380.772 230.822L379.794 231.602C379.646 231.447 379.468 231.31 379.258 231.193C379.051 231.07 378.807 231 378.528 230.981C378.25 230.963 377.93 231.029 377.571 231.18C377.078 231.387 376.715 231.673 376.482 232.037C376.251 232.397 376.208 232.75 376.354 233.096C376.483 233.403 376.696 233.599 376.995 233.683C377.293 233.768 377.704 233.77 378.229 233.689L379.547 233.481C380.34 233.353 380.988 233.395 381.492 233.607C381.994 233.815 382.363 234.201 382.599 234.763C382.793 235.224 382.833 235.692 382.72 236.166C382.611 236.64 382.364 237.08 381.981 237.487C381.597 237.895 381.093 238.23 380.468 238.492C379.647 238.837 378.893 238.944 378.205 238.813C377.518 238.683 376.959 238.306 376.528 237.681L377.579 236.895C377.872 237.281 378.22 237.517 378.622 237.603C379.027 237.688 379.483 237.624 379.989 237.411C380.566 237.17 380.972 236.855 381.208 236.468C381.446 236.077 381.493 235.708 381.347 235.362C381.23 235.083 381.034 234.89 380.759 234.783C380.483 234.674 380.123 234.656 379.678 234.732L378.205 234.981C377.395 235.116 376.74 235.072 376.24 234.851C375.742 234.624 375.377 234.233 375.144 233.678C374.953 233.224 374.912 232.769 375.02 232.312C375.132 231.855 375.368 231.433 375.728 231.048C376.091 230.661 376.556 230.349 377.122 230.111C377.918 229.777 378.617 229.689 379.217 229.848C379.821 230.005 380.34 230.33 380.772 230.822ZM388.48 227.586L387.501 228.367C387.354 228.211 387.175 228.074 386.966 227.957C386.758 227.834 386.515 227.764 386.236 227.746C385.957 227.727 385.638 227.793 385.278 227.944C384.786 228.151 384.423 228.437 384.19 228.802C383.959 229.162 383.916 229.514 384.061 229.86C384.19 230.168 384.404 230.363 384.702 230.448C385.001 230.532 385.412 230.534 385.937 230.453L387.255 230.245C388.047 230.118 388.696 230.16 389.2 230.371C389.702 230.58 390.071 230.965 390.307 231.527C390.501 231.988 390.541 232.456 390.428 232.931C390.318 233.404 390.072 233.844 389.688 234.252C389.305 234.659 388.801 234.994 388.175 235.257C387.355 235.601 386.601 235.708 385.913 235.578C385.226 235.447 384.667 235.07 384.236 234.445L385.287 233.659C385.58 234.046 385.928 234.282 386.329 234.368C386.735 234.452 387.191 234.388 387.697 234.176C388.273 233.934 388.679 233.619 388.916 233.233C389.154 232.841 389.2 232.472 389.055 232.127C388.938 231.847 388.742 231.654 388.467 231.548C388.191 231.438 387.83 231.421 387.386 231.496L385.913 231.745C385.102 231.88 384.447 231.836 383.948 231.615C383.45 231.388 383.084 230.997 382.851 230.442C382.661 229.988 382.62 229.533 382.728 229.077C382.84 228.619 383.076 228.197 383.436 227.812C383.799 227.425 384.264 227.113 384.83 226.876C385.626 226.541 386.324 226.453 386.925 226.612C387.529 226.769 388.048 227.094 388.48 227.586ZM396.8 227.569L394.803 222.812L396.039 222.293L399.417 230.34L398.181 230.859L397.609 229.497L397.525 229.532C397.508 230.02 397.361 230.491 397.083 230.944C396.803 231.394 396.36 231.747 395.752 232.002C395.249 232.213 394.756 232.291 394.272 232.235C393.787 232.176 393.339 231.969 392.928 231.616C392.515 231.259 392.165 230.739 391.878 230.054L389.731 224.941L390.968 224.422L393.079 229.451C393.325 230.038 393.686 230.437 394.161 230.649C394.639 230.859 395.135 230.856 395.649 230.64C395.956 230.511 396.236 230.301 396.487 230.011C396.743 229.719 396.911 229.365 396.991 228.949C397.074 228.532 397.011 228.072 396.8 227.569ZM405.126 228.141C404.35 228.466 403.61 228.576 402.904 228.47C402.2 228.358 401.566 228.057 401.003 227.567C400.441 227.071 399.988 226.411 399.642 225.587C399.296 224.763 399.141 223.973 399.177 223.219C399.216 222.459 399.432 221.789 399.825 221.209C400.22 220.624 400.781 220.179 401.508 219.874C401.927 219.698 402.37 219.594 402.837 219.562C403.304 219.531 403.772 219.601 404.239 219.775C404.705 219.945 405.145 220.245 405.56 220.675C405.974 221.105 406.339 221.695 406.654 222.446L406.874 222.97L400.671 225.574L400.223 224.505L405.168 222.429C404.978 221.975 404.717 221.608 404.386 221.328C404.058 221.046 403.685 220.872 403.267 220.806C402.852 220.737 402.421 220.797 401.974 220.985C401.481 221.191 401.107 221.493 400.85 221.888C400.594 222.279 400.452 222.708 400.423 223.176C400.394 223.645 400.472 224.101 400.658 224.544L400.957 225.257C401.212 225.864 401.533 226.336 401.92 226.67C402.309 227 402.739 227.196 403.208 227.257C403.676 227.315 404.16 227.24 404.66 227.03C404.984 226.894 405.259 226.725 405.483 226.524C405.708 226.319 405.879 226.083 405.993 225.817C406.106 225.548 406.156 225.252 406.143 224.928L407.479 224.762C407.523 225.22 407.461 225.665 407.293 226.097C407.124 226.525 406.857 226.917 406.492 227.271C406.126 227.622 405.671 227.912 405.126 228.141ZM413.346 217.147L412.368 217.928C412.22 217.772 412.042 217.635 411.832 217.518C411.625 217.395 411.381 217.325 411.103 217.306C410.824 217.288 410.504 217.354 410.145 217.505C409.652 217.712 409.289 217.998 409.056 218.363C408.825 218.722 408.783 219.075 408.928 219.421C409.057 219.728 409.27 219.924 409.569 220.009C409.867 220.093 410.279 220.095 410.803 220.014L412.121 219.806C412.914 219.678 413.562 219.721 414.066 219.932C414.568 220.14 414.937 220.526 415.173 221.088C415.367 221.549 415.407 222.017 415.294 222.491C415.185 222.965 414.938 223.405 414.555 223.813C414.171 224.22 413.667 224.555 413.042 224.817C412.221 225.162 411.467 225.269 410.78 225.139C410.092 225.008 409.533 224.631 409.103 224.006L410.153 223.22C410.447 223.606 410.794 223.843 411.196 223.929C411.601 224.013 412.057 223.949 412.563 223.737C413.14 223.495 413.546 223.18 413.782 222.794C414.02 222.402 414.067 222.033 413.922 221.687C413.804 221.408 413.608 221.215 413.333 221.109C413.057 220.999 412.697 220.982 412.252 221.057L410.779 221.306C409.969 221.441 409.314 221.397 408.814 221.176C408.316 220.949 407.951 220.558 407.718 220.003C407.527 219.549 407.486 219.094 407.594 218.637C407.706 218.18 407.942 217.758 408.302 217.373C408.666 216.986 409.13 216.674 409.696 216.437C410.492 216.102 411.191 216.014 411.791 216.173C412.396 216.33 412.914 216.655 413.346 217.147Z" fill="black"/>
<path d="M377.524 296.518C376.085 297.122 374.707 297.401 373.389 297.354C372.075 297.298 370.922 296.948 369.929 296.305C368.933 295.655 368.195 294.749 367.715 293.586C367.327 292.681 367.153 291.768 367.194 290.847C367.232 289.92 367.456 289.065 367.868 288.284C368.284 287.494 368.853 286.864 369.577 286.396L369.524 286.27C368.386 286.436 367.327 286.203 366.347 285.571C365.364 284.932 364.637 284.042 364.166 282.9C363.701 281.813 363.568 280.723 363.766 279.629C363.964 278.535 364.448 277.535 365.218 276.629C365.995 275.719 367.012 275.001 368.269 274.473C369.512 273.951 370.727 273.733 371.913 273.818C373.099 273.904 374.152 274.259 375.072 274.883C375.998 275.505 376.694 276.359 377.158 277.446C377.629 278.587 377.745 279.734 377.506 280.886C377.27 282.028 376.705 282.943 375.811 283.631L375.864 283.757C376.698 283.571 377.536 283.61 378.377 283.873C379.216 284.128 379.983 284.566 380.679 285.186C381.372 285.799 381.912 286.558 382.3 287.463C382.78 288.626 382.9 289.792 382.659 290.961C382.423 292.12 381.865 293.188 380.985 294.165C380.11 295.133 378.956 295.917 377.524 296.518ZM376.556 294.213C377.527 293.806 378.299 293.296 378.873 292.686C379.446 292.075 379.805 291.403 379.949 290.669C380.092 289.935 380.007 289.182 379.691 288.411C379.344 287.604 378.834 286.976 378.161 286.527C377.487 286.078 376.72 285.825 375.858 285.768C375.003 285.708 374.121 285.869 373.213 286.25C372.298 286.634 371.556 287.155 370.986 287.814C370.423 288.469 370.066 289.194 369.915 289.989C369.77 290.78 369.872 291.58 370.219 292.387C370.535 293.159 371.001 293.752 371.619 294.166C372.244 294.577 372.978 294.791 373.823 294.806C374.667 294.821 375.578 294.624 376.556 294.213ZM372.281 284.029C373.049 283.706 373.666 283.267 374.13 282.71C374.602 282.15 374.893 281.523 375.004 280.827C375.114 280.132 375.018 279.412 374.714 278.669C374.402 277.946 373.965 277.385 373.404 276.988C372.84 276.584 372.2 276.36 371.483 276.316C370.763 276.265 370.008 276.405 369.219 276.736C368.416 277.073 367.777 277.518 367.302 278.071C366.825 278.616 366.536 279.231 366.437 279.913C366.334 280.589 366.439 281.288 366.751 282.012C367.055 282.755 367.49 283.333 368.057 283.744C368.631 284.152 369.283 284.383 370.012 284.439C370.742 284.494 371.498 284.357 372.281 284.029ZM392.983 275.707L393.951 278.012L384.563 281.954L383.595 279.649L392.983 275.707ZM399.98 261.16C400.863 260.798 401.814 260.596 402.832 260.555C403.85 260.514 404.882 260.721 405.928 261.178C406.971 261.627 407.987 262.413 408.975 263.534C409.964 264.656 410.871 266.201 411.698 268.171C412.499 270.078 413.028 271.848 413.287 273.482C413.549 275.105 413.554 276.565 413.302 277.863C413.056 279.157 412.562 280.268 411.818 281.197C411.081 282.123 410.108 282.839 408.9 283.346C407.698 283.851 406.526 284.063 405.384 283.984C404.245 283.895 403.197 283.551 402.239 282.951C401.284 282.341 400.486 281.505 399.843 280.444L402.399 279.371C403.043 280.259 403.843 280.881 404.797 281.236C405.755 281.581 406.8 281.516 407.932 281.041C409.587 280.346 410.59 279.075 410.94 277.227C411.297 275.377 410.921 273.131 409.813 270.491L409.645 270.561C409.5 271.312 409.248 272.014 408.889 272.665C408.53 273.317 408.071 273.896 407.511 274.403C406.951 274.909 406.301 275.317 405.561 275.628C404.331 276.144 403.076 276.314 401.794 276.137C400.516 275.951 399.345 275.452 398.282 274.641C397.223 273.821 396.403 272.719 395.822 271.336C395.271 270.023 395.06 268.698 395.189 267.362C395.322 266.016 395.787 264.794 396.583 263.696C397.386 262.595 398.518 261.749 399.98 261.16ZM400.948 263.466C400.068 263.835 399.367 264.388 398.846 265.124C398.33 265.85 398.021 266.67 397.919 267.584C397.822 268.487 397.961 269.386 398.337 270.28C398.712 271.174 399.249 271.906 399.948 272.475C400.651 273.035 401.436 273.387 402.302 273.533C403.173 273.669 404.048 273.552 404.928 273.182C405.592 272.904 406.156 272.515 406.62 272.016C407.081 271.51 407.43 270.941 407.665 270.308C407.905 269.665 408.025 269.002 408.026 268.32C408.024 267.63 407.89 266.968 407.623 266.332C407.271 265.494 406.739 264.793 406.026 264.23C405.32 263.664 404.519 263.302 403.623 263.144C402.733 262.983 401.842 263.09 400.948 263.466ZM425.628 276.422C424.609 276.85 423.602 277.047 422.61 277.011C421.614 276.969 420.718 276.684 419.921 276.156C419.122 275.621 418.502 274.829 418.062 273.781C417.675 272.859 417.543 272.036 417.665 271.311C417.785 270.578 418.08 269.92 418.55 269.337C419.02 268.754 419.588 268.228 420.254 267.759C420.924 267.281 421.612 266.835 422.319 266.424C423.244 265.888 423.997 265.461 424.578 265.143C425.164 264.815 425.562 264.512 425.774 264.234C425.993 263.953 426.019 263.613 425.852 263.215L425.817 263.131C425.383 262.098 424.763 261.413 423.956 261.078C423.157 260.74 422.188 260.809 421.05 261.287C419.869 261.783 419.052 262.43 418.598 263.228C418.145 264.027 417.905 264.777 417.879 265.478L415.18 265.625C415.189 264.471 415.428 263.475 415.898 262.637C416.371 261.789 416.978 261.082 417.719 260.517C418.463 259.941 419.241 259.483 420.051 259.143C420.568 258.926 421.188 258.74 421.911 258.584C422.639 258.418 423.396 258.392 424.183 258.505C424.977 258.616 425.743 258.964 426.482 259.549C427.221 260.135 427.858 261.066 428.395 262.345L432.846 272.948L430.374 273.986L429.459 271.807L429.333 271.86C429.312 272.279 429.19 272.77 428.966 273.333C428.741 273.895 428.363 274.452 427.831 275.005C427.299 275.557 426.564 276.029 425.628 276.422ZM425.073 274.042C426.051 273.632 426.795 273.094 427.304 272.428C427.82 271.759 428.122 271.049 428.209 270.298C428.303 269.544 428.21 268.831 427.928 268.161L426.978 265.897C426.926 266.067 426.744 266.279 426.432 266.534C426.123 266.778 425.755 267.035 425.326 267.306C424.901 267.566 424.484 267.815 424.075 268.053C423.669 268.281 423.341 268.468 423.09 268.614C422.483 268.968 421.939 269.356 421.459 269.779C420.984 270.193 420.653 270.656 420.466 271.17C420.283 271.674 420.324 272.24 420.587 272.869C420.948 273.728 421.539 274.245 422.359 274.418C423.184 274.581 424.088 274.456 425.073 274.042ZM437.36 271.054L430.603 254.96L432.992 253.957L434.048 256.471L434.258 256.383C434.232 255.384 434.494 254.489 435.042 253.7C435.587 252.905 436.383 252.287 437.431 251.847C438.493 251.401 439.477 251.271 440.385 251.457C441.297 251.633 442.132 252.067 442.891 252.759L443.059 252.689C443.122 251.684 443.463 250.765 444.082 249.93C444.698 249.088 445.583 248.425 446.735 247.941C448.174 247.337 449.54 247.293 450.834 247.81C452.124 248.32 453.167 249.522 453.961 251.415L458.483 262.186L456.01 263.224L451.488 252.453C450.99 251.265 450.309 250.553 449.445 250.316C448.581 250.079 447.71 250.145 446.829 250.514C445.698 250.989 444.965 251.7 444.631 252.645C444.293 253.584 444.343 254.573 444.78 255.614L449.179 266.092L446.664 267.148L442.037 256.125C441.653 255.21 441.046 254.598 440.218 254.288C439.387 253.971 438.503 254.01 437.567 254.403C436.924 254.672 436.396 255.096 435.98 255.673C435.572 256.246 435.325 256.909 435.237 257.661C435.154 258.402 435.278 259.167 435.61 259.957L439.833 270.015L437.36 271.054Z" fill="black"/>
<path d="M379.428 322.895L374.924 312.166L378.675 310.591C379.422 310.277 380.093 310.148 380.687 310.202C381.279 310.254 381.785 310.446 382.204 310.779C382.622 311.109 382.941 311.536 383.161 312.06C383.355 312.521 383.432 312.936 383.394 313.305C383.36 313.673 383.246 314 383.054 314.286C382.866 314.571 382.635 314.819 382.363 315.032L382.407 315.137C382.744 315.02 383.123 314.997 383.542 315.067C383.962 315.137 384.366 315.321 384.754 315.619C385.141 315.916 385.454 316.348 385.691 316.913C385.917 317.451 385.998 317.986 385.934 318.518C385.87 319.051 385.627 319.553 385.205 320.026C384.783 320.499 384.15 320.913 383.305 321.268L379.428 322.895ZM380.243 321.197L382.821 320.115C383.669 319.759 384.203 319.342 384.421 318.864C384.642 318.381 384.653 317.904 384.455 317.432C384.303 317.069 384.069 316.773 383.755 316.543C383.44 316.31 383.072 316.173 382.652 316.131C382.23 316.086 381.786 316.162 381.318 316.359L378.677 317.467L380.243 321.197ZM378.202 316.335L380.612 315.324C381.003 315.16 381.324 314.935 381.574 314.649C381.827 314.362 381.987 314.04 382.055 313.683C382.127 313.324 382.083 312.956 381.925 312.579C381.727 312.107 381.395 311.776 380.929 311.586C380.461 311.392 379.871 311.445 379.158 311.744L376.707 312.773L378.202 316.335ZM392.545 313.518L390.548 308.762L391.785 308.242L395.163 316.289L393.926 316.808L393.355 315.446L393.271 315.482C393.254 315.969 393.106 316.44 392.828 316.894C392.549 317.344 392.105 317.696 391.498 317.951C390.995 318.162 390.501 318.24 390.018 318.184C389.533 318.125 389.085 317.919 388.674 317.566C388.261 317.209 387.911 316.688 387.624 316.004L385.477 310.89L386.713 310.371L388.825 315.401C389.071 315.988 389.432 316.387 389.907 316.598C390.385 316.808 390.881 316.805 391.394 316.59C391.702 316.461 391.981 316.251 392.233 315.96C392.488 315.668 392.656 315.314 392.736 314.899C392.82 314.481 392.756 314.021 392.545 313.518ZM400.506 306.701L399.527 307.482C399.379 307.326 399.201 307.189 398.991 307.072C398.784 306.949 398.541 306.879 398.262 306.861C397.983 306.842 397.663 306.908 397.304 307.059C396.811 307.266 396.449 307.552 396.216 307.917C395.985 308.277 395.942 308.629 396.087 308.975C396.216 309.283 396.43 309.478 396.728 309.563C397.026 309.647 397.438 309.649 397.963 309.568L399.28 309.36C400.073 309.233 400.721 309.275 401.225 309.486C401.727 309.695 402.097 310.08 402.333 310.642C402.526 311.103 402.566 311.571 402.453 312.046C402.344 312.519 402.097 312.959 401.714 313.367C401.33 313.774 400.826 314.109 400.201 314.372C399.38 314.716 398.626 314.823 397.939 314.693C397.251 314.562 396.692 314.185 396.262 313.56L397.312 312.774C397.606 313.161 397.953 313.397 398.355 313.483C398.76 313.567 399.216 313.503 399.723 313.291C400.299 313.049 400.705 312.734 400.941 312.348C401.179 311.956 401.226 311.587 401.081 311.242C400.963 310.962 400.767 310.769 400.493 310.663C400.216 310.553 399.856 310.536 399.411 310.611L397.938 310.86C397.128 310.995 396.473 310.951 395.973 310.73C395.475 310.503 395.11 310.112 394.877 309.557C394.686 309.103 394.645 308.648 394.753 308.192C394.865 307.734 395.101 307.312 395.461 306.927C395.825 306.54 396.289 306.228 396.855 305.991C397.651 305.656 398.35 305.568 398.951 305.727C399.555 305.884 400.073 306.209 400.506 306.701ZM405.135 312.103L401.757 304.056L402.993 303.537L406.371 311.584L405.135 312.103ZM401.822 302.451C401.581 302.552 401.339 302.557 401.096 302.466C400.856 302.374 400.687 302.213 400.59 301.982C400.494 301.752 400.496 301.518 400.599 301.282C400.704 301.045 400.878 300.876 401.119 300.775C401.36 300.673 401.6 300.669 401.84 300.761C402.084 300.852 402.254 301.013 402.351 301.243C402.447 301.474 402.443 301.708 402.337 301.945C402.235 302.181 402.063 302.35 401.822 302.451ZM412.08 309.385C411.305 309.71 410.564 309.82 409.858 309.714C409.154 309.602 408.52 309.301 407.957 308.811C407.396 308.315 406.942 307.655 406.596 306.831C406.25 306.007 406.095 305.217 406.132 304.463C406.17 303.703 406.386 303.033 406.779 302.453C407.175 301.868 407.735 301.423 408.462 301.118C408.881 300.942 409.324 300.838 409.791 300.806C410.259 300.774 410.726 300.845 411.193 301.019C411.659 301.189 412.099 301.489 412.514 301.919C412.928 302.349 413.293 302.939 413.609 303.69L413.829 304.214L407.626 306.818L407.177 305.749L412.123 303.673C411.932 303.219 411.671 302.852 411.34 302.572C411.012 302.29 410.639 302.116 410.221 302.049C409.806 301.981 409.375 302.041 408.928 302.229C408.436 302.435 408.061 302.737 407.804 303.132C407.549 303.523 407.406 303.952 407.377 304.42C407.348 304.889 407.426 305.345 407.612 305.788L407.912 306.501C408.167 307.108 408.488 307.579 408.875 307.914C409.264 308.244 409.693 308.439 410.163 308.501C410.631 308.559 411.114 308.484 411.614 308.274C411.939 308.138 412.213 307.969 412.437 307.768C412.663 307.563 412.833 307.327 412.947 307.061C413.06 306.792 413.11 306.495 413.098 306.172L414.433 306.006C414.477 306.464 414.416 306.909 414.248 307.341C414.078 307.769 413.811 308.161 413.447 308.515C413.08 308.866 412.625 309.156 412.08 309.385ZM420.301 298.391L419.322 299.172C419.175 299.016 418.996 298.879 418.786 298.762C418.579 298.639 418.336 298.569 418.057 298.55C417.778 298.532 417.459 298.598 417.099 298.749C416.606 298.956 416.244 299.242 416.011 299.607C415.78 299.966 415.737 300.319 415.882 300.665C416.011 300.972 416.225 301.168 416.523 301.252C416.821 301.337 417.233 301.339 417.758 301.258L419.075 301.05C419.868 300.922 420.516 300.965 421.02 301.176C421.522 301.384 421.892 301.77 422.128 302.332C422.321 302.793 422.362 303.261 422.249 303.735C422.139 304.209 421.893 304.649 421.509 305.056C421.126 305.464 420.621 305.799 419.996 306.061C419.175 306.406 418.421 306.513 417.734 306.383C417.046 306.252 416.487 305.875 416.057 305.25L417.107 304.464C417.401 304.85 417.748 305.086 418.15 305.173C418.555 305.257 419.011 305.193 419.518 304.981C420.094 304.739 420.5 304.424 420.736 304.038C420.974 303.646 421.021 303.277 420.876 302.931C420.759 302.652 420.563 302.459 420.288 302.353C420.012 302.243 419.651 302.225 419.206 302.301L417.733 302.55C416.923 302.685 416.268 302.641 415.768 302.42C415.271 302.193 414.905 301.802 414.672 301.247C414.481 300.793 414.44 300.338 414.549 299.881C414.66 299.424 414.896 299.002 415.256 298.617C415.62 298.23 416.084 297.918 416.65 297.68C417.447 297.346 418.145 297.258 418.746 297.417C419.35 297.574 419.868 297.899 420.301 298.391ZM425.052 294.277L425.491 295.325L421.321 297.075L420.881 296.027L425.052 294.277ZM421.287 293.589L422.524 293.07L425.744 300.74C425.89 301.089 426.051 301.33 426.226 301.462C426.402 301.589 426.583 301.649 426.769 301.641C426.956 301.628 427.141 301.583 427.323 301.507C427.459 301.45 427.568 301.396 427.649 301.345C427.729 301.291 427.793 301.248 427.841 301.215L428.559 302.22C428.488 302.287 428.384 302.367 428.247 302.462C428.112 302.56 427.929 302.657 427.698 302.754C427.349 302.901 426.975 302.969 426.577 302.96C426.182 302.949 425.81 302.836 425.461 302.621C425.116 302.405 424.845 302.062 424.648 301.594L421.287 293.589ZM429.999 290.4L429.515 289.248L437.562 285.87L438.046 287.022L434.672 288.439L438.693 298.015L437.393 298.561L433.373 288.984L429.999 290.4ZM443.904 295.827L440.526 287.78L441.762 287.261L445.141 295.308L443.904 295.827ZM440.592 286.175C440.351 286.277 440.108 286.282 439.865 286.191C439.625 286.099 439.456 285.937 439.36 285.707C439.263 285.476 439.266 285.243 439.368 285.007C439.473 284.769 439.647 284.6 439.888 284.499C440.129 284.398 440.369 284.393 440.609 284.486C440.853 284.577 441.023 284.737 441.12 284.968C441.217 285.198 441.212 285.432 441.106 285.67C441.004 285.906 440.833 286.074 440.592 286.175ZM447.405 294.358L444.027 286.311L445.221 285.809L445.749 287.067L445.854 287.023C445.841 286.523 445.972 286.076 446.246 285.681C446.518 285.283 446.917 284.974 447.441 284.754C447.971 284.532 448.464 284.467 448.918 284.56C449.374 284.647 449.791 284.864 450.171 285.21L450.255 285.175C450.286 284.673 450.457 284.213 450.766 283.796C451.074 283.375 451.516 283.043 452.093 282.801C452.812 282.499 453.495 282.478 454.142 282.736C454.787 282.991 455.308 283.592 455.706 284.538L457.967 289.924L456.73 290.443L454.469 285.057C454.22 284.464 453.88 284.107 453.448 283.989C453.016 283.87 452.58 283.903 452.14 284.088C451.574 284.326 451.208 284.681 451.04 285.153C450.872 285.623 450.897 286.118 451.115 286.638L453.314 291.877L452.057 292.405L449.743 286.893C449.551 286.436 449.248 286.13 448.834 285.975C448.418 285.817 447.977 285.836 447.509 286.032C447.187 286.167 446.923 286.379 446.715 286.667C446.511 286.954 446.387 287.286 446.344 287.661C446.302 288.032 446.364 288.415 446.53 288.809L448.641 293.839L447.405 294.358ZM463.671 287.726C462.896 288.052 462.155 288.161 461.449 288.055C460.745 287.944 460.112 287.643 459.548 287.152C458.987 286.657 458.533 285.997 458.187 285.173C457.841 284.348 457.686 283.559 457.723 282.804C457.761 282.044 457.977 281.375 458.371 280.794C458.766 280.21 459.327 279.765 460.053 279.46C460.472 279.284 460.915 279.18 461.383 279.148C461.85 279.116 462.317 279.187 462.785 279.36C463.25 279.531 463.691 279.831 464.105 280.26C464.52 280.69 464.885 281.281 465.2 282.031L465.42 282.555L459.217 285.159L458.768 284.091L463.714 282.014C463.523 281.56 463.262 281.193 462.931 280.913C462.604 280.632 462.231 280.458 461.812 280.391C461.397 280.323 460.966 280.383 460.519 280.57C460.027 280.777 459.652 281.078 459.395 281.474C459.14 281.864 458.998 282.294 458.968 282.762C458.939 283.23 459.018 283.686 459.204 284.13L459.503 284.842C459.758 285.45 460.079 285.921 460.466 286.256C460.855 286.585 461.284 286.781 461.754 286.843C462.222 286.901 462.706 286.825 463.205 286.616C463.53 286.479 463.804 286.311 464.028 286.11C464.254 285.904 464.424 285.668 464.538 285.403C464.651 285.133 464.702 284.837 464.689 284.514L466.024 284.347C466.069 284.805 466.007 285.25 465.839 285.682C465.67 286.111 465.403 286.502 465.038 286.857C464.672 287.208 464.216 287.497 463.671 287.726Z" fill="black"/>
<path d="M283.247 328.92L282.35 326.783L285.516 307.904L287.067 307.253L288.457 310.564L287.409 311.004L285.017 325.269L285.088 325.436L297.787 320.105L298.755 322.41L283.247 328.92ZM295.195 329.081L293.075 324.03L292.657 323.035L286.187 307.622L288.66 306.584L297.668 328.043L295.195 329.081Z" fill="black"/>
<path d="M280.838 362.63L276.334 351.9L279.959 350.379C280.797 350.027 281.545 349.881 282.203 349.942C282.86 349.999 283.422 350.221 283.888 350.608C284.355 350.996 284.721 351.506 284.986 352.138C285.252 352.77 285.358 353.385 285.305 353.982C285.252 354.58 285.016 355.13 284.599 355.634C284.181 356.134 283.556 356.559 282.725 356.908L279.791 358.14L279.298 356.966L282.19 355.752C282.763 355.512 283.189 355.234 283.468 354.92C283.75 354.604 283.905 354.26 283.933 353.886C283.964 353.508 283.888 353.104 283.708 352.674C283.528 352.245 283.29 351.903 282.994 351.649C282.699 351.395 282.338 351.255 281.912 351.229C281.484 351.199 280.981 351.305 280.401 351.549L278.117 352.508L282.137 362.084L280.838 362.63ZM283.865 355.69L288.529 359.401L287.02 360.035L282.398 356.306L283.865 355.69ZM293.36 357.57C292.633 357.875 291.923 357.97 291.23 357.854C290.54 357.737 289.911 357.432 289.342 356.94C288.778 356.446 288.321 355.783 287.972 354.952C287.62 354.113 287.465 353.318 287.506 352.565C287.551 351.811 287.773 351.147 288.173 350.572C288.576 349.996 289.141 349.556 289.867 349.251C290.594 348.946 291.302 348.852 291.992 348.969C292.685 349.084 293.315 349.391 293.882 349.889C294.451 350.385 294.912 351.052 295.264 351.89C295.613 352.721 295.764 353.512 295.718 354.263C295.675 355.012 295.452 355.675 295.049 356.251C294.649 356.825 294.086 357.265 293.36 357.57ZM292.894 356.459C293.445 356.228 293.84 355.896 294.078 355.463C294.315 355.031 294.423 354.548 294.4 354.015C294.378 353.482 294.254 352.947 294.028 352.409C293.802 351.871 293.506 351.406 293.14 351.013C292.774 350.621 292.352 350.356 291.876 350.219C291.4 350.082 290.885 350.13 290.334 350.361C289.782 350.593 289.388 350.927 289.152 351.363C288.916 351.799 288.81 352.285 288.834 352.821C288.857 353.358 288.982 353.895 289.208 354.433C289.434 354.97 289.729 355.434 290.094 355.823C290.458 356.212 290.878 356.474 291.353 356.607C291.828 356.74 292.342 356.691 292.894 356.459ZM302.513 349.66L300.516 344.904L301.752 344.385L305.131 352.431L303.894 352.95L303.322 351.588L303.239 351.624C303.222 352.111 303.074 352.582 302.796 353.036C302.517 353.486 302.073 353.838 301.465 354.093C300.963 354.304 300.469 354.382 299.986 354.326C299.501 354.267 299.053 354.061 298.641 353.708C298.229 353.351 297.879 352.83 297.591 352.146L295.445 347.032L296.681 346.513L298.793 351.543C299.039 352.13 299.4 352.529 299.874 352.74C300.353 352.95 300.849 352.947 301.362 352.732C301.67 352.603 301.949 352.393 302.201 352.102C302.456 351.81 302.624 351.456 302.704 351.041C302.788 350.623 302.724 350.163 302.513 349.66ZM307.517 341.965L307.956 343.012L303.786 344.763L303.346 343.715L307.517 341.965ZM303.752 341.277L304.989 340.758L308.209 348.428C308.355 348.777 308.516 349.018 308.691 349.15C308.867 349.277 309.048 349.337 309.234 349.329C309.421 349.316 309.606 349.271 309.788 349.195C309.924 349.137 310.033 349.084 310.114 349.033C310.194 348.979 310.258 348.936 310.306 348.903L311.024 349.908C310.953 349.975 310.849 350.055 310.712 350.15C310.577 350.248 310.394 350.345 310.163 350.442C309.814 350.589 309.44 350.657 309.042 350.648C308.647 350.637 308.275 350.524 307.926 350.309C307.581 350.092 307.31 349.75 307.113 349.282L303.752 341.277ZM316.112 348.018C315.337 348.344 314.596 348.454 313.89 348.347C313.186 348.236 312.553 347.935 311.989 347.445C311.428 346.949 310.974 346.289 310.628 345.465C310.282 344.641 310.127 343.851 310.164 343.096C310.202 342.337 310.418 341.667 310.811 341.087C311.207 340.502 311.768 340.057 312.494 339.752C312.913 339.576 313.356 339.472 313.824 339.44C314.291 339.408 314.758 339.479 315.225 339.653C315.691 339.823 316.131 340.123 316.546 340.553C316.961 340.982 317.326 341.573 317.641 342.324L317.861 342.848L311.658 345.452L311.209 344.383L316.155 342.307C315.964 341.853 315.703 341.486 315.372 341.206C315.044 340.924 314.671 340.75 314.253 340.683C313.838 340.615 313.407 340.675 312.96 340.863C312.468 341.069 312.093 341.37 311.836 341.766C311.581 342.156 311.439 342.586 311.409 343.054C311.38 343.522 311.458 343.978 311.645 344.422L311.944 345.134C312.199 345.742 312.52 346.213 312.907 346.548C313.296 346.878 313.725 347.073 314.195 347.135C314.663 347.193 315.147 347.117 315.646 346.908C315.971 346.771 316.245 346.603 316.469 346.402C316.695 346.196 316.865 345.961 316.979 345.695C317.092 345.426 317.142 345.129 317.13 344.806L318.465 344.64C318.51 345.098 318.448 345.543 318.28 345.975C318.111 346.403 317.844 346.795 317.479 347.149C317.113 347.5 316.657 347.79 316.112 348.018ZM324.333 337.025L323.354 337.805C323.207 337.65 323.028 337.513 322.819 337.396C322.611 337.273 322.368 337.203 322.089 337.184C321.81 337.166 321.491 337.232 321.131 337.383C320.639 337.59 320.276 337.876 320.043 338.24C319.812 338.6 319.769 338.953 319.914 339.299C320.043 339.606 320.257 339.802 320.555 339.886C320.854 339.971 321.265 339.972 321.79 339.892L323.108 339.684C323.9 339.556 324.549 339.598 325.052 339.81C325.555 340.018 325.924 340.403 326.16 340.966C326.353 341.427 326.394 341.895 326.281 342.369C326.171 342.842 325.925 343.283 325.541 343.69C325.158 344.098 324.653 344.433 324.028 344.695C323.208 345.04 322.453 345.147 321.766 345.016C321.079 344.886 320.52 344.509 320.089 343.884L321.139 343.098C321.433 343.484 321.781 343.72 322.182 343.806C322.588 343.891 323.043 343.827 323.55 343.614C324.126 343.372 324.532 343.058 324.769 342.671C325.007 342.28 325.053 341.911 324.908 341.565C324.791 341.286 324.595 341.093 324.32 340.986C324.044 340.876 323.683 340.859 323.239 340.935L321.765 341.184C320.955 341.319 320.3 341.275 319.8 341.054C319.303 340.827 318.937 340.436 318.704 339.881C318.514 339.427 318.472 338.972 318.581 338.515C318.693 338.058 318.929 337.636 319.289 337.251C319.652 336.864 320.117 336.552 320.682 336.314C321.479 335.98 322.177 335.892 322.778 336.051C323.382 336.208 323.9 336.533 324.333 337.025Z" fill="black"/>
<path d="M238.478 200.774L229.062 188.951L231.675 187.854L238.229 196.696L238.353 196.643L236.796 185.705L239.173 184.707L245.9 193.483L246.018 193.433L244.294 182.557L246.907 181.46L248.752 196.46L246.356 197.467L239.72 189.183L239.615 189.227L240.874 199.768L238.478 200.774ZM257.626 192.966C256.618 193.39 255.659 193.546 254.75 193.434C253.843 193.317 253.031 192.954 252.313 192.347C251.594 191.734 251.014 190.902 250.572 189.85C250.138 188.816 249.953 187.825 250.018 186.879C250.085 185.926 250.383 185.082 250.911 184.347C251.438 183.607 252.181 183.036 253.142 182.632C253.762 182.372 254.389 182.227 255.023 182.197C255.66 182.16 256.277 182.261 256.875 182.498C257.477 182.733 258.035 183.12 258.549 183.659C259.061 184.194 259.502 184.902 259.872 185.784L260.177 186.511L251.933 189.972L251.262 188.374L257.234 185.867C257.039 185.415 256.771 185.052 256.431 184.779C256.089 184.502 255.702 184.333 255.271 184.273C254.844 184.21 254.404 184.275 253.95 184.465C253.465 184.669 253.089 184.965 252.821 185.355C252.552 185.74 252.394 186.166 252.348 186.632C252.305 187.092 252.376 187.547 252.56 187.999L253.146 189.394C253.391 189.979 253.709 190.436 254.099 190.765C254.487 191.09 254.92 191.283 255.397 191.345C255.873 191.402 256.369 191.322 256.884 191.106C257.229 190.961 257.521 190.782 257.76 190.569C257.997 190.351 258.178 190.103 258.302 189.825C258.427 189.546 258.482 189.243 258.468 188.916L260.786 188.235C260.892 188.879 260.84 189.502 260.63 190.103C260.423 190.698 260.066 191.243 259.56 191.738C259.052 192.229 258.408 192.638 257.626 192.966ZM268.558 188.377C267.549 188.801 266.59 188.957 265.681 188.845C264.774 188.728 263.962 188.365 263.245 187.758C262.525 187.145 261.945 186.313 261.503 185.261C261.069 184.226 260.884 183.236 260.949 182.29C261.016 181.337 261.314 180.493 261.843 179.758C262.369 179.018 263.113 178.446 264.073 178.043C264.693 177.783 265.32 177.638 265.955 177.608C266.591 177.571 267.209 177.672 267.806 177.909C268.408 178.144 268.966 178.531 269.48 179.07C269.992 179.605 270.433 180.313 270.803 181.195L271.109 181.922L262.864 185.383L262.193 183.785L268.165 181.278C267.971 180.826 267.703 180.463 267.362 180.19C267.02 179.913 266.633 179.744 266.202 179.684C265.775 179.621 265.335 179.686 264.881 179.876C264.396 180.08 264.02 180.376 263.752 180.766C263.483 181.151 263.325 181.577 263.28 182.043C263.236 182.503 263.307 182.958 263.491 183.41L264.077 184.805C264.322 185.39 264.64 185.847 265.03 186.176C265.418 186.501 265.851 186.694 266.329 186.756C266.804 186.813 267.3 186.733 267.815 186.517C268.16 186.372 268.452 186.193 268.691 185.979C268.928 185.762 269.109 185.514 269.234 185.236C269.358 184.957 269.413 184.654 269.399 184.327L271.717 183.646C271.823 184.29 271.771 184.912 271.561 185.514C271.354 186.109 270.998 186.654 270.492 187.149C269.984 187.64 269.339 188.049 268.558 188.377ZM275.789 181.397L274.581 178.538L274.961 178.379L276.88 172.821L279.65 171.658L277.282 178.475L276.791 178.682L275.789 181.397ZM274.953 185.461L269.323 172.05L271.694 171.054L277.324 184.466L274.953 185.461ZM281.266 182.811L276.07 179.608L276.967 177.267L284.102 181.621L281.266 182.811ZM282.193 166.647L287.823 180.058L285.452 181.053L279.822 167.642L282.193 166.647ZM293.318 182.188C292.995 182.324 292.685 182.423 292.388 182.486C292.097 182.552 291.857 182.586 291.668 182.588L291.443 180.511C291.83 180.466 292.158 180.385 292.426 180.267C292.695 180.149 292.897 179.964 293.033 179.712C293.175 179.463 293.238 179.118 293.223 178.677L293.197 178.049L285.239 169.312L287.754 168.256L293.261 174.879L293.366 174.835L292.502 166.263L295.023 165.204L295.729 178.172C295.765 178.783 295.708 179.344 295.557 179.854C295.409 180.368 295.152 180.82 294.786 181.21C294.427 181.602 293.938 181.928 293.318 182.188ZM308.771 159.826C308.47 159.279 308.025 158.942 307.437 158.814C306.854 158.684 306.202 158.77 305.482 159.073C304.975 159.285 304.573 159.544 304.275 159.849C303.977 160.154 303.786 160.478 303.704 160.82C303.622 161.163 303.649 161.503 303.786 161.841C303.903 162.121 304.069 162.336 304.281 162.488C304.498 162.639 304.748 162.739 305.032 162.79C305.313 162.836 305.609 162.85 305.92 162.833C306.231 162.815 306.538 162.781 306.84 162.731L308.23 162.518C308.786 162.423 309.339 162.378 309.891 162.383C310.446 162.386 310.974 162.462 311.473 162.612C311.977 162.76 312.429 163.004 312.829 163.345C313.228 163.685 313.55 164.146 313.794 164.726C314.124 165.512 314.213 166.289 314.063 167.055C313.911 167.818 313.525 168.526 312.907 169.181C312.291 169.83 311.446 170.38 310.372 170.831C309.328 171.269 308.355 171.488 307.451 171.487C306.551 171.485 305.755 171.265 305.062 170.826C304.374 170.386 303.826 169.728 303.417 168.852L305.807 167.848C306.038 168.301 306.345 168.629 306.729 168.832C307.112 169.036 307.539 169.129 308.009 169.111C308.484 169.092 308.974 168.976 309.481 168.763C310.009 168.542 310.439 168.269 310.77 167.945C311.104 167.615 311.325 167.26 311.432 166.881C311.538 166.497 311.513 166.113 311.356 165.727C311.205 165.379 310.982 165.134 310.685 164.992C310.388 164.844 310.025 164.771 309.599 164.77C309.175 164.763 308.697 164.799 308.165 164.879L306.475 165.126C305.251 165.306 304.197 165.243 303.314 164.936C302.433 164.623 301.79 163.986 301.387 163.026C301.055 162.235 300.979 161.454 301.157 160.68C301.34 159.905 301.734 159.198 302.339 158.559C302.942 157.916 303.713 157.397 304.651 157.003C305.603 156.603 306.506 156.419 307.362 156.45C308.22 156.475 308.976 156.694 309.632 157.107C310.287 157.515 310.779 158.094 311.109 158.844L308.771 159.826ZM318.236 155.459L319.006 157.293L313.223 159.72L312.454 157.887L318.236 155.459ZM312.869 154.878L315.24 153.882L319.204 163.326C319.338 163.644 319.489 163.869 319.656 163.998C319.826 164.122 320.005 164.181 320.192 164.174C320.379 164.167 320.571 164.123 320.768 164.04C320.916 163.978 321.047 163.91 321.16 163.837C321.277 163.762 321.365 163.702 321.423 163.657L322.601 165.343C322.493 165.44 322.331 165.564 322.118 165.715C321.908 165.865 321.637 166.014 321.305 166.164C320.718 166.431 320.146 166.566 319.588 166.569C319.028 166.568 318.52 166.417 318.064 166.115C317.613 165.811 317.258 165.344 316.999 164.714L312.869 154.878ZM327.421 163.674C326.784 163.941 326.162 164.069 325.556 164.056C324.952 164.037 324.408 163.865 323.922 163.54C323.441 163.213 323.062 162.72 322.785 162.061C322.547 161.494 322.454 160.98 322.508 160.521C322.562 160.062 322.723 159.645 322.992 159.271C323.261 158.896 323.599 158.556 324.005 158.252C324.414 157.942 324.852 157.658 325.319 157.4C325.883 157.092 326.338 156.836 326.684 156.634C327.029 156.428 327.262 156.238 327.384 156.063C327.509 155.883 327.523 155.679 327.428 155.452L327.411 155.413C327.204 154.919 326.898 154.599 326.492 154.451C326.085 154.303 325.607 154.344 325.057 154.575C324.477 154.819 324.069 155.139 323.835 155.535C323.605 155.93 323.504 156.324 323.531 156.718L321.185 157.333C321.103 156.649 321.177 156.017 321.406 155.438C321.634 154.855 321.995 154.338 322.489 153.889C322.982 153.436 323.58 153.062 324.283 152.767C324.767 152.563 325.273 152.418 325.801 152.33C326.329 152.241 326.847 152.245 327.354 152.34C327.859 152.431 328.326 152.649 328.753 152.993C329.184 153.336 329.54 153.841 329.821 154.509L332.647 161.241L330.368 162.198L329.788 160.816L329.709 160.849C329.682 161.189 329.589 161.536 329.43 161.89C329.273 162.239 329.03 162.569 328.699 162.883C328.371 163.19 327.945 163.454 327.421 163.674ZM327.305 161.673C327.781 161.473 328.154 161.206 328.425 160.872C328.693 160.533 328.856 160.167 328.911 159.774C328.971 159.379 328.924 158.996 328.768 158.625L328.27 157.44C328.222 157.532 328.119 157.642 327.962 157.77C327.809 157.895 327.632 158.024 327.43 158.155C327.228 158.285 327.027 158.411 326.826 158.531C326.625 158.652 326.45 158.756 326.302 158.844C325.969 159.04 325.685 159.252 325.452 159.478C325.218 159.705 325.062 159.95 324.983 160.214C324.902 160.474 324.926 160.757 325.054 161.062C325.237 161.499 325.535 161.762 325.947 161.851C326.359 161.939 326.812 161.88 327.305 161.673ZM335.83 148.073L336.6 149.907L330.818 152.334L330.048 150.501L335.83 148.073ZM330.464 147.491L332.835 146.496L336.799 155.939C336.933 156.258 337.083 156.482 337.251 156.612C337.421 156.736 337.599 156.794 337.787 156.788C337.974 156.781 338.166 156.736 338.362 156.654C338.511 156.592 338.641 156.524 338.754 156.451C338.872 156.376 338.96 156.316 339.018 156.271L340.195 157.956C340.087 158.053 339.926 158.177 339.712 158.329C339.503 158.478 339.232 158.628 338.899 158.778C338.313 159.045 337.741 159.18 337.182 159.183C336.622 159.182 336.114 159.03 335.659 158.729C335.208 158.425 334.853 157.958 334.593 157.327L330.464 147.491ZM346.735 146.622L344.673 147.765C344.52 147.573 344.327 147.412 344.094 147.285C343.865 147.155 343.599 147.084 343.296 147.073C342.993 147.061 342.659 147.132 342.292 147.286C341.799 147.493 341.429 147.774 341.182 148.129C340.94 148.483 340.893 148.828 341.04 149.167C341.159 149.462 341.366 149.655 341.661 149.746C341.961 149.836 342.391 149.833 342.951 149.736L344.821 149.383C345.858 149.188 346.702 149.217 347.352 149.468C348.006 149.717 348.486 150.201 348.793 150.919C349.055 151.554 349.104 152.191 348.94 152.829C348.78 153.462 348.433 154.049 347.9 154.591C347.368 155.133 346.683 155.58 345.844 155.932C344.613 156.448 343.514 156.607 342.547 156.407C341.578 156.203 340.827 155.668 340.294 154.803L342.513 153.61C342.808 154.02 343.175 154.269 343.612 154.358C344.05 154.446 344.542 154.376 345.087 154.147C345.651 153.91 346.054 153.605 346.297 153.23C346.545 152.854 346.597 152.496 346.454 152.155C346.333 151.867 346.122 151.676 345.821 151.582C345.524 151.486 345.123 151.485 344.618 151.578L342.751 151.939C341.702 152.143 340.846 152.104 340.183 151.822C339.519 151.536 339.035 151.026 338.731 150.291C338.467 149.672 338.409 149.065 338.559 148.468C338.712 147.865 339.041 147.31 339.548 146.805C340.057 146.293 340.714 145.869 341.517 145.532C342.696 145.037 343.729 144.898 344.616 145.116C345.508 145.333 346.214 145.835 346.735 146.622Z" fill="black"/>
<line x1="181.629" y1="245.559" x2="426.812" y2="142.629" stroke="#575757" stroke-width="3"/>
<path d="M169.55 173.678L163.524 158.801L168.057 156.965L166.584 153.328L153.094 158.791L154.568 162.429L159.109 160.589L165.135 175.466L169.55 173.678ZM180.057 156.662L177.99 152.501C176.726 153.473 175.67 154.911 174.831 156.809L172.623 155.184L170.457 156.061L176.459 170.88L180.874 169.091L177.058 159.67C177.57 158.826 179.088 157.319 180.057 156.662ZM187.065 148.923C184.697 149.882 182.444 151.197 180.895 152.53L182.707 155.383C184.427 154.108 186.14 153.13 187.834 152.444C188.845 152.035 189.625 151.807 190.187 151.765L191.197 154.257L190.539 154.524C188.248 155.452 186.58 156.274 185.543 157.008C183.505 158.441 183.138 159.932 184.243 162.66C185.607 166.028 187.607 166.776 191.011 165.398C192.991 164.596 194.464 163.293 195.424 161.474L197.187 162.485L199.319 161.621L195.059 151.105C193.573 147.434 190.991 147.333 187.065 148.923ZM191.564 161.557L188.952 162.615L187.942 160.123C187.404 158.793 188.075 158.344 189.567 157.74L192.179 156.682L193.212 159.233C193.73 160.513 193.013 160.97 191.564 161.557ZM204.928 145.903L207.599 144.821L212.277 156.372L216.693 154.584L211.738 142.351C210.858 140.178 208.593 140.204 206.217 141.166C203.984 142.071 202.329 143.457 201.239 145.319L199.485 144.305L197.353 145.168L203.355 159.986L207.77 158.198L203.616 147.943C203.166 146.832 203.706 146.398 204.928 145.903ZM215.655 142.724C216.675 145.242 217.818 145.837 220.088 145.653C221.286 145.56 223.072 145.199 225.439 144.554L226.401 146.928C225.538 147.532 224.706 147.997 223.897 148.324C222.153 149.031 220.425 149.368 218.722 149.352L219.468 152.911C221.592 152.757 223.698 152.266 225.771 151.427C230.001 149.713 232.202 147.714 230.63 143.833C229.655 141.425 228.259 140.883 226.029 141.022C224.779 141.107 223.06 141.44 220.856 142.029L219.922 139.722C220.678 139.19 221.614 138.694 222.743 138.236C224.024 137.717 225.27 137.379 226.48 137.242L225.749 133.912C223.853 134.17 221.889 134.721 219.858 135.543C216.041 137.089 214.209 139.154 215.655 142.724ZM239.973 145.155L233.924 130.219L229.742 132.608L235.55 146.947L239.973 145.155ZM231.029 129.294C232.933 128.523 233.244 127.789 232.47 125.878C231.692 123.958 230.933 123.609 229.037 124.377C227.091 125.165 226.761 125.926 227.549 127.871C228.327 129.791 229.091 130.079 231.029 129.294ZM248.028 142.304C248.863 141.966 249.856 141.417 251.014 140.644L250.014 137.57C249.334 137.826 248.669 138.026 248.013 138.174L244.484 129.46L246.826 128.511L245.65 125.607L243.307 126.555L241.735 122.674L237.767 125.565L238.892 128.344L237.114 129.064L238.291 131.969L240.069 131.248L243.946 140.821C244.727 142.749 246.048 143.106 248.028 142.304ZM266.736 133.933L264.861 130.419C263.628 131.468 262.173 132.331 260.488 133.014C259.502 133.413 258.481 133.7 257.426 133.882L253.573 124.368C252.813 122.49 253.691 121.801 255.722 120.979C256.918 120.494 259.021 119.995 260.129 119.85L259.255 116.068C258.171 116.056 255.709 116.711 254.353 117.26C252.255 118.11 250.77 119.044 249.881 120.071C247.789 122.486 248.618 125.767 250.401 130.17C251.441 132.738 252.458 134.62 253.444 135.818C255.502 138.307 257.933 138.4 261.766 136.848C263.957 135.96 265.416 135.154 266.736 133.933ZM271.619 118.891L273.835 117.994L278.513 129.545L282.937 127.754L277.982 115.52C277.102 113.348 274.829 113.377 272.461 114.336C270.582 115.097 269.177 116.107 268.233 117.362L265.942 111.704L261.744 113.786L269.59 133.159L274.014 131.368L269.935 121.298C269.397 119.968 270.127 119.496 271.619 118.891ZM287.105 108.405C284.737 109.364 282.484 110.678 280.944 112.008L282.756 114.861C284.468 113.589 286.18 112.611 287.882 111.922C288.885 111.516 289.666 111.288 290.228 111.247L291.237 113.739L290.588 114.002C288.288 114.933 286.62 115.756 285.583 116.489C283.545 117.922 283.178 119.414 284.283 122.142C285.647 125.509 287.655 126.254 291.051 124.879C293.031 124.077 294.504 122.775 295.473 120.952L297.227 121.966L299.359 121.102L295.1 110.587C293.613 106.916 291.04 106.811 287.105 108.405ZM291.604 121.039L288.992 122.096L287.983 119.604C287.444 118.274 288.116 117.826 289.607 117.222L292.219 116.164L293.252 118.715C293.771 119.994 293.053 120.452 291.604 121.039ZM307.271 118.31C308.105 117.972 309.099 117.422 310.257 116.649L309.257 113.575C308.576 113.831 307.912 114.032 307.256 114.18L303.726 105.466L306.069 104.517L304.892 101.612L302.55 102.561L300.978 98.6796L297.009 101.571L298.135 104.349L296.357 105.069L297.533 107.974L299.311 107.254L303.188 116.827C303.969 118.755 305.291 119.112 307.271 118.31Z" fill="#333333"/>
<path d="M127.229 213.709L127.369 213.652C131.789 211.861 135.722 209.048 138.844 205.443C141.965 201.838 144.187 197.545 145.327 192.916C146.466 188.287 146.491 183.455 145.398 178.816C144.306 174.177 142.127 169.864 139.042 166.231C130.504 180.356 127.361 203.996 127.229 213.709ZM123.692 162.301C124.103 162.063 100.828 177.691 87.9731 196.691L88.1179 197.049C89.8407 201.11 92.3787 204.774 95.5751 207.815C105.605 186.852 115.504 175.764 133.012 160.801C128.432 157.689 123.082 155.9 117.549 155.628C112.016 155.357 106.515 156.614 101.649 159.263C96.7835 161.911 92.7412 165.848 89.9663 170.641C87.1915 175.435 85.7913 180.899 85.9197 186.433C99.0274 173.279 117.015 165.603 123.692 162.301Z" fill="#F15A24"/>
<path d="M137.56 164.594C136.61 163.636 135.596 162.743 134.526 161.922C113.407 179.004 103.535 200.436 99.9941 211.224C105.133 214.447 111.125 216.05 117.19 215.824C118.593 205.7 123.963 184.797 137.56 164.594Z" fill="#619A3F"/>
<g filter="url(#filter5_d_41_260)">
<path d="M109.065 344.361L409.765 402.212L550.404 160.611L689.389 494.431L248.05 678.181L109.065 344.361Z" fill="#F7F4F4"/>
</g>
</g>
</g>
<defs>
<filter id="filter0_d_41_260" x="0.020752" y="0.460693" width="600.431" height="534.008" filterUnits="userSpaceOnUse" color-interpolation-filters="sRGB">
<feFlood flood-opacity="0" result="BackgroundImageFix"/>
<feColorMatrix in="SourceAlpha" type="matrix" values="0 0 0 0 0 0 0 0 0 0 0 0 0 0 0 0 0 0 127 0" result="hardAlpha"/>
<feOffset dx="4" dy="4"/>
<feGaussianBlur stdDeviation="5"/>
<feComposite in2="hardAlpha" operator="out"/>
<feColorMatrix type="matrix" values="0 0 0 0 0 0 0 0 0 0 0 0 0 0 0 0 0 0 0.25 0"/>
<feBlend mode="normal" in2="BackgroundImageFix" result="effect1_dropShadow_41_260"/>
<feBlend mode="normal" in="SourceGraphic" in2="effect1_dropShadow_41_260" result="shape"/>
</filter>
<filter id="filter1_d_41_260" x="2.02075" y="6.46069" width="588.431" height="522.008" filterUnits="userSpaceOnUse" color-interpolation-filters="sRGB">
<feFlood flood-opacity="0" result="BackgroundImageFix"/>
<feColorMatrix in="SourceAlpha" type="matrix" values="0 0 0 0 0 0 0 0 0 0 0 0 0 0 0 0 0 0 127 0" result="hardAlpha"/>
<feOffset dy="4"/>
<feGaussianBlur stdDeviation="2"/>
<feComposite in2="hardAlpha" operator="out"/>
<feColorMatrix type="matrix" values="0 0 0 0 0 0 0 0 0 0 0 0 0 0 0 0 0 0 0.05 0"/>
<feBlend mode="normal" in2="BackgroundImageFix" result="effect1_dropShadow_41_260"/>
<feBlend mode="normal" in="SourceGraphic" in2="effect1_dropShadow_41_260" result="shape"/>
</filter>
<filter id="filter2_d_41_260" x="97.2874" y="47.3699" width="467.82" height="444.444" filterUnits="userSpaceOnUse" color-interpolation-filters="sRGB">
<feFlood flood-opacity="0" result="BackgroundImageFix"/>
<feColorMatrix in="SourceAlpha" type="matrix" values="0 0 0 0 0 0 0 0 0 0 0 0 0 0 0 0 0 0 127 0" result="hardAlpha"/>
<feOffset dx="-10" dy="10"/>
<feGaussianBlur stdDeviation="2.5"/>
<feComposite in2="hardAlpha" operator="out"/>
<feColorMatrix type="matrix" values="0 0 0 0 0 0 0 0 0 0 0 0 0 0 0 0 0 0 0.25 0"/>
<feBlend mode="normal" in2="BackgroundImageFix" result="effect1_dropShadow_41_260"/>
<feBlend mode="normal" in="SourceGraphic" in2="effect1_dropShadow_41_260" result="shape"/>
</filter>
<filter id="filter3_d_41_260" x="29.7219" y="-19.1106" width="595.279" height="575.915" filterUnits="userSpaceOnUse" color-interpolation-filters="sRGB">
<feFlood flood-opacity="0" result="BackgroundImageFix"/>
<feColorMatrix in="SourceAlpha" type="matrix" values="0 0 0 0 0 0 0 0 0 0 0 0 0 0 0 0 0 0 127 0" result="hardAlpha"/>
<feOffset dx="-4" dy="10"/>
<feGaussianBlur stdDeviation="2.5"/>
<feComposite in2="hardAlpha" operator="out"/>
<feColorMatrix type="matrix" values="0 0 0 0 0 0 0 0 0 0 0 0 0 0 0 0 0 0 0.25 0"/>
<feBlend mode="normal" in2="BackgroundImageFix" result="effect1_dropShadow_41_260"/>
<feBlend mode="normal" in="SourceGraphic" in2="effect1_dropShadow_41_260" result="shape"/>
</filter>
<filter id="filter4_d_41_260" x="29.7219" y="-19.1106" width="595.279" height="575.915" filterUnits="userSpaceOnUse" color-interpolation-filters="sRGB">
<feFlood flood-opacity="0" result="BackgroundImageFix"/>
<feColorMatrix in="SourceAlpha" type="matrix" values="0 0 0 0 0 0 0 0 0 0 0 0 0 0 0 0 0 0 127 0" result="hardAlpha"/>
<feOffset dx="-4" dy="10"/>
<feGaussianBlur stdDeviation="2.5"/>
<feComposite in2="hardAlpha" operator="out"/>
<feColorMatrix type="matrix" values="0 0 0 0 0 0 0 0 0 0 0 0 0 0 0 0 0 0 0.25 0"/>
<feBlend mode="normal" in2="BackgroundImageFix" result="effect1_dropShadow_41_260"/>
<feBlend mode="normal" in="SourceGraphic" in2="effect1_dropShadow_41_260" result="shape"/>
</filter>
<filter id="filter5_d_41_260" x="94.0652" y="160.611" width="595.324" height="532.57" filterUnits="userSpaceOnUse" color-interpolation-filters="sRGB">
<feFlood flood-opacity="0" result="BackgroundImageFix"/>
<feColorMatrix in="SourceAlpha" type="matrix" values="0 0 0 0 0 0 0 0 0 0 0 0 0 0 0 0 0 0 127 0" result="hardAlpha"/>
<feOffset dx="-10" dy="10"/>
<feGaussianBlur stdDeviation="2.5"/>
<feComposite in2="hardAlpha" operator="out"/>
<feColorMatrix type="matrix" values="0 0 0 0 0 0 0 0 0 0 0 0 0 0 0 0 0 0 0.25 0"/>
<feBlend mode="normal" in2="BackgroundImageFix" result="effect1_dropShadow_41_260"/>
<feBlend mode="normal" in="SourceGraphic" in2="effect1_dropShadow_41_260" result="shape"/>
</filter>
</defs>
</svg>
