<svg width="601" height="535" viewBox="0 0 601 535" fill="none" xmlns="http://www.w3.org/2000/svg">
<g filter="url(#filter0_d_425_91)">
<g filter="url(#filter1_d_425_91)">
<rect x="21.1877" y="21.4607" width="550.431" height="484.008" rx="30" fill="#F1F1F1"/>
<rect x="13.6877" y="13.9607" width="565.431" height="499.008" rx="37.5" stroke="#E1DFDF" stroke-width="15"/>
</g>
<mask id="mask0_425_91" style="mask-type:alpha" maskUnits="userSpaceOnUse" x="21" y="21" width="551" height="485">
<rect x="21.1877" y="21.4607" width="550.431" height="484.008" rx="30" fill="white" fill-opacity="0.8"/>
</mask>
<g mask="url(#mask0_425_91)">
<g filter="url(#filter2_d_425_91)">
<path d="M206.6 47.3699L112.454 344.375L153.954 432.667L442.854 476.814L565.274 230.592L549.814 168.752L206.6 47.3699Z" fill="#E7E7E7"/>
<path d="M206.6 47.3699L112.454 344.375L153.954 432.667L442.854 476.814L565.274 230.592L549.814 168.752L206.6 47.3699Z" stroke="white"/>
</g>
<g filter="url(#filter3_d_425_91)">
<path d="M38.8888 158.046L255.985 72.0687L464.392 -19.1106L624.168 364.648L198.666 541.805L38.8888 158.046Z" fill="white"/>
</g>
<g filter="url(#filter4_d_425_91)">
<path d="M38.8888 158.046L255.985 72.0687L464.392 -19.1106L624.168 364.648L198.666 541.805L38.8888 158.046Z" fill="white"/>
</g>
<path d="M243.451 267.056C242.068 267.637 240.735 267.917 239.453 267.896C238.178 267.873 237.045 267.572 236.055 266.994C235.068 266.405 234.311 265.561 233.783 264.459L236.423 263.351C236.769 264.019 237.258 264.517 237.888 264.844C238.515 265.164 239.225 265.318 240.017 265.306C240.809 265.294 241.617 265.115 242.441 264.768C243.363 264.381 244.113 263.878 244.691 263.257C245.268 262.637 245.639 261.955 245.804 261.212C245.969 260.469 245.893 259.721 245.576 258.966C245.245 258.177 244.757 257.564 244.114 257.128C243.468 256.684 242.695 256.45 241.797 256.424C240.899 256.398 239.905 256.614 238.816 257.072L237.097 257.793L236.13 255.488L237.848 254.767C238.7 254.409 239.383 253.942 239.897 253.364C240.417 252.784 240.742 252.139 240.87 251.427C241.006 250.713 240.916 249.979 240.599 249.224C240.294 248.498 239.868 247.933 239.321 247.53C238.774 247.127 238.144 246.899 237.431 246.845C236.725 246.788 235.977 246.925 235.188 247.256C234.448 247.567 233.806 247.997 233.264 248.545C232.726 249.083 232.358 249.693 232.16 250.376C231.959 251.052 231.99 251.754 232.254 252.481L229.74 253.537C229.309 252.394 229.235 251.267 229.516 250.155C229.793 249.036 230.346 248.024 231.174 247.118C232.008 246.209 233.043 245.495 234.28 244.976C235.607 244.418 236.858 244.209 238.034 244.348C239.207 244.48 240.232 244.876 241.108 245.535C241.985 246.194 242.635 247.03 243.061 248.043C243.568 249.251 243.683 250.415 243.405 251.534C243.134 252.65 242.526 253.6 241.581 254.383L241.652 254.55C243.1 254.205 244.401 254.337 245.552 254.946C246.701 255.549 247.561 256.531 248.132 257.893C248.622 259.06 248.744 260.241 248.499 261.437C248.257 262.623 247.703 263.71 246.836 264.698C245.969 265.687 244.841 266.472 243.451 267.056ZM252.513 257.73L251.616 255.593L254.782 236.714L256.333 236.063L257.723 239.374L256.675 239.813L254.283 254.079L254.354 254.246L267.053 248.915L268.02 251.22L252.513 257.73ZM264.461 257.891L262.341 252.84L261.923 251.845L255.453 236.432L257.926 235.394L266.934 256.852L264.461 257.891ZM273.794 253.972L273.003 252.086L276.831 241.359C277.281 240.102 277.634 239.026 277.89 238.129C278.143 237.226 278.275 236.423 278.284 235.721C278.297 235.009 278.166 234.324 277.89 233.668C277.574 232.913 277.118 232.336 276.523 231.937C275.935 231.535 275.267 231.314 274.519 231.275C273.772 231.235 273.01 231.378 272.235 231.704C271.411 232.05 270.763 232.523 270.292 233.123C269.825 233.714 269.551 234.383 269.471 235.132C269.398 235.877 269.533 236.659 269.876 237.476L267.403 238.514C266.875 237.257 266.702 236.031 266.883 234.838C267.064 233.644 267.542 232.573 268.318 231.622C269.101 230.669 270.118 229.93 271.368 229.405C272.626 228.878 273.851 228.675 275.045 228.799C276.239 228.922 277.301 229.318 278.231 229.988C279.161 230.657 279.858 231.544 280.321 232.647C280.653 233.437 280.833 234.269 280.864 235.143C280.898 236.008 280.76 237.048 280.448 238.263C280.141 239.469 279.649 240.989 278.974 242.826L276.319 250.004L276.389 250.172L286.364 245.984L287.332 248.289L273.794 253.972Z" fill="black"/>
<path d="M240.98 286.593L239.681 287.138C239.447 286.797 239.175 286.525 238.864 286.322C238.557 286.119 238.227 285.978 237.874 285.9C237.523 285.818 237.162 285.796 236.793 285.836C236.424 285.876 236.061 285.971 235.705 286.121C235.055 286.393 234.535 286.805 234.146 287.354C233.76 287.903 233.546 288.561 233.503 289.331C233.464 290.099 233.64 290.948 234.03 291.877C234.42 292.806 234.902 293.526 235.478 294.036C236.057 294.544 236.678 294.853 237.339 294.961C238.005 295.068 238.662 294.985 239.312 294.712C239.668 294.563 239.99 294.37 240.277 294.135C240.564 293.899 240.802 293.629 240.99 293.324C241.18 293.014 241.311 292.678 241.38 292.316C241.452 291.949 241.449 291.564 241.37 291.161L242.67 290.616C242.802 291.205 242.83 291.771 242.753 292.313C242.677 292.854 242.51 293.357 242.253 293.823C241.995 294.284 241.66 294.694 241.247 295.052C240.838 295.409 240.363 295.701 239.822 295.928C238.907 296.312 237.999 296.43 237.099 296.282C236.199 296.134 235.371 295.734 234.617 295.081C233.862 294.429 233.247 293.536 232.772 292.405C232.297 291.273 232.091 290.209 232.154 289.214C232.216 288.218 232.51 287.347 233.035 286.601C233.559 285.855 234.279 285.289 235.194 284.905C235.736 284.678 236.277 284.543 236.818 284.501C237.362 284.457 237.891 284.507 238.402 284.649C238.913 284.788 239.388 285.02 239.828 285.345C240.267 285.666 240.651 286.082 240.98 286.593ZM249.348 291.953C248.622 292.258 247.912 292.353 247.218 292.237C246.528 292.12 245.899 291.815 245.331 291.323C244.766 290.829 244.309 290.166 243.96 289.335C243.608 288.497 243.453 287.701 243.495 286.948C243.539 286.194 243.762 285.53 244.161 284.955C244.565 284.379 245.129 283.939 245.856 283.634C246.582 283.329 247.291 283.235 247.981 283.352C248.674 283.468 249.304 283.774 249.87 284.272C250.44 284.768 250.901 285.435 251.253 286.273C251.602 287.105 251.753 287.895 251.707 288.646C251.664 289.395 251.441 290.058 251.038 290.634C250.638 291.209 250.075 291.648 249.348 291.953ZM248.882 290.843C249.434 290.611 249.829 290.279 250.066 289.846C250.304 289.414 250.411 288.931 250.389 288.398C250.366 287.866 250.242 287.33 250.016 286.792C249.791 286.254 249.495 285.789 249.129 285.397C248.762 285.004 248.341 284.739 247.865 284.602C247.388 284.465 246.874 284.513 246.322 284.745C245.77 284.976 245.376 285.31 245.14 285.746C244.904 286.182 244.798 286.668 244.822 287.204C244.846 287.741 244.971 288.278 245.197 288.816C245.422 289.354 245.718 289.817 246.082 290.206C246.447 290.595 246.867 290.857 247.342 290.99C247.817 291.123 248.33 291.074 248.882 290.843ZM254.812 289.463L251.433 281.416L252.628 280.914L253.156 282.171L253.261 282.127C253.248 281.628 253.378 281.18 253.652 280.786C253.925 280.388 254.323 280.079 254.847 279.859C255.378 279.636 255.87 279.571 256.324 279.664C256.78 279.752 257.198 279.969 257.577 280.315L257.661 280.28C257.693 279.778 257.863 279.318 258.173 278.901C258.481 278.48 258.923 278.148 259.499 277.906C260.219 277.604 260.902 277.582 261.548 277.841C262.194 278.096 262.715 278.697 263.112 279.643L265.373 285.029L264.137 285.548L261.876 280.162C261.627 279.568 261.286 279.212 260.854 279.094C260.422 278.975 259.986 279.008 259.546 279.193C258.981 279.43 258.614 279.786 258.447 280.258C258.278 280.728 258.303 281.222 258.522 281.743L260.721 286.982L259.464 287.51L257.15 281.998C256.958 281.541 256.655 281.235 256.241 281.08C255.825 280.921 255.383 280.941 254.915 281.137C254.594 281.272 254.329 281.484 254.122 281.772C253.918 282.059 253.794 282.39 253.75 282.766C253.709 283.137 253.771 283.519 253.937 283.914L256.048 288.943L254.812 289.463ZM268.901 287.097L264.256 276.033L265.45 275.531L265.987 276.81L266.133 276.748C266.166 276.57 266.217 276.339 266.286 276.055C266.358 275.766 266.51 275.473 266.742 275.174C266.976 274.87 267.355 274.608 267.879 274.388C268.556 274.104 269.225 274.023 269.884 274.144C270.543 274.266 271.148 274.577 271.699 275.077C272.25 275.577 272.703 276.25 273.057 277.095C273.415 277.947 273.58 278.747 273.553 279.493C273.524 280.237 273.325 280.887 272.955 281.445C272.584 282 272.063 282.417 271.392 282.699C270.875 282.916 270.426 283.004 270.043 282.964C269.659 282.919 269.337 282.822 269.077 282.673C268.815 282.52 268.608 282.389 268.456 282.28L268.351 282.324L270.137 286.578L268.901 287.097ZM267.16 279.546C267.415 280.154 267.729 280.652 268.103 281.042C268.474 281.428 268.886 281.681 269.338 281.799C269.789 281.914 270.263 281.867 270.758 281.659C271.275 281.442 271.65 281.124 271.881 280.707C272.114 280.284 272.221 279.804 272.201 279.266C272.182 278.724 272.053 278.166 271.812 277.593C271.575 277.027 271.273 276.554 270.908 276.173C270.545 275.787 270.133 275.535 269.672 275.416C269.214 275.293 268.722 275.341 268.198 275.561C267.696 275.772 267.326 276.077 267.091 276.475C266.854 276.87 266.744 277.332 266.76 277.859C266.775 278.383 266.908 278.945 267.16 279.546ZM273.356 269.057L277.86 279.787L276.624 280.306L272.12 269.576L273.356 269.057ZM282.572 278.03C282.062 278.245 281.559 278.343 281.063 278.325C280.565 278.304 280.117 278.161 279.718 277.897C279.318 277.63 279.008 277.234 278.789 276.71C278.595 276.249 278.529 275.837 278.59 275.475C278.65 275.109 278.798 274.78 279.033 274.488C279.268 274.196 279.552 273.933 279.885 273.699C280.22 273.46 280.564 273.237 280.917 273.031C281.379 272.763 281.756 272.55 282.047 272.391C282.339 272.227 282.539 272.075 282.645 271.936C282.754 271.796 282.767 271.626 282.684 271.427L282.666 271.385C282.449 270.868 282.139 270.526 281.736 270.358C281.336 270.189 280.852 270.224 280.282 270.463C279.692 270.711 279.284 271.034 279.057 271.434C278.83 271.833 278.71 272.208 278.697 272.558L277.348 272.632C277.352 272.055 277.471 271.557 277.706 271.138C277.943 270.714 278.247 270.36 278.617 270.078C278.989 269.79 279.378 269.561 279.783 269.391C280.041 269.283 280.351 269.189 280.713 269.111C281.077 269.029 281.455 269.015 281.849 269.072C282.246 269.127 282.629 269.301 282.999 269.594C283.368 269.887 283.687 270.353 283.955 270.992L286.181 276.294L284.944 276.813L284.487 275.723L284.424 275.749C284.414 275.959 284.352 276.205 284.24 276.486C284.128 276.767 283.939 277.046 283.673 277.322C283.407 277.598 283.04 277.834 282.572 278.03ZM282.294 276.841C282.783 276.635 283.155 276.366 283.41 276.033C283.668 275.699 283.819 275.344 283.862 274.968C283.909 274.591 283.862 274.235 283.722 273.9L283.247 272.768C283.221 272.853 283.129 272.959 282.973 273.086C282.819 273.208 282.635 273.337 282.421 273.472C282.208 273.602 282 273.727 281.795 273.846C281.592 273.96 281.428 274.053 281.303 274.126C280.999 274.303 280.727 274.497 280.487 274.709C280.25 274.916 280.084 275.148 279.99 275.404C279.899 275.656 279.919 275.94 280.051 276.254C280.232 276.684 280.527 276.942 280.937 277.028C281.349 277.11 281.802 277.047 282.294 276.841ZM288.437 275.346L285.059 267.299L286.296 266.78L289.674 274.827L288.437 275.346ZM285.125 265.694C284.884 265.795 284.642 265.8 284.398 265.71C284.158 265.617 283.99 265.456 283.893 265.225C283.796 264.995 283.799 264.762 283.901 264.526C284.007 264.288 284.18 264.119 284.421 264.018C284.662 263.917 284.903 263.912 285.143 264.004C285.386 264.095 285.556 264.256 285.653 264.486C285.75 264.717 285.745 264.951 285.64 265.188C285.538 265.424 285.366 265.593 285.125 265.694ZM291.143 268.517L293.175 273.357L291.938 273.876L288.56 265.83L289.755 265.328L290.282 266.585L290.387 266.541C290.404 266.054 290.553 265.605 290.833 265.196C291.112 264.783 291.555 264.449 292.162 264.194C292.707 263.965 293.231 263.877 293.733 263.929C294.234 263.977 294.693 264.179 295.109 264.534C295.524 264.886 295.875 265.404 296.162 266.089L298.309 271.202L297.072 271.721L294.961 266.692C294.696 266.06 294.325 265.636 293.848 265.421C293.371 265.203 292.845 265.214 292.272 265.454C291.878 265.62 291.561 265.854 291.322 266.155C291.086 266.455 290.949 266.807 290.908 267.21C290.868 267.613 290.946 268.049 291.143 268.517ZM300.69 260.738L301.129 261.785L296.959 263.536L296.519 262.488L300.69 260.738ZM296.925 260.05L298.162 259.531L301.382 267.201C301.528 267.55 301.689 267.791 301.863 267.923C302.04 268.05 302.221 268.109 302.407 268.101C302.594 268.088 302.779 268.044 302.961 267.967C303.097 267.91 303.206 267.856 303.287 267.806C303.367 267.752 303.431 267.708 303.479 267.676L304.197 268.681C304.126 268.748 304.022 268.828 303.885 268.923C303.75 269.021 303.567 269.118 303.336 269.215C302.987 269.361 302.613 269.43 302.215 269.421C301.82 269.41 301.448 269.297 301.099 269.082C300.754 268.865 300.482 268.523 300.286 268.055L296.925 260.05ZM308.862 259.427L307.883 260.207C307.736 260.051 307.557 259.915 307.347 259.797C307.14 259.675 306.897 259.604 306.618 259.586C306.339 259.567 306.02 259.634 305.66 259.785C305.167 259.991 304.805 260.277 304.572 260.642C304.341 261.002 304.298 261.355 304.443 261.701C304.572 262.008 304.786 262.204 305.084 262.288C305.382 262.372 305.794 262.374 306.319 262.293L307.636 262.085C308.429 261.958 309.077 262 309.581 262.212C310.083 262.42 310.453 262.805 310.689 263.367C310.882 263.828 310.923 264.296 310.81 264.771C310.7 265.244 310.454 265.685 310.07 266.092C309.687 266.5 309.182 266.835 308.557 267.097C307.736 267.442 306.982 267.549 306.295 267.418C305.607 267.288 305.048 266.91 304.618 266.286L305.668 265.5C305.962 265.886 306.309 266.122 306.711 266.208C307.116 266.293 307.572 266.229 308.079 266.016C308.655 265.774 309.061 265.46 309.297 265.073C309.535 264.681 309.582 264.313 309.437 263.967C309.32 263.688 309.124 263.495 308.849 263.388C308.573 263.278 308.212 263.261 307.767 263.337L306.294 263.586C305.484 263.72 304.829 263.677 304.329 263.455C303.832 263.229 303.466 262.838 303.233 262.283C303.042 261.828 303.001 261.373 303.11 260.917C303.221 260.459 303.457 260.038 303.817 259.652C304.181 259.266 304.645 258.954 305.211 258.716C306.008 258.382 306.706 258.294 307.307 258.453C307.911 258.61 308.429 258.934 308.862 259.427Z" fill="black"/>
<path d="M367.753 216.182L366.961 214.296L370.789 203.569C371.239 202.312 371.592 201.235 371.849 200.339C372.102 199.435 372.233 198.633 372.242 197.93C372.256 197.218 372.125 196.534 371.849 195.877C371.532 195.123 371.076 194.546 370.481 194.147C369.894 193.744 369.226 193.523 368.478 193.484C367.73 193.445 366.969 193.588 366.193 193.913C365.369 194.259 364.721 194.732 364.25 195.333C363.783 195.923 363.51 196.593 363.43 197.341C363.357 198.087 363.491 198.868 363.835 199.685L361.362 200.723C360.834 199.466 360.661 198.241 360.841 197.047C361.022 195.854 361.501 194.782 362.277 193.832C363.06 192.879 364.077 192.14 365.327 191.615C366.584 191.087 367.81 190.885 369.004 191.008C370.198 191.131 371.259 191.528 372.19 192.197C373.12 192.866 373.816 193.753 374.28 194.857C374.611 195.646 374.792 196.478 374.822 197.353C374.857 198.217 374.718 199.257 374.407 200.473C374.099 201.678 373.608 203.199 372.933 205.035L370.277 212.214L370.348 212.381L380.322 208.194L381.29 210.499L367.753 216.182ZM392.74 206.037C391.161 206.7 389.636 206.835 388.165 206.442C386.691 206.042 385.315 205.145 384.04 203.749C382.761 202.347 381.632 200.48 380.652 198.146C379.679 195.827 379.141 193.724 379.038 191.836C378.94 189.938 379.264 188.323 380.011 186.991C380.762 185.648 381.92 184.649 383.485 183.992C385.05 183.335 386.571 183.21 388.048 183.617C389.529 184.014 390.909 184.914 392.188 186.316C393.471 187.708 394.599 189.564 395.573 191.883C396.552 194.216 397.094 196.33 397.2 198.225C397.302 200.112 396.98 201.723 396.233 203.055C395.483 204.38 394.318 205.375 392.74 206.037ZM391.772 203.732C393.337 203.075 394.235 201.811 394.468 199.938C394.701 198.066 394.231 195.733 393.058 192.938C392.278 191.08 391.415 189.582 390.468 188.443C389.529 187.301 388.545 186.543 387.517 186.169C386.496 185.793 385.469 185.821 384.435 186.255C382.884 186.906 381.994 188.18 381.763 190.076C381.529 191.965 381.997 194.304 383.167 197.091C383.947 198.949 384.805 200.445 385.742 201.58C386.678 202.715 387.656 203.468 388.674 203.837C389.698 204.204 390.731 204.169 391.772 203.732Z" fill="black"/>
<path d="M370.919 229.754L375.424 240.483L374.124 241.028L369.62 230.299L370.919 229.754ZM380.939 230.822L379.961 231.602C379.813 231.447 379.635 231.31 379.425 231.193C379.218 231.07 378.974 231 378.695 230.981C378.417 230.963 378.097 231.029 377.738 231.18C377.245 231.387 376.882 231.673 376.649 232.037C376.418 232.397 376.375 232.75 376.521 233.096C376.65 233.403 376.863 233.599 377.162 233.683C377.46 233.768 377.871 233.77 378.396 233.689L379.714 233.481C380.507 233.353 381.155 233.395 381.659 233.607C382.161 233.815 382.53 234.201 382.766 234.763C382.96 235.224 383 235.692 382.887 236.166C382.778 236.64 382.531 237.08 382.148 237.487C381.764 237.895 381.26 238.23 380.635 238.492C379.814 238.837 379.06 238.944 378.372 238.813C377.685 238.683 377.126 238.306 376.695 237.681L377.746 236.895C378.039 237.281 378.387 237.517 378.789 237.603C379.194 237.688 379.65 237.624 380.156 237.411C380.733 237.17 381.139 236.855 381.375 236.468C381.613 236.077 381.66 235.708 381.514 235.362C381.397 235.083 381.201 234.89 380.926 234.783C380.65 234.674 380.29 234.656 379.845 234.732L378.372 234.981C377.562 235.116 376.907 235.072 376.407 234.851C375.909 234.624 375.544 234.233 375.311 233.678C375.12 233.224 375.079 232.769 375.187 232.312C375.299 231.855 375.535 231.433 375.895 231.048C376.258 230.661 376.723 230.349 377.289 230.111C378.085 229.777 378.784 229.689 379.384 229.848C379.988 230.005 380.507 230.33 380.939 230.822ZM388.647 227.586L387.668 228.367C387.521 228.211 387.342 228.074 387.133 227.957C386.925 227.834 386.682 227.764 386.403 227.746C386.124 227.727 385.805 227.793 385.445 227.944C384.953 228.151 384.59 228.437 384.357 228.802C384.126 229.162 384.083 229.514 384.228 229.86C384.357 230.168 384.571 230.363 384.869 230.448C385.168 230.532 385.579 230.534 386.104 230.453L387.422 230.245C388.214 230.118 388.863 230.16 389.366 230.371C389.869 230.58 390.238 230.965 390.474 231.527C390.668 231.988 390.708 232.456 390.595 232.931C390.485 233.404 390.239 233.844 389.855 234.252C389.472 234.659 388.968 234.994 388.342 235.257C387.522 235.601 386.768 235.708 386.08 235.578C385.393 235.447 384.834 235.07 384.403 234.445L385.454 233.659C385.747 234.046 386.095 234.282 386.496 234.368C386.902 234.452 387.358 234.388 387.864 234.176C388.44 233.934 388.846 233.619 389.083 233.233C389.321 232.841 389.367 232.472 389.222 232.127C389.105 231.847 388.909 231.654 388.634 231.548C388.358 231.438 387.997 231.421 387.553 231.496L386.08 231.745C385.269 231.88 384.614 231.836 384.115 231.615C383.617 231.388 383.251 230.997 383.018 230.442C382.828 229.988 382.787 229.533 382.895 229.077C383.007 228.619 383.243 228.197 383.603 227.812C383.966 227.425 384.431 227.113 384.997 226.876C385.793 226.541 386.491 226.453 387.092 226.612C387.696 226.769 388.215 227.094 388.647 227.586ZM396.967 227.569L394.97 222.812L396.206 222.293L399.584 230.34L398.348 230.859L397.776 229.497L397.692 229.532C397.675 230.02 397.528 230.491 397.25 230.944C396.97 231.394 396.527 231.747 395.919 232.002C395.416 232.213 394.923 232.291 394.439 232.235C393.954 232.176 393.506 231.969 393.095 231.616C392.682 231.259 392.332 230.739 392.045 230.054L389.898 224.941L391.135 224.422L393.246 229.451C393.492 230.038 393.853 230.437 394.328 230.649C394.806 230.859 395.302 230.856 395.816 230.64C396.123 230.511 396.403 230.301 396.654 230.011C396.91 229.719 397.078 229.365 397.158 228.949C397.241 228.532 397.178 228.072 396.967 227.569ZM405.293 228.141C404.517 228.466 403.777 228.576 403.071 228.47C402.367 228.358 401.733 228.057 401.17 227.567C400.608 227.071 400.155 226.411 399.809 225.587C399.463 224.763 399.308 223.973 399.344 223.219C399.383 222.459 399.599 221.789 399.992 221.209C400.387 220.624 400.948 220.179 401.675 219.874C402.094 219.698 402.537 219.594 403.004 219.562C403.471 219.531 403.939 219.601 404.406 219.775C404.872 219.945 405.312 220.245 405.727 220.675C406.141 221.105 406.506 221.695 406.821 222.446L407.041 222.97L400.838 225.574L400.39 224.505L405.335 222.429C405.145 221.975 404.884 221.608 404.553 221.328C404.225 221.046 403.852 220.872 403.434 220.806C403.019 220.737 402.588 220.797 402.141 220.985C401.648 221.191 401.274 221.493 401.017 221.888C400.761 222.279 400.619 222.708 400.59 223.176C400.561 223.645 400.639 224.101 400.825 224.544L401.124 225.257C401.379 225.864 401.7 226.336 402.087 226.67C402.476 227 402.906 227.196 403.375 227.257C403.843 227.315 404.327 227.24 404.827 227.03C405.151 226.894 405.426 226.725 405.65 226.524C405.875 226.319 406.046 226.083 406.16 225.817C406.273 225.548 406.323 225.252 406.31 224.928L407.646 224.762C407.69 225.22 407.628 225.665 407.46 226.097C407.291 226.525 407.024 226.917 406.659 227.271C406.293 227.622 405.838 227.912 405.293 228.141ZM413.513 217.147L412.535 217.928C412.387 217.772 412.209 217.635 411.999 217.518C411.792 217.395 411.548 217.325 411.27 217.306C410.991 217.288 410.671 217.354 410.312 217.505C409.819 217.712 409.456 217.998 409.223 218.363C408.992 218.722 408.95 219.075 409.095 219.421C409.224 219.728 409.437 219.924 409.736 220.009C410.034 220.093 410.446 220.095 410.97 220.014L412.288 219.806C413.081 219.678 413.729 219.721 414.233 219.932C414.735 220.14 415.104 220.526 415.34 221.088C415.534 221.549 415.574 222.017 415.461 222.491C415.352 222.965 415.105 223.405 414.722 223.813C414.338 224.22 413.834 224.555 413.209 224.817C412.388 225.162 411.634 225.269 410.947 225.139C410.259 225.008 409.7 224.631 409.27 224.006L410.32 223.22C410.613 223.606 410.961 223.843 411.363 223.929C411.768 224.013 412.224 223.949 412.73 223.737C413.307 223.495 413.713 223.18 413.949 222.794C414.187 222.402 414.234 222.033 414.089 221.687C413.971 221.408 413.775 221.215 413.5 221.109C413.224 220.999 412.864 220.982 412.419 221.057L410.946 221.306C410.136 221.441 409.481 221.397 408.981 221.176C408.483 220.949 408.118 220.558 407.885 220.003C407.694 219.549 407.653 219.094 407.761 218.637C407.873 218.18 408.109 217.758 408.469 217.373C408.833 216.986 409.297 216.674 409.863 216.437C410.659 216.102 411.358 216.014 411.958 216.173C412.563 216.33 413.081 216.655 413.513 217.147Z" fill="black"/>
<path d="M377.691 296.518C376.252 297.122 374.874 297.401 373.556 297.354C372.242 297.298 371.089 296.948 370.096 296.305C369.1 295.655 368.362 294.749 367.882 293.586C367.494 292.681 367.32 291.768 367.361 290.847C367.399 289.92 367.623 289.065 368.035 288.284C368.451 287.494 369.02 286.864 369.744 286.396L369.691 286.27C368.553 286.436 367.494 286.203 366.514 285.571C365.531 284.932 364.804 284.042 364.333 282.9C363.868 281.813 363.735 280.723 363.933 279.629C364.131 278.535 364.615 277.535 365.385 276.629C366.162 275.719 367.179 275.001 368.436 274.473C369.679 273.951 370.894 273.733 372.08 273.818C373.266 273.904 374.319 274.259 375.239 274.883C376.165 275.505 376.861 276.359 377.325 277.446C377.796 278.587 377.912 279.734 377.673 280.886C377.437 282.028 376.872 282.943 375.978 283.631L376.031 283.757C376.865 283.571 377.703 283.61 378.544 283.873C379.383 284.128 380.15 284.566 380.846 285.186C381.539 285.799 382.079 286.558 382.467 287.463C382.947 288.626 383.067 289.792 382.826 290.961C382.59 292.12 382.032 293.188 381.152 294.165C380.277 295.133 379.123 295.917 377.691 296.518ZM376.723 294.213C377.694 293.806 378.466 293.296 379.04 292.686C379.613 292.075 379.972 291.403 380.116 290.669C380.259 289.935 380.174 289.182 379.858 288.411C379.511 287.604 379.001 286.976 378.328 286.527C377.654 286.078 376.887 285.825 376.025 285.768C375.17 285.708 374.288 285.869 373.38 286.25C372.465 286.634 371.723 287.155 371.153 287.814C370.59 288.469 370.233 289.194 370.082 289.989C369.937 290.78 370.039 291.58 370.386 292.387C370.702 293.159 371.168 293.752 371.786 294.166C372.411 294.577 373.145 294.791 373.99 294.806C374.834 294.821 375.745 294.624 376.723 294.213ZM372.448 284.029C373.216 283.706 373.833 283.267 374.297 282.71C374.769 282.15 375.06 281.523 375.171 280.827C375.281 280.132 375.185 279.412 374.881 278.669C374.569 277.946 374.132 277.385 373.571 276.988C373.007 276.584 372.367 276.36 371.65 276.316C370.93 276.265 370.175 276.405 369.386 276.736C368.583 277.073 367.944 277.518 367.469 278.071C366.992 278.616 366.703 279.231 366.604 279.913C366.501 280.589 366.606 281.288 366.918 282.012C367.222 282.755 367.657 283.333 368.224 283.744C368.798 284.152 369.45 284.383 370.179 284.439C370.909 284.494 371.665 284.357 372.448 284.029ZM393.15 275.707L394.118 278.012L384.73 281.954L383.762 279.649L393.15 275.707ZM400.147 261.16C401.03 260.798 401.981 260.596 402.999 260.555C404.017 260.514 405.049 260.721 406.095 261.178C407.138 261.627 408.154 262.413 409.142 263.534C410.131 264.656 411.038 266.201 411.865 268.171C412.666 270.078 413.195 271.848 413.454 273.482C413.716 275.105 413.721 276.565 413.469 277.863C413.223 279.157 412.729 280.268 411.985 281.197C411.248 282.123 410.275 282.839 409.067 283.346C407.865 283.851 406.693 284.063 405.551 283.984C404.412 283.895 403.364 283.551 402.405 282.951C401.451 282.341 400.653 281.505 400.01 280.444L402.566 279.371C403.21 280.259 404.01 280.881 404.964 281.236C405.922 281.581 406.967 281.516 408.099 281.041C409.754 280.346 410.757 279.075 411.107 277.227C411.464 275.377 411.088 273.131 409.98 270.491L409.812 270.561C409.667 271.312 409.415 272.014 409.056 272.665C408.697 273.317 408.238 273.896 407.678 274.403C407.118 274.909 406.468 275.317 405.728 275.628C404.498 276.144 403.243 276.314 401.961 276.137C400.683 275.951 399.512 275.452 398.449 274.641C397.39 273.821 396.57 272.719 395.989 271.336C395.438 270.023 395.227 268.698 395.356 267.362C395.489 266.016 395.954 264.794 396.75 263.696C397.553 262.595 398.685 261.749 400.147 261.16ZM401.115 263.466C400.235 263.835 399.534 264.388 399.013 265.124C398.497 265.85 398.188 266.67 398.086 267.584C397.989 268.487 398.128 269.386 398.504 270.28C398.879 271.174 399.416 271.906 400.115 272.475C400.818 273.035 401.603 273.387 402.469 273.533C403.34 273.669 404.215 273.552 405.095 273.182C405.759 272.904 406.323 272.515 406.787 272.016C407.248 271.51 407.597 270.941 407.832 270.308C408.072 269.665 408.192 269.002 408.193 268.32C408.191 267.63 408.057 266.968 407.79 266.332C407.438 265.494 406.906 264.793 406.193 264.23C405.487 263.664 404.686 263.302 403.79 263.144C402.9 262.983 402.009 263.09 401.115 263.466ZM425.795 276.422C424.776 276.85 423.769 277.047 422.777 277.011C421.781 276.969 420.885 276.684 420.088 276.156C419.289 275.621 418.669 274.829 418.229 273.781C417.842 272.859 417.71 272.036 417.832 271.311C417.952 270.578 418.247 269.92 418.717 269.337C419.187 268.754 419.755 268.228 420.421 267.759C421.091 267.281 421.779 266.835 422.486 266.424C423.411 265.888 424.164 265.461 424.745 265.143C425.331 264.815 425.729 264.512 425.941 264.234C426.16 263.953 426.186 263.613 426.019 263.215L425.984 263.131C425.55 262.098 424.93 261.413 424.123 261.078C423.324 260.74 422.355 260.809 421.217 261.287C420.036 261.783 419.219 262.43 418.765 263.228C418.312 264.027 418.072 264.777 418.046 265.478L415.347 265.625C415.356 264.471 415.595 263.475 416.065 262.637C416.538 261.789 417.145 261.082 417.886 260.517C418.63 259.941 419.408 259.483 420.218 259.143C420.735 258.926 421.355 258.74 422.078 258.584C422.806 258.418 423.563 258.392 424.35 258.505C425.144 258.616 425.91 258.964 426.649 259.549C427.388 260.135 428.025 261.066 428.562 262.345L433.013 272.948L430.541 273.986L429.626 271.807L429.5 271.86C429.479 272.279 429.357 272.77 429.133 273.333C428.908 273.895 428.53 274.452 427.998 275.005C427.466 275.557 426.731 276.029 425.795 276.422ZM425.24 274.042C426.218 273.632 426.962 273.094 427.471 272.428C427.987 271.759 428.289 271.049 428.376 270.298C428.47 269.544 428.377 268.831 428.095 268.161L427.145 265.897C427.093 266.067 426.911 266.279 426.599 266.534C426.29 266.778 425.922 267.035 425.493 267.306C425.068 267.566 424.651 267.815 424.242 268.053C423.836 268.281 423.508 268.468 423.257 268.614C422.65 268.968 422.106 269.356 421.626 269.779C421.151 270.193 420.82 270.656 420.633 271.17C420.45 271.674 420.491 272.24 420.754 272.869C421.115 273.728 421.706 274.245 422.526 274.418C423.351 274.581 424.255 274.456 425.24 274.042ZM437.527 271.054L430.77 254.96L433.159 253.957L434.215 256.471L434.425 256.383C434.399 255.384 434.661 254.489 435.209 253.7C435.754 252.905 436.55 252.287 437.598 251.847C438.66 251.401 439.644 251.271 440.552 251.457C441.464 251.633 442.299 252.067 443.058 252.759L443.226 252.689C443.289 251.684 443.63 250.765 444.249 249.93C444.865 249.088 445.75 248.425 446.902 247.941C448.341 247.337 449.707 247.293 451.001 247.81C452.291 248.32 453.334 249.522 454.128 251.415L458.65 262.186L456.177 263.224L451.655 252.453C451.157 251.265 450.476 250.553 449.612 250.316C448.748 250.079 447.877 250.145 446.996 250.514C445.865 250.989 445.132 251.7 444.798 252.645C444.46 253.584 444.51 254.573 444.947 255.614L449.346 266.092L446.831 267.148L442.204 256.125C441.82 255.21 441.213 254.598 440.385 254.288C439.554 253.971 438.67 254.01 437.734 254.403C437.091 254.672 436.563 255.096 436.147 255.673C435.739 256.246 435.492 256.909 435.404 257.661C435.321 258.402 435.445 259.167 435.777 259.957L440 270.015L437.527 271.054Z" fill="black"/>
<path d="M379.595 322.895L375.091 312.166L378.842 310.591C379.589 310.277 380.26 310.148 380.854 310.202C381.446 310.254 381.952 310.446 382.371 310.779C382.789 311.109 383.108 311.536 383.328 312.06C383.522 312.521 383.599 312.936 383.561 313.305C383.527 313.673 383.413 314 383.221 314.286C383.033 314.571 382.802 314.819 382.53 315.032L382.574 315.137C382.911 315.02 383.29 314.997 383.709 315.067C384.129 315.137 384.533 315.321 384.921 315.619C385.308 315.916 385.621 316.348 385.858 316.913C386.084 317.451 386.165 317.986 386.101 318.518C386.037 319.051 385.794 319.553 385.372 320.026C384.95 320.499 384.317 320.913 383.472 321.268L379.595 322.895ZM380.41 321.197L382.988 320.115C383.836 319.759 384.37 319.342 384.588 318.864C384.809 318.381 384.82 317.904 384.622 317.432C384.47 317.069 384.236 316.773 383.922 316.543C383.607 316.31 383.239 316.173 382.819 316.131C382.397 316.086 381.953 316.162 381.485 316.359L378.844 317.467L380.41 321.197ZM378.369 316.335L380.779 315.324C381.17 315.16 381.491 314.935 381.741 314.649C381.994 314.362 382.154 314.04 382.222 313.683C382.294 313.324 382.25 312.956 382.092 312.579C381.894 312.107 381.562 311.776 381.096 311.586C380.628 311.392 380.038 311.445 379.325 311.744L376.874 312.773L378.369 316.335ZM392.712 313.518L390.715 308.762L391.952 308.242L395.33 316.289L394.093 316.808L393.522 315.446L393.438 315.482C393.421 315.969 393.273 316.44 392.995 316.894C392.716 317.344 392.272 317.696 391.665 317.951C391.162 318.162 390.668 318.24 390.185 318.184C389.7 318.125 389.252 317.919 388.841 317.566C388.428 317.209 388.078 316.688 387.79 316.004L385.644 310.89L386.88 310.371L388.992 315.401C389.238 315.988 389.599 316.387 390.074 316.598C390.552 316.808 391.048 316.805 391.561 316.59C391.869 316.461 392.148 316.251 392.4 315.96C392.655 315.668 392.823 315.314 392.903 314.899C392.987 314.481 392.923 314.021 392.712 313.518ZM400.673 306.701L399.694 307.482C399.546 307.326 399.368 307.189 399.158 307.072C398.951 306.949 398.708 306.879 398.429 306.861C398.15 306.842 397.83 306.908 397.471 307.059C396.978 307.266 396.616 307.552 396.383 307.917C396.152 308.277 396.109 308.629 396.254 308.975C396.383 309.283 396.597 309.478 396.895 309.563C397.193 309.647 397.605 309.649 398.13 309.568L399.447 309.36C400.24 309.233 400.888 309.275 401.392 309.486C401.894 309.695 402.263 310.08 402.5 310.642C402.693 311.103 402.733 311.571 402.62 312.046C402.511 312.519 402.264 312.959 401.881 313.367C401.497 313.774 400.993 314.109 400.368 314.372C399.547 314.716 398.793 314.823 398.106 314.693C397.418 314.562 396.859 314.185 396.429 313.56L397.479 312.774C397.773 313.161 398.12 313.397 398.522 313.483C398.927 313.567 399.383 313.503 399.889 313.291C400.466 313.049 400.872 312.734 401.108 312.348C401.346 311.956 401.393 311.587 401.248 311.242C401.13 310.962 400.934 310.769 400.66 310.663C400.383 310.553 400.023 310.536 399.578 310.611L398.105 310.86C397.295 310.995 396.64 310.951 396.14 310.73C395.642 310.503 395.277 310.112 395.044 309.557C394.853 309.103 394.812 308.648 394.92 308.192C395.032 307.734 395.268 307.312 395.628 306.927C395.992 306.54 396.456 306.228 397.022 305.991C397.818 305.656 398.517 305.568 399.118 305.727C399.722 305.884 400.24 306.209 400.673 306.701ZM405.302 312.103L401.924 304.056L403.16 303.537L406.538 311.584L405.302 312.103ZM401.989 302.451C401.748 302.552 401.506 302.557 401.263 302.466C401.023 302.374 400.854 302.213 400.757 301.982C400.661 301.752 400.663 301.518 400.766 301.282C400.871 301.045 401.045 300.876 401.286 300.775C401.527 300.673 401.767 300.669 402.007 300.761C402.251 300.852 402.421 301.013 402.518 301.243C402.614 301.474 402.61 301.708 402.504 301.945C402.402 302.181 402.23 302.35 401.989 302.451ZM412.247 309.385C411.472 309.71 410.731 309.82 410.025 309.714C409.321 309.602 408.687 309.301 408.124 308.811C407.563 308.315 407.109 307.655 406.763 306.831C406.417 306.007 406.262 305.217 406.299 304.463C406.337 303.703 406.553 303.033 406.946 302.453C407.342 301.868 407.902 301.423 408.629 301.118C409.048 300.942 409.491 300.838 409.958 300.806C410.426 300.774 410.893 300.845 411.36 301.019C411.826 301.189 412.266 301.489 412.681 301.919C413.095 302.349 413.46 302.939 413.776 303.69L413.996 304.214L407.793 306.818L407.344 305.749L412.29 303.673C412.099 303.219 411.838 302.852 411.507 302.572C411.179 302.29 410.806 302.116 410.388 302.049C409.973 301.981 409.542 302.041 409.095 302.229C408.603 302.435 408.228 302.737 407.971 303.132C407.716 303.523 407.573 303.952 407.544 304.42C407.515 304.889 407.593 305.345 407.779 305.788L408.079 306.501C408.334 307.108 408.655 307.579 409.042 307.914C409.431 308.244 409.86 308.439 410.33 308.501C410.798 308.559 411.281 308.484 411.781 308.274C412.106 308.138 412.38 307.969 412.604 307.768C412.83 307.563 413 307.327 413.114 307.061C413.227 306.792 413.277 306.495 413.265 306.172L414.6 306.006C414.644 306.464 414.583 306.909 414.415 307.341C414.245 307.769 413.978 308.161 413.614 308.515C413.247 308.866 412.792 309.156 412.247 309.385ZM420.468 298.391L419.489 299.172C419.341 299.016 419.163 298.879 418.953 298.762C418.746 298.639 418.503 298.569 418.224 298.55C417.945 298.532 417.626 298.598 417.266 298.749C416.773 298.956 416.411 299.242 416.178 299.607C415.947 299.966 415.904 300.319 416.049 300.665C416.178 300.972 416.392 301.168 416.69 301.252C416.988 301.337 417.4 301.339 417.925 301.258L419.242 301.05C420.035 300.922 420.683 300.965 421.187 301.176C421.689 301.384 422.059 301.77 422.295 302.332C422.488 302.793 422.529 303.261 422.416 303.735C422.306 304.209 422.06 304.649 421.676 305.056C421.293 305.464 420.788 305.799 420.163 306.061C419.342 306.406 418.588 306.513 417.901 306.383C417.213 306.252 416.654 305.875 416.224 305.25L417.274 304.464C417.568 304.85 417.915 305.086 418.317 305.173C418.722 305.257 419.178 305.193 419.685 304.981C420.261 304.739 420.667 304.424 420.903 304.038C421.141 303.646 421.188 303.277 421.043 302.931C420.926 302.652 420.729 302.459 420.455 302.353C420.179 302.243 419.818 302.225 419.373 302.301L417.9 302.55C417.09 302.685 416.435 302.641 415.935 302.42C415.438 302.193 415.072 301.802 414.839 301.247C414.648 300.793 414.607 300.338 414.716 299.881C414.827 299.424 415.063 299.002 415.423 298.617C415.787 298.23 416.251 297.918 416.817 297.68C417.614 297.346 418.312 297.258 418.913 297.417C419.517 297.574 420.035 297.899 420.468 298.391ZM425.219 294.277L425.658 295.325L421.488 297.075L421.048 296.027L425.219 294.277ZM421.454 293.589L422.691 293.07L425.911 300.74C426.057 301.089 426.218 301.33 426.392 301.462C426.569 301.589 426.75 301.649 426.936 301.641C427.123 301.628 427.308 301.583 427.49 301.507C427.626 301.45 427.735 301.396 427.816 301.345C427.896 301.291 427.96 301.248 428.008 301.215L428.726 302.22C428.655 302.287 428.551 302.367 428.414 302.462C428.279 302.56 428.096 302.657 427.865 302.754C427.516 302.901 427.142 302.969 426.744 302.96C426.349 302.949 425.977 302.836 425.628 302.621C425.283 302.405 425.012 302.062 424.815 301.594L421.454 293.589ZM430.166 290.4L429.682 289.248L437.729 285.87L438.213 287.022L434.839 288.439L438.86 298.015L437.56 298.561L433.54 288.984L430.166 290.4ZM444.071 295.827L440.693 287.78L441.929 287.261L445.307 295.308L444.071 295.827ZM440.759 286.175C440.518 286.277 440.275 286.282 440.032 286.191C439.792 286.099 439.623 285.937 439.527 285.707C439.43 285.476 439.433 285.243 439.535 285.007C439.64 284.769 439.814 284.6 440.055 284.499C440.296 284.398 440.536 284.393 440.776 284.486C441.02 284.577 441.19 284.737 441.287 284.968C441.384 285.198 441.379 285.432 441.273 285.67C441.171 285.906 441 286.074 440.759 286.175ZM447.572 294.358L444.194 286.311L445.388 285.809L445.916 287.067L446.021 287.023C446.008 286.523 446.139 286.076 446.413 285.681C446.685 285.283 447.084 284.974 447.608 284.754C448.138 284.532 448.631 284.467 449.085 284.56C449.541 284.647 449.958 284.864 450.338 285.21L450.422 285.175C450.453 284.673 450.624 284.213 450.933 283.796C451.241 283.375 451.683 283.043 452.26 282.801C452.979 282.499 453.662 282.478 454.309 282.736C454.954 282.991 455.475 283.592 455.873 284.538L458.134 289.924L456.897 290.443L454.636 285.057C454.387 284.464 454.047 284.107 453.615 283.989C453.183 283.87 452.747 283.903 452.307 284.088C451.741 284.326 451.375 284.681 451.207 285.153C451.039 285.623 451.064 286.118 451.282 286.638L453.481 291.877L452.224 292.405L449.91 286.893C449.718 286.436 449.415 286.13 449.001 285.975C448.585 285.817 448.144 285.836 447.676 286.032C447.354 286.167 447.09 286.379 446.882 286.667C446.678 286.954 446.554 287.286 446.511 287.661C446.469 288.032 446.531 288.415 446.697 288.809L448.808 293.839L447.572 294.358ZM463.838 287.726C463.063 288.052 462.322 288.161 461.616 288.055C460.912 287.944 460.279 287.643 459.715 287.152C459.154 286.657 458.7 285.997 458.354 285.173C458.008 284.348 457.853 283.559 457.89 282.804C457.928 282.044 458.144 281.375 458.538 280.794C458.933 280.21 459.494 279.765 460.22 279.46C460.639 279.284 461.082 279.18 461.55 279.148C462.017 279.116 462.484 279.187 462.952 279.36C463.417 279.531 463.858 279.831 464.272 280.26C464.687 280.69 465.052 281.281 465.367 282.031L465.587 282.555L459.384 285.159L458.935 284.091L463.881 282.014C463.69 281.56 463.429 281.193 463.098 280.913C462.771 280.632 462.398 280.458 461.979 280.391C461.564 280.323 461.133 280.383 460.686 280.57C460.194 280.777 459.819 281.078 459.562 281.474C459.307 281.864 459.165 282.294 459.135 282.762C459.106 283.23 459.185 283.686 459.371 284.13L459.67 284.842C459.925 285.45 460.246 285.921 460.633 286.256C461.022 286.585 461.451 286.781 461.921 286.843C462.389 286.901 462.873 286.825 463.372 286.616C463.697 286.479 463.971 286.311 464.195 286.11C464.421 285.904 464.591 285.668 464.705 285.403C464.818 285.133 464.869 284.837 464.856 284.514L466.191 284.347C466.236 284.805 466.174 285.25 466.006 285.682C465.837 286.111 465.57 286.502 465.205 286.857C464.839 287.208 464.383 287.497 463.838 287.726Z" fill="black"/>
<path d="M283.414 328.92L282.517 326.783L285.683 307.904L287.234 307.253L288.624 310.564L287.576 311.004L285.184 325.269L285.255 325.436L297.954 320.105L298.922 322.41L283.414 328.92ZM295.362 329.081L293.242 324.03L292.824 323.035L286.354 307.622L288.827 306.584L297.835 328.043L295.362 329.081Z" fill="black"/>
<path d="M281.005 362.63L276.501 351.9L280.126 350.379C280.964 350.027 281.712 349.881 282.37 349.942C283.027 349.999 283.589 350.221 284.055 350.608C284.522 350.996 284.888 351.506 285.153 352.138C285.419 352.77 285.525 353.385 285.472 353.982C285.419 354.58 285.183 355.13 284.766 355.634C284.348 356.134 283.723 356.559 282.892 356.908L279.958 358.14L279.465 356.966L282.357 355.752C282.93 355.512 283.356 355.234 283.635 354.92C283.917 354.604 284.072 354.26 284.1 353.886C284.131 353.508 284.055 353.104 283.875 352.674C283.695 352.245 283.457 351.903 283.161 351.649C282.866 351.395 282.505 351.255 282.079 351.229C281.651 351.199 281.148 351.305 280.568 351.549L278.284 352.508L282.304 362.084L281.005 362.63ZM284.032 355.69L288.696 359.401L287.187 360.035L282.565 356.306L284.032 355.69ZM293.527 357.57C292.8 357.875 292.09 357.97 291.397 357.854C290.707 357.737 290.078 357.432 289.509 356.94C288.945 356.446 288.488 355.783 288.139 354.952C287.787 354.113 287.632 353.318 287.673 352.565C287.718 351.811 287.94 351.147 288.34 350.572C288.743 349.996 289.308 349.556 290.034 349.251C290.761 348.946 291.469 348.852 292.159 348.969C292.852 349.084 293.482 349.391 294.049 349.889C294.618 350.385 295.079 351.052 295.431 351.89C295.78 352.721 295.931 353.512 295.885 354.263C295.842 355.012 295.619 355.675 295.216 356.251C294.816 356.825 294.253 357.265 293.527 357.57ZM293.061 356.459C293.612 356.228 294.007 355.896 294.245 355.463C294.482 355.031 294.59 354.548 294.567 354.015C294.545 353.482 294.421 352.947 294.195 352.409C293.969 351.871 293.673 351.406 293.307 351.013C292.941 350.621 292.519 350.356 292.043 350.219C291.567 350.082 291.052 350.13 290.501 350.361C289.949 350.593 289.555 350.927 289.319 351.363C289.083 351.799 288.977 352.285 289.001 352.821C289.024 353.358 289.149 353.895 289.375 354.433C289.601 354.97 289.896 355.434 290.261 355.823C290.625 356.212 291.045 356.474 291.52 356.607C291.995 356.74 292.509 356.691 293.061 356.459ZM302.68 349.66L300.683 344.904L301.919 344.385L305.298 352.431L304.061 352.95L303.489 351.588L303.406 351.624C303.389 352.111 303.241 352.582 302.963 353.036C302.684 353.486 302.24 353.838 301.632 354.093C301.13 354.304 300.636 354.382 300.153 354.326C299.668 354.267 299.22 354.061 298.808 353.708C298.396 353.351 298.046 352.83 297.758 352.146L295.612 347.032L296.848 346.513L298.96 351.543C299.206 352.13 299.567 352.529 300.041 352.74C300.52 352.95 301.016 352.947 301.529 352.732C301.837 352.603 302.116 352.393 302.368 352.102C302.623 351.81 302.791 351.456 302.871 351.041C302.955 350.623 302.891 350.163 302.68 349.66ZM307.684 341.965L308.123 343.012L303.953 344.763L303.513 343.715L307.684 341.965ZM303.919 341.277L305.156 340.758L308.376 348.428C308.522 348.777 308.683 349.018 308.857 349.15C309.034 349.277 309.215 349.337 309.401 349.329C309.588 349.316 309.773 349.271 309.955 349.195C310.091 349.137 310.2 349.084 310.281 349.033C310.361 348.979 310.425 348.936 310.473 348.903L311.191 349.908C311.12 349.975 311.016 350.055 310.879 350.15C310.744 350.248 310.561 350.345 310.33 350.442C309.981 350.589 309.607 350.657 309.209 350.648C308.814 350.637 308.442 350.524 308.093 350.309C307.748 350.092 307.477 349.75 307.28 349.282L303.919 341.277ZM316.279 348.018C315.504 348.344 314.763 348.454 314.057 348.347C313.353 348.236 312.72 347.935 312.156 347.445C311.595 346.949 311.141 346.289 310.795 345.465C310.449 344.641 310.294 343.851 310.331 343.096C310.369 342.337 310.585 341.667 310.978 341.087C311.374 340.502 311.935 340.057 312.661 339.752C313.08 339.576 313.523 339.472 313.991 339.44C314.458 339.408 314.925 339.479 315.392 339.653C315.858 339.823 316.298 340.123 316.713 340.553C317.128 340.982 317.493 341.573 317.808 342.324L318.028 342.848L311.825 345.452L311.376 344.383L316.322 342.307C316.131 341.853 315.87 341.486 315.539 341.206C315.211 340.924 314.838 340.75 314.42 340.683C314.005 340.615 313.574 340.675 313.127 340.863C312.635 341.069 312.26 341.37 312.003 341.766C311.748 342.156 311.606 342.586 311.576 343.054C311.547 343.522 311.625 343.978 311.812 344.422L312.111 345.134C312.366 345.742 312.687 346.213 313.074 346.548C313.463 346.878 313.892 347.073 314.362 347.135C314.83 347.193 315.314 347.117 315.813 346.908C316.138 346.771 316.412 346.603 316.636 346.402C316.862 346.196 317.032 345.961 317.146 345.695C317.259 345.426 317.309 345.129 317.297 344.806L318.632 344.64C318.677 345.098 318.615 345.543 318.447 345.975C318.278 346.403 318.011 346.795 317.646 347.149C317.28 347.5 316.824 347.79 316.279 348.018ZM324.5 337.025L323.521 337.805C323.374 337.65 323.195 337.513 322.986 337.396C322.778 337.273 322.535 337.203 322.256 337.184C321.977 337.166 321.658 337.232 321.298 337.383C320.806 337.59 320.443 337.876 320.21 338.24C319.979 338.6 319.936 338.953 320.081 339.299C320.21 339.606 320.424 339.802 320.722 339.886C321.021 339.971 321.432 339.972 321.957 339.892L323.275 339.684C324.067 339.556 324.716 339.598 325.219 339.81C325.722 340.018 326.091 340.403 326.327 340.966C326.52 341.427 326.561 341.895 326.448 342.369C326.338 342.842 326.092 343.283 325.708 343.69C325.325 344.098 324.82 344.433 324.195 344.695C323.375 345.04 322.62 345.147 321.933 345.016C321.246 344.886 320.687 344.509 320.256 343.884L321.306 343.098C321.6 343.484 321.948 343.72 322.349 343.806C322.755 343.891 323.21 343.827 323.717 343.614C324.293 343.372 324.699 343.058 324.936 342.671C325.174 342.28 325.22 341.911 325.075 341.565C324.958 341.286 324.762 341.093 324.487 340.986C324.211 340.876 323.85 340.859 323.406 340.935L321.932 341.184C321.122 341.319 320.467 341.275 319.967 341.054C319.47 340.827 319.104 340.436 318.871 339.881C318.681 339.427 318.639 338.972 318.748 338.515C318.86 338.058 319.096 337.636 319.456 337.251C319.819 336.864 320.284 336.552 320.849 336.314C321.646 335.98 322.344 335.892 322.945 336.051C323.549 336.208 324.067 336.533 324.5 337.025Z" fill="black"/>
<path d="M238.645 200.774L229.229 188.951L231.842 187.854L238.396 196.696L238.52 196.643L236.963 185.705L239.34 184.707L246.067 193.483L246.185 193.433L244.461 182.557L247.074 181.46L248.919 196.46L246.523 197.467L239.887 189.183L239.782 189.227L241.041 199.768L238.645 200.774ZM257.793 192.966C256.785 193.39 255.826 193.546 254.917 193.434C254.01 193.317 253.198 192.954 252.48 192.347C251.761 191.734 251.181 190.902 250.739 189.85C250.305 188.816 250.12 187.825 250.185 186.879C250.252 185.926 250.55 185.082 251.078 184.347C251.605 183.607 252.348 183.036 253.309 182.632C253.929 182.372 254.556 182.227 255.19 182.197C255.827 182.16 256.444 182.261 257.042 182.498C257.644 182.733 258.202 183.12 258.716 183.659C259.228 184.194 259.669 184.902 260.039 185.784L260.344 186.511L252.1 189.972L251.429 188.374L257.401 185.867C257.206 185.415 256.938 185.052 256.598 184.779C256.256 184.502 255.869 184.333 255.438 184.273C255.011 184.21 254.571 184.275 254.117 184.465C253.632 184.669 253.256 184.965 252.988 185.355C252.719 185.74 252.561 186.166 252.515 186.632C252.472 187.092 252.543 187.547 252.727 187.999L253.313 189.394C253.558 189.979 253.876 190.436 254.266 190.765C254.654 191.09 255.087 191.283 255.564 191.345C256.04 191.402 256.536 191.322 257.051 191.106C257.396 190.961 257.688 190.782 257.927 190.569C258.164 190.351 258.345 190.103 258.469 189.825C258.594 189.546 258.649 189.243 258.635 188.916L260.953 188.235C261.059 188.879 261.007 189.502 260.797 190.103C260.59 190.698 260.233 191.243 259.727 191.738C259.219 192.229 258.575 192.638 257.793 192.966ZM268.725 188.377C267.716 188.801 266.757 188.957 265.848 188.845C264.941 188.728 264.129 188.365 263.412 187.758C262.692 187.145 262.112 186.313 261.67 185.261C261.236 184.226 261.051 183.236 261.116 182.29C261.183 181.337 261.481 180.493 262.01 179.758C262.536 179.018 263.28 178.446 264.24 178.043C264.86 177.783 265.487 177.638 266.121 177.608C266.758 177.571 267.376 177.672 267.973 177.909C268.575 178.144 269.133 178.531 269.647 179.07C270.159 179.605 270.6 180.313 270.97 181.195L271.276 181.922L263.031 185.383L262.36 183.785L268.332 181.278C268.138 180.826 267.87 180.463 267.529 180.19C267.187 179.913 266.8 179.744 266.369 179.684C265.942 179.621 265.502 179.686 265.048 179.876C264.563 180.08 264.187 180.376 263.919 180.766C263.65 181.151 263.492 181.577 263.447 182.043C263.403 182.503 263.474 182.958 263.658 183.41L264.244 184.805C264.489 185.39 264.807 185.847 265.197 186.176C265.585 186.501 266.018 186.694 266.496 186.756C266.971 186.813 267.467 186.733 267.982 186.517C268.327 186.372 268.619 186.193 268.858 185.979C269.095 185.762 269.276 185.514 269.401 185.236C269.525 184.957 269.58 184.654 269.566 184.327L271.884 183.646C271.99 184.29 271.938 184.912 271.728 185.514C271.521 186.109 271.165 186.654 270.659 187.149C270.151 187.64 269.506 188.049 268.725 188.377ZM275.956 181.397L274.748 178.538L275.128 178.379L277.047 172.821L279.817 171.658L277.449 178.475L276.958 178.682L275.956 181.397ZM275.12 185.461L269.49 172.05L271.861 171.054L277.491 184.466L275.12 185.461ZM281.433 182.811L276.237 179.608L277.134 177.267L284.269 181.621L281.433 182.811ZM282.36 166.647L287.99 180.058L285.619 181.053L279.989 167.642L282.36 166.647ZM293.485 182.188C293.162 182.324 292.852 182.423 292.555 182.486C292.264 182.552 292.024 182.586 291.835 182.588L291.61 180.511C291.997 180.466 292.325 180.385 292.593 180.267C292.862 180.149 293.064 179.964 293.2 179.712C293.342 179.463 293.405 179.118 293.39 178.677L293.364 178.049L285.406 169.312L287.921 168.256L293.428 174.879L293.533 174.835L292.669 166.263L295.19 165.204L295.896 178.172C295.932 178.783 295.875 179.344 295.724 179.854C295.576 180.368 295.319 180.82 294.953 181.21C294.594 181.602 294.105 181.928 293.485 182.188ZM308.938 159.826C308.637 159.279 308.192 158.942 307.604 158.814C307.021 158.684 306.369 158.77 305.649 159.073C305.142 159.285 304.74 159.544 304.442 159.849C304.144 160.154 303.953 160.478 303.871 160.82C303.789 161.163 303.816 161.503 303.953 161.841C304.07 162.121 304.235 162.336 304.448 162.488C304.665 162.639 304.915 162.739 305.199 162.79C305.48 162.836 305.776 162.85 306.087 162.833C306.398 162.815 306.705 162.781 307.007 162.731L308.397 162.518C308.953 162.423 309.506 162.378 310.058 162.383C310.613 162.386 311.141 162.462 311.64 162.612C312.144 162.76 312.596 163.004 312.996 163.345C313.395 163.685 313.717 164.146 313.961 164.726C314.291 165.512 314.38 166.289 314.23 167.055C314.078 167.818 313.692 168.526 313.074 169.181C312.458 169.83 311.613 170.38 310.539 170.831C309.495 171.269 308.522 171.488 307.618 171.487C306.718 171.485 305.922 171.265 305.229 170.826C304.541 170.386 303.993 169.728 303.584 168.852L305.974 167.848C306.205 168.301 306.512 168.629 306.896 168.832C307.279 169.036 307.706 169.129 308.176 169.111C308.651 169.092 309.141 168.976 309.648 168.763C310.176 168.542 310.606 168.269 310.937 167.945C311.271 167.615 311.492 167.26 311.599 166.881C311.705 166.497 311.68 166.113 311.523 165.727C311.372 165.379 311.149 165.134 310.852 164.992C310.555 164.844 310.192 164.771 309.766 164.77C309.342 164.763 308.864 164.799 308.332 164.879L306.642 165.126C305.418 165.306 304.364 165.243 303.481 164.936C302.6 164.623 301.957 163.986 301.554 163.026C301.222 162.235 301.146 161.454 301.324 160.68C301.507 159.905 301.901 159.198 302.506 158.559C303.109 157.916 303.88 157.397 304.818 157.003C305.77 156.603 306.673 156.419 307.529 156.45C308.387 156.475 309.143 156.694 309.799 157.107C310.454 157.515 310.946 158.094 311.276 158.844L308.938 159.826ZM318.403 155.459L319.173 157.293L313.39 159.72L312.621 157.887L318.403 155.459ZM313.036 154.878L315.407 153.882L319.371 163.326C319.505 163.644 319.656 163.869 319.823 163.998C319.993 164.122 320.172 164.181 320.359 164.174C320.546 164.167 320.738 164.123 320.935 164.04C321.083 163.978 321.214 163.91 321.327 163.837C321.444 163.762 321.532 163.702 321.59 163.657L322.768 165.343C322.66 165.44 322.498 165.564 322.285 165.715C322.075 165.865 321.804 166.014 321.472 166.164C320.885 166.431 320.313 166.566 319.755 166.569C319.195 166.568 318.687 166.417 318.231 166.115C317.78 165.811 317.425 165.344 317.166 164.714L313.036 154.878ZM327.588 163.674C326.951 163.941 326.329 164.069 325.723 164.056C325.119 164.037 324.575 163.865 324.089 163.54C323.608 163.213 323.229 162.72 322.952 162.061C322.714 161.494 322.621 160.98 322.675 160.521C322.729 160.062 322.89 159.645 323.159 159.271C323.428 158.896 323.766 158.556 324.172 158.252C324.581 157.942 325.019 157.658 325.486 157.4C326.05 157.092 326.505 156.836 326.851 156.634C327.196 156.428 327.429 156.238 327.551 156.063C327.676 155.883 327.69 155.679 327.595 155.452L327.578 155.413C327.371 154.919 327.065 154.599 326.659 154.451C326.252 154.303 325.774 154.344 325.224 154.575C324.644 154.819 324.236 155.139 324.002 155.535C323.772 155.93 323.671 156.324 323.698 156.718L321.352 157.333C321.27 156.649 321.344 156.017 321.573 155.438C321.801 154.855 322.162 154.338 322.656 153.889C323.149 153.436 323.747 153.062 324.45 152.767C324.934 152.563 325.44 152.418 325.968 152.33C326.496 152.241 327.014 152.245 327.521 152.34C328.026 152.431 328.493 152.649 328.92 152.993C329.351 153.336 329.707 153.841 329.988 154.509L332.814 161.241L330.535 162.198L329.955 160.816L329.876 160.849C329.849 161.189 329.756 161.536 329.597 161.89C329.44 162.239 329.197 162.569 328.866 162.883C328.538 163.19 328.112 163.454 327.588 163.674ZM327.472 161.673C327.948 161.473 328.321 161.206 328.592 160.872C328.86 160.533 329.023 160.167 329.078 159.774C329.138 159.379 329.091 158.996 328.935 158.625L328.437 157.44C328.389 157.532 328.286 157.642 328.129 157.77C327.976 157.895 327.799 158.024 327.597 158.155C327.395 158.285 327.194 158.411 326.993 158.531C326.792 158.652 326.617 158.756 326.469 158.844C326.136 159.04 325.852 159.252 325.619 159.478C325.385 159.705 325.229 159.95 325.15 160.214C325.069 160.474 325.093 160.757 325.221 161.062C325.404 161.499 325.702 161.762 326.114 161.851C326.526 161.939 326.979 161.88 327.472 161.673ZM335.997 148.073L336.767 149.907L330.985 152.334L330.215 150.501L335.997 148.073ZM330.631 147.491L333.002 146.496L336.966 155.939C337.1 156.258 337.25 156.482 337.418 156.612C337.588 156.736 337.766 156.794 337.954 156.788C338.141 156.781 338.333 156.736 338.529 156.654C338.678 156.592 338.808 156.524 338.921 156.451C339.039 156.376 339.127 156.316 339.185 156.271L340.362 157.956C340.254 158.053 340.093 158.177 339.879 158.329C339.67 158.478 339.399 158.628 339.066 158.778C338.48 159.045 337.908 159.18 337.349 159.183C336.789 159.182 336.281 159.03 335.826 158.729C335.375 158.425 335.02 157.958 334.76 157.327L330.631 147.491ZM346.902 146.622L344.84 147.765C344.687 147.573 344.494 147.412 344.261 147.285C344.032 147.155 343.766 147.084 343.463 147.073C343.16 147.061 342.826 147.132 342.459 147.286C341.966 147.493 341.596 147.774 341.349 148.129C341.107 148.483 341.06 148.828 341.207 149.167C341.326 149.462 341.533 149.655 341.828 149.746C342.128 149.836 342.558 149.833 343.118 149.736L344.988 149.383C346.025 149.188 346.869 149.217 347.519 149.468C348.173 149.717 348.653 150.201 348.96 150.919C349.222 151.554 349.271 152.191 349.107 152.829C348.947 153.462 348.6 154.049 348.067 154.591C347.535 155.133 346.85 155.58 346.011 155.932C344.78 156.448 343.681 156.607 342.714 156.407C341.745 156.203 340.994 155.668 340.461 154.803L342.68 153.61C342.975 154.02 343.342 154.269 343.779 154.358C344.217 154.446 344.709 154.376 345.254 154.147C345.817 153.91 346.221 153.605 346.464 153.23C346.712 152.854 346.764 152.496 346.621 152.155C346.5 151.867 346.289 151.676 345.988 151.582C345.691 151.486 345.29 151.485 344.785 151.578L342.918 151.939C341.869 152.143 341.013 152.104 340.35 151.822C339.686 151.536 339.202 151.026 338.898 150.291C338.634 149.672 338.576 149.065 338.726 148.468C338.879 147.865 339.208 147.31 339.715 146.805C340.224 146.293 340.881 145.869 341.684 145.532C342.863 145.037 343.896 144.898 344.783 145.116C345.675 145.333 346.381 145.835 346.902 146.622Z" fill="black"/>
<line x1="181.796" y1="245.559" x2="426.979" y2="142.629" stroke="#575757" stroke-width="3"/>
<path d="M169.717 173.678L163.691 158.801L168.224 156.965L166.751 153.328L153.261 158.791L154.735 162.429L159.276 160.589L165.302 175.466L169.717 173.678ZM180.224 156.662L178.157 152.501C176.893 153.473 175.837 154.911 174.998 156.809L172.79 155.184L170.624 156.061L176.626 170.88L181.041 169.091L177.225 159.67C177.737 158.826 179.255 157.319 180.224 156.662ZM187.232 148.923C184.864 149.882 182.611 151.197 181.062 152.53L182.874 155.383C184.594 154.108 186.307 153.13 188.001 152.444C189.012 152.035 189.792 151.807 190.354 151.765L191.364 154.257L190.706 154.524C188.415 155.452 186.747 156.274 185.71 157.008C183.672 158.441 183.305 159.932 184.41 162.66C185.774 166.028 187.774 166.776 191.178 165.398C193.158 164.596 194.631 163.293 195.591 161.474L197.354 162.485L199.486 161.621L195.226 151.105C193.74 147.434 191.158 147.333 187.232 148.923ZM191.731 161.557L189.119 162.615L188.109 160.123C187.571 158.793 188.242 158.344 189.734 157.74L192.346 156.682L193.379 159.233C193.897 160.513 193.18 160.97 191.731 161.557ZM205.095 145.903L207.766 144.821L212.444 156.372L216.86 154.584L211.905 142.351C211.025 140.178 208.76 140.204 206.384 141.166C204.151 142.071 202.496 143.457 201.406 145.319L199.652 144.305L197.52 145.168L203.521 159.986L207.937 158.198L203.783 147.943C203.333 146.832 203.873 146.398 205.095 145.903ZM215.822 142.724C216.842 145.242 217.985 145.837 220.255 145.653C221.453 145.56 223.239 145.199 225.606 144.554L226.568 146.928C225.705 147.532 224.873 147.997 224.064 148.324C222.32 149.031 220.592 149.368 218.889 149.352L219.635 152.911C221.759 152.757 223.865 152.266 225.938 151.427C230.168 149.713 232.369 147.714 230.797 143.833C229.822 141.425 228.426 140.883 226.196 141.022C224.946 141.107 223.227 141.44 221.023 142.029L220.089 139.722C220.845 139.19 221.781 138.694 222.91 138.236C224.191 137.717 225.437 137.379 226.647 137.242L225.916 133.912C224.02 134.17 222.056 134.721 220.025 135.543C216.208 137.089 214.376 139.154 215.822 142.724ZM240.14 145.155L234.091 130.219L229.909 132.608L235.717 146.947L240.14 145.155ZM231.196 129.294C233.1 128.523 233.411 127.789 232.637 125.878C231.859 123.958 231.1 123.609 229.204 124.377C227.258 125.165 226.928 125.926 227.716 127.871C228.494 129.791 229.258 130.079 231.196 129.294ZM248.195 142.304C249.03 141.966 250.023 141.417 251.181 140.644L250.181 137.57C249.501 137.826 248.836 138.026 248.18 138.174L244.651 129.46L246.993 128.511L245.817 125.607L243.474 126.555L241.902 122.674L237.934 125.565L239.059 128.344L237.281 129.064L238.458 131.969L240.236 131.248L244.113 140.821C244.894 142.749 246.215 143.106 248.195 142.304ZM266.903 133.933L265.028 130.419C263.795 131.468 262.34 132.331 260.655 133.014C259.669 133.413 258.648 133.7 257.593 133.882L253.74 124.368C252.98 122.49 253.858 121.801 255.889 120.979C257.085 120.494 259.188 119.995 260.296 119.85L259.422 116.068C258.338 116.056 255.876 116.711 254.52 117.26C252.422 118.11 250.937 119.044 250.048 120.071C247.956 122.486 248.785 125.767 250.568 130.17C251.608 132.738 252.625 134.62 253.611 135.818C255.669 138.307 258.1 138.4 261.933 136.848C264.124 135.96 265.583 135.154 266.903 133.933ZM271.786 118.891L274.002 117.994L278.68 129.545L283.104 127.754L278.149 115.52C277.269 113.348 274.996 113.377 272.628 114.336C270.749 115.097 269.344 116.107 268.4 117.362L266.109 111.704L261.911 113.786L269.757 133.159L274.181 131.368L270.102 121.298C269.564 119.968 270.294 119.496 271.786 118.891ZM287.272 108.405C284.904 109.364 282.651 110.678 281.111 112.008L282.923 114.861C284.635 113.589 286.347 112.611 288.049 111.922C289.052 111.516 289.833 111.288 290.395 111.247L291.404 113.739L290.755 114.002C288.455 114.933 286.787 115.756 285.75 116.489C283.712 117.922 283.345 119.414 284.45 122.142C285.814 125.509 287.822 126.254 291.218 124.879C293.198 124.077 294.671 122.775 295.64 120.952L297.394 121.966L299.526 121.102L295.267 110.587C293.78 106.916 291.207 106.811 287.272 108.405ZM291.771 121.039L289.159 122.096L288.15 119.604C287.611 118.274 288.283 117.826 289.774 117.222L292.386 116.164L293.419 118.715C293.938 119.994 293.22 120.452 291.771 121.039ZM307.438 118.31C308.272 117.972 309.266 117.422 310.424 116.649L309.424 113.575C308.743 113.831 308.079 114.032 307.423 114.18L303.893 105.466L306.236 104.517L305.059 101.612L302.717 102.561L301.145 98.6796L297.176 101.571L298.302 104.349L296.524 105.069L297.7 107.974L299.478 107.254L303.355 116.827C304.136 118.755 305.458 119.112 307.438 118.31Z" fill="#333333"/>
<path d="M127.396 213.709L127.536 213.652C131.956 211.861 135.889 209.048 139.011 205.443C142.132 201.838 144.354 197.545 145.494 192.916C146.633 188.287 146.658 183.455 145.565 178.816C144.473 174.177 142.294 169.864 139.209 166.231C130.671 180.356 127.528 203.996 127.396 213.709ZM123.859 162.301C124.27 162.063 100.995 177.691 88.1401 196.691L88.2849 197.049C90.0077 201.11 92.5457 204.774 95.7421 207.815C105.772 186.852 115.671 175.764 133.179 160.801C128.599 157.689 123.249 155.9 117.716 155.628C112.183 155.357 106.682 156.614 101.816 159.263C96.9505 161.911 92.9082 165.848 90.1333 170.641C87.3585 175.435 85.9583 180.899 86.0867 186.433C99.1944 173.279 117.182 165.603 123.859 162.301Z" fill="#F15A24"/>
<path d="M137.727 164.594C136.777 163.636 135.763 162.743 134.693 161.922C113.574 179.004 103.702 200.436 100.161 211.224C105.3 214.447 111.292 216.05 117.357 215.824C118.76 205.7 124.13 184.797 137.727 164.594Z" fill="#619A3F"/>
<g filter="url(#filter5_d_425_91)">
<path d="M109.232 344.361L409.932 402.212L550.571 160.611L689.556 494.431L248.217 678.181L109.232 344.361Z" fill="#F7F4F4"/>
</g>
</g>
</g>
<defs>
<filter id="filter0_d_425_91" x="0.187744" y="0.460693" width="600.431" height="534.008" filterUnits="userSpaceOnUse" color-interpolation-filters="sRGB">
<feFlood flood-opacity="0" result="BackgroundImageFix"/>
<feColorMatrix in="SourceAlpha" type="matrix" values="0 0 0 0 0 0 0 0 0 0 0 0 0 0 0 0 0 0 127 0" result="hardAlpha"/>
<feOffset dx="4" dy="4"/>
<feGaussianBlur stdDeviation="5"/>
<feComposite in2="hardAlpha" operator="out"/>
<feColorMatrix type="matrix" values="0 0 0 0 0 0 0 0 0 0 0 0 0 0 0 0 0 0 0.25 0"/>
<feBlend mode="normal" in2="BackgroundImageFix" result="effect1_dropShadow_425_91"/>
<feBlend mode="normal" in="SourceGraphic" in2="effect1_dropShadow_425_91" result="shape"/>
</filter>
<filter id="filter1_d_425_91" x="2.18774" y="6.46069" width="588.431" height="522.008" filterUnits="userSpaceOnUse" color-interpolation-filters="sRGB">
<feFlood flood-opacity="0" result="BackgroundImageFix"/>
<feColorMatrix in="SourceAlpha" type="matrix" values="0 0 0 0 0 0 0 0 0 0 0 0 0 0 0 0 0 0 127 0" result="hardAlpha"/>
<feOffset dy="4"/>
<feGaussianBlur stdDeviation="2"/>
<feComposite in2="hardAlpha" operator="out"/>
<feColorMatrix type="matrix" values="0 0 0 0 0 0 0 0 0 0 0 0 0 0 0 0 0 0 0.05 0"/>
<feBlend mode="normal" in2="BackgroundImageFix" result="effect1_dropShadow_425_91"/>
<feBlend mode="normal" in="SourceGraphic" in2="effect1_dropShadow_425_91" result="shape"/>
</filter>
<filter id="filter2_d_425_91" x="97.4543" y="47.3699" width="467.82" height="444.444" filterUnits="userSpaceOnUse" color-interpolation-filters="sRGB">
<feFlood flood-opacity="0" result="BackgroundImageFix"/>
<feColorMatrix in="SourceAlpha" type="matrix" values="0 0 0 0 0 0 0 0 0 0 0 0 0 0 0 0 0 0 127 0" result="hardAlpha"/>
<feOffset dx="-10" dy="10"/>
<feGaussianBlur stdDeviation="2.5"/>
<feComposite in2="hardAlpha" operator="out"/>
<feColorMatrix type="matrix" values="0 0 0 0 0 0 0 0 0 0 0 0 0 0 0 0 0 0 0.25 0"/>
<feBlend mode="normal" in2="BackgroundImageFix" result="effect1_dropShadow_425_91"/>
<feBlend mode="normal" in="SourceGraphic" in2="effect1_dropShadow_425_91" result="shape"/>
</filter>
<filter id="filter3_d_425_91" x="29.8889" y="-19.1106" width="595.279" height="575.915" filterUnits="userSpaceOnUse" color-interpolation-filters="sRGB">
<feFlood flood-opacity="0" result="BackgroundImageFix"/>
<feColorMatrix in="SourceAlpha" type="matrix" values="0 0 0 0 0 0 0 0 0 0 0 0 0 0 0 0 0 0 127 0" result="hardAlpha"/>
<feOffset dx="-4" dy="10"/>
<feGaussianBlur stdDeviation="2.5"/>
<feComposite in2="hardAlpha" operator="out"/>
<feColorMatrix type="matrix" values="0 0 0 0 0 0 0 0 0 0 0 0 0 0 0 0 0 0 0.25 0"/>
<feBlend mode="normal" in2="BackgroundImageFix" result="effect1_dropShadow_425_91"/>
<feBlend mode="normal" in="SourceGraphic" in2="effect1_dropShadow_425_91" result="shape"/>
</filter>
<filter id="filter4_d_425_91" x="29.8889" y="-19.1106" width="595.279" height="575.915" filterUnits="userSpaceOnUse" color-interpolation-filters="sRGB">
<feFlood flood-opacity="0" result="BackgroundImageFix"/>
<feColorMatrix in="SourceAlpha" type="matrix" values="0 0 0 0 0 0 0 0 0 0 0 0 0 0 0 0 0 0 127 0" result="hardAlpha"/>
<feOffset dx="-4" dy="10"/>
<feGaussianBlur stdDeviation="2.5"/>
<feComposite in2="hardAlpha" operator="out"/>
<feColorMatrix type="matrix" values="0 0 0 0 0 0 0 0 0 0 0 0 0 0 0 0 0 0 0.25 0"/>
<feBlend mode="normal" in2="BackgroundImageFix" result="effect1_dropShadow_425_91"/>
<feBlend mode="normal" in="SourceGraphic" in2="effect1_dropShadow_425_91" result="shape"/>
</filter>
<filter id="filter5_d_425_91" x="94.2322" y="160.611" width="595.324" height="532.57" filterUnits="userSpaceOnUse" color-interpolation-filters="sRGB">
<feFlood flood-opacity="0" result="BackgroundImageFix"/>
<feColorMatrix in="SourceAlpha" type="matrix" values="0 0 0 0 0 0 0 0 0 0 0 0 0 0 0 0 0 0 127 0" result="hardAlpha"/>
<feOffset dx="-10" dy="10"/>
<feGaussianBlur stdDeviation="2.5"/>
<feComposite in2="hardAlpha" operator="out"/>
<feColorMatrix type="matrix" values="0 0 0 0 0 0 0 0 0 0 0 0 0 0 0 0 0 0 0.25 0"/>
<feBlend mode="normal" in2="BackgroundImageFix" result="effect1_dropShadow_425_91"/>
<feBlend mode="normal" in="SourceGraphic" in2="effect1_dropShadow_425_91" result="shape"/>
</filter>
</defs>
</svg>
