<svg width="589" height="523" viewBox="0 0 589 523" fill="none" xmlns="http://www.w3.org/2000/svg">
<g filter="url(#filter0_d_432_173)">
<rect x="19.4712" y="15.4607" width="550.431" height="484.008" rx="30" fill="#F1F1F1"/>
<rect x="11.9712" y="7.96069" width="565.431" height="499.008" rx="37.5" stroke="#E1DFDF" stroke-width="15"/>
</g>
<mask id="mask0_432_173" style="mask-type:alpha" maskUnits="userSpaceOnUse" x="19" y="15" width="551" height="485">
<rect x="19.4712" y="15.4607" width="550.431" height="484.008" rx="30" fill="white"/>
</mask>
<g mask="url(#mask0_432_173)">
<rect x="49.4858" y="4.67236" width="497.874" height="497.874" fill="#EDE7DB"/>
<path d="M8.26904 206.763H225.752V314.41H8.26904V206.763Z" fill="#B5D379"/>
<path d="M8.26904 383.717L224.854 373.409L168.703 513.663L19.3709 509.163L8.26904 383.717Z" fill="#B5D379"/>
<path d="M157.186 283.763C157.186 295.501 141.446 305.017 122.029 305.017C102.613 305.017 86.8724 295.501 86.8724 283.763C86.8724 272.024 85.9865 240.747 105.403 240.747C124.82 240.747 157.186 272.024 157.186 283.763Z" fill="#5BAFB2"/>
<path d="M150.183 249.297C150.183 259.477 151.073 269.592 129.839 269.592C108.605 269.592 91.3911 261.341 91.3911 251.161C91.3911 240.982 91.3911 224.461 122.238 224.461C143.45 227.327 150.183 239.118 150.183 249.297Z" fill="#5BAFB2"/>
<path d="M8.27002 -24.4286L256.397 -24.4287L225.753 83.2182L8.27002 99.1128V-24.4286Z" fill="#B5D379"/>
<path d="M361.856 370.064H579.339L569.403 504.462H409.183V416.855L324.732 423.169L361.856 370.064Z" fill="#B5D379"/>
<path d="M592.163 508.686C592.163 520.425 576.422 529.94 557.006 529.94C537.589 529.94 521.848 520.425 521.848 508.686C521.848 496.947 520.963 465.67 540.379 465.67C559.796 465.67 592.163 496.947 592.163 508.686Z" fill="#5BAFB2"/>
<path d="M465.635 450.827C465.635 458.272 466.286 465.67 450.756 465.67C435.227 465.67 422.637 459.635 422.637 452.19C422.637 444.745 422.637 432.663 445.197 432.663C460.711 434.759 465.635 443.382 465.635 450.827Z" fill="#5BAFB2"/>
<path d="M386.362 126.437L386.362 86.303L450.809 76.8118L457.601 102.031H605.128V204.84H379.934L386.362 126.437Z" fill="#B5D379"/>
<path d="M12.7319 63.6028L132.202 193.184L141.162 63.6028V-69.3075H132.202L53.0532 -142.483" stroke="white" stroke-width="10"/>
<path d="M11.2383 147.232L212.844 126.324L256.152 -21.5197H339.781L307.493 126.324M307.493 126.324L283.033 238.327L226.284 372.556M307.493 126.324L619.042 139.765L630.989 314.489H-8.17546V535.509L84.9963 517.649L75.4297 435.536L128.843 451.481L144.81 427.986M377.115 -139.496H521.972L511.519 65.0959L387.569 86.0031L377.115 229.367L366.662 365.264L321.86 427.986V623.618H492.105V414.545L249.222 427.986H144.81M144.81 427.986L226.284 205.473H-32.0693M144.81 427.986L226.284 372.556M-32.0693 205.473H639.949M-32.0693 205.473V269.216L185.292 175.277L193.194 86.0031M193.194 86.0031L-15.04 101.698L-1.08016 -64.6559L193.194 -85.5956V86.0031ZM193.194 86.0031L443.306 44.6958L454.94 101.698H649.213L639.949 -32.083H366.662L256.152 610.067L140.844 579.821L226.284 372.556M226.284 372.556L11.2383 383.221" stroke="white" stroke-width="10"/>
<path d="M366.527 366.934H411.897M411.897 366.934H592.211L610.824 604.251L404.917 590.291L411.897 366.934ZM411.897 366.934L541.779 135.878" stroke="white" stroke-width="10"/>
<path d="M214.338 -42.427L21.6924 221.9L266.606 537.002L575.734 439.933L390.556 301.049L625.015 44.1886" stroke="#FFE976" stroke-width="20"/>
<path d="M406.509 590.923L412.519 365.564H365.944L347.165 390.354L305.849 311.478H371.203L377.964 204.057H224.72L214.954 125.933L85.2654 134.111L196.575 -17.2378" stroke="#187EDD" stroke-width="15"/>
<circle cx="224.763" cy="115.228" r="43.3754" fill="white" stroke="#F00101" stroke-width="17"/>
<circle cx="428.283" cy="358.427" r="50.3922" fill="white" stroke="#F00101" stroke-width="20"/>
</g>
<path d="M230.927 89.3644L229.751 125.697H219.243L218.067 89.3644H230.927ZM224.484 142.47C222.66 142.47 221.092 141.822 219.78 140.526C218.484 139.231 217.837 137.663 217.837 135.822C217.837 134.015 218.484 132.472 219.78 131.194C221.092 129.898 222.66 129.251 224.484 129.251C226.24 129.251 227.783 129.898 229.112 131.194C230.459 132.472 231.132 134.015 231.132 135.822C231.132 137.049 230.817 138.166 230.186 139.171C229.572 140.177 228.763 140.978 227.757 141.575C226.768 142.171 225.677 142.47 224.484 142.47Z" fill="#F00101"/>
<path d="M433.55 331.825L432.374 368.157H421.865L420.689 331.825H433.55ZM427.107 384.93C425.283 384.93 423.715 384.282 422.402 382.987C421.107 381.691 420.459 380.123 420.459 378.282C420.459 376.475 421.107 374.933 422.402 373.654C423.715 372.359 425.283 371.711 427.107 371.711C428.863 371.711 430.405 372.359 431.735 373.654C433.081 374.933 433.755 376.475 433.755 378.282C433.755 379.509 433.439 380.626 432.809 381.631C432.195 382.637 431.385 383.438 430.38 384.035C429.391 384.631 428.3 384.93 427.107 384.93Z" fill="#F00101"/>
<defs>
<filter id="filter0_d_432_173" x="0.471191" y="0.460693" width="588.431" height="522.008" filterUnits="userSpaceOnUse" color-interpolation-filters="sRGB">
<feFlood flood-opacity="0" result="BackgroundImageFix"/>
<feColorMatrix in="SourceAlpha" type="matrix" values="0 0 0 0 0 0 0 0 0 0 0 0 0 0 0 0 0 0 127 0" result="hardAlpha"/>
<feOffset dy="4"/>
<feGaussianBlur stdDeviation="2"/>
<feComposite in2="hardAlpha" operator="out"/>
<feColorMatrix type="matrix" values="0 0 0 0 0 0 0 0 0 0 0 0 0 0 0 0 0 0 0.05 0"/>
<feBlend mode="normal" in2="BackgroundImageFix" result="effect1_dropShadow_432_173"/>
<feBlend mode="normal" in="SourceGraphic" in2="effect1_dropShadow_432_173" result="shape"/>
</filter>
</defs>
</svg>
